<svg width="1224" height="1463" viewBox="0 0 1224 1463" fill="none" xmlns="http://www.w3.org/2000/svg">
<path d="M740.127 978.794L742.02 985.105L739.811 994.886L742.651 1004.35L739.811 1011.92L741.073 1018.87L704.154 1018.55L701.63 1083.23L712.989 1099.64L724.349 1112.26L691.532 1120.46L648.933 1117.62L636.942 1108.16L565.312 1108.79L562.788 1110.37L552.374 1101.22L541.015 1100.58L530.286 1104.06L521.766 1107.84L520.188 1095.22L523.029 1077.24L529.34 1058.62L530.286 1050.1L536.281 1031.8L540.699 1023.6L551.113 1010.35L557.108 1001.2L559.001 986.367L558.054 974.693L553.006 967.436L548.273 955.13L544.17 943.141L545.117 938.723L550.481 930.835L545.432 911.273L541.646 897.706L532.81 884.77L534.704 880.983L541.962 878.144L547.326 878.459L553.637 876.25L606.334 876.566L610.436 891.395L615.484 903.701L619.587 910.327L626.213 920.739L638.204 919.161L643.884 916.321L653.666 919.161L656.506 914.113L661.239 902.439L672.283 901.492L673.23 898.021H682.381L680.804 905.278L702.261 904.963L702.577 917.899L706.047 925.471L703.207 937.777L704.47 950.398L710.149 957.97L708.888 981.949L713.305 980.056L720.878 980.687L731.922 977.532L740.127 978.794Z" fill="#5C3127" stroke="black" stroke-width="0.2" stroke-linecap="round" stroke-linejoin="round"/>
<path d="M532.18 874.673L527.446 859.528L534.704 850.693L540.068 847.223L546.695 854.164L540.384 858.581L537.228 863.63L536.597 872.464L532.18 874.673Z" fill="#5C3127" stroke="black" stroke-width="0.2" stroke-linecap="round" stroke-linejoin="round"/>
<path d="M846.468 847.538L844.575 847.853V846.907L838.264 827.66L838.232 827.471L837.948 824.189L833.53 815.039L844.575 816.617L849.939 804.943L859.721 806.205L860.667 814.093L864.454 818.826V825.452L860.036 829.553L852.779 840.281L846.468 847.538Z" fill="#5C3127" stroke="black" stroke-width="0.2" stroke-linecap="round" stroke-linejoin="round"/>
<path d="M378.823 521.291L378.192 527.917L382.294 539.907L378.823 548.11L380.716 553.474L371.881 566.095L366.516 572.405L363.045 585.026L363.677 597.962L362.73 630.461L347.899 632.985L343.481 619.102L344.428 572.405L340.641 568.303L340.01 558.207L333.699 551.265L328.335 545.27L330.544 534.543L336.855 532.334L340.326 523.5L349.161 521.606L352.948 515.612L358.943 509.617H365.254L378.823 521.291Z" fill="#5C3127" stroke="black" stroke-width="0.2" stroke-linecap="round" stroke-linejoin="round"/>
<path d="M321.392 455.032L319.814 464.813L322.339 473.963L332.121 487.215L332.752 496.996L353.263 501.729L352.947 515.612L349.161 521.607L340.325 523.5L336.854 532.334L330.543 534.543L315.081 534.227L306.877 532.65L301.197 535.805L293.308 534.227L262.384 535.174L261.753 546.848L264.278 561.993L251.971 556.945L243.767 557.576L237.456 562.624L229.567 558.522L226.412 551.581L218.523 547.164L217.261 535.49L222.309 526.97L221.679 520.029L235.878 503.307L238.718 489.424L243.451 484.375L251.971 487.215L259.545 483.113L262.069 477.75L275.637 468.915L279.108 462.605L295.833 454.086L305.615 451.246L310.033 455.032H321.392Z" fill="#5C3127" stroke="black" stroke-width="0.2" stroke-linecap="round" stroke-linejoin="round"/>
<path d="M760.322 1116.68L766.318 1132.77L769.789 1136.55L774.837 1148.23L794.086 1170.31L801.344 1172.52L801.028 1179.78L805.761 1192.72L819.33 1195.87L830.059 1205.02L804.499 1219.85L788.091 1235L781.78 1248.56L776.1 1256.14L766.633 1257.71L762.847 1267.49L760.953 1273.8L749.593 1278.22L735.394 1277.28L727.505 1271.6L720.247 1269.39L711.412 1273.8L706.679 1283.59L698.159 1289.58L689.323 1298.73L676.701 1300.94L673.23 1293.68L675.124 1281.38L665.657 1262.13L661.239 1258.98L663.133 1199.97L680.488 1199.34L683.012 1127.09L696.266 1126.46L723.718 1119.2L730.029 1127.72L741.705 1119.83H747.069L757.167 1115.1L760.322 1116.68Z" fill="#5C3127" stroke="black" stroke-width="0.2" stroke-linecap="round" stroke-linejoin="round"/>
<path d="M740.443 582.817L752.749 590.705L762.532 598.909L762.847 605.535L775.154 615.947L782.726 624.781L787.144 636.771L800.713 644.975L803.553 651.285L797.873 653.494L786.198 653.178L772.945 650.969L766.318 652.547L763.478 657.595L757.798 658.226L750.856 653.809L730.977 663.906L722.772 662.013L720.248 663.59L715.199 675.895L701.63 671.794L688.693 669.901L677.333 662.328L662.502 655.387L653.036 662.013L646.094 672.109L644.516 686.308L633.156 685.361L620.85 681.89L610.436 692.618L600.97 711.549L599.077 705.554L598.13 696.404L589.926 689.778L583.299 679.366L581.721 672.109L573.202 661.382L574.779 655.387L572.886 646.868L574.148 631.092L578.566 627.621L587.401 607.112L601.917 605.535L605.072 600.171L608.228 600.802L612.645 605.219L635.049 597.647L642.623 589.759L651.773 582.502L649.88 575.56L654.929 573.667L672.284 574.929L688.693 565.464L701.315 543.377L710.15 535.174L721.51 531.703L723.719 540.222L734.132 552.843V561.362L731.608 569.565L732.87 575.876L738.865 581.871L740.443 582.817Z" fill="#5C3127" stroke="black" stroke-width="0.2" stroke-linecap="round" stroke-linejoin="round"/>
<path d="M218.523 547.164L226.412 551.581L229.567 558.523L237.456 562.624L243.767 557.576L251.971 556.945L264.278 561.993L269.011 591.021L261.438 607.744L256.704 630.777L264.278 648.13L263.647 656.334H255.442L243.136 652.547H231.46L210.318 656.334L198.012 662.013L180.341 669.585L176.87 668.954L178.132 652.232L180.026 649.708L179.395 641.82L171.821 633.301L166.141 632.039L161.093 626.359L164.879 617.209L163.302 607.428L163.933 601.749H166.773L168.035 592.914L166.773 588.812L168.35 585.973L174.977 583.764L170.559 567.357L166.457 559.154L168.035 552.212L171.506 550.635L174.03 548.742L178.763 551.897H192.648L195.803 546.217L198.959 546.533L204.007 544.324L206.848 552.843L210.95 550.319L218.523 547.164Z" fill="#5C3127" stroke="black" stroke-width="0.2" stroke-linecap="round" stroke-linejoin="round"/>
<path d="M587.401 607.112L578.565 627.621L574.147 631.092L572.885 646.868L574.779 655.387L573.201 661.382L581.721 672.109L583.298 679.366L589.925 689.778L598.129 696.404L599.076 705.554L600.969 711.549L599.707 722.277L585.507 717.544L570.992 712.18L548.588 711.549L546.379 710.287L535.65 712.811L524.922 710.287L516.402 711.549L487.056 711.234L489.896 695.142L482.638 681.575L474.434 678.42L470.963 669.27L466.229 666.43L466.545 660.751L470.963 646.237L479.482 626.675H484.531L495.26 614.685L501.886 614.369L511.984 622.888L524.291 615.947L525.869 607.428L529.97 599.224L532.495 589.128L541.961 580.924L545.432 566.726L549.219 561.993L551.743 551.581L556.161 538.645L570.992 522.869L571.939 516.243L573.832 512.457L566.574 504.569L567.205 497.943L571.939 496.996L579.196 509.932L580.774 523.184L580.143 536.752L590.24 555.052H580.143L575.094 556.314L566.89 554.421L563.103 563.886L573.832 575.876L581.721 579.347L584.245 587.55L589.925 601.433L587.401 607.112Z" fill="#5C3127" stroke="black" stroke-width="0.2" stroke-linecap="round" stroke-linejoin="round"/>
<path d="M803.554 651.285L814.598 668.008L822.802 670.532L827.535 667.061L835.74 668.323L845.522 664.221L849.939 672.74L866.032 686.308L865.086 709.972L872.343 712.811L866.348 719.753L859.721 725.432L852.779 735.844L848.993 745.31L848.046 761.401L843.944 769.289L843.628 784.434L838.58 790.113L837.948 802.103L835.424 803.681L833.531 815.039L837.948 824.19L838.264 827.345L834.477 859.843L839.211 871.202L836.055 879.721L841.735 894.235L852.464 905.278L854.673 916.321L859.721 921.685L858.775 925.156L855.935 924.209L831.637 927.68L826.904 930.204L821.54 943.14L825.326 951.975L821.855 975.954L819.015 996.148L823.749 999.934L836.055 1007.82L841.104 1004.04L841.735 1025.81H828.166L821.224 1014.76L814.913 1005.93L801.345 1003.09L797.558 992.677L786.514 998.987L772.63 996.148L766.634 986.997L755.59 985.104L747.07 985.42L746.123 979.109L740.128 978.794L731.924 977.532L720.879 980.687L713.306 980.056L708.889 981.949L710.151 957.97L704.471 950.397L703.209 937.776L706.049 925.471L702.578 917.899L702.262 904.962L680.805 905.278L682.382 898.021H673.231L672.285 901.492L661.24 902.438L656.507 914.113L653.667 919.161L643.885 916.321L638.205 919.161L626.214 920.738L619.588 910.326L615.486 903.7L610.437 891.395L606.335 876.566L553.638 876.25L547.327 878.459L541.963 878.143L534.705 880.983L532.181 874.673L536.598 872.464L537.229 863.629L540.385 858.581L546.696 854.164L551.429 856.373L557.74 848.485L567.522 848.8L568.469 854.479L575.095 857.95L585.824 845.329L596.237 835.548L600.655 828.922L600.339 812.2L608.228 792.638L616.432 782.226L628.108 772.444L630.317 766.134L630.632 758.562L633.472 751.62L632.525 739.946L634.734 721.961L638.205 709.341L643.57 698.613L644.516 686.308L646.094 672.109L653.036 662.013L662.503 655.387L677.334 662.328L688.693 669.901L701.631 671.794L715.2 675.895L720.248 663.59L722.773 662.013L730.977 663.906L750.857 653.809L757.799 658.226L763.479 657.595L766.319 652.547L772.945 650.969L786.198 653.178L797.874 653.494L803.554 651.285Z" fill="#5C3127" stroke="black" stroke-width="0.2" stroke-linecap="round" stroke-linejoin="round"/>
<path d="M644.515 686.308L643.568 698.613L638.204 709.341L634.733 721.961L632.524 739.946L633.471 751.62L630.631 758.562L630.315 766.134L628.106 772.444L616.431 782.226L608.227 792.638L600.338 812.2L600.654 828.922L596.236 835.548L585.823 845.329L575.094 857.95L568.468 854.479L567.521 848.8L557.739 848.485L551.428 856.373L546.695 854.164L540.068 847.222L534.704 850.693L527.446 859.528L512.931 838.073L526.499 826.714L519.873 813.462L526.184 808.414L538.175 805.89L539.437 796.739L549.219 806.521L564.996 807.467L570.361 798.002L572.57 784.434L570.676 768.658L562.157 756.668L570.046 733.005L565.628 729.218L552.374 730.796L547.326 720.384L548.588 711.549L570.992 712.18L585.507 717.544L599.707 722.277L600.969 711.549L610.436 692.618L620.849 681.89L633.156 685.361L644.515 686.308Z" fill="#5C3127" stroke="black" stroke-width="0.2" stroke-linecap="round" stroke-linejoin="round"/>
<path d="M1081.87 525.077L1075.87 536.121L1071.77 532.334L1067.67 533.912L1057.57 533.596L1056.94 527.286L1055.36 521.607L1061.04 512.141L1067.04 503.307L1074.61 505.2L1079.97 500.151L1084.39 506.462L1084.08 514.665L1074.29 519.714L1081.87 525.077Z" fill="#5C3127" stroke="black" stroke-width="0.2" stroke-linecap="round" stroke-linejoin="round"/>
<path d="M455.502 8.88797L452.346 19.3001L455.502 38.5468L452.031 55.2692L441.933 66.628L443.826 81.7729L458.026 94.0782L458.342 98.811L469.07 107.014L477.275 143.299L483.27 161.284L484.532 170.749L482.008 187.156L483.27 196.622L481.377 207.665L483.27 220.286L476.328 228.805L487.057 243.634L487.688 252.153L494.314 263.512L502.203 259.726L516.403 269.191L524.292 281.812L464.968 320.621L414.48 360.376L389.867 369.211L370.303 371.42L369.988 358.483L361.783 355.013L350.739 349.333L346.637 339.868L287.629 295.695L228.937 251.522L164.249 202.301L164.564 198.515L164.88 197.253L165.196 173.274L193.28 158.129L210.319 154.973L224.519 149.61L231.146 139.513L251.341 131.625L252.287 116.48L262.07 114.587L269.958 107.33L292.362 103.859L295.518 95.9713L291.1 91.554L285.105 70.0987L284.158 57.7935L278.162 44.8571L294.256 33.814L312.558 30.3432L322.971 22.1397L339.064 15.8293L367.463 12.3587L395.232 10.7811L403.751 13.6208L419.213 5.73277L437.2 5.41724L444.142 10.15L455.502 8.88797Z" fill="#5C3127" stroke="black" stroke-width="0.2" stroke-linecap="round" stroke-linejoin="round"/>
<path d="M900.742 124.999L913.049 154.658L915.257 159.706L911.155 167.91L908.946 183.054L905.16 193.782L901.373 197.253L895.062 190.627L886.542 181.792L871.712 152.765L870.134 154.658L878.969 175.798L891.276 196.306L906.738 227.858L913.995 238.901L920.306 250.26L937.346 272.662L934.19 276.133L935.453 289.385L956.91 307.685L960.381 311.786H890.645H822.801H752.434L749.278 237.008L745.176 165.07L738.865 148.663L742.336 136.358L739.181 127.523L744.545 117.742L767.265 117.427L784.304 122.79L801.659 128.785L809.864 131.94L822.486 125.63L829.112 119.951L843.943 118.058L856.25 120.582L861.93 130.678L865.401 124.052L879.285 128.785L892.853 130.047L900.742 124.999Z" fill="#5C3127" stroke="black" stroke-width="0.2" stroke-linecap="round" stroke-linejoin="round"/>
<path d="M1079.98 500.151L1074.61 505.2L1067.04 503.306L1060.73 496.681L1052.84 485.006L1044.63 478.38L1039.9 471.439L1024.12 463.236L1011.82 462.92L1007.4 458.818L997.301 463.551L985.941 454.401L981.208 469.546L960.382 465.129L958.173 457.241L964.484 427.266L965.43 414.015L970.795 407.704L983.417 404.233L991.937 392.875L1003.3 416.223L1009.29 434.839L1019.39 444.62L1044.63 463.867L1055.05 475.225L1065.14 487.215L1070.82 494.156L1079.98 500.151Z" fill="#5C3127" stroke="black" stroke-width="0.2" stroke-linecap="round" stroke-linejoin="round"/>
<path d="M1011.82 462.92L1024.12 463.235L1039.9 471.439L1044.63 478.38L1052.84 485.006L1060.73 496.681L1067.04 503.306L1061.04 512.141L1055.36 521.607L1056.94 527.286L1057.57 533.596L1067.67 533.912L1071.77 532.334L1075.87 536.12L1072.09 543.062L1079.03 554.421L1085.97 564.202L1092.91 571.459L1151.92 595.438L1167.07 595.122L1117.84 656.018L1094.8 656.964L1079.03 671.163L1067.67 671.478L1062.93 678.104H1050.63L1043.37 671.163L1026.96 679.682L1021.91 688.201L1009.92 686.308L1005.82 684.099L1001.72 684.73L996.038 684.414L973.318 667.376H960.696L954.701 660.751L954.385 649.392L945.234 645.921L934.19 623.835L925.986 619.102L922.83 610.898L913.364 601.117L902.319 599.54L908.315 588.181L917.781 587.55L920.306 581.555L919.675 565.779V563.255L924.408 542.115L932.612 536.436L934.19 528.232L941.448 512.456L951.861 502.675L958.172 482.482L960.381 465.129L981.207 469.546L985.94 454.401L997.3 463.551L1007.4 458.818L1011.82 462.92Z" fill="#99582A" stroke="black" stroke-width="0.2" stroke-linecap="round" stroke-linejoin="round"/>
<path d="M548.588 711.549L547.326 720.384L552.374 730.796L565.628 729.218L570.046 733.005L562.157 756.668L570.676 768.658L572.57 784.434L570.361 798.002L564.996 807.467L549.219 806.521L539.437 796.739L538.175 805.89L526.184 808.414L519.873 813.462L526.499 826.714L512.931 838.073L494.629 817.564L482.953 800.841L471.909 780.017L472.541 773.075L476.642 766.765L480.745 751.936L484.531 736.791L490.527 735.844H516.402V711.549L524.922 710.287L535.651 712.811L546.379 710.287L548.588 711.549Z" fill="#5C3127" stroke="black" stroke-width="0.2" stroke-linecap="round" stroke-linejoin="round"/>
<path d="M315.081 534.227L313.819 540.538L321.076 550.95V565.779L322.97 581.555L327.387 589.128L323.285 607.112L324.863 617.209L329.596 630.145L333.698 637.402L305.614 649.076L295.517 656.018L279.424 662.013L263.646 656.333L264.277 648.13L256.704 630.776L261.437 607.743L269.011 591.021L264.277 561.993L261.753 546.848L262.384 535.174L293.308 534.227L301.197 535.805L306.877 532.65L315.081 534.227Z" fill="#5C3127" stroke="black" stroke-width="0.2" stroke-linecap="round" stroke-linejoin="round"/>
<path d="M109.974 505.2L110.92 512.772H113.761L118.494 509.932L121.334 510.563L126.383 515.927L133.956 517.505L138.689 513.087L144.684 510.248L148.786 507.408L152.258 508.039L156.36 512.457L158.253 518.136L165.511 526.655L162.04 531.703L161.093 538.329L164.88 536.436L167.088 538.645L166.142 544.639L171.506 550.634L168.035 552.212L166.457 559.153L170.56 567.357L174.977 583.764L168.351 585.972L166.773 588.812L168.035 592.914L166.773 601.748H163.933L158.884 601.117L155.413 609.321H150.364L146.893 604.904L148.155 596.7L140.582 584.395L136.164 586.604L132.062 587.235L127.329 588.181L127.645 580.924L124.805 575.56L125.436 569.565L121.649 561.046L116.6 553.789H102.401L98.2985 557.576L93.2498 558.207L90.0943 562.624L88.2009 567.988L78.4189 577.138L70.8456 565.148L63.9037 557.26L59.4859 554.421L55.0681 550.319L53.1749 541.484L50.6505 537.067L45.2861 533.596L53.4904 523.815L58.8547 524.131L63.588 520.975L67.3746 520.66L70.2147 518.136L68.9524 511.51L70.8456 509.301L71.1613 502.36L79.6812 502.675L92.6186 507.408L96.4053 507.093L97.6674 504.884L107.45 506.462L109.974 505.2Z" fill="#5C3127" stroke="black" stroke-width="0.2" stroke-linecap="round" stroke-linejoin="round"/>
<path d="M15.624 491.001L18.1486 481.851L37.3971 481.536L41.4992 476.487L47.179 476.172L54.1212 481.22H59.4856L65.4811 478.065L68.9521 483.744L61.0633 488.477L53.49 487.846L45.9169 483.744L39.2903 488.477H36.1348L31.7172 491.317L15.624 491.001Z" fill="#5C3127" stroke="black" stroke-width="0.2" stroke-linecap="round" stroke-linejoin="round"/>
<path d="M71.1618 502.36L70.8461 509.302L68.9529 511.51L70.2152 518.136L67.3751 520.66L63.5885 520.976L58.8552 524.131L53.4909 523.815L45.2866 533.596L36.1356 525.393L28.5625 523.815L24.4604 518.136L24.7759 514.981L19.4115 510.879L18.1494 506.462L27.6159 503.307L33.6112 503.938L38.3445 501.414L71.1618 502.36Z" fill="#5C3127" stroke="black" stroke-width="0.2" stroke-linecap="round" stroke-linejoin="round"/>
<path d="M516.402 711.549V735.844H490.527L484.532 736.791L481.061 733.951L487.056 711.234L516.402 711.549Z" fill="#5C3127" stroke="black" stroke-width="0.2" stroke-linecap="round" stroke-linejoin="round"/>
<path d="M1062.93 678.104L1047.47 700.822L1048.1 774.653L1058.52 791.376L1045.9 799.579L1041.48 808.098L1034.54 809.36L1032.01 823.874L1026.02 832.078L1022.54 845.33L1015.29 851.955L989.728 831.762L988.781 820.088L924.093 778.755L925.355 763.926L920.938 756.038V755.091L925.986 746.888L934.822 733.636L941.448 718.806L933.244 695.458L931.035 685.361L922.515 671.163L933.244 659.173L945.235 645.921L954.386 649.392L954.701 660.751L960.697 667.377H973.319L996.039 684.415L1001.72 684.73L1005.82 684.099L1009.92 686.308L1021.91 688.201L1026.96 679.682L1043.37 671.163L1050.63 678.104H1062.93Z" fill="#5C3127" stroke="black" stroke-width="0.2" stroke-linecap="round" stroke-linejoin="round"/>
<path d="M163.934 601.749L163.303 607.428L164.88 617.209L161.094 626.359L166.142 632.038L171.822 633.301L179.396 641.82L180.027 649.708L178.133 652.232L176.871 668.954L172.138 669.27L153.836 659.489L137.427 644.028L122.281 632.985L110.29 620.049L114.708 613.423L115.654 607.428L123.859 596.7L132.063 587.235L136.165 586.604L140.583 584.395L148.156 596.7L146.894 604.904L150.365 609.321H155.414L158.885 601.118L163.934 601.749Z" fill="#5C3127" stroke="black" stroke-width="0.2" stroke-linecap="round" stroke-linejoin="round"/>
<path d="M744.545 117.742L739.18 127.523L742.336 136.357L738.865 148.663L745.176 165.07L749.278 237.008L752.433 311.786L754.011 352.173H733.816V360.692L662.502 321.883L591.503 283.074L574.148 294.117L562.157 301.69L552.059 290.646L524.291 281.812L516.402 269.191L502.202 259.726L494.314 263.512L487.687 252.153L487.056 243.634L476.327 228.805L483.269 220.286L481.376 207.665L483.269 196.622L482.007 187.156L484.531 170.749L483.269 161.283L477.274 143.299L485.478 138.882L486.74 130.047L484.847 121.844L496.207 113.956L501.256 107.33L509.46 101.65L509.775 86.1899L529.971 93.1313L537.228 91.2383L551.428 94.7089L574.463 103.859L583.299 121.844L598.761 125.63L623.373 134.149L642.306 144.245L650.195 138.882L658.084 129.732L653.035 114.271L657.768 104.174L669.444 94.7089L681.119 92.1848L704.47 96.2865L710.781 105.121L717.092 105.437L722.772 108.907L739.811 111.116L744.545 117.742Z" fill="#5C3127" stroke="black" stroke-width="0.2" stroke-linecap="round" stroke-linejoin="round"/>
<path d="M796.61 1376.03L790.299 1378.24L778.624 1362.47L788.721 1349.84L798.503 1341.96L807.024 1337.54L813.965 1343.85L819.33 1350.16L813.335 1359.94L809.864 1366.57L800.081 1369.72L796.61 1376.03Z" fill="#5C3127" stroke="black" stroke-width="0.2" stroke-linecap="round" stroke-linejoin="round"/>
<path d="M278.162 44.8571L284.158 57.7934L285.104 70.0987L291.1 91.5539L295.518 95.9713L292.362 103.859L269.958 107.33L262.069 114.587L252.287 116.48L251.341 131.625L231.146 139.513L224.519 149.61L210.319 154.973L193.28 158.129L165.195 173.273L164.88 197.253H162.04L162.355 207.981L151.627 208.612L145.947 213.344H138.058L131.747 210.505L117.232 212.713L111.237 228.489L105.556 230.067L97.0368 255.624L72.1082 277.395L65.7972 305.476L58.224 314.626L56.0153 321.883L16.5715 323.461H16.2559L17.2025 313.995L24.1446 308.631L30.1401 297.904L29.1935 290.962L35.5045 276.764L45.602 263.827L51.5975 260.672L56.6462 248.998L57.2774 237.955L63.904 225.65L75.8949 218.077L87.2546 197.568L87.5703 197.253L96.7211 189.365L112.814 187.156L126.698 173.273L135.534 167.91L150.365 150.872L146.578 125.946L153.52 108.277L156.36 97.5489L167.72 83.9815L184.76 74.8315L197.697 66.3124L209.372 45.4882L215.052 32.8674L227.359 33.1829L237.141 41.7019L253.234 40.4399L270.589 44.8571H278.162Z" fill="#5C3127" stroke="black" stroke-width="0.2" stroke-linecap="round" stroke-linejoin="round"/>
<path d="M1203.04 1032.12L1204.3 1056.41L1208.4 1065.88L1206.19 1075.66L1202.41 1081.34L1197.36 1069.66L1193.57 1075.66L1196.1 1090.49L1193.89 1099.32L1188.52 1103.74L1186.31 1121.09L1177.8 1144.76L1167.07 1172.52L1153.5 1211.02L1144.35 1239.1L1134.56 1262.76L1120.05 1267.49L1103.96 1276.01L1094.49 1270.96L1081.24 1263.71L1077.45 1252.98V1235L1072.72 1218.9L1072.09 1204.07L1076.19 1189.56L1084.39 1186.09L1085.02 1179.46L1094.17 1164L1096.7 1151.07L1093.23 1141.6L1090.7 1128.67L1090.39 1110.05L1097.33 1098.69L1100.49 1085.76L1109.32 1085.12L1119.42 1081.02L1126.36 1077.24L1133.93 1076.92L1144.66 1065.56L1160.12 1052.94L1165.8 1042.84L1163.91 1034.01L1171.48 1036.53L1181.9 1022.65L1182.84 1010.35L1189.15 1001.2L1194.83 1010.03L1199.25 1018.55L1203.04 1032.12Z" fill="#5C3127" stroke="black" stroke-width="0.2" stroke-linecap="round" stroke-linejoin="round"/>
<path d="M389.867 369.211L390.182 415.908L380.4 429.475L379.138 442.096L363.361 445.251L339.063 446.829L332.752 454.086L321.392 455.032H310.033L305.615 451.246L295.833 454.086L279.109 462.605L275.638 468.915L262.069 477.75L259.545 483.113L251.971 487.215L243.452 484.375L238.718 489.424L235.878 503.307L221.679 520.029L222.31 526.97L217.261 535.49L218.523 547.164L210.95 550.319L206.848 552.843L204.008 544.324L198.959 546.533L195.804 546.217L192.648 551.897H178.764L174.031 548.741L171.506 550.634L166.142 544.64L167.088 538.645L164.88 536.436L161.093 538.329L162.04 531.703L165.511 526.655L158.253 518.136L156.36 512.457L152.258 508.039L148.787 507.408L144.684 510.248L138.689 513.088L133.956 517.505L126.383 515.927L121.334 510.564L118.494 509.932L113.761 512.772H110.921L109.974 505.2L110.921 498.889L109.343 491.317L103.032 485.638L99.5608 473.963L98.9297 461.343L104.925 457.556L108.081 445.567L113.761 445.251L126.067 450.93L136.165 446.829L142.791 448.091L145.631 443.673L216.63 443.358L220.732 429.16L217.576 426.635L209.688 339.237L202.115 251.838L228.936 251.522L287.629 295.695L346.636 339.868L350.739 349.333L361.783 355.012L369.987 358.483L370.303 371.42L389.867 369.211Z" fill="#5C3127" stroke="black" stroke-width="0.2" stroke-linecap="round" stroke-linejoin="round"/>
<path d="M883.702 1299.05H870.765L869.818 1289.9L867.925 1280.75L866.663 1273.49L871.08 1251.09L867.609 1236.57L860.667 1208.18L880.231 1185.14L885.596 1170.63L888.12 1168.74L890.96 1156.75L888.436 1150.75L889.698 1135.61L893.8 1121.72L895.062 1095.85L886.227 1089.54L877.707 1087.96L874.236 1082.92L866.032 1078.81L851.201 1079.13L850.57 1071.56L849.308 1057.04L903.582 1040.32L913.68 1050.1L918.413 1048.21L925.355 1053.26L925.986 1061.46L921.884 1070.93L922.515 1085.12L933.559 1097.74L939.555 1083.55L947.444 1079.44L947.128 1053.26L940.186 1038.74L934.19 1032.12H932.928L931.035 1009.08L935.768 989.837L942.71 989.206L963.852 994.886L968.585 992.361L980.892 991.73L987.518 985.736L998.247 986.051L1017.81 978.163L1032.33 966.489L1035.17 975.323L1033.59 995.517L1035.17 1013.5L1034.54 1045.05L1037.06 1054.83L1031.06 1069.35L1023.49 1083.55L1011.82 1096.17L995.092 1103.74L974.581 1113.52L953.755 1135.29L946.812 1139.08L933.559 1153.59L926.302 1158.01L923.777 1172.52L931.351 1187.98L934.19 1199.66V1205.97L937.346 1204.71L935.768 1224.58L932.297 1234.05L936.084 1237.52L932.928 1246.04L925.355 1253.3L910.524 1259.92L888.751 1270.96L880.863 1278.54L881.809 1287.06L885.911 1288.32L883.702 1299.05Z" fill="#5C3127" stroke="black" stroke-width="0.2" stroke-linecap="round" stroke-linejoin="round"/>
<path d="M228.936 251.522L202.114 251.838L209.687 339.237L217.576 426.635L220.732 429.16L216.629 443.358L145.631 443.673L142.791 448.091L136.164 446.829L126.067 450.93L113.76 445.251L108.08 445.567L104.925 457.556L98.9293 461.343L87.5696 447.46L76.8408 432.315L65.4811 426.951L56.9612 421.272H47.1791L38.3437 425.689L29.8238 424.111L23.5128 430.422L22.2507 419.694L27.2995 409.597L29.8238 390.666L28.5617 370.473L26.6683 360.376L28.5617 350.28L24.144 340.814L15.3086 331.98L19.4107 325.354H87.8851L85.0451 296.011L89.7783 285.598L106.187 284.021L106.818 231.96L163.617 233.222L164.248 202.301L228.936 251.522Z" fill="#5C3127" stroke="black" stroke-width="0.2" stroke-linecap="round" stroke-linejoin="round"/>
<path d="M932.928 1032.12H934.19L940.185 1038.74L947.128 1053.26L947.443 1079.44L939.554 1083.55L933.559 1097.74L922.515 1085.12L921.884 1070.93L925.986 1061.46L925.355 1053.26L918.412 1048.21L913.679 1050.1L903.582 1040.32L894.431 1035.27L900.742 1016.34L906.422 1009.4L903.582 992.361L907.684 975.954L910.839 970.591L906.737 953.552L898.533 944.402L915.888 948.189L919.044 953.552L918.728 956.077L924.408 969.013L925.039 993.308L919.359 1004.67L924.408 1019.5L923.777 1028.33L927.563 1034.33L927.248 1041.9L930.088 1046.32L933.243 1041.27L939.239 1049.15L939.87 1046.63L936.714 1035.9L933.243 1034.96L932.928 1032.12Z" fill="#5C3127" stroke="black" stroke-width="0.2" stroke-linecap="round" stroke-linejoin="round"/>
<path d="M724.35 1112.26L738.865 1107.84L750.225 1108.79L757.167 1113.52V1115.1L747.069 1119.83H741.705L730.03 1127.72L723.719 1119.2L696.266 1126.46L683.013 1127.09L680.488 1199.34L663.133 1199.97L661.24 1258.98L657.769 1333.75L641.991 1344.17L632.84 1345.74L622.112 1341.96L614.223 1340.38L611.698 1331.86L605.387 1326.18L596.552 1336.28L584.246 1320.82L577.935 1306.3L574.779 1286.43L570.992 1271.91L565.944 1240.68L566.259 1216.38L564.366 1205.34L557.739 1196.82L548.904 1180.1L540.069 1155.8L536.597 1143.18L522.713 1123.3L521.767 1107.84L530.286 1104.06L541.015 1100.58L552.375 1101.22L562.788 1110.37L565.313 1108.79L636.942 1108.16L648.933 1117.62L691.533 1120.46L724.35 1112.26Z" fill="#5C3127" stroke="black" stroke-width="0.2" stroke-linecap="round" stroke-linejoin="round"/>
<path d="M574.149 294.117L579.197 325.669L586.14 331.033L586.455 337.343L594.028 344.285L590.242 353.119L584.562 394.137L583.931 420.64L561.842 439.572L554.585 466.391L562.158 473.963V486.9L573.833 487.215L571.94 496.996L567.207 497.943L566.575 504.569L563.42 504.884L551.114 482.798L546.696 481.851L533.127 493.21L519.243 487.215L509.776 486.268L504.728 489.108L494.315 488.477L483.901 496.996L474.75 497.627L453.293 487.215L444.773 491.948L435.622 491.632L428.996 484.06L411.325 476.487L392.076 479.012L387.659 483.113L385.134 494.788L380.085 502.991L378.823 521.291L365.255 509.617H358.944L352.948 515.612L353.264 501.729L332.753 496.996L332.122 487.215L322.34 473.963L319.815 464.813L321.393 455.032L332.753 454.086L339.064 446.829L363.361 445.251L379.139 442.096L380.401 429.475L390.183 415.908L389.868 369.211L414.48 360.376L464.968 320.621L524.292 281.812L552.06 290.647L562.158 301.69L574.149 294.117Z" fill="#5C3127" stroke="black" stroke-width="0.2" stroke-linecap="round" stroke-linejoin="round"/>
<path d="M566.575 504.569L573.833 512.457L571.939 516.243L570.992 522.869L556.162 538.645L551.744 551.581L549.219 561.993L545.433 566.726L541.962 580.924L532.496 589.128L529.971 599.224L525.869 607.428L524.291 615.947L511.985 622.888L501.887 614.369L495.26 614.685L484.532 626.674H479.483L470.963 646.237L466.546 660.751L447.928 668.008L441.302 667.061L434.36 671.478L420.16 671.163L410.378 658.226L404.382 643.713L391.76 630.461H378.507H362.729L363.676 597.962L363.045 585.026L366.516 572.405L371.881 566.095L380.716 553.474L378.823 548.11L382.294 539.907L378.192 527.917L378.823 521.291L380.085 502.991L385.134 494.787L387.658 483.113L392.076 479.012L411.324 476.487L428.995 484.06L435.621 491.632L444.772 491.948L453.293 487.215L474.75 497.627L483.901 496.996L494.314 488.477L504.727 489.108L509.776 486.268L519.242 487.215L533.126 493.21L546.695 481.851L551.113 482.798L563.419 504.884L566.575 504.569Z" fill="#5C3127" stroke="black" stroke-width="0.2" stroke-linecap="round" stroke-linejoin="round"/>
<path d="M1209.98 258.464L1205.25 260.041L1199.57 255.939L1197.04 241.11L1200.51 230.698L1205.25 228.489L1210.93 234.8L1212.51 246.474L1209.98 258.464Z" fill="#5C3127" stroke="black" stroke-width="0.2" stroke-linecap="round" stroke-linejoin="round"/>
<path d="M858.774 780.333L865.716 791.691L864.769 803.681L859.721 806.205L849.939 804.943L844.575 816.617L833.53 815.04L835.423 803.681L837.948 802.103L838.579 790.114L843.628 784.434L848.045 786.643L858.774 780.333Z" fill="#5C3127" stroke="black" stroke-width="0.2" stroke-linecap="round" stroke-linejoin="round"/>
<path d="M164.879 197.253L164.564 198.515L164.248 202.301L163.617 233.222L106.818 231.96L106.187 284.021L89.7783 285.598L85.0451 296.011L87.8851 325.354H19.4107L15.3086 331.98L16.2552 323.461H16.5709L56.0146 321.883L58.2233 314.626L65.7966 305.476L72.1076 277.395L97.0361 255.624L105.556 230.067L111.236 228.489L117.231 212.713L131.747 210.505L138.058 213.344H145.946L151.626 208.612L162.355 207.981L162.039 197.253H164.879Z" fill="#5C3127" stroke="black" stroke-width="0.2" stroke-linecap="round" stroke-linejoin="round"/>
<path d="M960.381 465.129L958.172 482.482L951.861 502.676L941.448 512.457L934.19 528.233L932.612 536.436L924.408 542.115L919.675 563.255V565.779L917.15 565.148L917.466 555.052L914.941 548.11L905.79 540.222L902.951 525.708L904.844 510.564L896.64 509.301L895.377 513.719L884.649 514.981L889.382 520.66L890.96 532.965L881.493 544.009L872.974 558.522L863.822 560.731L848.676 549.057L842.049 553.159L840.472 558.838L831.321 562.94L830.69 567.041H813.019L810.494 562.94L797.557 561.993L791.246 565.464L786.197 563.886L777.046 551.897L773.891 546.533L760.953 549.372L756.22 558.522L752.118 576.823L745.807 580.609L740.443 582.817L738.865 581.871L732.869 575.876L731.607 569.566L734.132 561.362V552.843L723.718 540.222L721.51 531.703V526.655L714.883 520.66L714.567 508.986L710.465 501.098L704.47 502.36L706.047 494.788L710.465 486.584L708.256 478.065L713.936 471.755L710.149 467.022L714.252 454.717L722.14 439.572L737.287 441.149L733.816 360.692V352.173H754.011L752.433 311.786H822.801H890.644H960.381L967.007 331.664L963.221 335.135L967.007 356.275L974.896 380.254L981.838 385.302L991.936 392.875L983.416 404.233L970.794 407.704L965.429 414.015L964.483 427.266L958.172 457.241L960.381 465.129Z" fill="#5C3127" stroke="black" stroke-width="0.2" stroke-linecap="round" stroke-linejoin="round"/>
<path d="M919.675 565.779L920.306 581.555L917.781 587.55L908.315 588.181L902.319 599.54L913.364 601.117L922.83 610.898L925.986 619.102L934.19 623.835L945.234 645.921L933.243 659.173L922.515 671.163L911.47 680.628H898.848L884.649 685.361L873.289 680.628L866.031 686.307L849.938 672.74L845.52 664.221L835.738 668.323L827.534 667.061L822.801 670.532L814.597 668.007L803.552 651.285L800.712 644.975L787.144 636.771L782.726 624.781L775.153 615.947L762.846 605.535L762.531 598.909L752.749 590.705L740.442 582.817L745.807 580.609L752.118 576.822L756.22 558.522L760.953 549.372L773.891 546.533L777.046 551.896L786.197 563.886L791.246 565.464L797.557 561.993L810.494 562.94L813.019 567.041H830.69L831.321 562.94L840.472 558.838L842.049 553.158L848.676 549.057L863.822 560.731L872.973 558.522L881.493 544.008L890.96 532.965L889.382 520.66L884.649 514.981L895.377 513.719L896.64 509.301L904.844 510.563L902.951 525.708L905.79 540.222L914.941 548.11L917.466 555.052L917.15 565.148L919.675 565.779Z" fill="#5C3127" stroke="black" stroke-width="0.2" stroke-linecap="round" stroke-linejoin="round"/>
<path d="M98.9303 461.342L99.5614 473.963L103.032 485.637L109.343 491.317L110.921 498.889L109.975 505.2L107.45 506.462L97.668 504.884L96.4059 507.093L92.6193 507.408L79.6818 502.676L71.1619 502.36L38.3447 501.413L33.6114 503.938L27.6161 503.306L18.1496 506.462L15.625 491.001L31.7182 491.317L36.1358 488.477H39.2913L45.9179 483.744L53.491 487.846L61.0643 488.477L68.953 483.744L65.4821 478.065L59.4865 481.22H54.1222L47.18 476.172L41.5002 476.487L37.398 481.536L18.1496 481.851L10.8918 466.075L2.37207 459.134L10.2608 455.032L19.0962 440.834L23.5138 430.422L29.8248 424.111L38.3447 425.689L47.18 421.271H56.9622L65.4821 426.951L76.8418 432.315L87.5706 447.46L98.9303 461.342Z" fill="#5C3127" stroke="black" stroke-width="0.2" stroke-linecap="round" stroke-linejoin="round"/>
<path d="M132.062 587.235L123.858 596.7L115.654 607.428L114.707 613.423L110.289 620.049L105.556 618.471L92.9342 610.268L83.4677 599.54L80.6278 591.967L78.4189 577.138L88.2009 567.988L90.0943 562.624L93.2498 558.207L98.2986 557.576L102.401 553.79H116.6L121.649 561.047L125.436 569.566L124.805 575.56L127.645 580.924L127.329 588.181L132.062 587.235Z" fill="#5C3127" stroke="black" stroke-width="0.2" stroke-linecap="round" stroke-linejoin="round"/>
<path d="M867.925 1280.75L869.819 1289.9L870.765 1299.05L866.347 1307.88L856.25 1310.09L846.468 1299.05L846.783 1292.1L852.147 1284.53L854.041 1278.54L859.405 1277.28L867.925 1280.75Z" fill="#5C3127" stroke="black" stroke-width="0.2" stroke-linecap="round" stroke-linejoin="round"/>
<path d="M733.816 360.692L737.288 441.149L722.141 439.572L714.252 454.717L710.15 467.022L713.937 471.755L708.257 478.065L710.466 486.584L706.048 494.788L704.47 502.36L710.466 501.098L714.568 508.986L714.883 520.66L721.51 526.655V531.703L710.15 535.174L701.315 543.378L688.693 565.464L672.284 574.93L654.929 573.667L649.88 575.561L651.773 582.502L642.623 589.759L635.049 597.647L612.645 605.219L608.227 600.802L605.072 600.171L601.916 605.535L587.401 607.113L589.925 601.433L584.246 587.55L581.721 579.347L573.832 575.876L563.104 563.886L566.891 554.421L575.095 556.314L580.143 555.052H590.241L580.143 536.752L580.774 523.184L579.197 509.933L571.939 496.996L573.832 487.215L562.157 486.9V473.963L554.584 466.391L561.841 439.572L583.93 420.641L584.561 394.137L590.241 353.12L594.028 344.285L586.454 337.344L586.139 331.033L579.197 325.669L574.148 294.117L591.503 283.074L662.502 321.883L733.816 360.692Z" fill="#5C3127" stroke="black" stroke-width="0.2" stroke-linecap="round" stroke-linejoin="round"/>
<path d="M330.544 534.543L328.335 545.271L333.699 551.266L340.01 558.207L340.641 568.304L344.428 572.405L343.481 619.102L347.899 632.985L333.699 637.402L329.597 630.145L324.864 617.209L323.286 607.113L327.388 589.128L322.97 581.555L321.077 565.779V550.95L313.819 540.538L315.082 534.228L330.544 534.543Z" fill="#5C3127" stroke="black" stroke-width="0.2" stroke-linecap="round" stroke-linejoin="round"/>
<path d="M509.776 86.1902L509.46 101.651L501.256 107.33L496.207 113.956L484.848 121.844L486.741 130.047L485.479 138.882L477.274 143.299L469.07 107.014L458.341 98.811L458.026 94.0782L443.826 81.7729L441.933 66.628L452.03 55.2693L455.501 38.5468L452.346 19.3001L455.501 8.88798L473.488 1L485.163 3.20858V13.6208L499.047 6.04833L500.309 9.8345L492.421 19.9312L492.736 29.0812L498.732 34.1295L497.154 51.7986L486.11 61.8952L489.896 72.9383L498.732 73.2539L503.149 83.035L509.776 86.1902Z" fill="#5C3127" stroke="black" stroke-width="0.2" stroke-linecap="round" stroke-linejoin="round"/>
<path d="M884.649 778.124L884.018 790.429L880.547 804.627L885.596 812.515L893.485 807.783L903.898 806.521L906.107 809.045L916.52 803.996L909.262 797.055L915.258 787.905L924.093 778.755L988.781 820.088L989.728 831.762L1015.29 851.955L1006.45 877.197L1007.4 888.556L1018.44 895.813L1019.07 901.176L1013.71 913.482L1014.66 919.477L1013.39 929.258L1019.07 941.878L1026.02 962.072L1032.33 966.489L1017.81 978.163L998.247 986.051L987.519 985.736L980.892 991.73L968.586 992.361L963.852 994.886L942.711 989.206L935.768 989.837L936.084 989.522L930.404 981.949L929.457 960.494L920.307 949.766L919.044 953.553L915.889 948.189L898.534 944.402L888.436 938.408L877.076 934.937L870.134 931.466L869.187 930.835L860.668 910.011L859.405 897.706L845.206 883.823L849.623 876.25L846.152 868.047L846.783 859.528L843.628 856.688L844.575 847.854L846.468 847.538L852.779 840.281L860.036 829.554L864.454 825.452V818.826L860.668 814.093L859.721 806.205L864.77 803.681L865.716 791.691L858.774 780.333L865.085 777.808L884.649 778.124Z" fill="#5C3127" stroke="black" stroke-width="0.2" stroke-linecap="round" stroke-linejoin="round"/>
<path d="M922.515 671.163L931.035 685.361L933.244 695.458L941.448 718.806L934.822 733.635L925.986 746.887L920.938 755.091V756.037L920.307 754.775L910.84 750.673L903.267 755.722L891.907 758.561L883.703 770.236L884.649 778.124L865.085 777.808L858.774 780.332L848.046 786.643L843.628 784.434L843.943 769.289L848.046 761.401L848.992 745.31L852.779 735.844L859.721 725.432L866.347 719.753L872.343 712.811L865.085 709.971L866.032 686.307L873.29 680.628L884.649 685.361L898.849 680.628H911.471L922.515 671.163Z" fill="#5C3127" stroke="black" stroke-width="0.2" stroke-linecap="round" stroke-linejoin="round"/>
<path d="M869.187 930.835L870.134 931.466L877.076 934.937L888.435 938.408L898.533 944.403L906.737 953.553L910.84 970.591L907.684 975.955L903.582 992.362L906.422 1009.4L900.742 1016.34L894.431 1035.27L903.582 1040.32L849.307 1057.04L850.569 1071.56L837.001 1074.4L826.588 1082.28L824.063 1089.23L817.752 1091.12L801.659 1107.53L791.562 1120.78L785.566 1121.09L779.886 1118.88L760.322 1116.68L757.167 1115.1V1113.52L750.225 1108.79L738.865 1107.84L724.349 1112.26L712.99 1099.64L701.63 1083.23L704.154 1018.55L741.074 1018.87L739.811 1011.92L742.651 1004.35L739.811 994.886L742.02 985.105L740.127 978.794L746.122 979.11L747.069 985.42L755.589 985.105L766.633 986.998L772.629 996.148L786.513 998.988L797.557 992.677L801.344 1003.09L814.912 1005.93L821.223 1014.76L828.165 1025.81H841.734L841.103 1004.04L836.054 1007.82L823.748 999.934L819.014 996.148L821.854 975.955L825.325 951.975L821.539 943.141L826.903 930.204L831.636 927.68L855.934 924.209L858.774 925.156L857.827 929.573L863.823 931.151L867.609 935.253L870.765 934.306L869.187 930.835Z" fill="#5C3127" stroke="black" stroke-width="0.2" stroke-linecap="round" stroke-linejoin="round"/>
<path d="M860.667 1208.18L851.516 1205.97L845.521 1208.49L837.001 1205.02H830.059L819.33 1195.87L805.762 1192.72L801.028 1179.78L801.344 1172.52L794.086 1170.31L774.837 1148.23L769.789 1136.55L766.318 1132.77L760.322 1116.68L779.887 1118.88L785.566 1121.09L791.562 1120.78L801.659 1107.53L817.753 1091.12L824.064 1089.23L826.588 1082.28L837.001 1074.4L850.569 1071.56L851.201 1079.13L866.032 1078.81L874.236 1082.92L877.707 1087.96L886.227 1089.54L895.062 1095.85L893.8 1121.72L889.698 1135.61L888.435 1150.75L890.96 1156.75L888.12 1168.74L885.596 1170.63L880.231 1185.14L860.667 1208.18Z" fill="#5C3127" stroke="black" stroke-width="0.2" stroke-linecap="round" stroke-linejoin="round"/>
<path d="M1058.52 791.376L1048.1 774.653L1047.47 700.822L1062.93 678.104L1067.67 671.478L1079.03 671.163L1094.81 656.964L1117.84 656.018L1167.07 595.123L1151.92 595.438L1092.91 571.459L1085.97 564.202L1079.03 554.421L1072.09 543.062L1075.87 536.121L1081.87 525.077L1087.86 528.864L1091.65 537.383L1100.17 545.902H1109L1125.41 540.538L1144.66 538.329L1160.12 532.019L1168.96 530.757L1175.27 526.971L1185.37 526.34L1191.05 525.708L1198.94 522.869L1208.4 520.66L1216.29 513.719H1223.23L1223.87 519.398L1222.6 531.072L1223.23 541.8L1219.76 549.057L1215.35 571.143L1207.77 593.545L1197.36 619.418L1182.84 649.076L1168.01 671.794L1147.19 699.56L1129.52 715.967L1103.01 736.16L1086.29 751.305L1066.72 775.915L1062.62 786.643L1058.52 791.376Z" fill="#5C3127" stroke="black" stroke-width="0.2" stroke-linecap="round" stroke-linejoin="round"/>
<path d="M860.667 1208.18L867.609 1236.57L871.08 1251.09L866.663 1273.49L867.925 1280.75L859.405 1277.28L854.041 1278.54L852.147 1284.53L846.783 1292.1L846.468 1299.05L856.25 1310.09L866.347 1307.88L870.765 1299.05H883.702L878.338 1313.88L875.183 1330.6L869.818 1339.75L857.196 1350.16L853.725 1353L845.521 1363.41L839.841 1373.82L828.797 1388.34L807.655 1409.16L794.717 1421.15L781.149 1430.62L762.531 1438.19L754.011 1439.45L751.171 1445.13L741.074 1441.98L732.554 1445.76L714.568 1441.98L704.155 1444.5L697.212 1443.24L678.911 1451.44L664.395 1454.6L653.351 1462.17L645.778 1462.8L639.151 1455.54L633.471 1455.23L626.529 1446.08L625.583 1448.92L623.689 1443.55L624.636 1431.56L619.903 1418L625.583 1414.21L625.898 1398.75L615.485 1379.82L607.912 1362.78V1362.47L596.552 1336.28L605.387 1326.18L611.698 1331.86L614.223 1340.38L622.112 1341.96L632.84 1345.74L641.991 1344.17L657.769 1333.75L661.24 1258.98L665.657 1262.13L675.124 1281.38L673.231 1293.68L676.702 1300.94L689.324 1298.73L698.159 1289.58L706.679 1283.59L711.412 1273.8L720.248 1269.39L727.505 1271.6L735.394 1277.28L749.594 1278.22L760.954 1273.8L762.847 1267.49L766.633 1257.71L776.1 1256.14L781.78 1248.56L788.091 1235L804.499 1219.85L830.059 1205.02H837.001L845.521 1208.49L851.516 1205.97L860.667 1208.18ZM796.611 1376.03L800.082 1369.72L809.864 1366.57L813.335 1359.94L819.33 1350.16L813.966 1343.85L807.024 1337.54L798.504 1341.96L788.722 1349.84L778.624 1362.47L790.3 1378.24L796.611 1376.03Z" fill="#5C3127" stroke="black" stroke-width="0.2" stroke-linecap="round" stroke-linejoin="round"/>
<path d="M1191.05 225.649L1191.99 225.965L1192.63 225.649L1193.89 227.858L1193.57 228.489L1193.89 231.329V233.537L1193.26 234.8L1192.94 233.537L1191.05 231.013L1191.36 229.751L1190.73 227.543V226.28L1191.05 225.649Z" fill="#5C3127" stroke="black" stroke-width="0.2" stroke-linecap="round" stroke-linejoin="round"/>
<path d="M1093.54 1008.14L1090.7 1007.82L1090.07 1006.56V1005.61L1091.65 1005.93L1093.86 1007.51L1093.54 1008.14Z" fill="#5C3127" stroke="black" stroke-width="0.2" stroke-linecap="round" stroke-linejoin="round"/>
<path d="M1105.22 1002.14L1105.85 1005.3V1007.51L1105.53 1008.14L1104.9 1007.19L1103.64 1006.24L1103.33 1005.61L1102.38 1005.3L1100.49 1004.04L1100.8 1003.72L1102.38 1004.35L1103.33 1004.04L1103.96 1002.77V1002.14L1104.9 1001.83L1105.22 1002.14Z" fill="#5C3127" stroke="black" stroke-width="0.2" stroke-linecap="round" stroke-linejoin="round"/>
<path d="M1087.23 998.987L1085.65 997.725L1084.71 997.41L1083.76 996.779L1083.13 994.886L1083.45 993.939V993.308L1084.08 989.522L1083.76 989.206L1084.39 987.944L1085.97 987.629L1086.6 988.575L1085.97 992.361L1086.29 993.308L1086.92 994.57L1087.23 996.148L1087.86 998.041L1087.23 998.987Z" fill="#5C3127" stroke="black" stroke-width="0.2" stroke-linecap="round" stroke-linejoin="round"/>
<path d="M883.072 48.6433V48.9588L882.441 49.5898L882.125 51.483L881.809 52.1139H880.863L880.232 52.745L878.654 53.3761L878.023 53.6915L876.13 54.6382L874.867 54.3226L873.29 54.6382L872.343 55.9002L871.712 54.9537L870.765 55.2691H870.134L869.187 54.3226L867.925 55.2691H866.347L864.77 54.6382L863.192 54.3226L861.93 53.3761L860.983 51.483L860.036 50.5364L859.405 48.3278L858.774 47.3812L859.09 46.4346L860.668 47.3812L861.93 47.0657L862.561 46.1191L862.876 45.1726L863.823 44.857L864.454 45.1726L865.085 44.5415H865.716L866.032 45.8036L867.61 46.4346L867.925 47.0657H869.819L871.712 45.4881L872.974 45.8036L873.921 45.1726L874.867 45.4881L876.13 46.1191L876.761 45.1726H877.707L878.654 46.4346V48.3278L879.601 47.6967L880.547 48.3278L880.863 48.0122L883.072 48.6433Z" fill="#5C3127" stroke="black" stroke-width="0.2" stroke-linecap="round" stroke-linejoin="round"/>
<path d="M433.097 755.722H432.466L431.835 756.669H431.203L430.888 755.407L430.257 752.882V751.936L431.519 750.358L432.466 750.043L433.412 749.096L434.675 749.412L435.306 750.674L435.621 751.62L435.306 752.882L434.675 753.829L433.728 755.091L433.097 755.722Z" fill="#5C3127" stroke="black" stroke-width="0.2" stroke-linecap="round" stroke-linejoin="round"/>
<path d="M447.613 724.801L447.297 725.747L446.666 726.063L445.72 725.747V724.801L446.351 724.485V723.539L446.982 722.908L447.928 723.223L447.613 724.801Z" fill="#5C3127" stroke="black" stroke-width="0.2" stroke-linecap="round" stroke-linejoin="round"/>
<path d="M1143.4 947.558L1142.45 948.189H1140.88L1139.61 948.82H1138.35V948.189H1139.93L1141.19 947.873L1142.45 946.927H1143.08L1143.4 947.558Z" fill="#5C3127" stroke="black" stroke-width="0.2" stroke-linecap="round" stroke-linejoin="round"/>
<path d="M1141.82 946.611L1141.19 946.927H1139.93V946.296L1141.82 946.611Z" fill="#5C3127" stroke="black" stroke-width="0.2" stroke-linecap="round" stroke-linejoin="round"/>
<path d="M5.52645 194.413L4.57965 195.991L3.31757 197.568L2.37095 196.306H1.10868L0.477539 195.675L1.10868 194.729L2.37095 195.044L3.63304 193.782L4.57965 193.151L5.21079 193.467L5.52645 194.413Z" fill="#5C3127" stroke="black" stroke-width="0.2" stroke-linecap="round" stroke-linejoin="round"/>
<path d="M48.4422 187.156V188.734L49.0733 189.996L48.4422 192.205L48.7577 193.151L47.4956 194.413L45.9178 195.044L45.2867 195.675L43.3935 195.044L41.8157 193.467L41.1846 192.205V190.312L43.0778 189.049L43.3935 187.472V186.841L45.2867 187.156H46.549L47.4956 187.472L48.4422 187.156Z" fill="#5C3127" stroke="black" stroke-width="0.2" stroke-linecap="round" stroke-linejoin="round"/>
<path d="M17.2019 189.68H16.5709L15.6241 189.049L14.9932 188.103L15.3086 186.841L15.6241 185.894H16.5709H17.5175L19.0953 187.156L19.4107 188.103L17.833 189.68H17.2019Z" fill="#5C3127" stroke="black" stroke-width="0.2" stroke-linecap="round" stroke-linejoin="round"/>
<path d="M36.4507 178.637V179.268L34.5573 180.215L33.2952 181.793L32.3486 182.424V183.686L31.0863 185.894L30.7708 187.156L29.1931 189.05L28.8774 189.68H28.2463L26.353 190.312L26.0376 189.996L25.7219 188.734L24.7753 187.472L24.4598 186.841L23.8287 185.894V184.948L22.5664 183.055L24.1442 182.108L25.0908 182.739L26.9842 182.108H28.2463L29.824 181.477L31.4018 180.215V179.584L33.2952 178.637H35.1884L36.135 178.322L36.4507 178.637Z" fill="#5C3127" stroke="black" stroke-width="0.2" stroke-linecap="round" stroke-linejoin="round"/>
<path d="M68.6375 187.472L67.6907 188.734L66.4286 189.049L65.482 188.734H64.2197V188.103H65.1663L67.0598 187.472L68.3218 186.525L69.2684 185.579L69.5841 184.001L69.8996 183.054L70.5307 181.477L71.4773 180.215L72.4239 178.322L73.0551 175.798L73.6862 175.167L74.9485 174.851L75.8951 175.798L76.2106 177.375L75.8951 178.953L75.5794 180.53V182.108L75.264 182.424L74.3174 184.632L73.3708 185.579L71.4773 185.894L69.2684 186.841L68.6375 187.472Z" fill="#5C3127" stroke="black" stroke-width="0.2" stroke-linecap="round" stroke-linejoin="round"/>
<path d="M6.78901 173.274L7.73562 172.958L8.36676 173.905L8.9979 175.482L8.36676 176.429L8.68243 177.691L6.78901 180.846L6.47354 180.53L6.15787 179.268L4.89579 176.429L4.58012 175.482L4.26465 174.851L4.89579 173.589L5.8424 172.958L6.78901 173.274Z" fill="#5C3127" stroke="black" stroke-width="0.2" stroke-linecap="round" stroke-linejoin="round"/>
<path d="M82.8369 166.963V168.225L82.2058 169.803L79.9969 171.38L78.4191 171.696L77.1569 173.273L75.5791 172.642V172.327L76.2102 171.065V169.803L76.8414 168.856L77.788 168.225H78.7346L79.6814 167.278H81.2592L81.5746 166.963L82.2058 165.385L82.8369 165.07L83.4679 165.701L82.8369 166.963Z" fill="#5C3127" stroke="black" stroke-width="0.2" stroke-linecap="round" stroke-linejoin="round"/>
<path d="M1115.63 1013.82L1116.26 1014.76L1117.84 1015.39V1016.34L1117.21 1016.97L1117.53 1017.6L1116.58 1019.5L1116.89 1020.13L1115.95 1020.44L1115.32 1019.5V1018.55L1115.95 1017.92L1115.32 1015.71L1115 1015.39L1114.69 1014.76L1115.63 1013.82Z" fill="#5C3127" stroke="black" stroke-width="0.2" stroke-linecap="round" stroke-linejoin="round"/>
</svg>
