<svg width="836" height="1370" viewBox="0 0 836 1370" fill="none" xmlns="http://www.w3.org/2000/svg">
<path d="M454.345 1356.28L444.878 1355.65H429.101L410.168 1312.74L419.95 1321.57L433.519 1336.08L458.132 1347.76L481.167 1352.49L478.642 1361.96L464.758 1362.9L454.345 1356.28Z" fill="#5C3127" stroke="black" stroke-width="0.2" stroke-linecap="round" stroke-linejoin="round"/>
<path d="M358.102 703.153L393.759 735.966L408.275 739.122L431.31 754.267L449.927 762.155L453.398 770.989L440.145 801.91L458.447 807.274L478.327 810.429L491.58 807.274L505.148 791.498L506.095 773.829L514.299 769.727L524.397 781.717L525.659 797.808L512.406 808.852L501.993 817.055L485.269 836.933L466.336 864.383L464.758 880.79L463.496 901.614L467.282 921.807L464.442 926.225L465.705 939.161L466.651 949.889L491.264 967.242L491.895 981.125L504.202 989.959L505.148 999.741L494.735 1025.61L472.647 1036.66L440.461 1040.76L421.528 1038.55L428.154 1050.85L428.47 1065.68L434.15 1075.78L426.261 1083.04L410.168 1085.88L392.497 1078.3L387.764 1083.67L395.653 1103.55L408.275 1109.54L415.532 1103.23L423.421 1113.64L410.168 1119.95L401.017 1132.57L404.804 1152.45L404.488 1163.18H389.342L379.875 1173.28L380.191 1188.42L400.701 1202.93L417.11 1206.72L417.741 1224.71L403.226 1235.75L401.332 1258.78L390.288 1266.35L387.448 1275.5L400.701 1296.01L415.217 1307.06L408.59 1306.11L393.128 1302.95L354.947 1300.43L343.902 1289.07L337.907 1274.56L328.125 1275.82L319.921 1268.56L310.139 1248.05L318.658 1239.22L318.974 1226.91L313.294 1216.82L315.503 1199.78L312.032 1173.59L306.352 1161.92L312.032 1158.13L307.614 1150.56L298.779 1146.77L301.303 1138.25L291.521 1130.68L279.846 1107.65L285.21 1103.55L274.797 1078.94L272.273 1058.43L271.641 1040.44L279.53 1033.19L269.117 1013.31L264.068 995.008L273.535 981.756L269.117 964.718L274.166 945.156L269.748 926.54L264.699 922.754L249.237 887.731L255.864 866.907L250.5 847.345L253.34 828.729L261.544 809.798L271.957 797.177L265.646 789.289L268.17 782.663L263.122 748.903L280.792 739.122L284.579 717.982L281.739 712.934L294.361 694.634L318.027 699.682L329.703 714.196L334.751 697.789L354.947 698.735L358.102 703.153Z" fill="#5C3127" stroke="black" stroke-width="0.2" stroke-linecap="round" stroke-linejoin="round"/>
<path d="M433.519 661.189L432.572 654.878L415.532 644.466L399.124 644.151L368.831 650.146L362.204 667.815L362.835 678.858L358.102 703.153L354.947 698.735L334.752 697.789L329.703 714.196L318.027 699.682L294.361 694.634L281.739 712.934L269.433 715.773L259.651 687.692L247.975 664.975L251.446 645.413L241.349 636.894L237.562 622.38L227.465 608.497L236.615 586.726L227.465 569.688L230.935 562.747L227.149 555.174L233.144 545.077L232.198 528.04V513.526L235.669 506.9L218.313 474.086L231.567 475.979L240.718 475.348L244.189 469.353L259.335 461.149L268.486 453.577L291.521 450.106L290.259 465.251L293.099 473.139L292.152 486.706L312.663 504.691L332.858 508.162L340.116 515.734L352.422 519.836L360.311 525.515H371.355L382.084 531.51L383.662 543.184L387.448 549.179L388.395 557.698L383.031 558.014L391.866 581.678L425.63 582.624L424.052 594.299L426.576 602.187L436.674 607.866L442.039 620.487L440.145 636.578L436.043 645.413L438.567 656.771L433.519 661.189Z" fill="#5C3127" stroke="black" stroke-width="0.2" stroke-linecap="round" stroke-linejoin="round"/>
<path d="M443.932 213.782L453.714 215.675L455.607 211.258L452.452 207.472L454.345 201.477L461.603 203.37L470.123 201.162L480.22 205.579L488.109 209.681L493.473 204.317L497.576 204.948L500.1 210.627L508.62 209.365L515.562 201.477L521.242 186.648L531.971 168.032L538.282 167.085L542.384 178.444L551.85 213.782L561.632 217.253L561.948 231.136L548.379 247.858L553.743 253.853L585.614 257.008L586.245 277.517L599.814 264.265L622.218 271.522L652.195 283.828L661.03 295.502L658.191 306.86L679.017 300.55L713.727 311.278L740.549 310.647L767.055 327.369L790.406 350.087L804.29 355.766L819.437 356.713L826.063 363.023L832.374 388.895L835.845 401.201L829.219 434.646L820.699 447.898L796.401 475.979L785.673 499.012L773.051 516.365L768.633 516.996L764.531 531.826L767.371 569.688L763.9 600.924L762.953 614.176L757.904 622.38L756.327 649.514L739.918 675.702L738.34 696.842L724.772 705.361L721.301 717.666H702.368L675.546 725.239L663.87 734.389L644.937 740.384L625.689 756.475L612.751 776.669L611.805 791.814L615.907 802.857L614.96 823.365L612.436 833.147L601.707 844.505L587.507 880.159L574.885 895.935L564.788 905.716L560.054 924.963L550.904 936.321L544.277 924.963L549.957 915.182L537.966 901.614L522.82 890.256L502.94 877.319L496.944 877.95L477.065 862.174L466.336 864.383L485.269 836.933L501.993 817.055L512.406 808.852L525.66 797.808L524.397 781.717L514.3 769.727L506.095 773.829L508.304 762.155L509.251 750.165L508.304 738.806L501.678 735.336L495.367 738.491L488.74 737.544L486.216 729.972L482.745 711.356L478.958 705.361L466.652 699.682L459.71 703.784L441.092 699.682L439.83 672.232L433.519 661.189L438.568 656.771L436.043 645.413L440.145 636.578L442.039 620.487L436.674 607.866L426.577 602.187L424.052 594.299L425.63 582.624L391.866 581.678L383.031 558.014L388.395 557.698L387.449 549.179L383.662 543.184L382.084 531.51L371.356 525.515H360.311L352.423 519.836L340.116 515.734L332.858 508.162L312.663 504.691L292.153 486.706L293.099 473.139L290.259 465.251L291.521 450.106L268.486 453.577L259.335 461.149L244.189 469.353L240.718 475.348L231.567 475.979L218.314 474.086L208.216 477.556L200.012 475.348L199.696 444.742L185.812 456.417L170.035 456.101L162.777 445.058L150.786 444.111L153.942 435.277L143.528 422.972L135.324 404.671L140.057 401.201L139.426 392.366L150.155 386.687L147.946 375.644L152.364 368.702L153.311 359.237L173.19 345.354L187.705 341.568L190.23 338.412L206.323 339.359L213.265 283.828L213.581 274.993L210.741 263.634L202.536 256.062L202.852 241.232L212.949 238.077L216.421 240.286L217.052 232.398L206.638 230.189V217.569L241.349 218.2L247.344 210.943L252.393 217.569L255.549 229.558L259.02 227.034L268.802 237.762L282.686 236.5L286.157 230.189L299.41 225.456L306.983 221.986L309.192 213.467L322.13 207.787L321.183 203.37L306.037 201.793L303.828 188.856L304.775 175.289L296.886 170.241L300.357 168.348L313.294 170.872L327.494 175.92L332.858 171.187L345.796 168.032L365.991 160.46L372.618 152.572L370.409 146.892L379.875 146.261L383.662 150.678L381.138 159.829L387.449 162.668L391.235 172.134L386.186 179.391L383.031 196.429L387.449 206.841L388.395 216.306L399.44 225.772L408.275 226.719L410.168 222.617L415.848 221.67L424.052 218.2L429.732 212.836L439.83 214.729L443.932 213.782Z" fill="#5C3127" stroke="black" stroke-width="0.2" stroke-linecap="round" stroke-linejoin="round"/>
<path d="M187.075 13.7431L175.399 17.2137L170.35 27.3103L163.093 32.9897L157.413 40.5622L154.573 55.076L148.893 67.0658L158.044 68.3279L159.937 77.4779L163.724 82.2107L164.671 90.0987L162.462 97.6711L162.777 102.088L167.195 103.666L170.982 110.607L194.017 108.714L204.43 111.238L216.421 128.908L223.679 126.699L236.616 127.645L246.714 125.437L253.025 128.908L249.238 139.635L245.136 146.577L243.243 161.09L246.714 174.658L251.447 180.653L252.078 185.07L242.927 195.167L249.238 199.584L253.971 206.841L259.02 227.034L255.549 229.558L252.393 217.568L247.345 210.943L241.349 218.2L206.639 217.568V230.189L217.052 232.398L216.421 240.286L212.95 238.077L202.852 241.232L202.537 256.062L210.741 263.634L213.581 274.993L213.265 283.827L206.323 339.359L197.172 328.631L191.808 328.316L202.852 307.491L188.968 298.026L178.239 299.919L171.613 296.448L161.831 301.812L148.578 298.972L137.533 277.833L129.329 272.784L123.649 263.003L111.658 253.538L106.925 255.431L99.3517 250.698L90.5164 244.072L85.4676 247.227L70.3213 244.388L65.9035 235.553L62.4325 235.869L44.7616 224.51L42.5527 218.2L49.1794 216.622L48.5483 206.525L52.966 198.953L61.8014 197.691L69.6901 185.07L76.6323 174.342L70.3213 169.61L74.1077 157.935L70.6368 139.32L74.7389 133.956L72.53 116.918L65.588 105.875L68.4279 96.0935L74.1077 97.6711L77.5789 91.6763L74.1077 79.6866L76.3166 76.8469L85.4676 77.4779L99.6674 63.2795L107.24 61.0709L107.556 54.445L111.974 37.0915L122.703 27.9414L133.747 27.3103L135.64 23.2086L149.524 24.7862L164.039 14.6896L171.297 10.2723L180.448 0.491211L186.759 1.75327L190.861 7.11713L187.075 13.7431Z" fill="#5C3127" stroke="black" stroke-width="0.2" stroke-linecap="round" stroke-linejoin="round"/>
<path d="M106.925 255.431L109.449 270.891L104.085 283.828L84.8362 305.283L63.6943 313.171L52.9657 330.84L50.1257 344.407L40.3437 352.926L32.4549 342.514L25.1971 340.306L17.9395 341.883L16.9929 334.626L22.0416 329.894L19.8329 321.374L28.9838 306.23L24.8817 297.395L18.2552 306.86L7.21094 297.711L10.6819 292.031L7.52641 273.731L13.8374 270.576L16.9929 257.955L23.6194 245.019L22.6728 236.815L32.4549 232.398L44.7613 224.51L62.4322 235.869L65.9032 235.553L70.3209 244.388L85.4673 247.227L90.516 244.072L99.3514 250.698L106.925 255.431Z" fill="#5C3127" stroke="black" stroke-width="0.2" stroke-linecap="round" stroke-linejoin="round"/>
<path d="M434.781 131.432L431.626 149.732L420.581 154.78L421.528 159.513L418.057 170.241L425.63 184.754H431.31L433.519 196.113L443.932 213.782L439.83 214.729L429.732 212.836L424.052 218.2L415.848 221.67L410.168 222.617L408.275 226.719L399.439 225.772L388.395 216.306L387.449 206.841L383.031 196.429L386.186 179.391L391.235 172.134L387.449 162.668L381.138 159.828L383.662 150.678L379.875 146.261L370.409 146.892L358.733 131.747L363.782 126.068V116.602L374.827 113.447L379.244 109.661L373.564 102.088L375.142 94.8315L389.973 82.8418L401.333 90.4142L411.746 103.351L412.061 114.078L418.688 114.394L428.154 124.175L434.781 131.432Z" fill="#5C3127" stroke="black" stroke-width="0.2" stroke-linecap="round" stroke-linejoin="round"/>
<path d="M206.323 339.359L190.23 338.412L187.705 341.567L173.19 345.354L153.31 359.237L152.364 368.702L147.946 375.644L150.155 386.687L139.426 392.366L140.057 401.201L135.324 404.671L143.528 422.971L153.941 435.277L150.786 444.111L162.777 445.058L170.034 456.101L185.812 456.416L199.696 444.742L200.012 475.348L208.216 477.556L218.313 474.085L235.669 506.9L232.198 513.525V528.039L233.144 545.077L227.149 555.174L230.935 562.746L227.465 569.688L236.615 586.726L227.465 608.497L223.993 618.909L215.158 623.957L196.541 612.283L194.016 604.079L157.097 583.886L123.333 561.484L108.502 549.179L99.6668 532.457L102.191 526.462L85.1514 499.958L64.9563 462.727L46.0233 422.34L38.45 412.875L32.139 398.045L17.6238 384.794L4.6861 376.59L10.0505 367.756L0.583984 348.193L5.94837 333.995L19.8327 321.374L22.0413 329.893L16.9926 334.626L17.9392 341.883L25.1968 340.305L32.4547 342.514L40.3434 352.926L50.1254 344.407L52.9654 330.84L63.694 313.171L84.8359 305.283L104.084 283.827L109.449 270.891L106.924 255.431L111.658 253.538L123.648 263.003L129.328 272.784L137.533 277.833L148.577 298.972L161.83 301.812L171.612 296.448L178.239 299.919L188.967 298.026L202.852 307.491L191.807 328.316L197.172 328.631L206.323 339.359Z" fill="#339989" stroke="black" stroke-width="0.2" stroke-linecap="round" stroke-linejoin="round"/>
<path d="M433.519 661.189L439.83 672.232L441.092 699.682L459.71 703.784L466.652 699.682L478.958 705.361L482.745 711.356L486.216 729.972L488.74 737.544L495.367 738.491L501.678 735.336L508.304 738.806L509.251 750.165L508.304 762.155L506.096 773.829L505.149 791.498L491.58 807.274L478.327 810.429L458.448 807.274L440.146 801.91L453.399 770.989L449.928 762.155L431.31 754.267L408.275 739.122L393.76 735.967L358.103 703.153L362.836 678.858L362.205 667.814L368.831 650.145L399.124 644.151L415.533 644.466L432.572 654.878L433.519 661.189Z" fill="#5C3127" stroke="black" stroke-width="0.2" stroke-linecap="round" stroke-linejoin="round"/>
<path d="M491.895 135.849L482.113 153.202L483.06 167.085L490.002 179.075L486.531 187.594L484.953 197.059L480.22 205.579L470.122 201.161L461.603 203.37L454.345 201.477L452.452 207.472L455.607 211.258L453.714 215.675L443.932 213.782L433.519 196.113L431.31 184.754H425.63L418.057 170.24L421.528 159.513L420.581 154.78L431.625 149.732L434.781 131.431L456.238 135.533L458.132 131.747L472.647 130.169L491.895 135.849Z" fill="#5C3127" stroke="black" stroke-width="0.2" stroke-linecap="round" stroke-linejoin="round"/>
<path d="M550.903 936.321L545.855 949.258L528.815 960.301L515.562 956.199L506.726 958.408L489.371 949.889L478.011 950.52L465.705 939.161L464.443 926.225L467.283 921.808L463.496 901.614L464.758 880.79L466.336 864.383L477.065 862.174L496.944 877.95L502.94 877.319L522.819 890.256L537.966 901.614L549.957 915.182L544.277 924.963L550.903 936.321Z" fill="#5C3127" stroke="black" stroke-width="0.2" stroke-linecap="round" stroke-linejoin="round"/>
<path d="M389.973 82.8417L375.142 94.8313L373.564 102.088L379.244 109.661L374.826 113.447L363.782 116.602V126.068L358.733 131.747L370.409 146.892L372.618 152.571L365.991 160.459L345.796 168.032L332.858 171.187L327.494 175.92L313.294 170.872L300.357 168.347L296.886 170.24L304.774 175.289L303.828 188.856L306.036 201.792L321.183 203.37L322.13 207.787L309.192 213.467L306.983 221.986L299.41 225.456L286.157 230.189L282.686 236.499L268.802 237.762L259.02 227.034L253.971 206.841L249.237 199.584L242.926 195.167L252.077 185.07L251.446 180.653L246.713 174.658L243.242 161.09L245.135 146.576L249.237 139.635L253.024 128.907L246.713 125.437L236.615 127.645L223.678 126.699L216.42 128.907L204.429 111.238L194.016 108.714L170.981 110.607L167.194 103.666L162.777 102.088L162.461 97.671L164.67 90.0986L163.723 82.2106L159.937 77.4778L158.044 68.3278L148.893 67.0657L154.572 55.0759L157.412 40.5621L163.092 32.9896L170.35 27.3103L175.399 17.2136L187.074 13.743L186.443 18.4757L175.714 20.9999L181.079 30.1499L180.132 40.8775L171.612 52.5518L177.608 68.6433L185.496 67.3812L190.23 52.5518L184.865 45.6103V30.1499L207.585 21.9464L205.692 12.4808L212.318 5.85498L217.682 20.3688L230.304 20.6843L241.033 31.7275L241.664 38.669H257.442L276.69 36.7758L286.472 45.6103L299.725 48.1345L310.139 41.8242L310.454 36.7758L332.858 35.5138L354 35.1982L338.538 41.1931L344.218 50.9742L358.418 52.2363L371.671 62.3329L373.88 78.4244L383.031 78.1089L389.973 82.8417Z" fill="#5C3127" stroke="black" stroke-width="0.2" stroke-linecap="round" stroke-linejoin="round"/>
<path d="M410.168 1312.74L429.101 1355.65H444.879L454.345 1356.28L452.767 1363.85L442.67 1369.84L435.097 1369.21L425.315 1367.64L412.061 1361.96L395.022 1359.12L371.355 1348.39L351.16 1338.29L320.236 1316.52L334.752 1320.62L361.889 1333.56L384.924 1340.5L388.711 1331.67L387.764 1318.42L398.493 1310.21L410.168 1312.74Z" fill="#5C3127" stroke="black" stroke-width="0.2" stroke-linecap="round" stroke-linejoin="round"/>
<path d="M281.739 712.934L284.579 717.982L280.793 739.122L263.122 748.903L268.171 782.663L265.646 789.289L271.957 797.177L261.544 809.798L253.34 828.729L250.5 847.345L255.864 866.907L249.238 887.731L264.7 922.754L269.748 926.54L274.166 945.156L269.117 964.718L273.535 981.756L264.068 995.008L269.117 1013.31L279.53 1033.19L271.642 1040.44L272.273 1058.43L274.797 1078.94L285.21 1103.55L279.846 1107.65L291.521 1130.68L301.303 1138.25L298.779 1146.77L307.614 1150.56L312.032 1158.13L306.352 1161.92L312.032 1173.59L315.503 1199.78L313.294 1216.82L318.974 1226.91L318.659 1239.22L310.139 1248.05L319.921 1268.56L328.125 1275.82L337.907 1274.56L343.903 1289.07L354.947 1300.43L393.128 1302.95L408.59 1306.11H395.022L389.657 1310.84L378.929 1317.78L384.293 1335.77L378.298 1336.08L358.418 1330.09L334.752 1316.52L310.77 1305.48L300.672 1293.17L299.726 1281.81L286.473 1268.56L270.695 1235.12L270.064 1216.19L280.793 1201.04L254.602 1195.05L263.122 1177.69L256.811 1144.56L277.322 1151.51L271.642 1110.17L259.02 1104.81L262.175 1129.73L251.131 1126.89L246.398 1098.5L240.087 1061.27L243.558 1047.38L233.145 1027.82L225.571 1005.1L232.513 1004.16L234.407 971.659L238.193 939.161L238.509 909.187L228.096 878.581L229.989 861.859L223.363 836.933L229.042 812.322L226.202 773.198V730.918L226.518 685.799L221.785 652.67L215.158 623.957L223.994 618.909L227.465 608.497L237.562 622.38L241.349 636.894L251.446 645.413L247.975 664.975L259.651 687.692L269.433 715.773L281.739 712.934Z" fill="#5C3127" stroke="black" stroke-width="0.2" stroke-linecap="round" stroke-linejoin="round"/>
<path d="M480.221 205.579L484.954 196.744L486.532 187.594L489.687 179.075L483.061 167.086L482.114 153.203L491.896 135.849L497.892 138.058L510.829 142.791L529.447 159.829L531.971 168.032L521.242 186.648L515.562 201.477L508.62 209.365L500.1 210.627L497.576 204.948L493.474 204.317L488.109 209.681L480.221 205.579Z" fill="#5C3127" stroke="black" stroke-width="0.2" stroke-linecap="round" stroke-linejoin="round"/>
<path d="M543.646 1307.37L544.908 1307.06V1308.32L542.384 1307.37L543.33 1306.43L543.962 1306.11L543.646 1307.37Z" fill="#5C3127" stroke="black" stroke-width="0.2" stroke-linecap="round" stroke-linejoin="round"/>
<path d="M541.438 1302.95L542.069 1303.59L543.331 1303.9L543.646 1305.16L542.7 1305.48L542.384 1304.22L541.753 1303.59L541.438 1302.95Z" fill="#5C3127" stroke="black" stroke-width="0.2" stroke-linecap="round" stroke-linejoin="round"/>
<path d="M522.82 1297.59V1298.22L523.136 1299.17L521.873 1299.48L520.927 1299.17L520.295 1298.54L519.349 1298.22L519.033 1296.96H519.664L519.98 1296.33L520.927 1296.01L521.558 1296.33L520.611 1297.28L521.558 1297.59L522.504 1296.64L522.82 1297.59Z" fill="#5C3127" stroke="black" stroke-width="0.2" stroke-linecap="round" stroke-linejoin="round"/>
<path d="M531.971 1293.49L530.708 1292.86L529.131 1291.91L526.606 1290.97L526.922 1289.7L524.713 1289.39L523.766 1289.07L522.82 1287.81L523.451 1287.49L525.975 1288.44L528.5 1289.7L530.077 1290.02L531.34 1290.33L532.286 1289.39L532.602 1288.44L533.233 1288.76L534.495 1288.13L534.811 1288.76H536.388V1289.7H537.335L540.175 1289.07L540.491 1289.7H541.437L542.699 1289.39L541.753 1288.76L541.437 1287.81H542.699L544.593 1288.44L544.908 1289.7L543.646 1291.28L543.962 1292.23L543.33 1292.86H542.068L541.122 1295.38L540.175 1296.33L539.228 1298.22L538.913 1299.17L537.335 1300.12L537.019 1299.48H535.757V1300.43L533.233 1300.12L532.917 1300.43L533.864 1301.69L533.548 1302.01L532.917 1303.27H531.655L530.708 1304.53L529.762 1304.85H529.131L528.5 1303.9L527.237 1302.95V1302.32H525.66L527.553 1303.59H526.291L524.713 1302.64L524.082 1302.32L522.82 1301.69L521.873 1301.06V1300.43L524.082 1301.06L525.975 1300.43L524.397 1299.8L524.082 1299.48H526.922L528.184 1299.8L529.131 1300.43V1299.8L530.393 1299.48L530.708 1298.54L529.446 1297.91L528.815 1296.33L529.131 1295.7H531.024L531.655 1296.01L532.917 1295.7L532.602 1294.75H530.077V1295.07L528.815 1295.7H526.922L525.344 1294.75V1293.8L527.553 1294.44L529.446 1293.8H530.393L531.971 1293.49L533.233 1294.12V1293.8L531.971 1293.49Z" fill="#5C3127"/>
<path d="M531.971 1293.49L530.708 1292.86L529.131 1291.91L526.606 1290.97L526.922 1289.7L524.713 1289.39L523.766 1289.07L522.82 1287.81L523.451 1287.49L525.975 1288.44L528.5 1289.7L530.077 1290.02L531.34 1290.33L532.286 1289.39L532.602 1288.44L533.233 1288.76L534.495 1288.13L534.811 1288.76H536.388V1289.7H537.335L540.175 1289.07L540.491 1289.7H541.437L542.699 1289.39L541.753 1288.76L541.437 1287.81H542.699L544.593 1288.44L544.908 1289.7L543.646 1291.28L543.962 1292.23L543.33 1292.86H542.068L541.122 1295.38L540.175 1296.33L539.228 1298.22L538.913 1299.17L537.335 1300.12L537.019 1299.48H535.757V1300.43L533.233 1300.12L532.917 1300.43L533.864 1301.69L533.548 1302.01L532.917 1303.27H531.655L530.708 1304.53L529.762 1304.85H529.131L528.5 1303.9L527.237 1302.95V1302.32H525.66L527.553 1303.59H526.291L524.713 1302.64L524.082 1302.32L522.82 1301.69L521.873 1301.06V1300.43L524.082 1301.06L525.975 1300.43L524.397 1299.8L524.082 1299.48H526.922L528.184 1299.8L529.131 1300.43V1299.8L530.393 1299.48L530.708 1298.54L529.446 1297.91L528.815 1296.33L529.131 1295.7H531.024L531.655 1296.01L532.917 1295.7L532.602 1294.75H530.077V1295.07L528.815 1295.7H526.922L525.344 1294.75V1293.8L527.553 1294.44L529.446 1293.8H530.393L531.971 1293.49ZM531.971 1293.49L533.233 1294.12V1293.8L531.971 1293.49Z" stroke="black" stroke-width="0.2" stroke-linecap="round" stroke-linejoin="round"/>
<path d="M537.02 1287.49H537.966L538.913 1288.44L537.966 1288.76H537.02V1287.49Z" fill="#5C3127" stroke="black" stroke-width="0.2" stroke-linecap="round" stroke-linejoin="round"/>
<path d="M533.864 1287.49H532.917L532.602 1286.55L533.864 1286.86V1287.49Z" fill="#5C3127" stroke="black" stroke-width="0.2" stroke-linecap="round" stroke-linejoin="round"/>
<path d="M529.446 1286.86L531.339 1286.55L531.97 1287.49L531.024 1288.76L530.392 1288.44L529.446 1288.76L528.499 1288.13L529.446 1287.49L530.392 1288.13L530.708 1287.49L529.13 1287.18L529.446 1286.86Z" fill="#5C3127" stroke="black" stroke-width="0.2" stroke-linecap="round" stroke-linejoin="round"/>
<path d="M552.165 1287.18H554.059L554.374 1286.86L555.952 1286.55L557.214 1287.18L558.476 1288.13L558.792 1289.07V1289.39L557.214 1289.7L556.583 1288.76L555.952 1288.44L555.637 1289.39L556.268 1289.7L556.583 1290.65L557.53 1290.02L558.161 1290.33L558.476 1291.6L559.423 1291.91L559.739 1291.6L561.317 1292.54L561.632 1291.28L559.108 1290.65L559.423 1289.07L560.37 1288.44L565.103 1288.13L567.312 1290.02L567.943 1290.33V1291.6L566.05 1291.28L564.472 1290.65L562.579 1291.28L563.525 1291.91L564.787 1292.23L567.628 1292.54L568.574 1292.86L568.89 1293.49L568.259 1295.07H566.681L566.365 1295.38L564.157 1295.7L562.579 1296.33L563.525 1296.96L560.685 1298.22L559.423 1297.91L557.846 1298.22H555.637L553.743 1297.59L551.85 1296.33V1297.28L552.797 1297.91L554.69 1298.54L555.637 1299.48L556.268 1299.17L557.53 1299.48L558.792 1300.43L558.161 1300.75L558.792 1302.32H558.161L557.214 1301.38L555.952 1301.06L554.374 1302.32L553.743 1301.38L552.797 1300.75H551.85L550.272 1300.12L549.641 1300.43L550.272 1301.69H551.219L551.85 1302.32L551.219 1302.64L553.428 1304.53L552.797 1304.85L551.535 1304.22H550.588L549.641 1303.27L548.695 1302.95L547.748 1302.64L547.432 1304.53L549.01 1304.85V1305.79L548.695 1306.43L547.432 1306.11L547.117 1305.48L545.539 1304.85L545.224 1304.22H544.592L543.33 1302.64L544.277 1301.38V1300.75L543.015 1299.17V1298.54L544.592 1297.91L544.277 1297.28L545.854 1296.96L545.539 1296.01L547.432 1294.75L549.326 1294.12L550.588 1295.38V1296.64L551.535 1296.33L549.957 1294.44L550.272 1293.49L548.379 1292.86L547.117 1291.91L547.432 1291.28L548.695 1291.91L549.01 1290.33L546.801 1289.7L547.117 1288.76L547.748 1289.07L548.695 1288.44H549.641L550.272 1287.49L549.326 1286.55H550.588L552.165 1287.18Z" fill="#5C3127" stroke="black" stroke-width="0.2" stroke-linecap="round" stroke-linejoin="round"/>
<path d="M536.388 1285.92H538.597L539.228 1286.55L539.859 1285.92L540.49 1286.23L541.121 1287.18L540.49 1287.49L539.228 1287.18L537.966 1286.55L535.441 1286.23L535.757 1285.6L536.388 1285.92Z" fill="#5C3127" stroke="black" stroke-width="0.2" stroke-linecap="round" stroke-linejoin="round"/>
<path d="M514.93 1282.45L513.353 1282.13L513.668 1281.5L514.93 1282.45Z" fill="#5C3127" stroke="black" stroke-width="0.2" stroke-linecap="round" stroke-linejoin="round"/>
<path d="M371.356 32.6743L370.724 34.2519L369.778 35.514L369.147 35.8295L368.831 37.0916L369.462 38.9847L368.831 39.3001V41.5088L369.462 42.4553L370.094 43.0864L369.462 43.7175L369.147 44.664V46.8727L368.516 47.1881L367.254 47.8192L365.676 48.1347H364.729L363.151 48.4503L361.574 48.1347L360.311 48.4503L359.365 48.1347L357.787 48.7657L356.525 48.1347H354.632L353.685 48.7657L352.738 48.4503L354.316 47.8192L355.263 46.8727L356.525 46.5571L357.787 45.6105L358.418 44.664L360.311 44.9795L361.258 43.7175L360.627 41.1933L361.258 39.9312V38.3536V37.7225L360.311 36.4605L359.365 36.145L358.102 35.8295L357.787 35.514L359.049 34.5674L362.52 34.2519L363.151 33.6208H366.622L366.938 33.3053L370.724 32.6743H371.356Z" fill="#5C3127" stroke="black" stroke-width="0.2" stroke-linecap="round" stroke-linejoin="round"/>
<path d="M378.929 22.5776L378.613 24.1552L377.667 24.4708L376.405 25.4173H375.774L373.565 26.6793L372.934 26.0484L373.88 25.1018L376.089 23.5242L378.929 22.5776Z" fill="#5C3127" stroke="black" stroke-width="0.2" stroke-linecap="round" stroke-linejoin="round"/>
</svg>
