<svg width="636" height="802" viewBox="0 0 636 802" fill="none" xmlns="http://www.w3.org/2000/svg">
<path d="M585.903 276.213L534.815 737.671C533.686 747.877 528.816 757.303 521.145 764.13C513.475 770.957 503.548 774.7 493.279 774.638H142.721C132.452 774.7 122.525 770.957 114.855 764.13C107.184 757.303 102.315 747.877 101.185 737.671L50.0967 276.213H585.903Z" fill="#99582A"/>
<path d="M50.0966 276.213H585.903M68.7875 27.0008C62.9264 26.9652 57.124 28.1705 51.7619 30.5375C46.3998 32.9045 41.5994 36.3796 37.6762 40.7343C33.753 45.089 30.796 50.2248 28.9994 55.8039C27.2027 61.3831 26.6073 67.2794 27.2521 73.1051L100.77 737.672C101.899 747.878 106.769 757.304 114.439 764.13C122.11 770.957 132.037 774.7 142.305 774.638H492.864C503.132 774.7 513.059 770.957 520.73 764.13C528.4 757.304 533.27 747.878 534.399 737.672L608.748 73.1051C609.393 67.2794 608.797 61.3831 607.001 55.8039C605.204 50.2248 602.247 45.089 598.324 40.7343C594.401 36.3796 589.6 32.9045 584.238 30.5375C578.876 28.1705 573.074 26.9652 567.212 27.0008H68.7875Z" stroke="#FFE6A7" stroke-width="54" stroke-linecap="round" stroke-linejoin="round"/>
</svg>
