<svg width="393" height="582" viewBox="0 0 393 582" fill="none" xmlns="http://www.w3.org/2000/svg">
<path d="M375.227 283.705C380.782 336.208 376.723 408.416 351.886 466.779C339.535 495.802 322.32 520.772 299.225 538.457C276.317 555.998 246.823 567.001 208.575 567.001C140.553 567.001 90.1827 536.281 57.8729 486.207C25.181 435.541 10.5115 364.145 17.2803 283.38C24.1923 200.907 38.9015 133.189 66.6032 86.4336C80.3148 63.2909 97.0232 45.6082 117.307 33.6507C137.553 21.7148 162.179 15 192.5 15C225.2 15 251.006 20.1995 271.759 30.1645C292.343 40.0484 308.809 55.026 322.323 76.012C349.912 118.856 364.901 186.104 375.227 283.705Z" fill="#6F3B1D" stroke="#3D1803" stroke-width="30"/>
<path d="M199 76C224 104.5 243.5 218.5 199 283.004C146 349 159.5 446 189.786 493" stroke="#AB6533" stroke-opacity="0.82" stroke-width="33" stroke-linecap="round"/>
</svg>
