<svg width="1191" height="950" viewBox="0 0 1191 950" fill="none" xmlns="http://www.w3.org/2000/svg">
<path d="M994.504 93.5201L1006.86 100.093C978.204 132.059 965.066 154.624 949.687 207.628L937.326 201.056C953.758 158.768 965.792 135.199 994.504 93.5201Z" fill="#784622"/>
<g clip-path="url(#clip0_234_294)">
<path d="M1156 174.715L1001.13 159.803C993.594 159.077 988.08 152.324 988.812 144.72L997.759 51.8009C998.491 44.1964 1005.19 38.6195 1012.73 39.345L1167.6 54.2576C1175.13 54.9831 1180.65 61.7358 1179.92 69.3407L1170.97 162.26C1170.24 169.864 1163.54 175.441 1156 174.715Z" fill="#005EB8"/>
<path d="M1170.56 164.516L1101.56 108.686L1179.95 67.048C1179.5 60.4227 1174.37 54.9091 1167.6 54.2576L1164.05 53.9156L1085.46 95.6601L1016.28 39.687L1012.73 39.345C1005.96 38.6935 999.869 43.1261 998.167 49.5446L1067.17 105.374L988.782 147.012C989.228 153.638 994.362 159.151 1001.13 159.803L1004.68 160.145L1083.27 118.4L1152.45 174.373L1156 174.715C1162.77 175.367 1168.86 170.934 1170.56 164.516Z" fill="#F5F5F5"/>
</g>
<path d="M1041.83 190.39H986.656H957.691H876.311H848.725H765.966H738.38H655.62H628.034H545.275H517.689H434.931H407.345H350.794C320.448 190.39 297 213.838 297 244.184V355.907C297 375.218 305.277 394.527 319.069 406.942C325.059 411.735 331.573 415.745 338.38 418.749V493.838V935.218C338.38 943.495 343.897 949.012 352.173 949.012H421.139H614.242H1041.83C1050.1 949.012 1055.62 943.495 1055.62 935.218V493.842V418.785C1079.81 407.162 1097 381.451 1097 353.149V244.184C1097 213.838 1073.55 190.39 1041.83 190.39ZM876.311 217.977H957.691V355.909C957.691 358.679 957.911 361.446 958.292 364.196C954.622 383.452 938.287 397.288 917.691 397.288C894.242 397.288 876.311 379.357 876.311 355.909V217.977ZM765.966 217.977H848.725V355.909C848.725 379.357 830.794 397.288 807.345 397.288C783.897 397.288 765.966 379.357 765.966 355.909V217.977ZM655.62 217.977H738.38V355.909C738.38 379.357 720.448 397.288 697 397.288C673.552 397.288 655.62 379.357 655.62 355.909V217.977ZM545.277 217.977H628.036V355.909C628.036 379.357 610.105 397.288 586.656 397.288C563.208 397.288 545.277 379.357 545.277 355.909V217.977ZM434.931 217.977H517.691V355.909C517.691 379.357 499.759 397.288 476.311 397.288C452.863 397.288 434.931 379.357 434.931 355.909V353.149V217.977ZM324.586 355.907V244.184C324.586 229.012 335.62 217.977 350.792 217.977H407.344V353.149C407.344 373.777 392.881 391.992 374.097 396.535C372.053 396.917 369.95 397.157 367.795 397.243C357.37 396.876 346.083 393.956 338.378 386.252C330.103 379.356 324.586 366.942 324.586 355.907ZM372.862 424.873C378.322 424.218 383.608 422.867 388.639 420.921C401.589 416.348 412.972 408.07 420.969 397.499C433.45 414.217 453.427 424.873 476.311 424.873C499.094 424.873 518.991 414.307 531.483 397.717C543.975 414.307 563.872 424.873 586.655 424.873C609.438 424.873 629.334 414.307 641.827 397.717C654.319 414.307 674.216 424.873 696.998 424.873C719.781 424.873 739.678 414.307 752.17 397.717C764.662 414.307 784.559 424.873 807.342 424.873C830.125 424.873 850.022 414.307 862.514 397.717C875.006 414.307 894.903 424.873 917.686 424.873C940.403 424.873 960.248 414.367 972.747 397.859C975.311 401.163 978.116 404.226 981.133 406.942C983.342 408.71 985.631 410.359 987.97 411.902C997.731 418.827 1009.4 423.37 1021.73 424.542C1021.83 424.552 1021.93 424.56 1022.03 424.57C1022.88 424.646 1023.72 424.72 1024.57 424.765C1025.72 424.831 1026.88 424.873 1028.03 424.873V480.045H365.966V424.873C368.723 424.873 370.103 424.873 372.862 424.873ZM434.931 921.424V562.804H600.448V755.907H572.862C564.586 755.907 559.069 761.424 559.069 769.701C559.069 777.977 564.586 783.495 572.862 783.495H600.448V921.426H434.931V921.424ZM1028.03 921.424H628.034V549.012C628.034 540.735 622.517 535.218 614.241 535.218H421.137C412.861 535.218 407.344 540.735 407.344 549.012V921.426H365.966V507.632H1028.03V921.424ZM1069.41 353.149C1069.41 373.529 1056.91 389.734 1040.05 395.44C1039.27 395.512 1038.48 395.646 1037.69 395.909C1035.66 396.924 1032.88 397.19 1030.46 397.26C1019.87 396.984 1008.3 394.102 1000.45 386.252C992.172 379.356 986.655 366.942 986.655 355.907V217.977H1043.21C1058.38 217.977 1069.41 230.392 1069.41 244.184V353.149H1069.41Z" fill="#99582A"/>
<path d="M683.206 866.252H752.172H917.689H986.655C994.931 866.252 1000.45 860.735 1000.45 852.459V549.012C1000.45 540.735 994.931 535.218 986.655 535.218H903.895H765.964H683.205C674.928 535.218 669.411 540.735 669.411 549.012V852.46C669.414 860.735 674.931 866.252 683.206 866.252ZM876.311 797.287C884.587 797.287 890.105 791.77 890.105 783.493C890.105 775.217 884.587 769.699 876.311 769.699H793.552C785.275 769.699 779.758 775.217 779.758 783.493C779.758 791.77 785.275 797.287 793.552 797.287H821.137V838.667H765.575C762.855 789.545 745.703 748.526 720.447 728.321C752.992 700.984 776.925 639.234 779.514 562.804H890.333C892.786 639.234 915.566 700.984 949.412 728.321C924.158 748.526 907.005 789.545 904.284 838.667H848.722V797.287H876.311ZM972.862 838.667H931.483C935.62 791.77 953.552 757.287 972.862 746.252V838.667ZM972.862 562.804V710.39C945.277 695.218 920.448 640.045 917.691 562.804H972.862ZM697 562.804H752.172C749.412 640.046 723.206 695.218 697 710.39V562.804ZM697 746.252C717.689 757.287 735.62 791.77 738.38 838.667H697V746.252Z" fill="#FFE6A7"/>
<path d="M572.863 686.942V604.182C572.863 595.906 567.345 590.388 559.069 590.388H476.309C468.033 590.388 462.516 595.906 462.516 604.182V686.942C462.516 695.218 468.033 700.735 476.309 700.735H559.069C567.345 700.735 572.863 695.218 572.863 686.942ZM545.277 673.149H490.105V617.978H545.277V673.149Z" fill="#178F8E"/>
<path d="M470.287 723.007H471.896V730.9H471.36C469.434 730.9 467.627 731.168 465.939 731.705C464.271 732.241 462.801 733.055 461.531 734.147C460.28 735.219 459.297 736.579 458.582 738.228C457.887 739.876 457.539 741.812 457.539 744.036V751.631C457.539 753.021 457.659 754.232 457.897 755.265C458.135 756.297 458.493 757.151 458.969 757.826C459.446 758.501 460.031 759.008 460.726 759.345C461.441 759.683 462.265 759.852 463.199 759.852C463.973 759.852 464.688 759.673 465.343 759.315C465.998 758.958 466.564 758.452 467.041 757.796C467.537 757.141 467.915 756.377 468.173 755.503C468.431 754.629 468.56 753.676 468.56 752.644C468.56 751.532 468.421 750.529 468.143 749.635C467.865 748.742 467.468 747.987 466.952 747.372C466.455 746.736 465.849 746.26 465.135 745.942C464.44 745.604 463.675 745.436 462.841 745.436C461.57 745.436 460.488 745.723 459.595 746.299C458.721 746.855 458.056 747.57 457.599 748.444C457.162 749.318 456.944 750.201 456.944 751.095L454.531 748.652C454.491 747.461 454.72 746.23 455.216 744.959C455.713 743.688 456.457 742.507 457.45 741.415C458.443 740.322 459.684 739.439 461.173 738.764C462.662 738.089 464.39 737.751 466.356 737.751C468.342 737.751 470.089 738.128 471.598 738.883C473.127 739.637 474.408 740.69 475.44 742.04C476.493 743.39 477.287 744.969 477.823 746.776C478.359 748.583 478.627 750.539 478.627 752.644C478.627 754.768 478.25 756.744 477.495 758.571C476.761 760.378 475.718 761.956 474.368 763.307C473.018 764.657 471.419 765.709 469.573 766.464C467.726 767.218 465.691 767.596 463.467 767.596C461.183 767.596 459.068 767.208 457.122 766.434C455.196 765.64 453.509 764.498 452.059 763.009C450.629 761.5 449.507 759.663 448.693 757.499C447.899 755.334 447.502 752.882 447.502 750.142V746.478C447.502 742.765 448.107 739.459 449.319 736.56C450.55 733.66 452.218 731.208 454.323 729.203C456.447 727.177 458.88 725.638 461.62 724.586C464.36 723.534 467.249 723.007 470.287 723.007ZM494.039 741.117H498.924C500.175 741.117 501.198 740.898 501.992 740.461C502.806 740.005 503.412 739.369 503.809 738.555C504.206 737.721 504.405 736.738 504.405 735.606C504.405 734.733 504.216 733.929 503.839 733.194C503.481 732.459 502.925 731.873 502.171 731.437C501.416 730.98 500.453 730.751 499.282 730.751C498.487 730.751 497.713 730.92 496.958 731.258C496.204 731.576 495.578 732.032 495.082 732.628C494.605 733.224 494.367 733.948 494.367 734.802H484.3C484.3 732.34 484.975 730.235 486.325 728.488C487.695 726.721 489.492 725.37 491.716 724.437C493.96 723.484 496.373 723.007 498.954 723.007C502.032 723.007 504.732 723.484 507.055 724.437C509.379 725.37 511.186 726.76 512.476 728.607C513.787 730.434 514.442 732.697 514.442 735.398C514.442 736.887 514.095 738.287 513.4 739.598C512.705 740.908 511.732 742.06 510.481 743.053C509.23 744.046 507.76 744.83 506.073 745.406C504.405 745.962 502.578 746.24 500.592 746.24H494.039V741.117ZM494.039 748.593V743.589H500.592C502.756 743.589 504.732 743.837 506.519 744.333C508.306 744.81 509.845 745.525 511.136 746.478C512.427 747.431 513.42 748.613 514.115 750.022C514.81 751.412 515.157 753.011 515.157 754.818C515.157 756.843 514.75 758.65 513.936 760.239C513.122 761.827 511.98 763.168 510.511 764.26C509.041 765.352 507.324 766.186 505.358 766.762C503.392 767.318 501.257 767.596 498.954 767.596C497.147 767.596 495.34 767.357 493.533 766.881C491.726 766.384 490.078 765.63 488.589 764.617C487.099 763.585 485.898 762.274 484.985 760.686C484.091 759.077 483.644 757.161 483.644 754.937H493.712C493.712 755.85 493.96 756.684 494.456 757.439C494.973 758.174 495.658 758.759 496.512 759.196C497.365 759.633 498.289 759.852 499.282 759.852C500.513 759.852 501.555 759.623 502.409 759.167C503.283 758.69 503.948 758.055 504.405 757.26C504.861 756.466 505.09 755.582 505.09 754.609C505.09 753.14 504.841 751.968 504.345 751.095C503.868 750.221 503.164 749.586 502.23 749.188C501.317 748.791 500.215 748.593 498.924 748.593H494.039Z" fill="#178F8E"/>
<rect x="8" y="678.5" width="249" height="85" fill="#FFE6A7"/>
<path d="M45.5 935H134.25M223 935H134.25M134.25 935V768M134.25 768H256.5C257.052 768 257.5 767.552 257.5 767V678C257.5 677.448 257.052 677 256.5 677H132.75M134.25 768H9C8.44772 768 8 767.552 8 767V678C8 677.448 8.44772 677 9 677H132.75M132.75 677V631" stroke="#99582A" stroke-width="16" stroke-linecap="round"/>
<path d="M46.0781 728.314C46.0781 727.756 45.9922 727.255 45.8203 726.811C45.6628 726.352 45.362 725.937 44.918 725.564C44.474 725.178 43.8509 724.798 43.0488 724.426C42.2467 724.053 41.2083 723.667 39.9336 723.266C38.5156 722.807 37.1693 722.292 35.8945 721.719C34.6341 721.146 33.5169 720.48 32.543 719.721C31.5833 718.947 30.8242 718.052 30.2656 717.035C29.7214 716.018 29.4492 714.837 29.4492 713.49C29.4492 712.187 29.7357 711.005 30.3086 709.945C30.8815 708.871 31.6836 707.954 32.7148 707.195C33.7461 706.422 34.9635 705.827 36.3672 705.412C37.7852 704.997 39.3392 704.789 41.0293 704.789C43.3353 704.789 45.3477 705.204 47.0664 706.035C48.7852 706.866 50.1172 708.005 51.0625 709.451C52.0221 710.898 52.502 712.552 52.502 714.414H46.0996C46.0996 713.497 45.9062 712.695 45.5195 712.008C45.1471 711.306 44.5742 710.755 43.8008 710.354C43.0417 709.952 42.082 709.752 40.9219 709.752C39.8047 709.752 38.8737 709.924 38.1289 710.268C37.3841 710.597 36.8255 711.048 36.4531 711.621C36.0807 712.18 35.8945 712.81 35.8945 713.512C35.8945 714.042 36.0234 714.521 36.2812 714.951C36.5534 715.381 36.9544 715.782 37.4844 716.154C38.0143 716.527 38.666 716.878 39.4395 717.207C40.2129 717.536 41.1081 717.859 42.125 718.174C43.8294 718.689 45.3262 719.27 46.6152 719.914C47.9186 720.559 49.0072 721.282 49.8809 722.084C50.7546 722.886 51.4134 723.796 51.8574 724.812C52.3014 725.829 52.5234 726.982 52.5234 728.271C52.5234 729.632 52.2585 730.85 51.7285 731.924C51.1986 732.998 50.4323 733.908 49.4297 734.652C48.4271 735.397 47.2311 735.963 45.8418 736.35C44.4525 736.736 42.8984 736.93 41.1797 736.93C39.6328 736.93 38.1074 736.729 36.6035 736.328C35.0996 735.913 33.7318 735.29 32.5 734.459C31.2826 733.628 30.3086 732.568 29.5781 731.279C28.8477 729.99 28.4824 728.465 28.4824 726.703H34.9492C34.9492 727.677 35.0996 728.501 35.4004 729.174C35.7012 729.847 36.1237 730.391 36.668 730.807C37.2266 731.222 37.8854 731.523 38.6445 731.709C39.418 731.895 40.263 731.988 41.1797 731.988C42.2969 731.988 43.2135 731.831 43.9297 731.516C44.6602 731.201 45.1973 730.764 45.541 730.205C45.8991 729.646 46.0781 729.016 46.0781 728.314ZM60.3566 703.5V736.5H54.1691V703.5H60.3566ZM59.4758 724.061H57.7785C57.7928 722.442 58.0077 720.952 58.423 719.592C58.8384 718.217 59.4328 717.028 60.2062 716.025C60.9797 715.008 61.9035 714.221 62.9777 713.662C64.0663 713.104 65.2694 712.824 66.5871 712.824C67.7329 712.824 68.7714 712.989 69.7023 713.318C70.6477 713.633 71.4569 714.149 72.1301 714.865C72.8176 715.567 73.3475 716.491 73.7199 717.637C74.0923 718.783 74.2785 720.172 74.2785 721.805V736.5H68.048V721.762C68.048 720.73 67.8977 719.921 67.5969 719.334C67.3104 718.732 66.8879 718.31 66.3293 718.066C65.785 717.809 65.1118 717.68 64.3098 717.68C63.4217 717.68 62.6626 717.844 62.0324 718.174C61.4165 718.503 60.9224 718.962 60.55 719.549C60.1776 720.122 59.9055 720.795 59.7336 721.568C59.5617 722.342 59.4758 723.173 59.4758 724.061ZM75.7953 725.113V724.662C75.7953 722.958 76.0388 721.389 76.5258 719.957C77.0128 718.51 77.7217 717.257 78.6527 716.197C79.5837 715.137 80.7296 714.314 82.0902 713.727C83.4509 713.125 85.0121 712.824 86.7738 712.824C88.5355 712.824 90.1039 713.125 91.4789 713.727C92.8539 714.314 94.0069 715.137 94.9379 716.197C95.8832 717.257 96.5993 718.51 97.0863 719.957C97.5733 721.389 97.8168 722.958 97.8168 724.662V725.113C97.8168 726.803 97.5733 728.372 97.0863 729.818C96.5993 731.251 95.8832 732.504 94.9379 733.578C94.0069 734.638 92.8611 735.462 91.5004 736.049C90.1397 736.636 88.5785 736.93 86.8168 736.93C85.0551 736.93 83.4867 736.636 82.1117 736.049C80.751 735.462 79.598 734.638 78.6527 733.578C77.7217 732.504 77.0128 731.251 76.5258 729.818C76.0388 728.372 75.7953 726.803 75.7953 725.113ZM81.9828 724.662V725.113C81.9828 726.087 82.0687 726.997 82.2406 727.842C82.4125 728.687 82.6846 729.432 83.057 730.076C83.4437 730.706 83.9451 731.201 84.5609 731.559C85.1768 731.917 85.9288 732.096 86.8168 732.096C87.6762 732.096 88.4138 731.917 89.0297 731.559C89.6456 731.201 90.1397 730.706 90.5121 730.076C90.8845 729.432 91.1566 728.687 91.3285 727.842C91.5147 726.997 91.6078 726.087 91.6078 725.113V724.662C91.6078 723.717 91.5147 722.829 91.3285 721.998C91.1566 721.153 90.8773 720.408 90.4906 719.764C90.1182 719.105 89.6241 718.589 89.0082 718.217C88.3923 717.844 87.6475 717.658 86.7738 717.658C85.9001 717.658 85.1553 717.844 84.5395 718.217C83.9379 718.589 83.4437 719.105 83.057 719.764C82.6846 720.408 82.4125 721.153 82.2406 721.998C82.0687 722.829 81.9828 723.717 81.9828 724.662ZM105.607 718.324V736.5H99.4195V713.254H105.242L105.607 718.324ZM112.611 713.104L112.504 718.84C112.203 718.797 111.838 718.761 111.408 718.732C110.992 718.689 110.613 718.668 110.269 718.668C109.395 718.668 108.636 718.783 107.992 719.012C107.362 719.227 106.832 719.549 106.402 719.979C105.987 720.408 105.671 720.931 105.457 721.547C105.256 722.163 105.142 722.865 105.113 723.652L103.867 723.266C103.867 721.762 104.017 720.38 104.318 719.119C104.619 717.844 105.056 716.734 105.629 715.789C106.216 714.844 106.932 714.113 107.777 713.598C108.622 713.082 109.589 712.824 110.677 712.824C111.021 712.824 111.372 712.853 111.73 712.91C112.088 712.953 112.382 713.018 112.611 713.104ZM123.602 736.93C121.798 736.93 120.179 736.643 118.747 736.07C117.315 735.483 116.097 734.674 115.095 733.643C114.106 732.611 113.347 731.415 112.817 730.055C112.287 728.68 112.022 727.219 112.022 725.672V724.812C112.022 723.051 112.273 721.439 112.774 719.979C113.276 718.518 113.992 717.25 114.923 716.176C115.868 715.102 117.014 714.278 118.36 713.705C119.707 713.118 121.225 712.824 122.915 712.824C124.562 712.824 126.023 713.096 127.298 713.641C128.572 714.185 129.639 714.958 130.499 715.961C131.373 716.964 132.031 718.167 132.475 719.57C132.919 720.96 133.141 722.507 133.141 724.211V726.789H114.665V722.664H127.061V722.191C127.061 721.332 126.904 720.566 126.589 719.893C126.288 719.205 125.83 718.661 125.214 718.26C124.598 717.859 123.81 717.658 122.85 717.658C122.034 717.658 121.332 717.837 120.745 718.195C120.158 718.553 119.678 719.055 119.305 719.699C118.947 720.344 118.675 721.103 118.489 721.977C118.317 722.836 118.231 723.781 118.231 724.812V725.672C118.231 726.603 118.36 727.462 118.618 728.25C118.89 729.038 119.27 729.718 119.757 730.291C120.258 730.864 120.86 731.308 121.561 731.623C122.277 731.938 123.087 732.096 123.989 732.096C125.106 732.096 126.145 731.881 127.104 731.451C128.078 731.007 128.916 730.341 129.618 729.453L132.626 732.719C132.139 733.421 131.473 734.094 130.628 734.738C129.797 735.383 128.794 735.913 127.62 736.328C126.445 736.729 125.106 736.93 123.602 736.93ZM140.33 731.279L140.309 735.426C140.309 737.016 139.908 738.62 139.105 740.238C138.318 741.857 137.315 743.182 136.098 744.213L132.875 742.559C133.233 741.9 133.584 741.241 133.928 740.582C134.271 739.923 134.558 739.2 134.787 738.412C135.016 737.624 135.131 736.729 135.131 735.727V731.279H140.33ZM172.346 731.473V736.5H156.598V731.473H172.346ZM158.682 705.219V736.5H152.237V705.219H158.682ZM184.154 736.93C182.349 736.93 180.731 736.643 179.298 736.07C177.866 735.483 176.649 734.674 175.646 733.643C174.658 732.611 173.899 731.415 173.369 730.055C172.839 728.68 172.574 727.219 172.574 725.672V724.812C172.574 723.051 172.824 721.439 173.326 719.979C173.827 718.518 174.543 717.25 175.474 716.176C176.42 715.102 177.565 714.278 178.912 713.705C180.258 713.118 181.776 712.824 183.466 712.824C185.114 712.824 186.574 713.096 187.849 713.641C189.124 714.185 190.191 714.958 191.05 715.961C191.924 716.964 192.583 718.167 193.027 719.57C193.471 720.96 193.693 722.507 193.693 724.211V726.789H175.216V722.664H187.613V722.191C187.613 721.332 187.455 720.566 187.14 719.893C186.839 719.205 186.381 718.661 185.765 718.26C185.149 717.859 184.362 717.658 183.402 717.658C182.586 717.658 181.884 717.837 181.296 718.195C180.709 718.553 180.229 719.055 179.857 719.699C179.499 720.344 179.227 721.103 179.041 721.977C178.869 722.836 178.783 723.781 178.783 724.812V725.672C178.783 726.603 178.912 727.462 179.17 728.25C179.442 729.038 179.821 729.718 180.308 730.291C180.809 730.864 181.411 731.308 182.113 731.623C182.829 731.938 183.638 732.096 184.541 732.096C185.658 732.096 186.696 731.881 187.656 731.451C188.63 731.007 189.468 730.341 190.17 729.453L193.177 732.719C192.69 733.421 192.024 734.094 191.179 734.738C190.349 735.383 189.346 735.913 188.171 736.328C186.997 736.729 185.658 736.93 184.154 736.93ZM201.548 713.254V736.5H195.339V713.254H201.548ZM194.952 707.195C194.952 706.293 195.267 705.548 195.897 704.961C196.527 704.374 197.373 704.08 198.432 704.08C199.478 704.08 200.316 704.374 200.946 704.961C201.591 705.548 201.913 706.293 201.913 707.195C201.913 708.098 201.591 708.842 200.946 709.43C200.316 710.017 199.478 710.311 198.432 710.311C197.373 710.311 196.527 710.017 195.897 709.43C195.267 708.842 194.952 708.098 194.952 707.195ZM215.848 713.254V717.637H202.312V713.254H215.848ZM205.664 707.518H211.852V729.496C211.852 730.169 211.938 730.685 212.109 731.043C212.296 731.401 212.568 731.652 212.926 731.795C213.284 731.924 213.735 731.988 214.279 731.988C214.666 731.988 215.01 731.974 215.311 731.945C215.626 731.902 215.891 731.859 216.105 731.816L216.127 736.371C215.597 736.543 215.024 736.679 214.408 736.779C213.792 736.88 213.112 736.93 212.367 736.93C211.007 736.93 209.818 736.708 208.801 736.264C207.798 735.805 207.025 735.075 206.48 734.072C205.936 733.07 205.664 731.752 205.664 730.119V707.518ZM223.208 703.5V736.5H217.021V703.5H223.208ZM222.327 724.061H220.63C220.644 722.442 220.859 720.952 221.275 719.592C221.69 718.217 222.284 717.028 223.058 716.025C223.831 715.008 224.755 714.221 225.829 713.662C226.918 713.104 228.121 712.824 229.439 712.824C230.585 712.824 231.623 712.989 232.554 713.318C233.499 713.633 234.308 714.149 234.982 714.865C235.669 715.567 236.199 716.491 236.571 717.637C236.944 718.783 237.13 720.172 237.13 721.805V736.5H230.9V721.762C230.9 720.73 230.749 719.921 230.448 719.334C230.162 718.732 229.739 718.31 229.181 718.066C228.637 717.809 227.963 717.68 227.161 717.68C226.273 717.68 225.514 717.844 224.884 718.174C224.268 718.503 223.774 718.962 223.402 719.549C223.029 720.122 222.757 720.795 222.585 721.568C222.413 722.342 222.327 723.173 222.327 724.061Z" fill="#178F8E"/>
<defs>
<clipPath id="clip0_234_294">
<rect width="183" height="184.707" fill="white" transform="translate(1002.14 6.33197) rotate(5.5)"/>
</clipPath>
</defs>
</svg>
