<svg width="938" height="845" viewBox="0 0 938 845" fill="none" xmlns="http://www.w3.org/2000/svg">
<path d="M743.76 0.5L809 114V624.5L719 709.5L716 141L743.76 0.5Z" fill="#955427"/>
<path d="M825 672.019C825.011 669.81 823.229 668.011 821.019 668L785.02 667.825C782.811 667.814 781.011 669.596 781 671.806C780.99 674.015 782.772 675.814 784.981 675.825L816.981 675.981L816.825 707.98C816.814 710.189 818.596 711.989 820.806 712C823.015 712.01 824.814 710.228 824.825 708.019L825 672.019ZM731.936 765.832L823.815 674.842L818.185 669.158L726.307 760.147L731.936 765.832Z" fill="#99582A"/>
<path d="M786.25 777V773.616L792.292 772.864V743.565L786.142 743.672V740.369L797.583 737.898V772.864L803.598 773.616V777H786.25ZM822.155 777.564C819.613 777.564 817.339 776.946 815.334 775.711C813.347 774.458 811.78 772.64 810.634 770.259C809.488 767.878 808.916 764.996 808.916 761.612V756.348C808.916 752.212 809.533 748.739 810.769 745.928C812.022 743.099 813.741 740.96 815.925 739.51C818.127 738.06 820.651 737.334 823.498 737.334C824.823 737.334 826.139 737.487 827.446 737.791C828.771 738.095 829.863 738.48 830.722 738.946L829.702 742.894C828.86 742.482 827.938 742.151 826.936 741.9C825.933 741.631 824.787 741.497 823.498 741.497C820.759 741.497 818.575 742.535 816.945 744.612C815.334 746.671 814.475 749.786 814.367 753.958L814.475 754.065C815.477 753.134 816.704 752.4 818.154 751.863C819.604 751.308 821.171 751.031 822.854 751.031C825.181 751.031 827.204 751.586 828.923 752.696C830.642 753.788 831.966 755.301 832.897 757.234C833.846 759.168 834.321 761.37 834.321 763.841C834.321 766.544 833.819 768.925 832.817 770.984C831.814 773.043 830.4 774.655 828.574 775.818C826.748 776.982 824.608 777.564 822.155 777.564ZM822.155 773.428C823.605 773.428 824.841 773.007 825.861 772.166C826.882 771.325 827.661 770.179 828.198 768.729C828.753 767.278 829.03 765.649 829.03 763.841C829.03 761.263 828.377 759.141 827.07 757.476C825.781 755.811 823.99 754.979 821.699 754.979C820.499 754.979 819.407 755.149 818.422 755.489C817.456 755.811 816.614 756.277 815.898 756.885C815.2 757.476 814.627 758.174 814.179 758.98V762.122C814.179 765.757 814.931 768.549 816.435 770.501C817.957 772.452 819.864 773.428 822.155 773.428ZM851.508 777.564C848.876 777.564 846.585 776.955 844.633 775.738C842.682 774.502 841.169 772.793 840.095 770.608C839.021 768.424 838.483 765.9 838.483 763.035V761.907C838.483 759.15 839.003 756.679 840.041 754.495C841.079 752.311 842.574 750.583 844.526 749.312C846.477 748.041 848.805 747.405 851.508 747.405C853.854 747.405 855.904 747.79 857.658 748.56C859.431 749.33 860.917 750.386 862.116 751.729L862.25 758.711H858.115L857.202 753.636C856.593 753.009 855.832 752.508 854.919 752.132C854.006 751.756 852.932 751.568 851.696 751.568C850.121 751.568 848.733 752.033 847.534 752.964C846.352 753.895 845.43 755.14 844.768 756.697C844.105 758.255 843.774 759.992 843.774 761.907V763.035C843.774 765.148 844.078 766.983 844.687 768.541C845.314 770.098 846.2 771.307 847.346 772.166C848.509 773.007 849.888 773.428 851.481 773.428C853.272 773.428 854.758 772.936 855.939 771.951C857.121 770.966 857.846 769.615 858.115 767.896H862.868L862.922 768.057C862.832 769.722 862.34 771.28 861.445 772.73C860.55 774.18 859.27 775.353 857.604 776.248C855.957 777.125 853.925 777.564 851.508 777.564ZM867.058 777V773.616L871.435 772.864V752.105L867.058 751.353V747.942H876.188L876.538 751.729C877.469 750.35 878.668 749.285 880.136 748.533C881.604 747.781 883.305 747.405 885.239 747.405C887.172 747.405 888.828 747.853 890.207 748.748C891.604 749.643 892.651 750.986 893.349 752.776C894.262 751.129 895.471 749.822 896.975 748.855C898.479 747.889 900.233 747.405 902.238 747.405C905.21 747.405 907.556 748.426 909.274 750.467C910.993 752.49 911.853 755.542 911.853 759.625V772.864L916.23 773.616V777H902.158V773.616L906.535 772.864V759.571C906.535 756.706 906.043 754.683 905.058 753.501C904.073 752.302 902.614 751.702 900.681 751.702C898.837 751.702 897.351 752.356 896.223 753.663C895.113 754.952 894.468 756.581 894.289 758.55V772.864L898.667 773.616V777H884.621V773.616L888.999 772.864V759.571C888.999 756.849 888.488 754.862 887.468 753.609C886.465 752.338 885.006 751.702 883.09 751.702C881.479 751.702 880.154 752.033 879.116 752.696C878.077 753.358 877.281 754.289 876.726 755.489V772.864L881.103 773.616V777H867.058Z" fill="#76411F"/>
<path d="M0.60498 358V354.375L13.415 340.141C14.9368 338.44 16.1274 336.99 16.9868 335.791C17.8462 334.573 18.446 333.472 18.7861 332.487C19.1263 331.503 19.2964 330.482 19.2964 329.426C19.2964 327.474 18.7056 325.836 17.5239 324.511C16.3423 323.168 14.6504 322.497 12.4482 322.497C10.1566 322.497 8.36621 323.186 7.07715 324.565C5.80599 325.944 5.17041 327.895 5.17041 330.419H0.0947266L0.0410156 330.258C-0.0126953 328.002 0.461751 325.979 1.46436 324.189C2.46696 322.381 3.91715 320.957 5.81494 319.919C7.73063 318.863 10.0044 318.334 12.6362 318.334C15.1069 318.334 17.2285 318.809 19.001 319.758C20.7913 320.689 22.1699 321.969 23.1367 323.598C24.1035 325.227 24.5869 327.098 24.5869 329.211C24.5869 330.643 24.3005 332.067 23.7275 333.481C23.1725 334.895 22.349 336.346 21.2568 337.832C20.1826 339.318 18.8846 340.884 17.3628 342.531L7.07715 353.73L7.13086 353.864H21.0151L21.4448 349.379H25.9297V358H0.60498ZM43.6006 358.564C41.0404 358.564 38.8024 358.143 36.8867 357.302C34.9889 356.442 33.5119 355.189 32.4556 353.542C31.3993 351.877 30.8711 349.836 30.8711 347.419C30.8711 345.217 31.5335 343.274 32.8584 341.591C34.1833 339.908 35.9736 338.673 38.2295 337.885C36.278 337.133 34.7472 335.996 33.6372 334.475C32.5272 332.935 31.9722 331.145 31.9722 329.104C31.9722 326.812 32.4556 324.869 33.4224 323.276C34.3892 321.665 35.7409 320.438 37.4775 319.597C39.2142 318.755 41.2373 318.334 43.5469 318.334C45.8385 318.334 47.8617 318.755 49.6162 319.597C51.3708 320.438 52.7404 321.665 53.7251 323.276C54.7277 324.869 55.229 326.812 55.229 329.104C55.229 331.145 54.6561 332.935 53.5103 334.475C52.3644 335.996 50.8158 337.133 48.8643 337.885C51.1201 338.673 52.9194 339.908 54.2622 341.591C55.6229 343.274 56.3032 345.217 56.3032 347.419C56.3032 349.836 55.7661 351.877 54.6919 353.542C53.6177 355.189 52.1227 356.442 50.207 357.302C48.3092 358.143 46.1071 358.564 43.6006 358.564ZM43.6006 354.428C45.0687 354.428 46.3577 354.142 47.4678 353.569C48.5957 352.996 49.473 352.181 50.0996 351.125C50.7262 350.051 51.0396 348.78 51.0396 347.312C51.0396 345.879 50.7173 344.608 50.0728 343.498C49.4282 342.388 48.542 341.52 47.4141 340.893C46.2861 340.266 44.9971 339.953 43.5469 339.953C42.0967 339.953 40.8166 340.266 39.7065 340.893C38.5965 341.52 37.7282 342.388 37.1016 343.498C36.4749 344.59 36.1616 345.861 36.1616 347.312C36.1616 349.532 36.833 351.277 38.1758 352.548C39.5365 353.802 41.3447 354.428 43.6006 354.428ZM43.6006 335.791C44.8359 335.791 45.9281 335.522 46.877 334.985C47.8438 334.43 48.5957 333.66 49.1328 332.675C49.6699 331.691 49.9385 330.536 49.9385 329.211C49.9385 327.922 49.661 326.776 49.106 325.773C48.5509 324.753 47.79 323.956 46.8232 323.383C45.8743 322.792 44.7822 322.497 43.5469 322.497C41.667 322.497 40.1452 323.115 38.9814 324.35C37.8356 325.568 37.2627 327.188 37.2627 329.211C37.2627 331.198 37.8446 332.792 39.0083 333.991C40.172 335.191 41.7028 335.791 43.6006 335.791ZM73.9204 358.564C71.2886 358.564 68.9969 357.955 67.0454 356.738C65.0939 355.502 63.5811 353.793 62.5068 351.608C61.4326 349.424 60.8955 346.9 60.8955 344.035V342.907C60.8955 340.15 61.4147 337.679 62.4531 335.495C63.4915 333.311 64.9865 331.583 66.938 330.312C68.8895 329.041 71.217 328.405 73.9204 328.405C76.2658 328.405 78.3158 328.79 80.0703 329.56C81.8428 330.33 83.3288 331.386 84.5283 332.729L84.6626 339.711H80.5269L79.6138 334.636C79.005 334.009 78.2441 333.508 77.3311 333.132C76.418 332.756 75.3438 332.568 74.1084 332.568C72.5329 332.568 71.1453 333.033 69.9458 333.964C68.7642 334.895 67.8421 336.14 67.1797 337.697C66.5173 339.255 66.186 340.992 66.186 342.907V344.035C66.186 346.148 66.4904 347.983 67.0991 349.541C67.7257 351.098 68.612 352.307 69.7578 353.166C70.9215 354.007 72.3001 354.428 73.8936 354.428C75.6839 354.428 77.1699 353.936 78.3516 352.951C79.5332 351.966 80.2583 350.615 80.5269 348.896H85.2803L85.334 349.057C85.2445 350.722 84.7521 352.28 83.8569 353.73C82.9618 355.18 81.6816 356.353 80.0166 357.248C78.3695 358.125 76.3374 358.564 73.9204 358.564ZM89.4697 358V354.616L93.8472 353.864V333.105L89.4697 332.353V328.942H98.6006L98.9497 332.729C99.8807 331.35 101.08 330.285 102.548 329.533C104.016 328.781 105.717 328.405 107.651 328.405C109.584 328.405 111.241 328.853 112.619 329.748C114.016 330.643 115.063 331.986 115.761 333.776C116.674 332.129 117.883 330.822 119.387 329.855C120.891 328.889 122.645 328.405 124.65 328.405C127.622 328.405 129.968 329.426 131.687 331.467C133.405 333.49 134.265 336.542 134.265 340.625V353.864L138.642 354.616V358H124.57V354.616L128.947 353.864V340.571C128.947 337.706 128.455 335.683 127.47 334.501C126.486 333.302 125.026 332.702 123.093 332.702C121.249 332.702 119.763 333.356 118.635 334.663C117.525 335.952 116.88 337.581 116.701 339.55V353.864L121.079 354.616V358H107.033V354.616L111.411 353.864V340.571C111.411 337.849 110.9 335.862 109.88 334.609C108.877 333.338 107.418 332.702 105.502 332.702C103.891 332.702 102.566 333.033 101.528 333.696C100.489 334.358 99.6927 335.289 99.1377 336.489V353.864L103.515 354.616V358H89.4697Z" fill="#76411F"/>
<path d="M395.96 831.729V828.104L408.77 813.87C410.292 812.169 411.482 810.719 412.342 809.52C413.201 808.302 413.801 807.201 414.141 806.216C414.481 805.232 414.651 804.211 414.651 803.155C414.651 801.203 414.061 799.565 412.879 798.24C411.697 796.897 410.005 796.226 407.803 796.226C405.512 796.226 403.721 796.915 402.432 798.294C401.161 799.673 400.525 801.624 400.525 804.148H395.45L395.396 803.987C395.342 801.731 395.817 799.708 396.819 797.918C397.822 796.11 399.272 794.686 401.17 793.648C403.086 792.592 405.359 792.063 407.991 792.063C410.462 792.063 412.583 792.538 414.356 793.487C416.146 794.418 417.525 795.698 418.492 797.327C419.458 798.956 419.942 800.827 419.942 802.94C419.942 804.372 419.655 805.796 419.083 807.21C418.528 808.624 417.704 810.075 416.612 811.561C415.538 813.047 414.24 814.613 412.718 816.26L402.432 827.459L402.486 827.593H416.37L416.8 823.108H421.285V831.729H395.96ZM437.989 832.293C435.608 832.293 433.486 831.863 431.624 831.004C429.762 830.127 428.303 828.891 427.247 827.298C426.208 825.687 425.716 823.78 425.77 821.578L425.85 821.417H430.899C430.899 822.795 431.185 823.986 431.758 824.988C432.331 825.991 433.146 826.77 434.202 827.325C435.258 827.88 436.521 828.157 437.989 828.157C440.227 828.157 441.981 827.549 443.252 826.331C444.524 825.114 445.159 823.314 445.159 820.933C445.159 818.516 444.595 816.735 443.467 815.589C442.339 814.443 440.558 813.87 438.123 813.87H433.504V809.734H438.123C439.681 809.734 440.934 809.475 441.883 808.956C442.832 808.418 443.512 807.658 443.924 806.673C444.354 805.67 444.568 804.471 444.568 803.074C444.568 800.836 444.013 799.135 442.903 797.972C441.793 796.808 440.155 796.226 437.989 796.226C436.61 796.226 435.411 796.504 434.39 797.059C433.37 797.596 432.573 798.366 432 799.368C431.445 800.353 431.167 801.517 431.167 802.859H426.092L426.038 802.698C425.984 800.729 426.45 798.938 427.435 797.327C428.437 795.716 429.843 794.436 431.651 793.487C433.477 792.538 435.59 792.063 437.989 792.063C441.605 792.063 444.488 793.03 446.636 794.964C448.785 796.88 449.859 799.619 449.859 803.182C449.859 804.793 449.367 806.404 448.382 808.016C447.415 809.609 445.956 810.826 444.004 811.668C446.35 812.438 448.006 813.646 448.973 815.293C449.957 816.941 450.45 818.785 450.45 820.826C450.45 823.207 449.913 825.257 448.838 826.976C447.782 828.676 446.314 829.992 444.434 830.923C442.554 831.836 440.406 832.293 437.989 832.293ZM468.577 832.293C465.945 832.293 463.654 831.684 461.702 830.467C459.751 829.231 458.238 827.522 457.164 825.337C456.089 823.153 455.552 820.629 455.552 817.764V816.636C455.552 813.879 456.071 811.408 457.11 809.224C458.148 807.04 459.643 805.312 461.595 804.041C463.546 802.77 465.874 802.134 468.577 802.134C470.923 802.134 472.972 802.519 474.727 803.289C476.5 804.059 477.986 805.115 479.185 806.458L479.319 813.44H475.184L474.271 808.365C473.662 807.738 472.901 807.237 471.988 806.861C471.075 806.485 470 806.297 468.765 806.297C467.19 806.297 465.802 806.762 464.603 807.693C463.421 808.624 462.499 809.869 461.836 811.426C461.174 812.984 460.843 814.721 460.843 816.636V817.764C460.843 819.877 461.147 821.712 461.756 823.27C462.382 824.827 463.269 826.036 464.415 826.895C465.578 827.736 466.957 828.157 468.55 828.157C470.341 828.157 471.827 827.665 473.008 826.68C474.19 825.695 474.915 824.344 475.184 822.625H479.937L479.991 822.786C479.901 824.451 479.409 826.009 478.514 827.459C477.618 828.909 476.338 830.082 474.673 830.977C473.026 831.854 470.994 832.293 468.577 832.293ZM484.126 831.729V828.345L488.504 827.593V806.834L484.126 806.082V802.671H493.257L493.606 806.458C494.537 805.079 495.737 804.014 497.205 803.262C498.673 802.51 500.374 802.134 502.308 802.134C504.241 802.134 505.897 802.582 507.276 803.477C508.672 804.372 509.72 805.715 510.418 807.505C511.331 805.858 512.54 804.551 514.043 803.584C515.547 802.618 517.302 802.134 519.307 802.134C522.279 802.134 524.625 803.155 526.343 805.196C528.062 807.219 528.921 810.271 528.921 814.354V827.593L533.299 828.345V831.729H519.227V828.345L523.604 827.593V814.3C523.604 811.435 523.112 809.412 522.127 808.23C521.142 807.031 519.683 806.431 517.75 806.431C515.905 806.431 514.419 807.085 513.292 808.392C512.181 809.681 511.537 811.31 511.358 813.279V827.593L515.735 828.345V831.729H501.69V828.345L506.067 827.593V814.3C506.067 811.578 505.557 809.591 504.537 808.338C503.534 807.067 502.075 806.431 500.159 806.431C498.548 806.431 497.223 806.762 496.185 807.425C495.146 808.087 494.349 809.018 493.794 810.218V827.593L498.172 828.345V831.729H484.126Z" fill="#76411F"/>
<path d="M719.261 767.771C720.823 766.208 720.823 763.676 719.261 762.114L693.805 736.658C692.243 735.096 689.711 735.096 688.148 736.658C686.586 738.22 686.586 740.753 688.148 742.315L710.776 764.942L688.148 787.57C686.586 789.132 686.586 791.664 688.148 793.226C689.711 794.789 692.243 794.789 693.805 793.226L719.261 767.771ZM234.256 768.942H716.433V760.942H234.256V768.942Z" fill="#99582A"/>
<path d="M310.098 0.488037H743.763L716.433 152.305L234.256 148.894L310.098 0.488037Z" fill="#9F5C2D"/>
<path d="M758 592L806 625L716 710L758 592Z" fill="#874B20"/>
<path d="M758 104V592L716 710V141L758 104Z" fill="#76411F"/>
<path d="M809 114L806 625L758 592V104L809 114Z" fill="#955427"/>
<path d="M743.763 0.488037L809 114L758 104L743.763 0.488037Z" fill="#874B20"/>
<rect x="234.256" y="142.054" width="482.177" height="577.002" rx="9" fill="#955427"/>
<path d="M743.762 0.488037L758 104L716 141L743.762 0.488037Z" fill="#76411F"/>
<path d="M743.76 0.5L758 104L716 141L743.76 0.5Z" fill="#6A3513" fill-opacity="0.39"/>
<rect x="343.575" y="229.922" width="264.514" height="308.515" rx="13" fill="#FFE6A7"/>
<path d="M522.614 397.709C525.401 424.055 518.685 470.701 478.43 470.701C442.761 470.701 424.855 438.132 428.242 397.709C431.629 357.287 442.762 329.038 474.518 329.038C507.843 329.038 517.59 350.214 522.614 397.709Z" fill="#874B20"/>
<path d="M476.156 321.582C482.127 332 486.785 373.672 476.156 397.251C463.497 421.376 466.721 456.834 473.955 474.015" stroke="#FFE6A7" stroke-width="11" stroke-linecap="round"/>
<path d="M382.419 269.421H393.555C395.838 269.421 397.8 269.763 399.44 270.446C401.095 271.13 402.366 272.142 403.255 273.481C404.144 274.821 404.588 276.469 404.588 278.424C404.588 280.023 404.314 281.397 403.768 282.546C403.234 283.681 402.476 284.631 401.491 285.396C400.521 286.148 399.379 286.75 398.066 287.201L396.118 288.227H386.438L386.397 283.428H393.596C394.676 283.428 395.571 283.236 396.282 282.854C396.993 282.471 397.526 281.938 397.882 281.254C398.251 280.57 398.436 279.777 398.436 278.875C398.436 277.918 398.258 277.091 397.902 276.394C397.547 275.696 397.007 275.163 396.282 274.794C395.558 274.425 394.648 274.24 393.555 274.24H388.571V299.28H382.419V269.421ZM399.112 299.28L392.304 285.971L398.805 285.93L405.695 298.993V299.28H399.112ZM433.853 283.653V285.068C433.853 287.338 433.545 289.375 432.93 291.18C432.314 292.984 431.446 294.522 430.325 295.794C429.204 297.052 427.864 298.016 426.306 298.686C424.761 299.355 423.045 299.69 421.158 299.69C419.285 299.69 417.569 299.355 416.011 298.686C414.466 298.016 413.126 297.052 411.991 295.794C410.856 294.522 409.975 292.984 409.346 291.18C408.73 289.375 408.423 287.338 408.423 285.068V283.653C408.423 281.37 408.73 279.333 409.346 277.542C409.961 275.737 410.829 274.199 411.95 272.928C413.085 271.656 414.425 270.686 415.97 270.016C417.528 269.346 419.244 269.011 421.117 269.011C423.004 269.011 424.72 269.346 426.265 270.016C427.823 270.686 429.163 271.656 430.284 272.928C431.419 274.199 432.294 275.737 432.909 277.542C433.538 279.333 433.853 281.37 433.853 283.653ZM427.639 285.068V283.612C427.639 282.026 427.495 280.632 427.208 279.429C426.921 278.226 426.497 277.214 425.937 276.394C425.376 275.573 424.692 274.958 423.886 274.548C423.079 274.124 422.156 273.912 421.117 273.912C420.078 273.912 419.155 274.124 418.349 274.548C417.556 274.958 416.879 275.573 416.318 276.394C415.771 277.214 415.354 278.226 415.067 279.429C414.78 280.632 414.637 282.026 414.637 283.612V285.068C414.637 286.641 414.78 288.035 415.067 289.252C415.354 290.455 415.778 291.474 416.339 292.308C416.899 293.128 417.583 293.75 418.39 294.174C419.196 294.598 420.119 294.81 421.158 294.81C422.197 294.81 423.12 294.598 423.927 294.174C424.733 293.75 425.41 293.128 425.957 292.308C426.504 291.474 426.921 290.455 427.208 289.252C427.495 288.035 427.639 286.641 427.639 285.068ZM449.972 286.176H442.302L442.261 281.951H448.7C449.835 281.951 450.765 281.808 451.489 281.521C452.214 281.22 452.754 280.789 453.109 280.229C453.479 279.654 453.663 278.957 453.663 278.137C453.663 277.207 453.485 276.455 453.13 275.881C452.788 275.307 452.248 274.89 451.51 274.63C450.785 274.37 449.849 274.24 448.7 274.24H444.435V299.28H438.282V269.421H448.7C450.437 269.421 451.988 269.585 453.355 269.913C454.736 270.241 455.905 270.74 456.862 271.41C457.819 272.08 458.551 272.928 459.057 273.953C459.562 274.965 459.815 276.168 459.815 277.562C459.815 278.793 459.535 279.928 458.975 280.967C458.428 282.006 457.56 282.854 456.37 283.51C455.194 284.166 453.656 284.528 451.756 284.597L449.972 286.176ZM449.705 299.28H440.62L443.02 294.481H449.705C450.785 294.481 451.667 294.311 452.351 293.969C453.034 293.613 453.54 293.135 453.868 292.533C454.196 291.932 454.36 291.241 454.36 290.462C454.36 289.587 454.21 288.828 453.909 288.186C453.622 287.543 453.157 287.051 452.515 286.709C451.872 286.354 451.024 286.176 449.972 286.176H444.045L444.086 281.951H451.469L452.884 283.612C454.702 283.585 456.165 283.906 457.272 284.576C458.394 285.232 459.207 286.087 459.713 287.14C460.232 288.192 460.492 289.32 460.492 290.523C460.492 292.438 460.075 294.051 459.241 295.363C458.407 296.662 457.184 297.64 455.57 298.296C453.971 298.952 452.016 299.28 449.705 299.28ZM481.595 269.421H487.727V289.149C487.727 291.446 487.234 293.381 486.25 294.953C485.279 296.525 483.933 297.708 482.21 298.501C480.501 299.294 478.532 299.69 476.304 299.69C474.075 299.69 472.093 299.294 470.356 298.501C468.634 297.708 467.28 296.525 466.296 294.953C465.325 293.381 464.84 291.446 464.84 289.149V269.421H470.992V289.149C470.992 290.489 471.204 291.583 471.628 292.431C472.052 293.278 472.66 293.9 473.453 294.297C474.26 294.693 475.21 294.892 476.304 294.892C477.425 294.892 478.375 294.693 479.154 294.297C479.947 293.9 480.549 293.278 480.959 292.431C481.383 291.583 481.595 290.489 481.595 289.149V269.421ZM508.337 291.467C508.337 290.934 508.255 290.455 508.091 290.031C507.94 289.594 507.653 289.197 507.229 288.842C506.806 288.473 506.211 288.11 505.445 287.755C504.68 287.399 503.688 287.03 502.472 286.647C501.118 286.21 499.833 285.718 498.616 285.171C497.413 284.624 496.347 283.988 495.417 283.264C494.501 282.525 493.776 281.671 493.243 280.7C492.724 279.729 492.464 278.602 492.464 277.316C492.464 276.072 492.737 274.944 493.284 273.933C493.831 272.907 494.597 272.032 495.581 271.308C496.565 270.569 497.728 270.002 499.067 269.605C500.421 269.209 501.904 269.011 503.518 269.011C505.719 269.011 507.64 269.407 509.28 270.2C510.921 270.993 512.192 272.08 513.095 273.461C514.011 274.842 514.469 276.421 514.469 278.198H508.357C508.357 277.323 508.173 276.558 507.804 275.901C507.448 275.231 506.901 274.705 506.163 274.322C505.438 273.939 504.522 273.748 503.415 273.748C502.349 273.748 501.46 273.912 500.749 274.24C500.038 274.555 499.505 274.985 499.149 275.532C498.794 276.065 498.616 276.667 498.616 277.337C498.616 277.843 498.739 278.301 498.985 278.711C499.245 279.121 499.628 279.504 500.134 279.859C500.64 280.215 501.262 280.55 502 280.864C502.738 281.179 503.593 281.486 504.563 281.787C506.19 282.279 507.619 282.833 508.85 283.448C510.094 284.063 511.133 284.754 511.967 285.52C512.801 286.285 513.43 287.153 513.854 288.124C514.277 289.095 514.489 290.195 514.489 291.426C514.489 292.725 514.236 293.887 513.73 294.912C513.225 295.938 512.493 296.806 511.536 297.517C510.579 298.228 509.438 298.768 508.111 299.137C506.785 299.506 505.302 299.69 503.661 299.69C502.185 299.69 500.729 299.499 499.293 299.116C497.857 298.72 496.552 298.125 495.376 297.332C494.214 296.539 493.284 295.527 492.587 294.297C491.89 293.066 491.541 291.61 491.541 289.929H497.714C497.714 290.858 497.857 291.645 498.145 292.287C498.432 292.93 498.835 293.449 499.354 293.846C499.888 294.242 500.517 294.529 501.241 294.707C501.979 294.885 502.786 294.974 503.661 294.974C504.728 294.974 505.603 294.823 506.286 294.522C506.983 294.222 507.496 293.805 507.824 293.271C508.166 292.738 508.337 292.137 508.337 291.467ZM532.023 269.421V299.28H525.892V269.421H532.023ZM541.211 269.421V274.24H516.848V269.421H541.211ZM568.671 283.653V285.068C568.671 287.338 568.363 289.375 567.748 291.18C567.133 292.984 566.265 294.522 565.144 295.794C564.022 297.052 562.683 298.016 561.124 298.686C559.579 299.355 557.863 299.69 555.977 299.69C554.104 299.69 552.388 299.355 550.829 298.686C549.284 298.016 547.944 297.052 546.81 295.794C545.675 294.522 544.793 292.984 544.164 291.18C543.549 289.375 543.241 287.338 543.241 285.068V283.653C543.241 281.37 543.549 279.333 544.164 277.542C544.779 275.737 545.647 274.199 546.769 272.928C547.903 271.656 549.243 270.686 550.788 270.016C552.347 269.346 554.062 269.011 555.936 269.011C557.822 269.011 559.538 269.346 561.083 270.016C562.642 270.686 563.981 271.656 565.103 272.928C566.237 274.199 567.112 275.737 567.728 277.542C568.356 279.333 568.671 281.37 568.671 283.653ZM562.457 285.068V283.612C562.457 282.026 562.313 280.632 562.026 279.429C561.739 278.226 561.315 277.214 560.755 276.394C560.194 275.573 559.511 274.958 558.704 274.548C557.897 274.124 556.975 273.912 555.936 273.912C554.896 273.912 553.974 274.124 553.167 274.548C552.374 274.958 551.697 275.573 551.137 276.394C550.59 277.214 550.173 278.226 549.886 279.429C549.599 280.632 549.455 282.026 549.455 283.612V285.068C549.455 286.641 549.599 288.035 549.886 289.252C550.173 290.455 550.597 291.474 551.157 292.308C551.718 293.128 552.401 293.75 553.208 294.174C554.015 294.598 554.938 294.81 555.977 294.81C557.016 294.81 557.938 294.598 558.745 294.174C559.552 293.75 560.229 293.128 560.775 292.308C561.322 291.474 561.739 290.455 562.026 289.252C562.313 288.035 562.457 286.641 562.457 285.068Z" fill="#874B20"/>
<path d="M371.24 587.23V658H362.297V598.397L344.266 604.971V596.898L369.838 587.23H371.24ZM443.653 650.652V658H397.585V651.571L420.643 625.902C423.479 622.744 425.67 620.069 427.217 617.878C428.796 615.654 429.892 613.672 430.504 611.932C431.149 610.16 431.471 608.355 431.471 606.518C431.471 604.198 430.988 602.103 430.021 600.234C429.086 598.333 427.701 596.818 425.864 595.69C424.027 594.562 421.803 593.998 419.193 593.998C416.067 593.998 413.457 594.61 411.362 595.835C409.299 597.027 407.752 598.703 406.721 600.862C405.69 603.021 405.174 605.503 405.174 608.307H396.231C396.231 604.343 397.102 600.717 398.842 597.43C400.582 594.143 403.16 591.533 406.576 589.599C409.992 587.633 414.198 586.65 419.193 586.65C423.64 586.65 427.443 587.44 430.601 589.019C433.759 590.566 436.176 592.757 437.852 595.593C439.56 598.397 440.414 601.684 440.414 605.455C440.414 607.517 440.06 609.612 439.351 611.739C438.674 613.833 437.723 615.928 436.499 618.023C435.306 620.118 433.904 622.18 432.293 624.21C430.714 626.241 429.022 628.239 427.217 630.205L408.365 650.652H443.653ZM464.536 624.5L457.381 622.664L460.91 587.617H497.02V595.883H468.5L466.373 615.026C467.662 614.285 469.289 613.592 471.255 612.947C473.253 612.303 475.541 611.98 478.119 611.98C481.374 611.98 484.291 612.544 486.869 613.672C489.447 614.768 491.638 616.347 493.443 618.41C495.28 620.472 496.682 622.954 497.648 625.854C498.615 628.754 499.099 631.993 499.099 635.57C499.099 638.954 498.631 642.064 497.697 644.9C496.794 647.736 495.425 650.217 493.588 652.344C491.751 654.439 489.431 656.066 486.627 657.227C483.855 658.387 480.584 658.967 476.814 658.967C473.978 658.967 471.287 658.58 468.741 657.807C466.228 657.001 463.972 655.792 461.974 654.181C460.008 652.538 458.396 650.507 457.14 648.09C455.915 645.641 455.142 642.773 454.819 639.486H463.327C463.714 642.128 464.487 644.352 465.647 646.157C466.808 647.961 468.322 649.331 470.191 650.266C472.093 651.168 474.3 651.619 476.814 651.619C478.941 651.619 480.826 651.249 482.47 650.507C484.113 649.766 485.499 648.703 486.627 647.317C487.755 645.931 488.609 644.255 489.189 642.29C489.801 640.324 490.107 638.116 490.107 635.667C490.107 633.443 489.801 631.381 489.189 629.479C488.577 627.578 487.658 625.918 486.434 624.5C485.241 623.083 483.775 621.987 482.035 621.213C480.294 620.408 478.296 620.005 476.041 620.005C473.043 620.005 470.771 620.408 469.225 621.213C467.71 622.019 466.147 623.115 464.536 624.5ZM553.094 617.201V627.933C553.094 633.701 552.579 638.567 551.547 642.531C550.516 646.495 549.034 649.686 547.1 652.103C545.167 654.52 542.83 656.276 540.091 657.372C537.384 658.435 534.322 658.967 530.906 658.967C528.199 658.967 525.702 658.628 523.414 657.952C521.125 657.275 519.063 656.195 517.226 654.713C515.421 653.198 513.875 651.232 512.585 648.815C511.296 646.398 510.313 643.466 509.637 640.018C508.96 636.569 508.622 632.541 508.622 627.933V617.201C508.622 611.433 509.137 606.599 510.168 602.699C511.232 598.8 512.73 595.674 514.664 593.321C516.598 590.937 518.918 589.229 521.625 588.197C524.364 587.166 527.426 586.65 530.81 586.65C533.549 586.65 536.062 586.989 538.351 587.666C540.671 588.31 542.733 589.357 544.538 590.808C546.343 592.226 547.874 594.127 549.13 596.512C550.419 598.864 551.402 601.749 552.079 605.165C552.756 608.581 553.094 612.593 553.094 617.201ZM544.103 629.383V615.703C544.103 612.544 543.91 609.773 543.523 607.388C543.168 604.971 542.637 602.909 541.928 601.201C541.219 599.493 540.316 598.107 539.221 597.043C538.157 595.98 536.917 595.207 535.499 594.723C534.113 594.208 532.55 593.95 530.81 593.95C528.683 593.95 526.797 594.353 525.154 595.158C523.51 595.932 522.125 597.172 520.997 598.88C519.901 600.588 519.063 602.828 518.483 605.6C517.903 608.371 517.613 611.739 517.613 615.703V629.383C517.613 632.541 517.79 635.329 518.145 637.746C518.531 640.163 519.095 642.257 519.836 644.03C520.578 645.77 521.48 647.204 522.543 648.332C523.607 649.46 524.832 650.298 526.217 650.846C527.635 651.361 529.198 651.619 530.906 651.619C533.098 651.619 535.015 651.2 536.659 650.362C538.302 649.524 539.672 648.219 540.768 646.447C541.896 644.642 542.733 642.338 543.281 639.534C543.829 636.698 544.103 633.314 544.103 629.383ZM599.452 605.696H607.573V656.888C607.573 661.497 606.639 665.428 604.77 668.683C602.9 671.938 600.29 674.403 596.938 676.079C593.619 677.787 589.784 678.641 585.434 678.641C583.629 678.641 581.502 678.351 579.053 677.771C576.636 677.223 574.251 676.272 571.898 674.919C569.578 673.598 567.628 671.809 566.049 669.553L570.738 664.236C572.93 666.878 575.218 668.715 577.603 669.747C580.02 670.778 582.404 671.293 584.757 671.293C587.593 671.293 590.042 670.762 592.104 669.698C594.167 668.635 595.762 667.056 596.89 664.961C598.05 662.898 598.63 660.353 598.63 657.323V617.201L599.452 605.696ZM563.439 632.428V631.413C563.439 627.417 563.906 623.792 564.841 620.537C565.808 617.25 567.177 614.43 568.95 612.077C570.754 609.725 572.93 607.92 575.476 606.663C578.021 605.374 580.89 604.729 584.08 604.729C587.367 604.729 590.235 605.31 592.685 606.47C595.166 607.598 597.261 609.257 598.969 611.449C600.709 613.608 602.079 616.218 603.078 619.28C604.077 622.341 604.77 625.806 605.156 629.673V634.12C604.802 637.955 604.109 641.403 603.078 644.465C602.079 647.526 600.709 650.137 598.969 652.296C597.261 654.455 595.166 656.115 592.685 657.275C590.203 658.403 587.303 658.967 583.983 658.967C580.857 658.967 578.021 658.306 575.476 656.985C572.962 655.664 570.803 653.811 568.998 651.426C567.193 649.041 565.808 646.237 564.841 643.015C563.906 639.76 563.439 636.231 563.439 632.428ZM572.382 631.413V632.428C572.382 635.039 572.64 637.488 573.155 639.776C573.703 642.064 574.525 644.078 575.621 645.818C576.749 647.559 578.183 648.928 579.923 649.927C581.663 650.894 583.742 651.377 586.159 651.377C589.124 651.377 591.573 650.749 593.506 649.492C595.44 648.235 596.971 646.576 598.099 644.513C599.259 642.451 600.161 640.211 600.806 637.794V626.144C600.451 624.372 599.903 622.664 599.162 621.02C598.453 619.344 597.519 617.862 596.358 616.573C595.23 615.251 593.829 614.204 592.153 613.431C590.477 612.657 588.511 612.271 586.255 612.271C583.806 612.271 581.695 612.786 579.923 613.817C578.183 614.816 576.749 616.202 575.621 617.975C574.525 619.715 573.703 621.745 573.155 624.065C572.64 626.354 572.382 628.803 572.382 631.413Z" fill="#FFE6A7"/>
<path d="M183.828 -2.82843C182.266 -4.39052 179.734 -4.39052 178.172 -2.82843L152.716 22.6274C151.154 24.1895 151.154 26.7222 152.716 28.2843C154.278 29.8464 156.811 29.8464 158.373 28.2843L181 5.65685L203.627 28.2843C205.19 29.8464 207.722 29.8464 209.284 28.2843C210.846 26.7222 210.846 24.1895 209.284 22.6274L183.828 -2.82843ZM185 719L185 1.74846e-07L177 -1.74846e-07L177 719L185 719Z" fill="#99582A"/>
</svg>
