<svg width="837" height="1371" viewBox="0 0 837 1371" fill="none" xmlns="http://www.w3.org/2000/svg">
<path d="M454.761 1356.79L445.294 1356.16H429.517L410.584 1313.24L420.366 1322.08L433.935 1336.59L458.548 1348.27L481.583 1353L479.058 1362.47L465.174 1363.41L454.761 1356.79Z" fill="#5C3127" stroke="#FFE6A7" stroke-width="0.2" stroke-linecap="round" stroke-linejoin="round"/>
<path d="M358.518 703.662L394.175 736.476L408.691 739.631L431.726 754.776L450.343 762.664L453.814 771.498L440.561 802.419L458.863 807.783L478.743 810.938L491.996 807.783L505.564 792.007L506.511 774.338L514.715 770.236L524.813 782.226L526.075 798.317L512.822 809.361L502.409 817.564L485.685 837.442L466.752 864.892L465.174 881.299L463.912 902.123L467.698 922.316L464.858 926.734L466.121 939.67L467.067 950.398L491.68 967.751L492.311 981.634L504.618 990.469L505.564 1000.25L495.151 1026.12L473.063 1037.17L440.877 1041.27L421.944 1039.06L428.57 1051.36L428.886 1066.19L434.566 1076.29L426.677 1083.55L410.584 1086.39L392.913 1078.81L388.18 1084.18L396.069 1104.06L408.691 1110.05L415.948 1103.74L423.837 1114.15L410.584 1120.46L401.433 1133.08L405.22 1152.96L404.904 1163.69H389.758L380.291 1173.79L380.607 1188.93L401.117 1203.44L417.526 1207.23L418.157 1225.21L403.642 1236.26L401.748 1259.29L390.704 1266.86L387.864 1276.01L401.117 1296.52L415.633 1307.57L409.006 1306.62L393.544 1303.46L355.363 1300.94L344.318 1289.58L338.323 1275.07L328.541 1276.33L320.337 1269.07L310.555 1248.56L319.074 1239.73L319.39 1227.42L313.71 1217.33L315.919 1200.29L312.448 1174.1L306.768 1162.43L312.448 1158.64L308.03 1151.07L299.195 1147.28L301.719 1138.76L291.937 1131.19L280.262 1108.16L285.626 1104.06L275.213 1079.45L272.689 1058.94L272.057 1040.95L279.946 1033.69L269.533 1013.82L264.484 995.517L273.951 982.265L269.533 965.227L274.582 945.665L270.164 927.049L265.115 923.263L249.653 888.24L256.28 867.416L250.916 847.854L253.756 829.238L261.96 810.307L272.373 797.686L266.062 789.798L268.586 783.173L263.538 749.412L281.208 739.631L284.995 718.491L282.155 713.443L294.777 695.143L318.443 700.191L330.119 714.705L335.167 698.298L355.363 699.244L358.518 703.662Z" fill="#5C3127" stroke="#FFE6A7" stroke-width="0.2" stroke-linecap="round" stroke-linejoin="round"/>
<path d="M433.935 661.698L432.988 655.387L415.948 644.975L399.54 644.66L369.247 650.655L362.62 668.324L363.251 679.367L358.518 703.662L355.363 699.244L335.168 698.298L330.119 714.705L318.443 700.191L294.777 695.143L282.155 713.443L269.849 716.283L260.067 688.201L248.391 665.484L251.862 645.922L241.765 637.403L237.978 622.889L227.881 609.006L237.031 587.235L227.881 570.197L231.351 563.256L227.565 555.683L233.56 545.586L232.614 528.549V514.035L236.085 507.409L218.729 474.595L231.983 476.488L241.134 475.857L244.605 469.862L259.751 461.658L268.902 454.086L291.937 450.615L290.675 465.76L293.515 473.648L292.568 487.215L313.079 505.2L333.274 508.671L340.532 516.243L352.838 520.345L360.727 526.024H371.771L382.5 532.019L384.078 543.693L387.864 549.688L388.811 558.207L383.447 558.523L392.282 582.187L426.046 583.133L424.468 594.808L426.993 602.696L437.09 608.375L442.455 620.996L440.561 637.087L436.459 645.922L438.983 657.28L433.935 661.698Z" fill="#5C3127" stroke="#FFE6A7" stroke-width="0.2" stroke-linecap="round" stroke-linejoin="round"/>
<path d="M444.348 214.291L454.13 216.184L456.023 211.767L452.868 207.981L454.761 201.986L462.019 203.879L470.539 201.67L480.636 206.088L488.525 210.189L493.889 204.826L497.992 205.457L500.516 211.136L509.036 209.874L515.978 201.986L521.658 187.156L532.387 168.541L538.698 167.594L542.8 178.953L552.266 214.291L562.048 217.762L562.364 231.645L548.795 248.367L554.159 254.362L586.03 257.517L586.661 278.026L600.23 264.774L622.634 272.031L652.611 284.336L661.446 296.011L658.607 307.369L679.433 301.059L714.143 311.787L740.965 311.155L767.471 327.878L790.822 350.595L804.706 356.275L819.853 357.221L826.479 363.532L832.79 389.404L836.261 401.71L829.635 435.154L821.115 448.406L796.817 476.488L786.089 499.52L773.467 516.874L769.049 517.505L764.947 532.335L767.787 570.197L764.316 601.433L763.369 614.685L758.32 622.888L756.743 650.023L740.334 676.211L738.756 697.351L725.188 705.87L721.717 718.175H702.784L675.962 725.748L664.286 734.898L645.353 740.893L626.105 756.984L613.167 777.177L612.221 792.322L616.323 803.365L615.376 823.874L612.852 833.655L602.123 845.014L587.923 880.668L575.301 896.444L565.204 906.225L560.47 925.471L551.32 936.83L544.693 925.471L550.373 915.69L538.382 902.123L523.236 890.764L503.356 877.828L497.36 878.459L477.481 862.683L466.752 864.892L485.685 837.442L502.409 817.564L512.822 809.36L526.076 798.317L524.813 782.226L514.716 770.236L506.511 774.338L508.72 762.664L509.667 750.674L508.72 739.315L502.094 735.844L495.783 739L489.156 738.053L486.632 730.481L483.161 711.865L479.374 705.87L467.068 700.191L460.126 704.293L441.508 700.191L440.246 672.741L433.935 661.697L438.984 657.28L436.459 645.921L440.561 637.087L442.455 620.995L437.09 608.375L426.993 602.695L424.468 594.807L426.046 583.133L392.282 582.187L383.447 558.523L388.811 558.207L387.865 549.688L384.078 543.693L382.5 532.019L371.772 526.024H360.727L352.839 520.345L340.532 516.243L333.274 508.671L313.079 505.2L292.569 487.215L293.515 473.648L290.675 465.76L291.937 450.615L268.902 454.086L259.751 461.658L244.605 469.862L241.134 475.857L231.983 476.488L218.73 474.594L208.632 478.065L200.428 475.857L200.113 445.251L186.228 456.925L170.451 456.61L163.193 445.567L151.202 444.62L154.358 435.786L143.944 423.48L135.74 405.18L140.473 401.71L139.842 392.875L150.571 387.196L148.362 376.153L152.78 369.211L153.727 359.745L173.606 345.863L188.121 342.076L190.646 338.921L206.739 339.868L213.681 284.336L213.997 275.502L211.157 264.143L202.952 256.571L203.268 241.741L213.365 238.586L216.837 240.795L217.468 232.907L207.054 230.698V218.077L241.765 218.708L247.76 211.451L252.809 218.077L255.965 230.067L259.436 227.543L269.218 238.271L283.102 237.008L286.573 230.698L299.826 225.965L307.4 222.495L309.608 213.976L322.546 208.296L321.599 203.879L306.453 202.301L304.244 189.365L305.191 175.798L297.302 170.749L300.773 168.856L313.711 171.38L327.91 176.429L333.274 171.696L346.212 168.541L366.407 160.968L373.034 153.08L370.825 147.401L380.291 146.77L384.078 151.187L381.554 160.337L387.865 163.177L391.651 172.643L386.602 179.9L383.447 196.938L387.865 207.35L388.811 216.815L399.856 226.281L408.691 227.227L410.584 223.126L416.264 222.179L424.468 218.708L430.148 213.345L440.246 215.238L444.348 214.291Z" fill="#99582A" stroke="#FFE6A7" stroke-width="0.2" stroke-linecap="round" stroke-linejoin="round"/>
<path d="M187.491 14.2518L175.815 17.7225L170.766 27.8191L163.509 33.4984L157.829 41.071L154.989 55.5848L149.309 67.5746L158.46 68.8366L160.353 77.9867L164.14 82.7195L165.087 90.6075L162.878 98.1799L163.193 102.597L167.611 104.175L171.398 111.116L194.433 109.223L204.846 111.747L216.837 129.416L224.095 127.208L237.032 128.154L247.13 125.946L253.441 129.416L249.654 140.144L245.552 147.085L243.659 161.599L247.13 175.167L251.863 181.162L252.494 185.579L243.343 195.675L249.654 200.093L254.387 207.35L259.436 227.543L255.965 230.067L252.809 218.077L247.761 211.451L241.765 218.708L207.055 218.077V230.698L217.468 232.907L216.837 240.795L213.366 238.586L203.268 241.741L202.953 256.571L211.157 264.143L213.997 275.502L213.681 284.336L206.739 339.868L197.588 329.14L192.224 328.825L203.268 308L189.384 298.535L178.655 300.428L172.029 296.957L162.247 302.321L148.994 299.481L137.949 278.341L129.745 273.293L124.065 263.512L112.074 254.046L107.341 255.94L99.7677 251.207L90.9324 244.581L85.8837 247.736L70.7373 244.896L66.3195 236.062L62.8486 236.377L45.1776 225.019L42.9688 218.708L49.5954 217.131L48.9643 207.034L53.3821 199.462L62.2174 198.2L70.1062 185.579L77.0483 174.851L70.7373 170.118L74.5238 158.444L71.0528 139.828L75.1549 134.465L72.946 117.427L66.0041 106.383L68.8439 96.6023L74.5238 98.1799L77.9949 92.1851L74.5238 80.1954L76.7326 77.3557L85.8837 77.9867L100.083 63.7883L107.657 61.5797L107.972 54.9538L112.39 37.6003L123.119 28.4502L134.163 27.8191L136.056 23.7174L149.94 25.295L164.455 15.1984L171.713 10.7811L180.864 1L187.175 2.26206L191.277 7.62592L187.491 14.2518Z" fill="#5C3127" stroke="#FFE6A7" stroke-width="0.2" stroke-linecap="round" stroke-linejoin="round"/>
<path d="M107.341 255.939L109.865 271.4L104.501 284.336L85.2522 305.791L64.1103 313.679L53.3817 331.349L50.5417 344.916L40.7597 353.435L32.871 343.023L25.6131 340.814L18.3555 342.392L17.4089 335.135L22.4577 330.402L20.249 321.883L29.3998 306.738L25.2977 297.903L18.6712 307.369L7.62695 298.219L11.0979 292.54L7.94243 274.24L14.2534 271.084L17.4089 258.464L24.0354 245.527L23.0888 237.324L32.871 232.907L45.1773 225.019L62.8482 236.377L66.3192 236.062L70.737 244.896L85.8833 247.736L90.932 244.581L99.7674 251.207L107.341 255.939Z" fill="#5C3127" stroke="#FFE6A7" stroke-width="0.2" stroke-linecap="round" stroke-linejoin="round"/>
<path d="M435.197 131.941L432.042 150.241L420.997 155.289L421.944 160.022L418.473 170.749L426.046 185.263H431.726L433.935 196.622L444.348 214.291L440.246 215.238L430.148 213.344L424.468 218.708L416.264 222.179L410.584 223.126L408.691 227.227L399.855 226.281L388.811 216.815L387.865 207.35L383.447 196.938L386.602 179.899L391.651 172.643L387.865 163.177L381.554 160.337L384.078 151.187L380.291 146.77L370.825 147.401L359.149 132.256L364.198 126.577V117.111L375.243 113.956L379.66 110.17L373.98 102.597L375.558 95.3403L390.389 83.3506L401.749 90.923L412.162 103.859L412.477 114.587L419.104 114.903L428.57 124.684L435.197 131.941Z" fill="#5C3127" stroke="#FFE6A7" stroke-width="0.2" stroke-linecap="round" stroke-linejoin="round"/>
<path d="M206.739 339.868L190.646 338.921L188.121 342.076L173.606 345.862L153.726 359.745L152.78 369.211L148.362 376.152L150.571 387.196L139.842 392.875L140.473 401.709L135.74 405.18L143.944 423.48L154.357 435.785L151.202 444.62L163.193 445.567L170.45 456.61L186.228 456.925L200.112 445.251L200.428 475.856L208.632 478.065L218.73 474.594L236.085 507.408L232.614 514.034V528.548L233.56 545.586L227.565 555.683L231.352 563.255L227.881 570.197L237.031 587.235L227.881 609.006L224.409 619.418L215.574 624.466L196.957 612.792L194.432 604.588L157.513 584.395L123.749 561.993L108.918 549.688L100.083 532.965L102.607 526.971L85.5674 500.467L65.3723 463.236L46.4393 422.849L38.866 413.384L32.555 398.554L18.0398 385.302L5.10211 377.099L10.4665 368.264L1 348.702L6.36439 334.504L20.2487 321.883L22.4574 330.402L17.4086 335.135L18.3553 342.392L25.6129 340.814L32.8707 343.023L40.7594 353.435L50.5414 344.916L53.3814 331.349L64.11 313.679L85.2519 305.791L104.5 284.336L109.865 271.4L107.34 255.939L112.074 254.046L124.065 263.512L129.744 273.293L137.949 278.341L148.993 299.481L162.246 302.321L172.028 296.957L178.655 300.428L189.383 298.535L203.268 308L192.223 328.824L197.588 329.14L206.739 339.868Z" fill="#5C3127" stroke="#FFE6A7" stroke-width="0.2" stroke-linecap="round" stroke-linejoin="round"/>
<path d="M433.935 661.697L440.246 672.74L441.508 700.19L460.126 704.292L467.068 700.19L479.374 705.87L483.161 711.865L486.632 730.48L489.156 738.053L495.783 739L502.094 735.844L508.72 739.315L509.667 750.674L508.72 762.663L506.512 774.338L505.565 792.007L491.996 807.783L478.743 810.938L458.864 807.783L440.562 802.419L453.815 771.498L450.344 762.663L431.726 754.775L408.691 739.63L394.176 736.475L358.519 703.661L363.252 679.366L362.621 668.323L369.247 650.654L399.54 644.659L415.949 644.975L432.988 655.387L433.935 661.697Z" fill="#5C3127" stroke="#FFE6A7" stroke-width="0.2" stroke-linecap="round" stroke-linejoin="round"/>
<path d="M492.311 136.358L482.529 153.711L483.476 167.594L490.418 179.584L486.947 188.103L485.369 197.568L480.636 206.087L470.538 201.67L462.019 203.879L454.761 201.986L452.868 207.98L456.023 211.767L454.13 216.184L444.348 214.291L433.935 196.622L431.726 185.263H426.046L418.473 170.749L421.944 160.021L420.997 155.289L432.041 150.24L435.197 131.94L456.654 136.042L458.548 132.256L473.063 130.678L492.311 136.358Z" fill="#5C3127" stroke="#FFE6A7" stroke-width="0.2" stroke-linecap="round" stroke-linejoin="round"/>
<path d="M551.319 936.83L546.271 949.767L529.231 960.81L515.978 956.708L507.142 958.916L489.787 950.398L478.427 951.028L466.121 939.67L464.859 926.734L467.699 922.316L463.912 902.123L465.174 881.299L466.752 864.892L477.481 862.683L497.36 878.459L503.356 877.828L523.235 890.764L538.382 902.123L550.373 915.69L544.693 925.472L551.319 936.83Z" fill="#5C3127" stroke="#FFE6A7" stroke-width="0.2" stroke-linecap="round" stroke-linejoin="round"/>
<path d="M390.389 83.3504L375.558 95.3401L373.98 102.597L379.66 110.17L375.243 113.956L364.198 117.111V126.577L359.149 132.256L370.825 147.401L373.034 153.08L366.407 160.968L346.212 168.541L333.274 171.696L327.91 176.429L313.71 171.38L300.773 168.856L297.302 170.749L305.19 175.798L304.244 189.365L306.452 202.301L321.599 203.879L322.546 208.296L309.608 213.975L307.399 222.494L299.826 225.965L286.573 230.698L283.102 237.008L269.218 238.27L259.436 227.543L254.387 207.349L249.653 200.093L243.342 195.675L252.493 185.579L251.862 181.161L247.129 175.167L243.658 161.599L245.551 147.085L249.653 140.144L253.44 129.416L247.129 125.946L237.031 128.154L224.094 127.208L216.836 129.416L204.846 111.747L194.432 109.223L171.397 111.116L167.61 104.175L163.193 102.597L162.877 98.1798L165.086 90.6073L164.139 82.7194L160.353 77.9866L158.46 68.8365L149.309 67.5745L154.988 55.5847L157.828 41.0709L163.508 33.4983L170.766 27.819L175.815 17.7224L187.49 14.2518L186.859 18.9845L176.13 21.5087L181.495 30.6587L180.548 41.3863L172.028 53.0606L178.024 69.1521L185.913 67.89L190.646 53.0606L185.281 46.1191V30.6587L208.001 22.4552L206.108 12.9896L212.734 6.36377L218.098 20.8776L230.72 21.1931L241.449 32.2363L242.08 39.1777H257.858L277.106 37.2846L286.889 46.1191L300.141 48.6433L310.555 42.3329L310.87 37.2846L333.274 36.0226L354.416 35.707L338.954 41.7019L344.634 51.483L358.834 52.745L372.087 62.8417L374.296 78.9332L383.447 78.6177L390.389 83.3504Z" fill="#5C3127" stroke="#FFE6A7" stroke-width="0.2" stroke-linecap="round" stroke-linejoin="round"/>
<path d="M410.584 1313.25L429.517 1356.16H445.295L454.761 1356.79L453.183 1364.36L443.086 1370.35L435.513 1369.72L425.731 1368.15L412.478 1362.47L395.438 1359.63L371.771 1348.9L351.576 1338.8L320.652 1317.03L335.168 1321.13L362.305 1334.07L385.34 1341.01L389.127 1332.18L388.18 1318.92L398.909 1310.72L410.584 1313.25Z" fill="#5C3127" stroke="#FFE6A7" stroke-width="0.2" stroke-linecap="round" stroke-linejoin="round"/>
<path d="M282.155 713.443L284.995 718.491L281.209 739.631L263.538 749.412L268.587 783.173L266.062 789.798L272.373 797.686L261.96 810.307L253.756 829.238L250.916 847.854L256.28 867.416L249.654 888.24L265.116 923.263L270.164 927.049L274.582 945.665L269.533 965.227L273.951 982.265L264.484 995.517L269.533 1013.82L279.946 1033.69L272.058 1040.95L272.689 1058.94L275.213 1079.45L285.626 1104.06L280.262 1108.16L291.937 1131.19L301.719 1138.76L299.195 1147.28L308.03 1151.07L312.448 1158.64L306.768 1162.43L312.448 1174.1L315.919 1200.29L313.71 1217.33L319.39 1227.42L319.075 1239.73L310.555 1248.56L320.337 1269.07L328.541 1276.33L338.323 1275.07L344.319 1289.58L355.363 1300.94L393.544 1303.46L409.006 1306.62H395.438L390.073 1311.35L379.345 1318.29L384.709 1336.28L378.714 1336.59L358.834 1330.6L335.168 1317.03L311.186 1305.99L301.088 1293.68L300.142 1282.32L286.889 1269.07L271.111 1235.63L270.48 1216.7L281.209 1201.55L255.018 1195.56L263.538 1178.2L257.227 1145.07L277.738 1152.01L272.058 1110.68L259.436 1105.32L262.591 1130.24L251.547 1127.4L246.814 1099.01L240.503 1061.78L243.974 1047.89L233.561 1028.33L225.987 1005.61L232.929 1004.67L234.823 972.168L238.609 939.67L238.925 909.696L228.512 879.09L230.405 862.368L223.779 837.442L229.458 812.831L226.618 773.707V731.427L226.934 686.308L222.201 653.179L215.574 624.466L224.41 619.418L227.881 609.006L237.978 622.889L241.765 637.403L251.862 645.922L248.391 665.484L260.067 688.201L269.849 716.282L282.155 713.443Z" fill="#5C3127" stroke="#FFE6A7" stroke-width="0.2" stroke-linecap="round" stroke-linejoin="round"/>
<path d="M480.637 206.088L485.37 197.253L486.948 188.103L490.103 179.584L483.477 167.594L482.53 153.711L492.312 136.358L498.308 138.567L511.245 143.299L529.863 160.337L532.387 168.541L521.658 187.157L515.978 201.986L509.036 209.874L500.516 211.136L497.992 205.457L493.89 204.826L488.525 210.189L480.637 206.088Z" fill="#5C3127" stroke="#FFE6A7" stroke-width="0.2" stroke-linecap="round" stroke-linejoin="round"/>
<path d="M544.062 1307.88L545.324 1307.57V1308.83L542.8 1307.88L543.746 1306.93L544.378 1306.62L544.062 1307.88Z" fill="#5C3127" stroke="#FFE6A7" stroke-width="0.2" stroke-linecap="round" stroke-linejoin="round"/>
<path d="M541.854 1303.46L542.485 1304.09L543.747 1304.41L544.062 1305.67L543.116 1305.99L542.8 1304.73L542.169 1304.09L541.854 1303.46Z" fill="#5C3127" stroke="#FFE6A7" stroke-width="0.2" stroke-linecap="round" stroke-linejoin="round"/>
<path d="M523.236 1298.1V1298.73L523.552 1299.68L522.289 1299.99L521.343 1299.68L520.711 1299.05L519.765 1298.73L519.449 1297.47H520.08L520.396 1296.84L521.343 1296.52L521.974 1296.84L521.027 1297.78L521.974 1298.1L522.92 1297.15L523.236 1298.1Z" fill="#5C3127" stroke="#FFE6A7" stroke-width="0.2" stroke-linecap="round" stroke-linejoin="round"/>
<path d="M532.387 1294L531.124 1293.37L529.547 1292.42L527.022 1291.47L527.338 1290.21L525.129 1289.9L524.182 1289.58L523.236 1288.32L523.867 1288L526.391 1288.95L528.916 1290.21L530.493 1290.53L531.756 1290.84L532.702 1289.9L533.018 1288.95L533.649 1289.26L534.911 1288.63L535.227 1289.26H536.804V1290.21H537.751L540.591 1289.58L540.907 1290.21H541.853L543.115 1289.9L542.169 1289.26L541.853 1288.32H543.115L545.009 1288.95L545.324 1290.21L544.062 1291.79L544.378 1292.74L543.746 1293.37H542.484L541.538 1295.89L540.591 1296.84L539.644 1298.73L539.329 1299.68L537.751 1300.62L537.435 1299.99H536.173V1300.94L533.649 1300.62L533.333 1300.94L534.28 1302.2L533.964 1302.52L533.333 1303.78H532.071L531.124 1305.04L530.178 1305.36H529.547L528.916 1304.41L527.653 1303.46V1302.83H526.076L527.969 1304.09H526.707L525.129 1303.15L524.498 1302.83L523.236 1302.2L522.289 1301.57V1300.94L524.498 1301.57L526.391 1300.94L524.813 1300.31L524.498 1299.99H527.338L528.6 1300.31L529.547 1300.94V1300.31L530.809 1299.99L531.124 1299.05L529.862 1298.42L529.231 1296.84L529.547 1296.21H531.44L532.071 1296.52L533.333 1296.21L533.018 1295.26H530.493V1295.58L529.231 1296.21H527.338L525.76 1295.26V1294.31L527.969 1294.94L529.862 1294.31H530.809L532.387 1294L533.649 1294.63V1294.31L532.387 1294Z" fill="#5C3127"/>
<path d="M532.387 1294L531.124 1293.37L529.547 1292.42L527.022 1291.47L527.338 1290.21L525.129 1289.9L524.182 1289.58L523.236 1288.32L523.867 1288L526.391 1288.95L528.916 1290.21L530.493 1290.53L531.756 1290.84L532.702 1289.9L533.018 1288.95L533.649 1289.26L534.911 1288.63L535.227 1289.26H536.804V1290.21H537.751L540.591 1289.58L540.907 1290.21H541.853L543.115 1289.9L542.169 1289.26L541.853 1288.32H543.115L545.009 1288.95L545.324 1290.21L544.062 1291.79L544.378 1292.74L543.746 1293.37H542.484L541.538 1295.89L540.591 1296.84L539.644 1298.73L539.329 1299.68L537.751 1300.62L537.435 1299.99H536.173V1300.94L533.649 1300.62L533.333 1300.94L534.28 1302.2L533.964 1302.52L533.333 1303.78H532.071L531.124 1305.04L530.178 1305.36H529.547L528.916 1304.41L527.653 1303.46V1302.83H526.076L527.969 1304.09H526.707L525.129 1303.15L524.498 1302.83L523.236 1302.2L522.289 1301.57V1300.94L524.498 1301.57L526.391 1300.94L524.813 1300.31L524.498 1299.99H527.338L528.6 1300.31L529.547 1300.94V1300.31L530.809 1299.99L531.124 1299.05L529.862 1298.42L529.231 1296.84L529.547 1296.21H531.44L532.071 1296.52L533.333 1296.21L533.018 1295.26H530.493V1295.58L529.231 1296.21H527.338L525.76 1295.26V1294.31L527.969 1294.94L529.862 1294.31H530.809L532.387 1294ZM532.387 1294L533.649 1294.63V1294.31L532.387 1294Z" stroke="#FFE6A7" stroke-width="0.2" stroke-linecap="round" stroke-linejoin="round"/>
<path d="M537.436 1288H538.382L539.329 1288.95L538.382 1289.26H537.436V1288Z" fill="#5C3127" stroke="#FFE6A7" stroke-width="0.2" stroke-linecap="round" stroke-linejoin="round"/>
<path d="M534.28 1288H533.333L533.018 1287.06L534.28 1287.37V1288Z" fill="#5C3127" stroke="#FFE6A7" stroke-width="0.2" stroke-linecap="round" stroke-linejoin="round"/>
<path d="M529.862 1287.37L531.755 1287.06L532.386 1288L531.44 1289.27L530.808 1288.95L529.862 1289.27L528.915 1288.63L529.862 1288L530.808 1288.63L531.124 1288L529.546 1287.69L529.862 1287.37Z" fill="#5C3127" stroke="#FFE6A7" stroke-width="0.2" stroke-linecap="round" stroke-linejoin="round"/>
<path d="M552.581 1287.69H554.475L554.79 1287.37L556.368 1287.06L557.63 1287.69L558.892 1288.63L559.208 1289.58V1289.9L557.63 1290.21L556.999 1289.27L556.368 1288.95L556.053 1289.9L556.684 1290.21L556.999 1291.16L557.946 1290.53L558.577 1290.84L558.892 1292.11L559.839 1292.42L560.155 1292.11L561.733 1293.05L562.048 1291.79L559.524 1291.16L559.839 1289.58L560.786 1288.95L565.519 1288.63L567.728 1290.53L568.359 1290.84V1292.11L566.466 1291.79L564.888 1291.16L562.995 1291.79L563.941 1292.42L565.203 1292.74L568.044 1293.05L568.99 1293.37L569.306 1294L568.675 1295.58H567.097L566.781 1295.89L564.573 1296.21L562.995 1296.84L563.941 1297.47L561.101 1298.73L559.839 1298.42L558.262 1298.73H556.053L554.159 1298.1L552.266 1296.84V1297.78L553.213 1298.42L555.106 1299.05L556.053 1299.99L556.684 1299.68L557.946 1299.99L559.208 1300.94L558.577 1301.26L559.208 1302.83H558.577L557.63 1301.89L556.368 1301.57L554.79 1302.83L554.159 1301.89L553.213 1301.26H552.266L550.688 1300.62L550.057 1300.94L550.688 1302.2H551.635L552.266 1302.83L551.635 1303.15L553.844 1305.04L553.213 1305.36L551.951 1304.73H551.004L550.057 1303.78L549.111 1303.46L548.164 1303.15L547.848 1305.04L549.426 1305.36V1306.3L549.111 1306.93L547.848 1306.62L547.533 1305.99L545.955 1305.36L545.64 1304.73H545.008L543.746 1303.15L544.693 1301.89V1301.26L543.431 1299.68V1299.05L545.008 1298.42L544.693 1297.78L546.27 1297.47L545.955 1296.52L547.848 1295.26L549.742 1294.63L551.004 1295.89V1297.15L551.951 1296.84L550.373 1294.94L550.688 1294L548.795 1293.37L547.533 1292.42L547.848 1291.79L549.111 1292.42L549.426 1290.84L547.217 1290.21L547.533 1289.27L548.164 1289.58L549.111 1288.95H550.057L550.688 1288L549.742 1287.06H551.004L552.581 1287.69Z" fill="#5C3127" stroke="#FFE6A7" stroke-width="0.2" stroke-linecap="round" stroke-linejoin="round"/>
<path d="M536.804 1286.43H539.013L539.644 1287.06L540.275 1286.43L540.906 1286.74L541.537 1287.69L540.906 1288L539.644 1287.69L538.382 1287.06L535.857 1286.74L536.173 1286.11L536.804 1286.43Z" fill="#5C3127" stroke="#FFE6A7" stroke-width="0.2" stroke-linecap="round" stroke-linejoin="round"/>
<path d="M515.346 1282.95L513.769 1282.64L514.084 1282.01L515.346 1282.95Z" fill="#5C3127" stroke="#FFE6A7" stroke-width="0.2" stroke-linecap="round" stroke-linejoin="round"/>
<path d="M371.772 33.1831L371.14 34.7607L370.194 36.0228L369.563 36.3383L369.247 37.6004L369.878 39.4935L369.247 39.8089V42.0176L369.878 42.9641L370.51 43.5952L369.878 44.2263L369.563 45.1728V47.3815L368.932 47.6969L367.67 48.328L366.092 48.6435H365.145L363.567 48.9591L361.99 48.6435L360.727 48.9591L359.781 48.6435L358.203 49.2745L356.941 48.6435H355.048L354.101 49.2745L353.154 48.9591L354.732 48.328L355.679 47.3815L356.941 47.0659L358.203 46.1193L358.834 45.1728L360.727 45.4883L361.674 44.2263L361.043 41.7021L361.674 40.44V38.8624V38.2313L360.727 36.9693L359.781 36.6537L358.518 36.3383L358.203 36.0228L359.465 35.0761L362.936 34.7607L363.567 34.1296H367.038L367.354 33.8141L371.14 33.1831H371.772Z" fill="#5C3127" stroke="#FFE6A7" stroke-width="0.2" stroke-linecap="round" stroke-linejoin="round"/>
<path d="M379.345 23.0864L379.029 24.664L378.083 24.9796L376.821 25.9261H376.19L373.981 27.1881L373.35 26.5572L374.296 25.6105L376.505 24.0329L379.345 23.0864Z" fill="#5C3127" stroke="#FFE6A7" stroke-width="0.2" stroke-linecap="round" stroke-linejoin="round"/>
</svg>
