<svg class="country" viewBox="0 0 1264 1077" fill="none" xmlns="http://www.w3.org/2000/svg">
<path d="M546.702 913.673L541.969 898.528L549.226 889.693L554.591 886.223L561.217 893.164L554.906 897.581L551.751 902.63L551.119 911.464L546.702 913.673Z" fill="#5C3127" stroke="#FFE6A7" stroke-width="0.2" stroke-linecap="round" stroke-linejoin="round"/>
<path d="M860.99 886.538L859.097 886.853V885.907L852.786 866.66L852.754 866.471L852.47 863.189L848.053 854.039L859.097 855.617L864.461 843.943L874.243 845.205L875.19 853.093L878.976 857.826V864.452L874.559 868.553L867.301 879.281L860.99 886.538Z" fill="#5C3127" stroke="#FFE6A7" stroke-width="0.2" stroke-linecap="round" stroke-linejoin="round"/>
<path d="M393.345 560.291L392.714 566.917L396.816 578.907L393.345 587.11L395.239 592.474L386.403 605.095L381.039 611.405L377.568 624.026L378.199 636.962L377.252 669.461L362.422 671.985L358.004 658.102L358.95 611.405L355.164 607.303L354.533 597.207L348.222 590.265L342.857 584.27L345.066 573.543L351.377 571.334L354.848 562.5L363.684 560.606L367.47 554.612L373.466 548.617H379.777L393.345 560.291Z" fill="#5C3127" stroke="#FFE6A7" stroke-width="0.2" stroke-linecap="round" stroke-linejoin="round"/>
<path d="M335.915 494.032L334.337 503.813L336.861 512.963L346.643 526.215L347.274 535.996L367.785 540.729L367.47 554.612L363.683 560.607L354.848 562.5L351.377 571.334L345.066 573.543L329.604 573.227L321.399 571.65L315.719 574.805L307.831 573.227L276.907 574.174L276.276 585.848L278.8 600.993L266.494 595.945L258.289 596.576L251.978 601.624L244.09 597.522L240.934 590.581L233.045 586.164L231.783 574.49L236.832 565.97L236.201 559.029L250.401 542.307L253.241 528.424L257.974 523.375L266.494 526.215L274.067 522.113L276.591 516.75L290.16 507.915L293.631 501.605L310.355 493.086L320.137 490.246L324.555 494.032H335.915Z" fill="#5C3127" stroke="#FFE6A7" stroke-width="0.2" stroke-linecap="round" stroke-linejoin="round"/>
<path d="M754.966 621.817L767.272 629.705L777.054 637.909L777.37 644.535L789.676 654.947L797.249 663.781L801.667 675.771L815.236 683.975L818.076 690.285L812.396 692.494L800.72 692.178L787.467 689.969L780.841 691.547L778 696.595L772.321 697.226L765.378 692.809L745.499 702.906L737.294 701.013L734.77 702.59L729.722 714.895L716.153 710.794L703.215 708.901L691.856 701.328L677.024 694.387L667.558 701.013L660.616 711.109L659.038 725.308L647.679 724.361L635.372 720.89L624.959 731.618L615.492 750.549L613.599 744.554L612.652 735.404L604.448 728.778L597.822 718.366L596.244 711.109L587.724 700.382L589.302 694.387L587.408 685.868L588.67 670.092L593.088 666.621L601.924 646.112L616.439 644.535L619.595 639.171L622.75 639.802L627.168 644.219L649.572 636.647L657.145 628.759L666.296 621.502L664.402 614.56L669.451 612.667L686.806 613.929L703.215 604.464L715.837 582.377L724.672 574.174L736.033 570.703L738.241 579.222L748.655 591.843V600.362L746.13 608.565L747.392 614.876L753.388 620.871L754.966 621.817Z" fill="#5C3127" stroke="#FFE6A7" stroke-width="0.2" stroke-linecap="round" stroke-linejoin="round"/>
<path d="M233.045 586.164L240.934 590.581L244.09 597.523L251.978 601.624L258.289 596.576L266.494 595.945L278.8 600.993L283.533 630.021L275.96 646.744L271.227 669.777L278.8 687.13L278.169 695.334H269.965L257.658 691.547H245.983L224.841 695.334L212.535 701.013L194.864 708.585L191.393 707.954L192.655 691.232L194.548 688.708L193.917 680.82L186.344 672.301L180.664 671.039L175.615 665.359L179.402 656.209L177.824 646.428L178.455 640.749H181.295L182.557 631.914L181.295 627.812L182.873 624.973L189.499 622.764L185.082 606.357L180.98 598.154L182.557 591.212L186.028 589.635L188.553 587.742L193.286 590.897H207.17L210.326 585.217L213.481 585.533L218.53 583.324L221.37 591.843L225.472 589.319L233.045 586.164Z" fill="#5C3127" stroke="#FFE6A7" stroke-width="0.2" stroke-linecap="round" stroke-linejoin="round"/>
<path d="M601.923 646.112L593.088 666.621L588.67 670.092L587.408 685.868L589.301 694.387L587.723 700.382L596.243 711.109L597.821 718.366L604.447 728.778L612.652 735.404L613.598 744.554L615.492 750.549L614.229 761.277L600.03 756.544L585.514 751.18L563.11 750.549L560.902 749.287L550.173 751.811L539.444 749.287L530.924 750.549L501.578 750.234L504.418 734.142L497.16 720.575L488.956 717.42L485.485 708.27L480.752 705.43L481.067 699.751L485.485 685.237L494.005 665.675H499.054L509.782 653.685L516.409 653.369L526.507 661.888L538.813 654.947L540.391 646.428L544.493 638.224L547.017 628.128L556.484 619.924L559.955 605.726L563.741 600.993L566.266 590.581L570.684 577.645L585.514 561.869L586.461 555.243L588.354 551.457L581.097 543.569L581.728 536.943L586.461 535.996L593.719 548.932L595.296 562.184L594.665 575.752L604.763 594.052H594.665L589.617 595.314L581.412 593.421L577.626 602.886L588.354 614.876L596.243 618.347L598.768 626.55L604.447 640.433L601.923 646.112Z" fill="#5C3127" stroke="#FFE6A7" stroke-width="0.2" stroke-linecap="round" stroke-linejoin="round"/>
<path d="M818.076 690.285L829.12 707.008L837.325 709.532L842.058 706.061L850.262 707.323L860.044 703.221L864.462 711.74L880.555 725.308L879.608 748.972L886.866 751.811L880.87 758.753L874.244 764.432L867.302 774.844L863.515 784.31L862.569 800.401L858.466 808.289L858.151 823.434L853.102 829.113L852.471 841.103L849.947 842.681L848.053 854.039L852.471 863.19L852.787 866.345L849 898.843L853.733 910.202L850.578 918.721L856.258 933.235L866.986 944.278L869.195 955.321L874.244 960.685L873.297 964.156L870.457 963.209L846.16 966.68L841.427 969.204L836.062 982.14L839.849 990.975L836.378 1014.95L833.538 1035.15L838.271 1038.93L850.578 1046.82L855.626 1043.04L856.258 1064.81H842.689L835.747 1053.76L829.436 1044.93L815.867 1042.09L812.081 1031.68L801.036 1037.99L787.152 1035.15L781.157 1026L770.112 1024.1L761.593 1024.42L760.646 1018.11L754.65 1017.79L746.446 1016.53L735.402 1019.69L727.829 1019.06L723.411 1020.95L724.673 996.97L718.993 989.397L717.731 976.776L720.571 964.471L717.1 956.899L716.784 943.962L695.327 944.278L696.905 937.021H687.754L686.807 940.492L675.763 941.438L671.03 953.113L668.19 958.161L658.408 955.321L652.728 958.161L640.737 959.738L634.11 949.326L630.008 942.7L624.959 930.395L620.857 915.566L568.16 915.25L561.849 917.459L556.485 917.143L549.227 919.983L546.703 913.673L551.121 911.464L551.752 902.629L554.907 897.581L561.218 893.164L565.952 895.373L572.263 887.485L582.045 887.8L582.991 893.479L589.618 896.95L600.347 884.329L610.76 874.548L615.177 867.922L614.862 851.2L622.751 831.638L630.955 821.226L642.63 811.444L644.839 805.134L645.155 797.562L647.995 790.62L647.048 778.946L649.257 760.961L652.728 748.341L658.092 737.613L659.039 725.308L660.617 711.109L667.559 701.013L677.025 694.387L691.856 701.328L703.216 708.901L716.153 710.794L729.722 714.895L734.771 702.59L737.295 701.013L745.5 702.906L765.379 692.809L772.321 697.226L778.001 696.595L780.841 691.547L787.468 689.969L800.721 692.178L812.396 692.494L818.076 690.285Z" fill="#5C3127" stroke="#FFE6A7" stroke-width="0.2" stroke-linecap="round" stroke-linejoin="round"/>
<path d="M659.038 725.308L658.091 737.613L652.727 748.341L649.256 760.961L647.047 778.946L647.993 790.62L645.153 797.562L644.838 805.134L642.629 811.444L630.954 821.226L622.749 831.638L614.861 851.2L615.176 867.922L610.758 874.548L600.345 884.329L589.617 896.95L582.99 893.479L582.043 887.8L572.261 887.485L565.95 895.373L561.217 893.164L554.591 886.222L549.226 889.693L541.969 898.528L527.453 877.073L541.022 865.714L534.395 852.462L540.706 847.414L552.697 844.89L553.959 835.739L563.741 845.521L579.519 846.467L584.883 837.002L587.092 823.434L585.199 807.658L576.679 795.668L584.568 772.005L580.15 768.218L566.897 769.796L561.848 759.384L563.11 750.549L585.514 751.18L600.03 756.544L614.229 761.277L615.492 750.549L624.958 731.618L635.371 720.89L647.678 724.361L659.038 725.308Z" fill="#5C3127" stroke="#FFE6A7" stroke-width="0.2" stroke-linecap="round" stroke-linejoin="round"/>
<path d="M1096.39 564.077L1090.39 575.121L1086.29 571.334L1082.19 572.912L1072.09 572.596L1071.46 566.286L1069.88 560.607L1075.56 551.141L1081.56 542.307L1089.13 544.2L1094.5 539.151L1098.91 545.462L1098.6 553.665L1088.82 558.714L1096.39 564.077Z" fill="#5C3127" stroke="#FFE6A7" stroke-width="0.2" stroke-linecap="round" stroke-linejoin="round"/>
<path d="M470.024 47.8877L466.869 58.2998L470.024 77.5465L466.553 94.269L456.455 105.628L458.349 120.773L472.549 133.078L472.864 137.811L483.593 146.014L491.797 182.299L497.793 200.283L499.055 209.749L496.53 226.156L497.793 235.622L495.899 246.665L497.793 259.286L490.85 267.805L501.579 282.634L502.21 291.153L508.837 302.512L516.726 298.726L530.925 308.191L538.814 320.812L479.491 359.621L429.003 399.376L404.39 408.211L384.826 410.419L384.51 397.483L376.306 394.012L365.261 388.333L361.159 378.867L302.151 334.695L243.459 290.522L178.771 241.301L179.087 237.515L179.403 236.253L179.718 212.273L207.802 197.128L224.842 193.973L239.041 188.609L245.668 178.513L265.863 170.625L266.81 155.48L276.592 153.587L284.481 146.33L306.885 142.859L310.04 134.971L305.623 130.554L299.627 109.098L298.68 96.7932L292.685 83.8569L308.778 72.8137L327.08 69.343L337.493 61.1395L353.586 54.8291L381.986 51.3585L409.754 49.7809L418.274 52.6205L433.736 44.7325L451.722 44.417L458.664 49.1498L470.024 47.8877Z" fill="#5C3127" stroke="#FFE6A7" stroke-width="0.2" stroke-linecap="round" stroke-linejoin="round"/>
<path d="M915.264 163.999L927.57 193.658L929.779 198.706L925.677 206.91L923.468 222.055L919.681 232.782L915.895 236.253L909.584 229.627L901.064 220.793L886.233 191.765L884.655 193.658L893.491 214.798L905.797 235.307L921.259 266.858L928.517 277.902L934.828 289.26L951.867 311.662L948.712 315.133L949.974 328.385L971.432 346.685L974.903 350.787H905.166H837.323H766.955L763.8 276.009L759.698 204.07L753.387 187.663L756.858 175.358L753.702 166.523L759.066 156.742L781.786 156.427L798.826 161.791L816.181 167.785L824.385 170.941L837.007 164.63L843.634 158.951L858.465 157.058L870.771 159.582L876.451 169.679L879.922 163.053L893.806 167.785L907.375 169.048L915.264 163.999Z" fill="#5C3127" stroke="#FFE6A7" stroke-width="0.2" stroke-linecap="round" stroke-linejoin="round"/>
<path d="M1094.5 539.151L1089.13 544.2L1081.56 542.306L1075.25 535.681L1067.36 524.006L1059.16 517.38L1054.42 510.439L1038.64 502.236L1026.34 501.92L1021.92 497.818L1011.82 502.551L1000.46 493.401L995.73 508.546L974.904 504.129L972.695 496.241L979.006 466.266L979.953 453.015L985.317 446.704L997.939 443.233L1006.46 431.875L1017.82 455.223L1023.81 473.839L1033.91 483.62L1059.16 502.867L1069.57 514.225L1079.67 526.215L1085.35 533.156L1094.5 539.151Z" fill="#5C3127" stroke="#FFE6A7" stroke-width="0.2" stroke-linecap="round" stroke-linejoin="round"/>
<path d="M1026.34 501.92L1038.64 502.235L1054.42 510.439L1059.15 517.38L1067.36 524.006L1075.25 535.681L1081.56 542.306L1075.56 551.141L1069.88 560.607L1071.46 566.286L1072.09 572.596L1082.19 572.912L1086.29 571.334L1090.39 575.12L1086.61 582.062L1093.55 593.421L1100.49 603.202L1107.43 610.459L1166.44 634.438L1181.59 634.122L1132.36 695.018L1109.33 695.964L1093.55 710.163L1082.19 710.478L1077.46 717.104H1065.15L1057.89 710.163L1041.48 718.682L1036.44 727.201L1024.44 725.308L1020.34 723.099L1016.24 723.73L1010.56 723.414L987.841 706.376H975.219L969.223 699.751L968.908 688.392L959.757 684.921L948.712 662.835L940.508 658.102L937.353 649.898L927.886 640.117L916.842 638.54L922.837 627.181L932.304 626.55L934.828 620.555L934.197 604.779V602.255L938.93 581.115L947.135 575.436L948.712 567.232L955.97 551.456L966.383 541.675L972.694 521.482L974.903 504.129L995.729 508.546L1000.46 493.401L1011.82 502.551L1021.92 497.818L1026.34 501.92Z" fill="#5C3127" stroke="#FFE6A7" stroke-width="0.2" stroke-linecap="round" stroke-linejoin="round"/>
<path d="M563.11 750.549L561.848 759.384L566.897 769.796L580.15 768.218L584.568 772.005L576.679 795.668L585.199 807.658L587.092 823.434L584.883 837.002L579.519 846.467L563.741 845.521L553.959 835.739L552.697 844.89L540.706 847.414L534.395 852.462L541.022 865.714L527.453 877.073L509.151 856.564L497.476 839.841L486.432 819.017L487.063 812.075L491.165 805.765L495.267 790.936L499.054 775.791L505.049 774.844H530.925V750.549L539.444 749.287L550.173 751.811L560.902 749.287L563.11 750.549Z" fill="#5C3127" stroke="#FFE6A7" stroke-width="0.2" stroke-linecap="round" stroke-linejoin="round"/>
<path d="M329.603 573.227L328.341 579.538L335.599 589.95V604.779L337.492 620.555L341.91 628.128L337.808 646.112L339.385 656.209L344.119 669.145L348.221 676.402L320.137 688.076L310.039 695.018L293.946 701.013L278.169 695.333L278.8 687.13L271.227 669.776L275.96 646.743L283.533 630.021L278.8 600.993L276.275 585.848L276.906 574.174L307.83 573.227L315.719 574.805L321.399 571.65L329.603 573.227Z" fill="#5C3127" stroke="#FFE6A7" stroke-width="0.2" stroke-linecap="round" stroke-linejoin="round"/>
<path d="M124.496 544.2L125.443 551.772H128.283L133.016 548.932L135.856 549.563L140.905 554.927L148.478 556.505L153.211 552.087L159.207 549.248L163.309 546.408L166.78 547.039L170.882 551.457L172.775 557.136L180.033 565.655L176.562 570.703L175.615 577.329L179.402 575.436L181.611 577.645L180.664 583.639L186.029 589.634L182.558 591.212L180.98 598.153L185.082 606.357L189.5 622.764L182.873 624.972L181.295 627.812L182.558 631.914L181.295 640.748H178.455L173.407 640.117L169.936 648.321H164.887L161.416 643.904L162.678 635.7L155.105 623.395L150.687 625.604L146.585 626.235L141.852 627.181L142.167 619.924L139.327 614.56L139.958 608.565L136.172 600.046L131.123 592.789H116.923L112.821 596.576L107.772 597.207L104.617 601.624L102.723 606.988L92.9413 616.138L85.3681 604.148L78.4261 596.26L74.0083 593.421L69.5906 589.319L67.6973 580.484L65.173 576.067L59.8086 572.596L68.0128 562.815L73.3772 563.131L78.1105 559.975L81.8971 559.66L84.7371 557.136L83.4748 550.51L85.3681 548.301L85.6837 541.36L94.2036 541.675L107.141 546.408L110.928 546.093L112.19 543.884L121.972 545.462L124.496 544.2Z" fill="#5C3127" stroke="#FFE6A7" stroke-width="0.2" stroke-linecap="round" stroke-linejoin="round"/>
<path d="M30.1465 530.001L32.671 520.851L51.9195 520.536L56.0216 515.487L61.7015 515.172L68.6436 520.22H74.008L80.0035 517.065L83.4745 522.744L75.5858 527.477L68.0125 526.846L60.4394 522.744L53.8127 527.477H50.6572L46.2397 530.317L30.1465 530.001Z" fill="#5C3127" stroke="#FFE6A7" stroke-width="0.2" stroke-linecap="round" stroke-linejoin="round"/>
<path d="M85.6842 541.36L85.3686 548.302L83.4753 550.51L84.7376 557.136L81.8976 559.66L78.111 559.976L73.3777 563.131L68.0133 562.815L59.8091 572.596L50.6581 564.393L43.085 562.815L38.9829 557.136L39.2983 553.981L33.934 549.879L32.6719 545.462L42.1384 542.307L48.1337 542.938L52.867 540.414L85.6842 541.36Z" fill="#5C3127" stroke="#FFE6A7" stroke-width="0.2" stroke-linecap="round" stroke-linejoin="round"/>
<path d="M530.924 750.549V774.844H505.049L499.053 775.791L495.582 772.951L501.578 750.234L530.924 750.549Z" fill="#5C3127" stroke="#FFE6A7" stroke-width="0.2" stroke-linecap="round" stroke-linejoin="round"/>
<path d="M1077.46 717.104L1062 739.822L1062.63 813.653L1073.04 830.376L1060.42 838.579L1056 847.098L1049.06 848.36L1046.53 862.874L1040.54 871.078L1037.07 884.33L1029.81 890.955L1004.25 870.762L1003.3 859.088L938.615 817.755L939.878 802.926L935.46 795.038V794.091L940.509 785.888L949.344 772.636L955.971 757.806L947.766 734.458L945.557 724.361L937.038 710.163L947.766 698.173L959.757 684.921L968.908 688.392L969.224 699.751L975.219 706.377H987.841L1010.56 723.415L1016.24 723.73L1020.34 723.099L1024.44 725.308L1036.44 727.201L1041.48 718.682L1057.89 710.163L1065.15 717.104H1077.46Z" fill="#5C3127" stroke="#FFE6A7" stroke-width="0.2" stroke-linecap="round" stroke-linejoin="round"/>
<path d="M178.456 640.749L177.825 646.428L179.403 656.209L175.616 665.359L180.665 671.038L186.345 672.301L193.918 680.82L194.549 688.708L192.656 691.232L191.394 707.954L186.66 708.27L168.359 698.489L151.95 683.028L136.804 671.985L124.812 659.049L129.23 652.423L130.177 646.428L138.381 635.7L146.586 626.235L150.688 625.604L155.105 623.395L162.678 635.7L161.416 643.904L164.887 648.321H169.936L173.407 640.118L178.456 640.749Z" fill="#5C3127" stroke="#FFE6A7" stroke-width="0.2" stroke-linecap="round" stroke-linejoin="round"/>
<path d="M759.067 156.742L753.703 166.523L756.858 175.357L753.387 187.663L759.698 204.07L763.8 276.008L766.956 350.786L768.534 391.173H748.338V399.692L677.024 360.883L606.025 322.074L588.67 333.117L576.679 340.69L566.582 329.646L538.813 320.812L530.925 308.191L516.725 298.726L508.836 302.512L502.209 291.153L501.578 282.634L490.85 267.805L497.792 259.286L495.898 246.665L497.792 235.622L496.53 226.156L499.054 209.749L497.792 200.283L491.796 182.299L500.001 177.882L501.263 169.047L499.37 160.844L510.729 152.956L515.778 146.33L523.982 140.65L524.298 125.19L544.493 132.131L551.751 130.238L565.951 133.709L588.986 142.859L597.821 160.844L613.283 164.63L637.896 173.149L656.829 183.245L664.718 177.882L672.606 168.732L667.558 153.271L672.291 143.174L683.966 133.709L695.642 131.185L718.992 135.286L725.303 144.121L731.614 144.437L737.294 147.907L754.334 150.116L759.067 156.742Z" fill="#5C3127" stroke="#FFE6A7" stroke-width="0.2" stroke-linecap="round" stroke-linejoin="round"/>
<path d="M292.684 83.8569L298.679 96.7932L299.626 109.098L305.622 130.554L310.039 134.971L306.884 142.859L284.48 146.33L276.591 153.587L266.809 155.48L265.862 170.625L245.667 178.513L239.04 188.609L224.841 193.973L207.801 197.128L179.717 212.273L179.402 236.253H176.561L176.877 246.98L166.148 247.611L160.469 252.344H152.58L146.269 249.504L131.753 251.713L125.758 267.489L120.078 269.067L111.558 294.624L86.6297 316.395L80.3187 344.476L72.7455 353.626L70.5368 360.883L31.093 362.46H30.7773L31.724 352.995L38.6661 347.631L44.6616 336.903L43.715 329.962L50.026 315.764L60.1235 302.827L66.119 299.672L71.1677 287.998L71.7988 276.955L78.4255 264.649L90.4164 257.077L101.776 236.568L102.092 236.253L111.243 228.365L127.336 226.156L141.22 212.273L150.055 206.909L164.886 189.871L161.099 164.945L168.042 147.276L170.882 136.549L182.241 122.981L199.281 113.831L212.219 105.312L223.894 84.488L229.574 71.8672L241.88 72.1826L251.662 80.7017L267.756 79.4396L285.111 83.8569H292.684Z" fill="#5C3127" stroke="#FFE6A7" stroke-width="0.2" stroke-linecap="round" stroke-linejoin="round"/>
<path d="M404.39 408.211L404.706 454.908L394.924 468.475L393.662 481.096L377.884 484.251L353.587 485.829L347.276 493.086L335.916 494.032H324.556L320.138 490.246L310.356 493.086L293.632 501.605L290.161 507.915L276.593 516.75L274.068 522.113L266.495 526.215L257.975 523.375L253.242 528.424L250.402 542.307L236.202 559.029L236.833 565.97L231.784 574.49L233.047 586.164L225.473 589.319L221.371 591.843L218.531 583.324L213.483 585.533L210.327 585.217L207.172 590.897H193.287L188.554 587.741L186.03 589.634L180.665 583.64L181.612 577.645L179.403 575.436L175.617 577.329L176.563 570.703L180.034 565.655L172.776 557.136L170.883 551.457L166.781 547.039L163.31 546.408L159.208 549.248L153.212 552.088L148.479 556.505L140.906 554.927L135.857 549.564L133.017 548.932L128.284 551.772H125.444L124.497 544.2L125.444 537.889L123.866 530.317L117.555 524.638L114.084 512.963L113.453 500.343L119.449 496.556L122.604 484.567L128.284 484.251L140.59 489.93L150.688 485.829L157.315 487.091L160.154 482.673L231.153 482.358L235.255 468.16L232.1 465.635L224.211 378.237L216.638 290.838L243.46 290.522L302.152 334.695L361.16 378.868L365.262 388.333L376.306 394.012L384.511 397.483L384.826 410.42L404.39 408.211Z" fill="#5C3127" stroke="#FFE6A7" stroke-width="0.2" stroke-linecap="round" stroke-linejoin="round"/>
<path d="M243.459 290.522L216.638 290.838L224.211 378.237L232.1 465.635L235.255 468.16L231.153 482.358L160.154 482.673L157.314 487.091L150.688 485.829L140.59 489.93L128.284 484.251L122.604 484.567L119.448 496.556L113.453 500.343L102.093 486.46L91.3643 471.315L80.0046 465.951L71.4847 460.272H61.7025L52.8671 464.689L44.3473 463.111L38.0363 469.422L36.7742 458.694L41.8229 448.597L44.3473 429.666L43.0852 409.473L41.1918 399.376L43.0852 389.28L38.6674 379.814L29.832 370.98L33.9341 364.354H102.409L99.5685 335.011L104.302 324.598L120.71 323.021L121.342 270.96L178.141 272.222L178.772 241.301L243.459 290.522Z" fill="#5C3127" stroke="#FFE6A7" stroke-width="0.2" stroke-linecap="round" stroke-linejoin="round"/>
<path d="M588.671 333.117L593.72 364.669L600.662 370.033L600.978 376.343L608.551 383.285L604.764 392.119L599.084 433.137L598.453 459.64L576.365 478.572L569.107 505.391L576.68 512.963V525.9L588.356 526.215L586.462 535.996L581.729 536.943L581.098 543.569L577.942 543.884L565.636 521.798L561.218 520.851L547.65 532.21L533.765 526.215L524.299 525.268L519.25 528.108L508.837 527.477L498.424 535.996L489.273 536.627L467.816 526.215L459.296 530.948L450.145 530.632L443.518 523.06L425.847 515.487L406.599 518.012L402.181 522.113L399.657 533.788L394.608 541.991L393.346 560.291L379.777 548.617H373.466L367.471 554.612L367.786 540.729L347.275 535.996L346.644 526.215L336.862 512.963L334.338 503.813L335.916 494.032L347.275 493.086L353.586 485.829L377.884 484.251L393.661 481.096L394.924 468.475L404.706 454.908L404.39 408.211L429.003 399.376L479.491 359.621L538.814 320.812L566.583 329.647L576.68 340.69L588.671 333.117Z" fill="#5C3127" stroke="#FFE6A7" stroke-width="0.2" stroke-linecap="round" stroke-linejoin="round"/>
<path d="M581.097 543.569L588.355 551.457L586.462 555.243L585.515 561.869L570.684 577.645L566.266 590.581L563.742 600.993L559.955 605.726L556.485 619.924L547.018 628.128L544.493 638.224L540.392 646.428L538.814 654.947L526.507 661.888L516.409 653.369L509.783 653.685L499.054 665.674H494.005L485.486 685.237L481.068 699.751L462.45 707.008L455.824 706.061L448.882 710.478L434.682 710.163L424.9 697.226L418.905 682.713L406.283 669.461H393.029H377.252L378.199 636.962L377.568 624.026L381.039 611.405L386.403 605.095L395.238 592.474L393.345 587.11L396.816 578.907L392.714 566.917L393.345 560.291L394.607 541.991L399.656 533.787L402.18 522.113L406.598 518.012L425.847 515.487L443.517 523.06L450.144 530.632L459.295 530.948L467.815 526.215L489.272 536.627L498.423 535.996L508.837 527.477L519.249 528.108L524.298 525.268L533.765 526.215L547.649 532.21L561.218 520.851L565.636 521.798L577.942 543.884L581.097 543.569Z" fill="#5C3127" stroke="#FFE6A7" stroke-width="0.2" stroke-linecap="round" stroke-linejoin="round"/>
<path d="M1224.5 297.464L1219.77 299.041L1214.09 294.939L1211.57 280.11L1215.04 269.698L1219.77 267.489L1225.45 273.8L1227.03 285.474L1224.5 297.464Z" fill="#5C3127" stroke="#FFE6A7" stroke-width="0.2" stroke-linecap="round" stroke-linejoin="round"/>
<path d="M873.297 819.333L880.239 830.691L879.292 842.681L874.243 845.205L864.461 843.943L859.097 855.617L848.053 854.04L849.946 842.681L852.47 841.103L853.101 829.114L858.15 823.434L862.568 825.643L873.297 819.333Z" fill="#5C3127" stroke="#FFE6A7" stroke-width="0.2" stroke-linecap="round" stroke-linejoin="round"/>
<path d="M179.403 236.253L179.087 237.515L178.772 241.301L178.141 272.222L121.342 270.96L120.71 323.021L104.302 324.598L99.5685 335.011L102.409 364.354H33.9341L29.832 370.98L30.7786 362.461H31.0943L70.5381 360.883L72.7468 353.626L80.32 344.476L86.631 316.395L111.56 294.624L120.079 269.067L125.759 267.489L131.755 251.713L146.27 249.505L152.581 252.344H160.47L166.15 247.612L176.878 246.981L176.563 236.253H179.403Z" fill="#5C3127" stroke="#FFE6A7" stroke-width="0.2" stroke-linecap="round" stroke-linejoin="round"/>
<path d="M974.903 504.129L972.694 521.482L966.383 541.676L955.97 551.457L948.712 567.233L947.135 575.436L938.93 581.115L934.197 602.255V604.779L931.673 604.148L931.988 594.052L929.464 587.11L920.313 579.222L917.473 564.708L919.366 549.564L911.162 548.301L909.9 552.719L899.171 553.981L903.904 559.66L905.482 571.965L896.016 583.009L887.496 597.522L878.345 599.731L863.198 588.057L856.572 592.159L854.994 597.838L845.843 601.94L845.212 606.041H827.541L825.017 601.94L812.079 600.993L805.768 604.464L800.72 602.886L791.569 590.897L788.413 585.533L775.476 588.372L770.742 597.522L766.64 615.823L760.329 619.609L754.965 621.817L753.387 620.871L747.392 614.876L746.129 608.566L748.654 600.362V591.843L738.241 579.222L736.032 570.703V565.655L729.405 559.66L729.09 547.986L724.988 540.098L718.992 541.36L720.57 533.788L724.988 525.584L722.779 517.065L728.459 510.755L724.672 506.022L728.774 493.717L736.663 478.572L751.809 480.149L748.338 399.692V391.173H768.533L766.956 350.786H837.323H905.167H974.903L981.53 370.664L977.743 374.135L981.53 395.275L989.418 419.254L996.361 424.302L1006.46 431.875L997.938 443.233L985.316 446.704L979.952 453.015L979.005 466.266L972.694 496.241L974.903 504.129Z" fill="#5C3127" stroke="#FFE6A7" stroke-width="0.2" stroke-linecap="round" stroke-linejoin="round"/>
<path d="M934.197 604.779L934.828 620.555L932.304 626.55L922.837 627.181L916.842 638.54L927.886 640.117L937.352 649.898L940.508 658.102L948.712 662.835L959.756 684.921L947.766 698.173L937.037 710.163L925.993 719.628H913.371L899.171 724.361L887.811 719.628L880.554 725.307L864.461 711.74L860.043 703.221L850.261 707.323L842.057 706.061L837.323 709.532L829.119 707.007L818.075 690.285L815.235 683.975L801.666 675.771L797.248 663.781L789.675 654.947L777.369 644.535L777.053 637.909L767.271 629.705L754.965 621.817L760.329 619.609L766.64 615.822L770.742 597.522L775.476 588.372L788.413 585.533L791.569 590.896L800.72 602.886L805.768 604.464L812.079 600.993L825.017 601.94L827.541 606.041H845.212L845.843 601.94L854.994 597.838L856.572 592.158L863.198 588.057L878.345 599.731L887.496 597.522L896.016 583.008L905.482 571.965L903.904 559.66L899.171 553.981L909.9 552.719L911.162 548.301L919.366 549.563L917.473 564.708L920.313 579.222L929.464 587.11L931.988 594.052L931.673 604.148L934.197 604.779Z" fill="#5C3127" stroke="#FFE6A7" stroke-width="0.2" stroke-linecap="round" stroke-linejoin="round"/>
<path d="M113.453 500.342L114.084 512.963L117.555 524.637L123.866 530.317L125.444 537.889L124.497 544.2L121.973 545.462L112.19 543.884L110.928 546.093L107.142 546.408L94.2043 541.676L85.6844 541.36L52.8671 540.413L48.1339 542.938L42.1385 542.306L32.672 545.462L30.1475 530.001L46.2406 530.317L50.6582 527.477H53.8137L60.4404 522.744L68.0135 526.846L75.5868 527.477L83.4755 522.744L80.0045 517.065L74.009 520.22H68.6446L61.7025 515.172L56.0226 515.487L51.9205 520.536L32.672 520.851L25.4142 505.075L16.8945 498.134L24.7833 494.032L33.6186 479.834L38.0362 469.422L44.3472 463.111L52.8671 464.689L61.7025 460.271H71.4846L80.0045 465.951L91.3643 471.315L102.093 486.46L113.453 500.342Z" fill="#5C3127" stroke="#FFE6A7" stroke-width="0.2" stroke-linecap="round" stroke-linejoin="round"/>
<path d="M146.585 626.235L138.381 635.7L130.176 646.428L129.23 652.423L124.812 659.049L120.079 657.471L107.457 649.268L97.9901 638.54L95.1503 630.967L92.9414 616.138L102.723 606.988L104.617 601.624L107.772 597.207L112.821 596.576L116.923 592.79H131.123L136.172 600.047L139.958 608.566L139.327 614.56L142.167 619.924L141.852 627.181L146.585 626.235Z" fill="#5C3127" stroke="#FFE6A7" stroke-width="0.2" stroke-linecap="round" stroke-linejoin="round"/>
<path d="M748.338 399.692L751.809 480.149L736.662 478.572L728.774 493.717L724.671 506.022L728.458 510.755L722.778 517.065L724.987 525.584L720.569 533.788L718.992 541.36L724.987 540.098L729.089 547.986L729.405 559.66L736.031 565.655V570.703L724.671 574.174L715.836 582.378L703.214 604.464L686.805 613.93L669.45 612.667L664.401 614.561L666.295 621.502L657.144 628.759L649.571 636.647L627.167 644.219L622.749 639.802L619.593 639.171L616.438 644.535L601.923 646.113L604.447 640.433L598.767 626.55L596.243 618.347L588.354 614.876L577.625 602.886L581.412 593.421L589.616 595.314L594.665 594.052H604.762L594.665 575.752L595.296 562.184L593.718 548.933L586.461 535.996L588.354 526.215L576.679 525.9V512.963L569.105 505.391L576.363 478.572L598.451 459.641L599.083 433.137L604.762 392.12L608.549 383.285L600.976 376.344L600.66 370.033L593.718 364.669L588.669 333.117L606.025 322.074L677.023 360.883L748.338 399.692Z" fill="#5C3127" stroke="#FFE6A7" stroke-width="0.2" stroke-linecap="round" stroke-linejoin="round"/>
<path d="M345.066 573.543L342.857 584.271L348.222 590.266L354.533 597.207L355.164 607.304L358.95 611.405L358.004 658.102L362.421 671.985L348.222 676.402L344.119 669.145L339.386 656.209L337.808 646.113L341.911 628.128L337.493 620.555L335.6 604.779V589.95L328.342 579.538L329.604 573.228L345.066 573.543Z" fill="#5C3127" stroke="#FFE6A7" stroke-width="0.2" stroke-linecap="round" stroke-linejoin="round"/>
<path d="M524.298 125.19L523.983 140.651L515.779 146.33L510.73 152.956L499.37 160.844L501.263 169.047L500.001 177.882L491.797 182.299L483.593 146.014L472.864 137.811L472.548 133.078L458.349 120.773L456.455 105.628L466.553 94.2693L470.024 77.5468L466.868 58.3001L470.024 47.888L488.01 40L499.686 42.2086V52.6208L513.57 45.0483L514.832 48.8345L506.943 58.9312L507.259 68.0812L513.254 73.1295L511.676 90.7986L500.632 100.895L504.419 111.938L513.254 112.254L517.672 122.035L524.298 125.19Z" fill="#5C3127" stroke="#FFE6A7" stroke-width="0.2" stroke-linecap="round" stroke-linejoin="round"/>
<path d="M899.172 817.124L898.541 829.429L895.07 843.627L900.119 851.515L908.007 846.783L918.42 845.521L920.629 848.045L931.042 842.996L923.785 836.055L929.78 826.905L938.616 817.755L1003.3 859.088L1004.25 870.762L1029.81 890.955L1020.97 916.197L1021.92 927.556L1032.97 934.813L1033.6 940.176L1028.23 952.482L1029.18 958.477L1027.92 968.258L1033.6 980.878L1040.54 1001.07L1046.85 1005.49L1032.33 1017.16L1012.77 1025.05L1002.04 1024.74L995.415 1030.73L983.108 1031.36L978.375 1033.89L957.233 1028.21L950.291 1028.84L950.607 1028.52L944.927 1020.95L943.98 999.494L934.829 988.766L933.567 992.553L930.411 987.189L913.056 983.402L902.958 977.408L891.599 973.937L884.657 970.466L883.71 969.835L875.19 949.011L873.928 936.706L859.728 922.823L864.146 915.25L860.675 907.047L861.306 898.528L858.15 895.688L859.097 886.854L860.99 886.538L867.301 879.281L874.559 868.554L878.977 864.452V857.826L875.19 853.093L874.243 845.205L879.292 842.681L880.239 830.691L873.297 819.333L879.608 816.808L899.172 817.124Z" fill="#5C3127" stroke="#FFE6A7" stroke-width="0.2" stroke-linecap="round" stroke-linejoin="round"/>
<path d="M937.038 710.163L945.558 724.361L947.767 734.458L955.971 757.806L949.344 772.635L940.509 785.887L935.46 794.091V795.037L934.829 793.775L925.363 789.673L917.789 794.722L906.43 797.561L898.225 809.236L899.172 817.124L879.608 816.808L873.297 819.332L862.568 825.643L858.15 823.434L858.466 808.289L862.568 800.401L863.515 784.31L867.301 774.844L874.243 764.432L880.87 758.753L886.865 751.811L879.608 748.971L880.554 725.307L887.812 719.628L899.172 724.361L913.372 719.628H925.994L937.038 710.163Z" fill="#5C3127" stroke="#FFE6A7" stroke-width="0.2" stroke-linecap="round" stroke-linejoin="round"/>
<path d="M1073.04 830.376L1062.63 813.653L1062 739.822L1077.46 717.104L1082.19 710.478L1093.55 710.163L1109.33 695.964L1132.36 695.018L1181.59 634.123L1166.44 634.438L1107.43 610.459L1100.49 603.202L1093.55 593.421L1086.61 582.062L1090.39 575.121L1096.39 564.077L1102.39 567.864L1106.17 576.383L1114.69 584.902H1123.53L1139.94 579.538L1159.18 577.329L1174.65 571.019L1183.48 569.757L1189.79 565.971L1199.89 565.34L1205.57 564.708L1213.46 561.869L1222.93 559.66L1230.81 552.719H1237.76L1238.39 558.398L1237.13 570.072L1237.76 580.8L1234.29 588.057L1229.87 610.143L1222.29 632.545L1211.88 658.418L1197.37 688.076L1182.54 710.794L1161.71 738.56L1144.04 754.967L1117.53 775.16L1100.81 790.305L1081.24 814.915L1077.14 825.643L1073.04 830.376Z" fill="#5C3127" stroke="#FFE6A7" stroke-width="0.2" stroke-linecap="round" stroke-linejoin="round"/>
<path d="M1205.57 264.649L1206.52 264.965L1207.15 264.649L1208.41 266.858L1208.09 267.489L1208.41 270.329V272.537L1207.78 273.8L1207.46 272.537L1205.57 270.013L1205.89 268.751L1205.25 266.543V265.28L1205.57 264.649Z" fill="#5C3127" stroke="#FFE6A7" stroke-width="0.2" stroke-linecap="round" stroke-linejoin="round"/>
<path d="M1108.07 1047.14L1105.23 1046.82L1104.59 1045.56V1044.61L1106.17 1044.93L1108.38 1046.51L1108.07 1047.14Z" fill="#5C3127" stroke="#FFE6A7" stroke-width="0.2" stroke-linecap="round" stroke-linejoin="round"/>
<path d="M1119.74 1041.14L1120.37 1044.3V1046.51L1120.06 1047.14L1119.43 1046.19L1118.16 1045.24L1117.85 1044.61L1116.9 1044.3L1115.01 1043.04L1115.32 1042.72L1116.9 1043.35L1117.85 1043.04L1118.48 1041.77V1041.14L1119.43 1040.83L1119.74 1041.14Z" fill="#5C3127" stroke="#FFE6A7" stroke-width="0.2" stroke-linecap="round" stroke-linejoin="round"/>
<path d="M1101.75 1037.99L1100.18 1036.73L1099.23 1036.41L1098.28 1035.78L1097.65 1033.89L1097.97 1032.94V1032.31L1098.6 1028.52L1098.28 1028.21L1098.91 1026.94L1100.49 1026.63L1101.12 1027.58L1100.49 1031.36L1100.81 1032.31L1101.44 1033.57L1101.75 1035.15L1102.39 1037.04L1101.75 1037.99Z" fill="#5C3127" stroke="#FFE6A7" stroke-width="0.2" stroke-linecap="round" stroke-linejoin="round"/>
<path d="M897.594 87.6433V87.9588L896.963 88.5898L896.647 90.483L896.332 91.1139H895.385L894.754 91.745L893.176 92.3761L892.545 92.6915L890.652 93.6382L889.39 93.3226L887.812 93.6382L886.865 94.9002L886.234 93.9537L885.288 94.2691H884.657L883.71 93.3226L882.448 94.2691H880.87L879.292 93.6382L877.714 93.3226L876.452 92.3761L875.506 90.483L874.559 89.5364L873.928 87.3278L873.297 86.3812L873.612 85.4346L875.19 86.3812L876.452 86.0657L877.083 85.1191L877.399 84.1726L878.346 83.857L878.977 84.1726L879.608 83.5415H880.239L880.554 84.8036L882.132 85.4346L882.448 86.0657H884.341L886.234 84.4881L887.497 84.8036L888.443 84.1726L889.39 84.4881L890.652 85.1191L891.283 84.1726H892.23L893.176 85.4346V87.3278L894.123 86.6967L895.07 87.3278L895.385 87.0122L897.594 87.6433Z" fill="#5C3127" stroke="#FFE6A7" stroke-width="0.2" stroke-linecap="round" stroke-linejoin="round"/>
<path d="M447.619 794.722H446.988L446.357 795.669H445.726L445.41 794.407L444.779 791.882V790.936L446.042 789.358L446.988 789.043L447.935 788.096L449.197 788.412L449.828 789.674L450.143 790.62L449.828 791.882L449.197 792.829L448.25 794.091L447.619 794.722Z" fill="#5C3127" stroke="#FFE6A7" stroke-width="0.2" stroke-linecap="round" stroke-linejoin="round"/>
<path d="M462.135 763.801L461.82 764.747L461.189 765.063L460.242 764.747V763.801L460.873 763.485V762.539L461.504 761.908L462.451 762.223L462.135 763.801Z" fill="#5C3127" stroke="#FFE6A7" stroke-width="0.2" stroke-linecap="round" stroke-linejoin="round"/>
<path d="M1157.92 986.558L1156.98 987.189H1155.4L1154.14 987.82H1152.87V987.189H1154.45L1155.71 986.873L1156.98 985.927H1157.61L1157.92 986.558Z" fill="#5C3127" stroke="#FFE6A7" stroke-width="0.2" stroke-linecap="round" stroke-linejoin="round"/>
<path d="M1156.34 985.611L1155.71 985.927H1154.45V985.296L1156.34 985.611Z" fill="#5C3127" stroke="#FFE6A7" stroke-width="0.2" stroke-linecap="round" stroke-linejoin="round"/>
<path d="M20.0489 233.413L19.1021 234.991L17.84 236.568L16.8934 235.306H15.6311L15 234.675L15.6311 233.729L16.8934 234.044L18.1555 232.782L19.1021 232.151L19.7332 232.467L20.0489 233.413Z" fill="#AF5827" stroke="#FFE6A7" stroke-width="0.2" stroke-linecap="round" stroke-linejoin="round"/>
<path d="M62.9646 226.156V227.734L63.5958 228.996L62.9646 231.205L63.2801 232.151L62.018 233.413L60.4403 234.044L59.8091 234.675L57.9159 234.044L56.3382 232.467L55.707 231.205V229.312L57.6003 228.049L57.9159 226.472V225.841L59.8091 226.156H61.0714L62.018 226.472L62.9646 226.156Z" fill="#AF5827" stroke="#FFE6A7" stroke-width="0.2" stroke-linecap="round" stroke-linejoin="round"/>
<path d="M31.7243 228.68H31.0934L30.1466 228.049L29.5156 227.103L29.8311 225.841L30.1466 224.894H31.0934H32.04L33.6177 226.156L33.9332 227.103L32.3555 228.68H31.7243Z" fill="#AF5827" stroke="#FFE6A7" stroke-width="0.2" stroke-linecap="round" stroke-linejoin="round"/>
<path d="M50.9741 217.637V218.268L49.0807 219.215L47.8186 220.793L46.872 221.424V222.686L45.6097 224.894L45.2943 226.156L43.7165 228.05L43.4008 228.68H42.7697L40.8765 229.312L40.561 228.996L40.2453 227.734L39.2987 226.472L38.9833 225.841L38.3521 224.894V223.948L37.0898 222.055L38.6676 221.108L39.6142 221.739L41.5076 221.108H42.7697L44.3475 220.477L45.9252 219.215V218.584L47.8186 217.637H49.7118L50.6585 217.322L50.9741 217.637Z" fill="#AF5827" stroke="#FFE6A7" stroke-width="0.2" stroke-linecap="round" stroke-linejoin="round"/>
<path d="M83.16 226.472L82.2132 227.734L80.9511 228.049L80.0045 227.734H78.7422V227.103H79.6888L81.5822 226.472L82.8443 225.525L83.7909 224.579L84.1066 223.001L84.422 222.054L85.0532 220.477L85.9998 219.215L86.9464 217.322L87.5775 214.798L88.2087 214.167L89.471 213.851L90.4176 214.798L90.733 216.375L90.4176 217.953L90.1019 219.53V221.108L89.7864 221.424L88.8398 223.632L87.8932 224.579L85.9998 224.894L83.7909 225.841L83.16 226.472Z" fill="#AF5827" stroke="#FFE6A7" stroke-width="0.2" stroke-linecap="round" stroke-linejoin="round"/>
<path d="M21.3115 212.274L22.2581 211.958L22.8892 212.905L23.5204 214.482L22.8892 215.429L23.2049 216.691L21.3115 219.846L20.996 219.53L20.6803 218.268L19.4182 215.429L19.1026 214.482L18.7871 213.851L19.4182 212.589L20.3649 211.958L21.3115 212.274Z" fill="#AF5827" stroke="#FFE6A7" stroke-width="0.2" stroke-linecap="round" stroke-linejoin="round"/>
<path d="M97.3594 205.963V207.225L96.7282 208.803L94.5193 210.38L92.9416 210.696L91.6793 212.273L90.1016 211.642V211.327L90.7327 210.065V208.803L91.3638 207.856L92.3105 207.225H93.2571L94.2039 206.278H95.7816L96.0971 205.963L96.7282 204.385L97.3594 204.07L97.9903 204.701L97.3594 205.963Z" fill="#AF5827" stroke="#FFE6A7" stroke-width="0.2" stroke-linecap="round" stroke-linejoin="round"/>
<path d="M1130.15 1052.82L1130.79 1053.76L1132.36 1054.39V1055.34L1131.73 1055.97L1132.05 1056.6L1131.1 1058.5L1131.42 1059.13L1130.47 1059.44L1129.84 1058.5V1057.55L1130.47 1056.92L1129.84 1054.71L1129.52 1054.39L1129.21 1053.76L1130.15 1052.82Z" fill="#5C3127" stroke="#FFE6A7" stroke-width="0.2" stroke-linecap="round" stroke-linejoin="round"/>
<path d="M110.5 220.5C110.5 230.201 104.628 239.164 94.7634 245.77C84.9083 252.37 71.2078 256.5 56 256.5C40.7922 256.5 27.0917 252.37 17.2366 245.77C7.37169 239.164 1.5 230.201 1.5 220.5C1.5 210.799 7.37169 201.836 17.2366 195.23C27.0917 188.63 40.7922 184.5 56 184.5C71.2078 184.5 84.9083 188.63 94.7634 195.23C104.628 201.836 110.5 210.799 110.5 220.5Z" stroke="#AF5827" stroke-width="3"/>
<path d="M55.0313 100.77C54.6062 100.059 54.838 99.1376 55.549 98.7125C56.2601 98.2874 57.1811 98.5193 57.6062 99.2303L55.0313 100.77ZM64.1721 184.841C63.4316 185.212 62.5302 184.913 62.1587 184.173L56.1049 172.106C55.7334 171.366 56.0325 170.464 56.773 170.093C57.5134 169.721 58.4149 170.02 58.7864 170.761L64.1675 181.487L74.8933 176.106C75.6338 175.734 76.5352 176.033 76.9067 176.774C77.2782 177.514 76.9791 178.416 76.2386 178.787L64.1721 184.841ZM57.6062 99.2303C63.7945 109.582 79.7353 139.334 64.9231 183.973L62.0758 183.028C76.4996 139.559 60.9977 110.75 55.0313 100.77L57.6062 99.2303Z" fill="#AF5827"/>
</svg>
