<svg width="801" height="1120" viewBox="0 0 801 1120" fill="none" xmlns="http://www.w3.org/2000/svg">
<path d="M140.742 475.024L182.409 433.357C169.903 419.097 162.821 400.886 162.409 381.924C162.372 372.909 164.121 363.977 167.554 355.641C170.986 347.305 176.035 339.732 182.409 333.357L207.409 308.357C213.696 302.285 222.116 298.925 230.856 299.001C239.595 299.077 247.956 302.583 254.136 308.763C260.316 314.943 263.822 323.304 263.898 332.044C263.974 340.784 260.614 349.204 254.542 355.49L229.542 380.49C242.097 394.732 249.226 412.944 249.675 431.924C249.712 440.938 247.963 449.871 244.531 458.206C241.098 466.542 236.049 474.116 229.675 480.49L188.009 522.157C181.759 528.425 173.274 531.953 164.423 531.966C155.571 531.978 147.077 528.474 140.809 522.224C134.541 515.973 131.013 507.489 131 498.638C130.988 489.786 134.492 481.292 140.742 475.024ZM307.409 475.024L349.075 433.357C336.569 419.097 329.488 400.886 329.075 381.924C329.039 372.909 330.788 363.977 334.22 355.641C337.653 347.305 342.702 339.732 349.075 333.357L374.075 308.357C380.362 302.285 388.782 298.925 397.522 299.001C406.262 299.077 414.622 302.583 420.803 308.763C426.983 314.943 430.489 323.304 430.565 332.044C430.641 340.784 427.281 349.204 421.209 355.49L396.209 380.49C408.763 394.732 415.892 412.944 416.342 431.924C416.378 440.938 414.63 449.871 411.197 458.206C407.765 466.542 402.716 474.116 396.342 480.49L354.675 522.157C348.425 528.425 339.941 531.953 331.089 531.966C322.238 531.978 313.743 528.474 307.475 522.224C301.208 515.973 297.679 507.489 297.667 498.638C297.654 489.786 301.159 481.292 307.409 475.024ZM474.075 475.024L515.742 433.357C503.236 419.097 496.155 400.886 495.742 381.924C495.706 372.909 497.454 363.977 500.887 355.641C504.32 347.305 509.368 339.732 515.742 333.357L540.742 308.357C547.029 302.285 555.449 298.925 564.189 299.001C572.929 299.077 581.289 302.583 587.469 308.763C593.65 314.943 597.155 323.304 597.231 332.044C597.307 340.784 593.947 349.204 587.875 355.49L562.875 380.49C575.43 394.732 582.559 412.944 583.009 431.924C583.045 440.938 581.297 449.871 577.864 458.206C574.431 466.542 569.383 474.116 563.009 480.49L521.342 522.157C515.055 528.229 506.635 531.589 497.895 531.513C489.156 531.437 480.795 527.931 474.615 521.751C468.435 515.571 464.929 507.21 464.853 498.47C464.777 489.731 468.137 481.31 474.209 475.024H474.075Z" fill="#FFE6A7"/>
<path d="M523.739 56.7518L396.092 249.215C388.527 246.904 379.997 248.64 374.016 254.621L353.423 275.214C329.441 299.195 329.442 338.072 353.428 362.058L422.813 431.443C446.788 455.418 485.664 455.418 509.645 431.437L530.239 410.843C536.605 404.478 538.243 395.198 535.211 387.292L727.045 260.058C730.681 257.659 734.013 254.912 737.035 251.89C747.508 241.416 754.172 227.568 755.68 212.58C757.618 193.255 750.77 174.077 737.04 160.348L623.449 46.7561C609.72 33.0267 590.552 26.1886 571.233 28.1206C556.239 29.6348 542.38 36.2883 531.907 46.7618C528.884 49.7845 526.143 53.1324 523.739 56.7518ZM574.359 59.4006C584.312 58.4128 594.155 61.9185 601.221 68.9841L714.812 182.576C721.878 189.641 725.395 199.496 724.396 209.438C723.625 217.154 720.196 224.274 714.807 229.663C713.255 231.215 711.54 232.626 709.674 233.862L514.188 363.533L420.273 269.619L549.933 74.1217C551.176 72.2714 552.576 70.5463 554.133 68.9886C559.522 63.6007 566.653 60.1814 574.359 59.4006Z" fill="#178F8E"/>
<path d="M656.095 237.274C661.109 242.289 669.244 242.294 674.269 237.269C679.294 232.244 679.289 224.109 674.274 219.095C669.249 214.07 661.115 214.064 656.09 219.089C651.064 224.115 651.069 232.248 656.095 237.274Z" fill="#99582A"/>
<path d="M628.095 192.274C633.109 197.289 641.244 197.294 646.269 192.269C651.294 187.244 651.289 179.109 646.275 174.095C641.25 169.07 633.115 169.064 628.09 174.089C623.064 179.115 623.07 187.249 628.095 192.274Z" fill="#99582A"/>
<path d="M355.095 541.274C360.109 546.288 368.243 546.293 373.268 541.268C378.293 536.243 378.288 528.109 373.274 523.095C368.249 518.07 360.115 518.064 355.09 523.09C350.064 528.115 350.07 536.249 355.095 541.274Z" fill="#99582A"/>
<path d="M507.114 329.263C512.139 334.288 520.263 334.282 525.288 329.258C530.313 324.233 530.319 316.108 525.294 311.083C520.269 306.058 512.134 306.052 507.109 311.078C502.083 316.103 502.089 324.238 507.114 329.263Z" fill="#99582A"/>
<path d="M597.278 265.098C592.253 260.073 584.12 260.067 579.094 265.093C574.068 270.118 574.074 278.253 579.099 283.278C584.113 288.292 592.248 288.297 597.273 283.272C602.298 278.247 602.293 270.113 597.278 265.098Z" fill="#99582A"/>
<path d="M615.275 219.096C610.25 214.071 602.116 214.064 597.09 219.09C592.065 224.115 592.07 232.25 597.095 237.275C602.109 242.29 610.244 242.294 615.269 237.269C620.294 232.244 620.289 224.11 615.275 219.096Z" fill="#99582A"/>
<path d="M555.278 275.098C550.253 270.073 542.12 270.067 537.094 275.093C532.068 280.118 532.074 288.253 537.099 293.278C542.113 298.292 550.248 298.297 555.273 293.272C560.298 288.247 560.293 280.112 555.278 275.098Z" fill="#99582A"/>
<path d="M373.099 472.277C378.113 477.292 386.248 477.297 391.273 472.272C396.298 467.247 396.293 459.112 391.278 454.097C386.253 449.072 378.12 449.067 373.094 454.092C368.068 459.118 368.074 467.252 373.099 472.277Z" fill="#99582A"/>
<path d="M413.096 577.275C418.11 582.289 426.245 582.294 431.27 577.269C436.295 572.244 436.29 564.109 431.276 559.095C426.251 554.07 418.117 554.064 413.091 559.089C408.066 564.115 408.071 572.25 413.096 577.275Z" fill="#99582A"/>
<path d="M431.109 490.267C436.123 495.281 444.259 495.287 449.284 490.261C454.309 485.236 454.303 477.101 449.289 472.087C444.264 467.062 436.13 467.056 431.105 472.082C426.079 477.108 426.084 485.242 431.109 490.267Z" fill="#99582A"/>
<path d="M792.566 625.628C785.373 608.644 773.463 594.306 758.419 584.136C743.398 573.967 725.045 567.978 705.622 568H644.53H610.516H608.442H79.9454C69.0047 568 58.4 570.238 48.8157 574.297C34.4219 580.395 22.2891 590.488 13.675 603.216C5.05629 615.945 -0.017144 631.506 4.35301e-05 647.952V797.442C-0.00620647 841.845 9.01567 884.33 25.3454 922.911C49.8313 980.781 90.6454 1029.92 142.064 1064.66C193.455 1099.4 255.655 1119.73 322.272 1119.72C366.67 1119.73 409.148 1110.7 447.725 1094.38C505.606 1069.89 554.731 1029.08 589.473 977.659C596.158 967.8 602.278 957.52 607.849 946.911C608.731 946.911 609.613 946.999 610.517 946.999C636.569 946.999 661.583 941.692 684.283 932.086C718.341 917.67 747.194 893.692 767.62 863.461C788.047 833.263 800.023 796.611 800.002 757.492C800.002 728.364 800.002 704.584 800.002 688.095C800.002 671.584 800.002 662.399 800.002 662.375C800 649.452 797.364 636.945 792.566 625.628ZM727.802 688.097C727.802 704.586 727.802 728.366 727.802 757.494C727.802 773.794 724.527 789.125 718.603 803.144C709.736 824.155 694.802 842.131 676.075 854.794C664.009 862.922 650.444 868.824 635.819 872.033C641.509 848.066 644.542 823.095 644.531 797.442V640.188H705.623C708.789 640.188 711.613 640.816 714.248 641.919C718.186 643.583 721.65 646.43 724.042 649.992C726.436 653.577 727.792 657.658 727.803 662.378C727.802 662.4 727.802 671.586 727.802 688.097Z" fill="#99582A"/>
<path d="M440.286 786.78C440.286 785.589 440.286 785.589 440.286 784.397C440.286 783.206 440.286 783.206 439.094 782.014C439.094 782.014 439.094 782.014 439.094 780.823L392.629 700.997V656.914C392.629 649.766 387.863 645 380.714 645H261.571C254.423 645 249.657 649.766 249.657 656.914V700.997L203.191 780.823C203.191 780.823 203.191 780.823 203.191 782.014C203.191 783.206 203.191 783.206 202 784.397C202 785.589 202 785.589 202 786.78C202 786.78 202 786.78 202 787.971V966.686C202 973.834 206.766 978.6 213.914 978.6H428.371C435.52 978.6 440.286 973.834 440.286 966.686V786.78ZM261.571 728.4L287.783 774.866H234.169L261.571 728.4ZM315.186 774.866L281.826 716.486H373.566L406.926 774.866H315.186ZM273.486 668.829H368.8V692.657H273.486V668.829ZM225.829 798.694H297.314V954.771H225.829V798.694ZM416.457 954.771H321.143V798.694H416.457V954.771Z" fill="#FFE6A7"/>
<path d="M249.657 847.543H273.486C280.634 847.543 285.4 842.777 285.4 835.629C285.4 828.48 280.634 823.714 273.486 823.714H249.657C242.508 823.714 237.743 828.48 237.743 835.629C237.743 842.777 242.508 847.543 249.657 847.543Z" fill="#178F8E"/>
<path d="M273.486 865.415H249.657C242.508 865.415 237.743 870.18 237.743 877.329C237.743 884.477 242.508 889.243 249.657 889.243H273.486C280.634 889.243 285.4 884.477 285.4 877.329C285.4 870.18 280.634 865.415 273.486 865.415Z" fill="#178F8E"/>
<path d="M273.486 907.115H249.657C242.508 907.115 237.743 911.88 237.743 919.029C237.743 926.178 242.508 930.943 249.657 930.943H273.486C280.634 930.943 285.4 926.178 285.4 919.029C285.4 911.88 280.634 907.115 273.486 907.115Z" fill="#178F8E"/>
</svg>
