<svg width="800" height="621" viewBox="0 0 800 621" fill="none" xmlns="http://www.w3.org/2000/svg">
<path d="M637.19 114.035L643.463 91.9715C643.935 90.3121 644.174 88.5981 644.174 86.8731V18.639C644.174 8.34372 635.829 0 625.535 0H159.548C149.252 0 140.909 8.34528 140.909 18.639V85.0184C140.909 86.7356 141.145 88.4418 141.613 90.0934L236.032 423.703H549.134L555.659 400.75H603.166C683.335 400.75 748.555 335.528 748.555 255.362C748.556 186.913 700.994 129.396 637.19 114.035ZM603.169 344.833H571.56L621.879 167.877C662.26 176.506 692.638 212.446 692.638 255.363C692.639 304.697 652.505 344.833 603.169 344.833Z" fill="#99582A"/>
<path d="M778.524 478.835C776.439 478.34 774.274 478.049 772.039 478.049H27.9593C25.7218 478.049 23.5577 478.34 21.4749 478.835C9.16559 481.767 0 492.804 0 506.009C0 521.449 12.5187 533.968 27.9593 533.968H110.617L122.85 557.021C143.64 596.2 184.366 620.697 228.721 620.697H571.279C615.634 620.697 656.361 596.202 677.15 557.021L689.383 533.968H772.041C787.481 533.968 800 521.449 800 506.009C799.997 492.804 790.831 481.767 778.524 478.835Z" fill="#178F8E"/>
</svg>
