<svg width="412" height="412" viewBox="0 0 412 412" fill="none" xmlns="http://www.w3.org/2000/svg">
<path d="M116.831 118.5H295.331L262.5 364H149L116.831 118.5Z" fill="#FFE6A7"/>
<path fill-rule="evenodd" clip-rule="evenodd" d="M186.559 173C196.529 172.992 205.008 182.494 208.05 195.687C207.296 196.396 206.553 197.136 205.826 197.913C199.212 204.977 195.158 213.478 193.963 221.494C193.126 227.082 193.674 232.451 195.68 236.981C193.757 238.212 191.692 239.065 189.533 239.467C193.688 221.841 191.647 213.081 188.494 204.97C185.44 197.115 181.304 188.696 185.922 173.008C186.129 173.008 186.347 173 186.559 173ZM245.794 193.274C254.65 202.677 251.934 220.875 239.726 233.914C228.458 245.951 213.045 249.386 203.778 242.456C218.42 233.14 222.786 225.415 225.942 217.314C228.992 209.469 231.658 200.403 245.341 192.815C245.491 192.957 245.646 193.116 245.794 193.274ZM202.287 241.198C202.047 240.972 201.812 240.739 201.587 240.498C192.731 231.094 195.447 212.897 207.655 199.857C219.156 187.572 234.974 184.249 244.172 191.76C229.497 199.674 225.538 206.313 222.326 214.572C219.311 222.311 216.055 232.229 202.287 241.198ZM187.65 239.702C187.333 239.725 187.013 239.733 186.695 239.733C174.198 239.743 164.038 224.813 164 206.385C163.965 189.027 172.928 174.753 184.415 173.153C179.303 189.806 180.918 197.488 184.128 205.75C187.137 213.507 191.419 222.982 187.65 239.702Z" fill="#99582A"/>
<path d="M68.6667 120.167H87.8418L120.304 379.795C120.823 383.946 122.839 387.765 125.975 390.534C129.111 393.303 133.15 394.832 137.333 394.833H274.667C278.85 394.832 282.889 393.303 286.025 390.534C289.161 387.765 291.177 383.946 291.696 379.795L324.158 120.167H343.333C347.886 120.167 352.253 118.358 355.472 115.139C358.691 111.919 360.5 107.553 360.5 103C360.5 98.4471 358.691 94.0807 355.472 90.8614C352.253 87.642 347.886 85.8334 343.333 85.8334H321.377L308.124 46.0754C306.985 42.6557 304.799 39.6812 301.875 37.5737C298.951 35.4662 295.438 34.3325 291.833 34.3334H274.667C274.667 29.7805 272.858 25.4141 269.639 22.1947C266.419 18.9753 262.053 17.1667 257.5 17.1667H240.333C235.78 17.1667 231.414 18.9753 228.195 22.1947C224.975 25.4141 223.167 29.7805 223.167 34.3334H120.167C116.562 34.3325 113.049 35.4662 110.125 37.5737C107.201 39.6812 105.014 42.6557 103.875 46.0754L90.6228 85.8334H68.6667C64.1138 85.8334 59.7474 87.642 56.528 90.8614C53.3086 94.0807 51.5 98.4471 51.5 103C51.5 107.553 53.3086 111.919 56.528 115.139C59.7474 118.358 64.1138 120.167 68.6667 120.167ZM259.508 360.5H152.492L122.45 120.167H289.55L259.508 360.5ZM132.544 68.6667H279.456L285.19 85.8334H126.81L132.544 68.6667Z" fill="#99582A"/>
</svg>
