<svg width="873" height="830" viewBox="0 0 873 830" fill="none" xmlns="http://www.w3.org/2000/svg">
<path d="M787.564 183.105C766.641 173.038 743.439 167.949 718.617 167.949C706.952 167.949 695.167 169.158 683.374 171.34L687.651 130.471C687.809 128.914 687.809 122.354 687.809 120.497C687.809 37.707 509.534 0 343.887 0C178.273 0 0 37.707 0 120.495C0 122.352 5.14857e-08 128.912 0.158256 130.469L77.7408 697.5C134.751 820.625 282.746 830 344.606 830C412.89 830 586.223 785 623.078 705.625C623.163 703.281 634.019 641.465 634.019 641.465C699.408 619.012 753.797 593.125 822.297 507.109C901.567 372.915 886.314 230.59 787.564 183.105ZM343.887 40.625C561.562 40.625 623.94 78.75 623.94 120.495C623.94 162.24 549.469 205.625 343.887 205.625C138.304 205.625 63.8684 154.74 63.8684 120.495C63.8684 86.25 126.211 40.625 343.887 40.625ZM737.736 466.474C717.457 500.792 681.386 525.276 644.365 542.758L673.465 265.673C689.868 258.45 705.392 254.356 718.617 254.356C727.693 254.356 735.517 255.983 742.5 259.361C785.723 280.143 792.889 373.137 737.736 466.474Z" fill="#99582A"/>
<path fill-rule="evenodd" clip-rule="evenodd" d="M295.025 384.15C321.842 384.127 344.654 411.768 352.84 450.148C350.806 452.211 348.81 454.363 346.852 456.624C329.063 477.171 318.158 501.901 314.945 525.222C312.69 541.478 314.166 557.094 319.562 570.273C314.388 573.853 308.831 576.336 303.024 577.504C314.204 526.231 308.709 500.747 300.227 477.152C292.013 454.302 280.882 429.81 293.31 384.174C293.863 384.173 294.453 384.151 295.025 384.15ZM454.382 443.128C478.203 470.483 470.893 523.419 438.052 561.352C407.739 596.365 366.275 606.36 341.343 586.201C380.737 559.099 392.485 536.627 400.974 513.061C409.178 490.241 416.347 463.868 453.161 441.791C453.561 442.207 453.981 442.668 454.382 443.128ZM337.336 582.541C336.688 581.884 336.058 581.204 335.447 580.503C311.626 553.148 318.936 500.212 351.777 462.279C382.718 426.541 425.268 416.875 450.012 438.723C410.534 461.745 399.885 481.058 391.245 505.085C383.135 527.597 374.371 556.45 337.336 582.541ZM297.959 578.188C297.102 578.255 296.245 578.278 295.388 578.278C261.771 578.308 234.435 534.877 234.334 481.267C234.24 430.772 258.351 389.249 289.254 384.594C275.498 433.039 279.845 455.388 288.48 479.421C296.579 501.986 308.096 529.549 297.959 578.188Z" fill="#178F8E"/>
<path d="M366.763 65.5012C484.897 91.5 492.734 90.4856 562.794 125.486C499.647 142.5 529.147 159.501 366.763 182.001C179.762 207.912 17.9753 132 259.354 125.486C47.9372 95.5012 182.989 39.5012 366.763 65.5012Z" fill="#FFE6A7"/>
</svg>
