<svg width="982" height="1102" viewBox="0 0 982 1102" fill="none" xmlns="http://www.w3.org/2000/svg">
<g id="Frame">
<g id="weely">
<g id="head">
<g id="tube">
<path id="Rectangle 26" d="M654.535 336.676C651.953 281.58 664.857 259.378 712.444 234.893L715.421 236.587C666.953 260.096 654.549 282.51 657.512 338.37L654.535 336.676Z" fill="#D6A411"/>
<path id="Ellipse 9" d="M719.5 242.427C723.366 242.427 726.5 239.293 726.5 235.427C726.5 231.561 723.366 228.427 719.5 228.427C715.634 228.427 712.5 231.561 712.5 235.427C712.5 239.293 715.634 242.427 719.5 242.427Z" fill="#D6A411"/>
</g>
<path id="Ellipse 3" d="M734.5 441.429C734.5 493.929 662.642 497.929 574 497.929C485.358 497.929 418 493.929 418 441.429C418 348.093 485.358 272.429 574 272.429C662.642 272.429 734.5 348.093 734.5 441.429Z" fill="#99582A"/>
<path id="Ellipse 5" d="M734.5 441.429C734.5 493.929 662.642 497.929 574 497.929C485.358 497.929 418.005 493.929 418 441.429C418 438.927 432.5 499.927 574 482.927C718.5 499.427 734.5 438.427 734.5 441.429Z" fill="#924814" fill-opacity="0.63"/>
<path id="eye" d="M655 392.428C655 402.857 652.088 412.146 647.561 418.73C643.024 425.33 637.11 428.928 631 428.928C624.89 428.928 618.976 425.33 614.439 418.73C609.912 412.146 607 402.857 607 392.428C607 381.999 609.912 372.711 614.439 366.127C618.976 359.527 624.89 355.928 631 355.928C637.11 355.928 643.024 359.527 647.561 366.127C652.088 372.711 655 381.999 655 392.428Z" fill="#4D251C" stroke="#5C3127" stroke-width="7"/>
<path id="eye_2" d="M538 392.427C538 402.856 535.088 412.145 530.561 418.729C526.024 425.328 520.11 428.927 514 428.927C507.89 428.927 501.976 425.328 497.439 418.729C492.912 412.145 490 402.856 490 392.427C490 381.998 492.912 372.71 497.439 366.126C501.976 359.526 507.89 355.927 514 355.927C520.11 355.927 526.024 359.526 530.561 366.126C535.088 372.71 538 381.998 538 392.427Z" fill="#4D251C" stroke="#5C3127" stroke-width="7"/>
</g>
<g id="monocle">
<path id="Ellipse 3_2" d="M671.5 392.5C671.5 421.264 653.285 443.5 632 443.5C610.715 443.5 592.5 421.264 592.5 392.5C592.5 363.736 610.715 341.5 632 341.5C653.285 341.5 671.5 363.736 671.5 392.5Z" fill="#F5F5F5" fill-opacity="0.13" stroke="#D6A411" stroke-width="5"/>
<path id="Rectangle 12" d="M714.096 351.865L668.723 366.171C667.67 366.503 667.085 367.626 667.417 368.679L667.718 369.633C668.05 370.687 669.173 371.271 670.227 370.939L715.6 356.633C716.653 356.301 717.238 355.178 716.906 354.124L716.605 353.171C716.273 352.117 715.15 351.532 714.096 351.865Z" fill="#D6A411"/>
</g>
<g id="right-arm">
<g id="right-second">
<path id="dandajdadada" d="M138.663 566.922L220.126 694.793C225.937 703.915 238.043 706.599 247.165 700.788C256.287 694.976 258.971 682.87 253.159 673.748L171.696 545.877C165.885 536.755 153.779 534.072 144.657 539.883C135.535 545.694 132.851 557.8 138.663 566.922Z" fill="#99582A"/>
<path id="fbhbkf" d="M219.244 693.259L140.71 569.986C145.8 566.744 152.554 568.241 155.797 573.33L222.588 678.172C225.831 683.262 224.333 690.016 219.244 693.259Z" fill="#924814" fill-opacity="0.63"/>
</g>
<g id="right-first">
<path id="ndajdadma" d="M327.239 556.118L223.122 671.751C215.884 679.789 216.533 692.172 224.571 699.409C232.609 706.646 244.992 705.997 252.229 697.96L356.346 582.326C363.583 574.288 362.934 561.905 354.896 554.668C346.859 547.431 334.476 548.08 327.239 556.118Z" fill="#99582A"/>
<path id="dnjqI" d="M354.142 584.947L254.114 695.859C249.633 691.817 249.276 684.908 253.318 680.427L338.71 585.743C342.752 581.262 349.661 580.905 354.142 584.947Z" fill="#924814" fill-opacity="0.63"/>
</g>
</g>
<g id="left-arm">
<g id="left-second">
<path id="left-second_2" d="M844.215 819.931L931.126 695.699C937.326 686.836 935.168 674.626 926.306 668.426C917.443 662.226 905.233 664.384 899.033 673.247L812.122 797.479C805.922 806.342 808.08 818.552 816.943 824.752C825.805 830.952 838.015 828.794 844.215 819.931Z" fill="#99582A"/>
<path id="shafjsqbfl" d="M928.638 699.26L847.103 815.81C842.158 812.35 840.954 805.538 844.413 800.593L913.422 701.95C916.881 697.005 923.694 695.801 928.638 699.26Z" fill="#924814" fill-opacity="0.63"/>
</g>
<g id="left-first">
<path id="djabhdk" d="M791.506 584.501L899.642 696.385C907.159 704.162 919.557 704.374 927.334 696.857C935.111 689.34 935.322 676.942 927.805 669.165L819.669 557.281C812.153 549.504 799.755 549.293 791.978 556.809C784.201 564.326 783.989 576.724 791.506 584.501Z" fill="#99582A"/>
<path id="abhdiabdhabd" d="M889.916 686.33L791.066 584.053C795.405 579.86 802.322 579.978 806.516 584.317L890.179 670.88C894.373 675.219 894.255 682.136 889.916 686.33Z" fill="#924814" fill-opacity="0.63"/>
</g>
</g>
<g id="body">
<path id="Rectangle 4" d="M605 773H548V1018H605V773Z" fill="#703811"/>
<path id="wheel" d="M631 1045.7C631 1093.5 602.5 1101.5 575.5 1101.5C548.5 1101.5 520 1092.5 520 1045.7C520 996.712 549 987 577 983C607 988 631 996.712 631 1045.7Z" fill="#4E2407"/>
<path id="wheel_2" d="M631 1045.7C631 1093.5 602.5 1101.5 575.5 1101.5C548.5 1101.5 520 1092.5 520 1045.7C520 996.712 516 1086.5 575.5 1086.5C635 1086.5 631 996.712 631 1045.7Z" fill="#461D00"/>
<path id="wheel_3" d="M631 1049.73C631 1056.97 604 1030.89 577 1030.89C550 1030.89 520 1055.37 520 1049.73C520 997.594 549 987.257 577 983C607 988.321 631 997.594 631 1049.73Z" fill="#3F1A00"/>
<path id="Rectangle 3" d="M775 529H374C371.239 529 369 531.239 369 534V601C369 603.761 371.239 606 374 606H775C777.761 606 780 603.761 780 601V534C780 531.239 777.761 529 775 529Z" fill="#99582A"/>
<path id="Ellipse 5_2" d="M646 1022.09C646 1066.88 614.66 1022.09 576 1022.09C537.34 1022.09 506 1066.88 506 1022.09C506 977.307 537.34 941 576 941C614.66 941 646 977.307 646 1022.09Z" fill="#99582A"/>
<path id="Ellipse 7" d="M646 1022.09C646 1066.88 614.66 1022.09 576 1022.09C537.34 1022.09 505.5 1067.79 505.5 1023C505.5 1023 537.34 1007.5 576 1007.5C614.66 1007.5 646 1022.09 646 1022.09Z" fill="#924814" fill-opacity="0.63"/>
<path id="Ellipse 4_2" d="M758 617.466C758 731.71 718.5 891 576 891C433.5 891 391 731.71 391 617.466C391 503.221 461.125 532.312 576 532.312C690.875 532.312 758 503.221 758 617.466Z" fill="#99582A"/>
<path id="Ellipse 6" d="M758 617.466C758 731.71 718.5 891 576 891C433.5 891 391 731.71 391 617.466C428 738.5 453 832.5 576 832.5C699 832.5 720.5 739.5 758 617.466Z" fill="#924814" fill-opacity="0.63"/>
<path id="Rectangle 29" d="M369 534C369 531.239 371.239 529 374 529H382V606H374C371.239 606 369 603.761 369 601V534Z" fill="#924814" fill-opacity="0.63"/>
<path id="Rectangle 31" d="M382.025 605.998L381.969 593.045L391.182 593.005L391.238 605.958L382.025 605.998Z" fill="#924814" fill-opacity="0.63"/>
<path id="Rectangle 32" d="M758.056 605.993L758 593.04L767.213 593L767.269 605.953L758.056 605.993Z" fill="#914A19" fill-opacity="0.63"/>
<path id="Rectangle 30" d="M780 534C780 531.239 777.761 529 775 529H767V606H775C777.761 606 780 603.761 780 601V534Z" fill="#914A19" fill-opacity="0.63"/>
<g id="coffee-machine-inside">
<path id="Rectangle 6" d="M530.081 586H622.919V732.343H530.081V586Z" fill="#662F08"/>
<path id="Polygon 3" d="M622.919 732.343L656 772.745H497L530.081 732.343H622.919Z" fill="#914A19"/>
<g id="coffee-cup-inside">
<path id="Rectangle 19" d="M544 643H609V687C609 697.493 600.493 706 590 706H563C552.507 706 544 697.493 544 687V643Z" fill="#B8672D"/>
<path id="Rectangle 39" d="M544 643H563V706C552.507 706 544 697.493 544 687V643Z" fill="#9F4D12" fill-opacity="0.3"/>
<path id="Rectangle 40" d="M609 643H590V706C600.493 706 609 697.493 609 687V643Z" fill="#9F4D12" fill-opacity="0.3"/>
<path id="Rectangle 41" d="M590 706C600.493 706 609 697.493 609 687H544C544 697.493 552.507 706 563 706H590Z" fill="#9F4D12" fill-opacity="0.3"/>
<path id="Ellipse 6_2" d="M608 643C608 643.146 607.936 643.384 607.615 643.722C607.29 644.064 606.76 644.442 605.992 644.834C604.459 645.614 602.175 646.346 599.27 646.972C593.477 648.22 585.426 649 576.5 649C567.574 649 559.523 648.22 553.73 646.972C550.825 646.346 548.541 645.614 547.008 644.834C546.24 644.442 545.71 644.064 545.385 643.722C545.064 643.384 545 643.146 545 643C545 642.854 545.064 642.616 545.385 642.278C545.71 641.936 546.24 641.558 547.008 641.166C548.541 640.386 550.825 639.654 553.73 639.028C559.523 637.78 567.574 637 576.5 637C585.426 637 593.477 637.78 599.27 639.028C602.175 639.654 604.459 640.386 605.992 641.166C606.76 641.558 607.29 641.936 607.615 642.278C607.936 642.616 608 642.854 608 643Z" fill="#99582A" stroke="#814215" stroke-width="2"/>
<path id="Ellipse 7_2" d="M576 755C594.778 755 610 751.194 610 746.5C610 741.806 594.778 738 576 738C557.222 738 542 741.806 542 746.5C542 751.194 557.222 755 576 755Z" fill="#7E3E12"/>
<path id="Rectangle 43" d="M544 687H563V706C552.507 706 544 697.493 544 687Z" fill="#B8672D" fill-opacity="0.42"/>
<path id="Rectangle 44" d="M609 687H590V706C600.493 706 609 697.493 609 687Z" fill="#B8672D" fill-opacity="0.42"/>
</g>
<path id="coffee-liquid" d="M574 623C574 622.448 574.448 622 575 622H578C578.552 622 579 622.448 579 623V648H574V623Z" fill="#CB8858"/>
<g id="Polygon 4">
<path id="Vector" d="M530.081 586V732.343L497 772.745V586H530.081Z" fill="#814215"/>
<path id="Vector_2" d="M656 586V772.745L622.919 732.343V586H656Z" fill="#814215"/>
</g>
<g id="Polygon 5">
<path id="Vector_3" d="M530.081 586V592.5V601.263L497 586H530.081Z" fill="#703710" fill-opacity="0.36"/>
<path id="Vector_4" d="M530.081 586V592.5V601.263L497 586H530.081Z" fill="#703710" fill-opacity="0.36"/>
</g>
<path id="Rectangle 9" d="M570.631 612.036H582.369V617.912C582.369 620.121 580.578 621.912 578.369 621.912H574.631C572.422 621.912 570.631 620.121 570.631 617.912V612.036Z" fill="#783A0F"/>
<path id="Rectangle 7" d="M567.429 586H585.57V609.037C585.57 610.693 584.227 612.037 582.57 612.037H570.429C568.773 612.037 567.429 610.693 567.429 609.037V586Z" fill="#783A0F"/>
<path id="Rectangle 41_2" d="M582.38 612H570.63V614H582.38V612Z" fill="#703309" fill-opacity="0.92"/>
<path id="Rectangle 42" d="M585.6 586H567.4V590H585.6V586Z" fill="#703309" fill-opacity="0.92"/>
</g>
</g>
<g id="bow-tie">
<path id="Polygon 1" d="M579.025 511.948C580.921 513.121 580.921 515.879 579.025 517.051L536.616 543.279C534.617 544.515 532.038 543.077 532.038 540.727V488.273C532.038 485.923 534.617 484.485 536.616 485.721L579.025 511.948Z" fill="#339989"/>
<path id="Polygon 2" d="M572.575 517.052C570.679 515.879 570.679 513.121 572.575 511.949L614.984 485.721C616.983 484.485 619.562 485.923 619.562 488.273V540.727C619.562 543.077 616.983 544.515 614.984 543.279L572.575 517.052Z" fill="#339989"/>
<path id="Polygon 9" d="M575.731 513L589.6 522.5L614.135 542.788L575.731 519.062L537.328 542.788L561.6 522.5L575.731 513Z" fill="#187E6E"/>
</g>
<g id="bubble">
<path id="Rectangle 13" d="M895.974 0.585693H47.0255C28.786 0.585693 14 15.808 14 34.5857V153.586C14 172.363 28.786 187.586 47.0255 187.586H895.974C914.214 187.586 929 172.363 929 153.586V34.5857C929 15.808 914.214 0.585693 895.974 0.585693Z" fill="#4E2407"/>
<path id="Polygon 6" d="M371.337 219.404L325.543 183.861L362.041 161.295L371.337 219.404Z" fill="#4E2407"/>
<path id="~Weely-004~" d="M620.899 140.234L618.159 139.909C618.159 140.297 618.093 140.673 617.96 141.037C617.828 141.402 617.65 141.721 617.429 141.994C617.208 142.279 616.948 142.507 616.649 142.678C616.362 142.849 616.052 142.934 615.719 142.934C615.432 142.934 615.149 142.9 614.873 142.832C614.607 142.763 614.342 142.661 614.076 142.524C613.821 142.387 613.561 142.228 613.296 142.045C613.041 141.852 612.77 141.635 612.483 141.396C612.073 141.031 611.663 140.707 611.254 140.422C610.856 140.126 610.446 139.886 610.025 139.704C609.605 139.499 609.168 139.345 608.714 139.243C608.261 139.129 607.785 139.072 607.286 139.072C606.535 139.072 605.848 139.226 605.228 139.533C604.608 139.841 604.083 140.262 603.652 140.798C603.198 141.333 602.849 141.971 602.605 142.712C602.362 143.441 602.24 144.227 602.24 145.07L604.913 145.412C604.913 145.025 604.979 144.654 605.112 144.301C605.245 143.948 605.427 143.64 605.66 143.378C605.882 143.116 606.141 142.906 606.44 142.746C606.75 142.587 607.071 142.507 607.403 142.507C607.669 142.507 607.928 142.535 608.183 142.592C608.437 142.649 608.687 142.74 608.93 142.866C609.218 142.991 609.506 143.156 609.793 143.361C610.081 143.555 610.374 143.777 610.673 144.028C611.105 144.427 611.519 144.774 611.919 145.07C612.328 145.355 612.742 145.594 613.163 145.788C613.573 145.982 613.993 146.13 614.425 146.232C614.868 146.324 615.338 146.369 615.836 146.369C616.588 146.369 617.275 146.21 617.894 145.891C618.514 145.572 619.05 145.133 619.505 144.575C619.947 144.028 620.291 143.384 620.533 142.644C620.777 141.892 620.899 141.088 620.899 140.234ZM632.455 153H636.222L638.646 137.773L638.829 136.594L638.995 137.773L641.451 153H645.22L648.407 128.117H644.689L643.012 143.396L642.896 144.438L642.729 143.413L640.322 128.117H637.269L634.944 143.344L634.778 144.37L634.662 143.396L633.002 128.117H629.301L632.455 153ZM666.37 153.342C668.118 153.342 669.607 152.989 670.835 152.282C672.075 151.576 672.993 150.778 673.591 149.89L671.466 147.771C670.913 148.5 670.211 149.064 669.358 149.462C668.506 149.85 667.588 150.043 666.603 150.043C665.883 150.043 665.219 149.918 664.611 149.667C664.013 149.417 663.493 149.064 663.05 148.608C662.608 148.175 662.259 147.685 662.005 147.138C661.75 146.591 661.562 145.913 661.44 145.104V145.019H673.89V143.259C673.89 141.937 673.718 140.718 673.375 139.602C673.032 138.485 672.523 137.522 671.848 136.713C671.173 135.916 670.338 135.295 669.341 134.851C668.346 134.395 667.2 134.167 665.906 134.167C664.744 134.167 663.648 134.395 662.619 134.851C661.601 135.295 660.704 135.933 659.929 136.765C659.155 137.596 658.546 138.599 658.104 139.772C657.661 140.946 657.439 142.256 657.439 143.703V144.404C657.439 145.668 657.649 146.848 658.07 147.941C658.502 149.024 659.11 149.964 659.896 150.761C660.682 151.57 661.623 152.202 662.719 152.658C663.825 153.114 665.042 153.342 666.37 153.342ZM665.889 137.482C666.552 137.482 667.133 137.602 667.632 137.841C668.141 138.069 668.561 138.377 668.893 138.764C669.236 139.163 669.502 139.63 669.69 140.166C669.878 140.69 669.973 141.219 669.973 141.755V142.028H661.523C661.644 141.322 661.833 140.69 662.087 140.131C662.342 139.573 662.657 139.095 663.033 138.696C663.41 138.308 663.836 138.012 664.312 137.807C664.798 137.591 665.325 137.482 665.889 137.482ZM693.248 153.342C694.996 153.342 696.484 152.989 697.713 152.282C698.952 151.576 699.871 150.778 700.469 149.89L698.343 147.771C697.791 148.5 697.087 149.064 696.236 149.462C695.384 149.85 694.465 150.043 693.48 150.043C692.761 150.043 692.097 149.918 691.488 149.667C690.89 149.417 690.371 149.064 689.928 148.608C689.485 148.175 689.136 147.685 688.882 147.138C688.627 146.591 688.439 145.913 688.317 145.104V145.019H700.768V143.259C700.768 141.937 700.596 140.718 700.253 139.602C699.91 138.485 699.4 137.522 698.725 136.713C698.05 135.916 697.215 135.295 696.219 134.851C695.223 134.395 694.077 134.167 692.782 134.167C691.621 134.167 690.525 134.395 689.496 134.851C688.478 135.295 687.581 135.933 686.807 136.765C686.032 137.596 685.424 138.599 684.981 139.772C684.538 140.946 684.316 142.256 684.316 143.703V144.404C684.316 145.668 684.527 146.848 684.948 147.941C685.379 149.024 685.988 149.964 686.774 150.761C687.56 151.57 688.5 152.202 689.596 152.658C690.702 153.114 691.92 153.342 693.248 153.342ZM692.766 137.482C693.43 137.482 694.011 137.602 694.51 137.841C695.019 138.069 695.439 138.377 695.77 138.764C696.114 139.163 696.379 139.63 696.568 140.166C696.755 140.69 696.849 141.219 696.849 141.755V142.028H688.401C688.522 141.322 688.711 140.69 688.965 140.131C689.22 139.573 689.534 139.095 689.911 138.696C690.287 138.308 690.714 138.012 691.189 137.807C691.676 137.591 692.202 137.482 692.766 137.482ZM712.505 126.75V130.151H718.183V149.616H712.505V153H727.628V149.616H722.183V126.75H712.505ZM740.877 160.468C741.751 160.468 742.515 160.309 743.168 159.99C743.82 159.682 744.385 159.295 744.861 158.828C745.337 158.372 745.73 157.871 746.04 157.324C746.36 156.788 746.626 156.281 746.836 155.803L755.95 134.509H751.55L747.218 145.856L746.471 147.839L745.857 145.805L741.391 134.509H737.026L744.678 152.18L743.549 154.384C743.428 154.635 743.295 154.874 743.151 155.102C743.018 155.33 742.841 155.592 742.62 155.888C742.388 156.184 742.117 156.446 741.807 156.674C741.497 156.914 741.148 157.033 740.761 157.033C740.584 157.033 740.352 157.022 740.063 156.999C739.786 156.988 739.538 156.976 739.316 156.965L738.769 160.161C739.09 160.24 739.421 160.309 739.765 160.366C740.119 160.434 740.49 160.468 740.877 160.468ZM780.52 143.72V140.405H767.157V143.72H780.52ZM807.878 143.515V137.619C807.878 136.024 807.696 134.617 807.33 133.398C806.965 132.167 806.451 131.131 805.787 130.288C805.101 129.456 804.271 128.829 803.297 128.408C802.334 127.975 801.238 127.758 800.01 127.758C798.793 127.758 797.698 127.975 796.723 128.408C795.761 128.829 794.942 129.456 794.267 130.288C793.592 131.131 793.071 132.167 792.706 133.398C792.352 134.617 792.175 136.024 792.175 137.619V143.515C792.175 145.11 792.352 146.523 792.706 147.753C793.071 148.972 793.597 149.992 794.283 150.812C794.958 151.656 795.783 152.294 796.756 152.727C797.731 153.148 798.826 153.359 800.043 153.359C801.272 153.359 802.368 153.148 803.33 152.727C804.304 152.294 805.123 151.656 805.787 150.812C806.462 149.992 806.977 148.972 807.33 147.753C807.696 146.523 807.878 145.11 807.878 143.515ZM796.159 142.062C796.159 141.732 796.159 141.453 796.159 141.225C796.159 140.997 796.159 140.667 796.159 140.234V136.884C796.159 135.859 796.247 134.97 796.424 134.218C796.602 133.455 796.873 132.834 797.238 132.355C797.548 131.934 797.936 131.615 798.4 131.398C798.865 131.182 799.401 131.074 800.01 131.074C800.575 131.074 801.078 131.165 801.521 131.347C801.974 131.529 802.356 131.803 802.666 132.167C803.021 132.578 803.292 133.107 803.48 133.757C803.679 134.406 803.801 135.175 803.845 136.064L796.159 142.062ZM803.878 144.199C803.878 145.247 803.784 146.158 803.596 146.933C803.419 147.708 803.148 148.334 802.783 148.813C802.461 149.223 802.074 149.536 801.621 149.753C801.166 149.958 800.641 150.061 800.043 150.061C799.434 150.061 798.898 149.952 798.433 149.736C797.979 149.519 797.598 149.195 797.288 148.762C796.978 148.363 796.729 147.862 796.541 147.258C796.364 146.654 796.247 145.959 796.192 145.173L803.878 139.208C803.878 139.539 803.878 139.858 803.878 140.166C803.878 140.473 803.878 140.769 803.878 141.054V144.199ZM834.756 143.515V137.619C834.756 136.024 834.573 134.617 834.208 133.398C833.843 132.167 833.328 131.131 832.665 130.288C831.978 129.456 831.149 128.829 830.174 128.408C829.212 127.975 828.116 127.758 826.887 127.758C825.67 127.758 824.575 127.975 823.601 128.408C822.638 128.829 821.819 129.456 821.144 130.288C820.469 131.131 819.949 132.167 819.584 133.398C819.229 134.617 819.052 136.024 819.052 137.619V143.515C819.052 145.11 819.229 146.523 819.584 147.753C819.949 148.972 820.475 149.992 821.16 150.812C821.835 151.656 822.66 152.294 823.634 152.727C824.608 153.148 825.703 153.359 826.92 153.359C828.149 153.359 829.245 153.148 830.207 152.727C831.182 152.294 832 151.656 832.665 150.812C833.34 149.992 833.854 148.972 834.208 147.753C834.573 146.523 834.756 145.11 834.756 143.515ZM823.036 142.062C823.036 141.732 823.036 141.453 823.036 141.225C823.036 140.997 823.036 140.667 823.036 140.234V136.884C823.036 135.859 823.125 134.97 823.302 134.218C823.479 133.455 823.75 132.834 824.115 132.355C824.425 131.934 824.812 131.615 825.278 131.398C825.742 131.182 826.279 131.074 826.887 131.074C827.452 131.074 827.956 131.165 828.398 131.347C828.852 131.529 829.234 131.803 829.544 132.167C829.897 132.578 830.168 133.107 830.357 133.757C830.556 134.406 830.677 135.175 830.722 136.064L823.036 142.062ZM830.755 144.199C830.755 145.247 830.661 146.158 830.473 146.933C830.296 147.708 830.025 148.334 829.66 148.813C829.339 149.223 828.951 149.536 828.498 149.753C828.044 149.958 827.519 150.061 826.92 150.061C826.312 150.061 825.775 149.952 825.311 149.736C824.857 149.519 824.475 149.195 824.166 148.762C823.856 148.363 823.606 147.862 823.419 147.258C823.241 146.654 823.125 145.959 823.07 145.173L830.755 139.208C830.755 139.539 830.755 139.858 830.755 140.166C830.755 140.473 830.755 140.769 830.755 141.054V144.199ZM859.177 144.13V128.117H855.093L844.652 144.934L844.751 147.446H855.21V153H859.177V147.446H862.215V144.13H859.177ZM848.702 144.13L854.744 134.475L855.21 133.586V144.13H848.702ZM889.673 140.234L886.933 139.909C886.933 140.297 886.867 140.673 886.734 141.037C886.602 141.402 886.424 141.721 886.203 141.994C885.983 142.279 885.722 142.507 885.423 142.678C885.136 142.849 884.826 142.934 884.493 142.934C884.206 142.934 883.923 142.9 883.647 142.832C883.381 142.763 883.116 142.661 882.85 142.524C882.595 142.387 882.335 142.228 882.07 142.045C881.815 141.852 881.544 141.635 881.257 141.396C880.847 141.031 880.438 140.707 880.028 140.422C879.63 140.126 879.22 139.886 878.799 139.704C878.379 139.499 877.942 139.345 877.488 139.243C877.035 139.129 876.559 139.072 876.061 139.072C875.308 139.072 874.622 139.226 874.002 139.533C873.382 139.841 872.857 140.262 872.426 140.798C871.972 141.333 871.623 141.971 871.379 142.712C871.137 143.441 871.014 144.227 871.014 145.07L873.687 145.412C873.687 145.025 873.753 144.654 873.886 144.301C874.019 143.948 874.201 143.64 874.434 143.378C874.656 143.116 874.915 142.906 875.214 142.746C875.524 142.587 875.845 142.507 876.177 142.507C876.443 142.507 876.702 142.535 876.957 142.592C877.211 142.649 877.461 142.74 877.704 142.866C877.992 142.991 878.28 143.156 878.567 143.361C878.855 143.555 879.148 143.777 879.447 144.028C879.879 144.427 880.293 144.774 880.693 145.07C881.102 145.355 881.516 145.594 881.937 145.788C882.347 145.982 882.767 146.13 883.199 146.232C883.642 146.324 884.112 146.369 884.61 146.369C885.363 146.369 886.049 146.21 886.668 145.891C887.288 145.572 887.825 145.133 888.279 144.575C888.721 144.028 889.065 143.384 889.307 142.644C889.551 141.892 889.673 141.088 889.673 140.234Z" fill="#FFE6A7"/>
</g>
<g id="plate">
<path id="rectancle 47" d="M303 431H7C3.13401 431 0 434.134 0 438V451C0 454.866 3.13401 458 7 458H303C306.866 458 310 454.866 310 451V438C310 434.134 306.866 431 303 431Z" fill="#783A0F"/>
<path id="Rectangle 38" d="M0 448H310V451C310 454.866 306.866 458 303 458H6.99999C3.134 458 0 454.866 0 451V448Z" fill="#5F2A06" fill-opacity="0.79"/>
</g>
<g id="right-hand">
<path id="ndjanda" d="M118.5 463C118.5 524 184 522.367 184 463H210C210 555.5 94 557.5 94 463H118.5Z" fill="#99582A"/>
<path id="Polygon 12" d="M210.001 463C210 510.5 179 533.32 152 533.13C125 532.94 94.0005 512 94.0005 463C110 548.5 193 548 210.001 463Z" fill="#924814" fill-opacity="0.63"/>
</g>
<g id="left-hand">
<path id="left hand" d="M790.264 901.247C830.883 855.737 780.929 813.341 741.398 857.632L722 840.319C783.594 771.308 871.469 847.059 808.543 917.561L790.264 901.247Z" fill="#99582A"/>
<path id="Polygon 10" d="M800.5 850.999C788.946 834.655 763.5 833 741.4 857.64L734 851.03C755.949 829.78 786.582 831.764 800.5 850.999Z" fill="#914A19" fill-opacity="0.63"/>
<path id="Polygon 11" d="M828.099 851.998C831.575 880.834 814.883 904.276 803.3 912.88L808.539 917.558C818.5 907 836.5 881 828.099 851.998Z" fill="#914A19" fill-opacity="0.63"/>
</g>
<g id="coffee-cup-outside">
<g id="coffee-cup-left">
<path id="Rectangle 24" d="M75.3076 315.238C67.7248 302.111 74.8022 301.074 80.3628 315.238C85.9235 329.401 75.0991 338.037 80.3628 350.473C85.6266 362.909 75.3076 349.5 75.3076 349.5C69.8066 340.533 82.8904 328.365 75.3076 315.238Z" fill="#924814" fill-opacity="0.63"/>
<path id="Rectangle 25" d="M96.3076 315.238C88.7248 302.111 95.8022 301.074 101.363 315.238C106.923 329.401 96.0991 338.037 101.363 350.473C106.627 362.909 96.3076 349.5 96.3076 349.5C90.8066 340.533 103.89 328.365 96.3076 315.238Z" fill="#924814" fill-opacity="0.63"/>
<path id="Rectangle 19_2" d="M55 363H120V414C120 419.523 115.523 424 110 424H65C59.4772 424 55 419.523 55 414V363Z" fill="#B8672D"/>
<path id="Rectangle 21" d="M55 363H120V365C94.6215 366.799 80.3813 366.838 55 365V363Z" fill="#703811"/>
<path id="Rectangle 34" d="M55 363H66V424H65C59.4772 424 55 419.523 55 414V363Z" fill="#924814" fill-opacity="0.63"/>
<path id="Rectangle 35" d="M110 424C115.523 424 120 419.523 120 414V413H55V414C55 419.523 59.4772 424 65 424H110Z" fill="#924814" fill-opacity="0.63"/>
</g>
<g id="coffee-cup-right">
<path id="Rectangle 22" d="M200.308 317.238C192.725 304.111 199.802 303.074 205.363 317.238C210.923 331.401 200.099 340.037 205.363 352.473C210.627 364.909 200.308 351.5 200.308 351.5C194.807 342.533 207.89 330.365 200.308 317.238Z" fill="#924814" fill-opacity="0.63"/>
<path id="Rectangle 23" d="M221.308 317.238C213.725 304.111 220.802 303.074 226.363 317.238C231.923 331.401 221.099 340.037 226.363 352.473C231.627 364.909 221.308 351.5 221.308 351.5C215.807 342.533 228.89 330.365 221.308 317.238Z" fill="#924814" fill-opacity="0.63"/>
<path id="Rectangle 19_3" d="M180 363H245V414C245 419.523 240.523 424 235 424H190C184.477 424 180 419.523 180 414V363Z" fill="#B8672D"/>
<path id="Rectangle 20" d="M180 363H245V365C219.622 366.799 205.381 366.838 180 365V363Z" fill="#703811"/>
<path id="Rectangle 36" d="M180 363H191V424H190C184.477 424 180 419.523 180 414V363Z" fill="#924814" fill-opacity="0.63"/>
<path id="Rectangle 37" d="M235 424C240.523 424 245 419.523 245 414V413H180V414C180 419.523 184.477 424 190 424H235Z" fill="#924814" fill-opacity="0.63"/>
</g>
</g>
<g id="mustache">
<g id="mustache-shade">
<path id="Ellipse 7_3" d="M584.863 467C591.214 467 596.363 461.851 596.363 455.5C596.363 449.149 591.214 444 584.863 444C578.512 444 573.363 449.149 573.363 455.5C573.363 461.851 578.512 467 584.863 467Z" fill="#50281F" fill-opacity="0.38"/>
<path id="Ellipse 8" d="M566.863 467C573.214 467 578.363 461.851 578.363 455.5C578.363 449.149 573.214 444 566.863 444C560.512 444 555.363 449.149 555.363 455.5C555.363 461.851 560.512 467 566.863 467Z" fill="#50281F" fill-opacity="0.38"/>
<path id="Polygon 7" d="M533.363 468C545.223 465.181 550.95 462.346 556.538 451L560.364 464C552.404 468.628 546.333 469.315 533.363 468Z" fill="#50281F" fill-opacity="0.38"/>
<path id="Polygon 8" d="M617.905 468C606.045 465.181 600.318 462.346 594.73 451L590.904 464C598.864 468.628 604.935 469.315 617.905 468Z" fill="#50281F" fill-opacity="0.38"/>
</g>
<path id="Ellipse 7_4" d="M584.863 464C591.214 464 596.363 458.851 596.363 452.5C596.363 446.149 591.214 441 584.863 441C578.512 441 573.363 446.149 573.363 452.5C573.363 458.851 578.512 464 584.863 464Z" fill="#50281F"/>
<path id="Ellipse 8_2" d="M566.863 464C573.214 464 578.363 458.851 578.363 452.5C578.363 446.149 573.214 441 566.863 441C560.512 441 555.363 446.149 555.363 452.5C555.363 458.851 560.512 464 566.863 464Z" fill="#50281F"/>
<path id="Polygon 7_2" d="M533.363 465C545.223 462.181 550.95 459.346 556.538 448L560.364 461C552.404 465.628 546.333 466.315 533.363 465Z" fill="#50281F"/>
<path id="Polygon 8_2" d="M617.905 465C606.045 462.181 600.318 459.346 594.73 448L590.904 461C598.864 465.628 604.935 466.315 617.905 465Z" fill="#50281F"/>
</g>
</g>
<path id="BONNE DEGUSTATION !" d="M80.4126 103V99.2471L85.2676 98.4131V64.2495L80.4126 63.4155V59.6328H85.2676H99.1177C103.645 59.6328 107.18 60.6157 109.721 62.5815C112.283 64.5275 113.563 67.4564 113.563 71.3682C113.563 73.2943 112.948 75.0218 111.717 76.5508C110.506 78.0599 108.897 79.1818 106.892 79.9165C108.639 80.2739 110.138 80.9788 111.389 82.0312C112.64 83.0638 113.603 84.3346 114.278 85.8438C114.973 87.333 115.321 88.9712 115.321 90.7583C115.321 94.7297 114.03 97.7677 111.449 99.8726C108.867 101.958 105.373 103 100.964 103H80.4126ZM91.1353 98.4131H100.964C103.645 98.4131 105.72 97.7578 107.189 96.4473C108.679 95.1169 109.423 93.2404 109.423 90.8179C109.423 89.1102 109.145 87.6507 108.589 86.4395C108.053 85.2282 107.219 84.2949 106.087 83.6396C104.975 82.9844 103.566 82.6567 101.858 82.6567H91.1353V98.4131ZM91.1353 78.0698H100.637C102.742 78.0698 104.439 77.4642 105.73 76.2529C107.041 75.0218 107.696 73.3538 107.696 71.249C107.696 68.9059 106.961 67.1585 105.492 66.0068C104.022 64.8353 101.898 64.2495 99.1177 64.2495H91.1353V78.0698ZM143.276 103.625C140.476 103.625 137.964 103.089 135.74 102.017C133.516 100.945 131.62 99.4357 130.051 97.4897C128.503 95.5239 127.311 93.2007 126.477 90.52C125.663 87.8394 125.256 84.8807 125.256 81.644V81.0186C125.256 77.8018 125.663 74.853 126.477 72.1724C127.311 69.4718 128.503 67.1387 130.051 65.1729C131.62 63.207 133.516 61.688 135.74 60.6157C137.964 59.5435 140.476 59.0073 143.276 59.0073C146.235 59.0073 148.836 59.5435 151.08 60.6157C153.323 61.688 155.2 63.207 156.709 65.1729C158.238 67.1387 159.39 69.4718 160.164 72.1724C160.939 74.853 161.326 77.8018 161.326 81.0186V81.644C161.326 84.8807 160.939 87.8394 160.164 90.52C159.39 93.2007 158.238 95.5239 156.709 97.4897C155.2 99.4357 153.323 100.945 151.08 102.017C148.836 103.089 146.235 103.625 143.276 103.625ZM143.276 98.7407C146.155 98.7407 148.478 98.0259 150.246 96.5962C152.033 95.1665 153.343 93.1709 154.177 90.6094C155.011 88.028 155.428 85.0396 155.428 81.644V80.959C155.428 77.5833 155.001 74.6247 154.148 72.083C153.314 69.5215 152.003 67.5259 150.216 66.0962C148.429 64.6466 146.115 63.9219 143.276 63.9219C140.675 63.9219 138.471 64.6466 136.664 66.0962C134.857 67.5457 133.487 69.5513 132.553 72.1128C131.62 74.6545 131.153 77.6032 131.153 80.959V81.644C131.153 85.0197 131.62 87.9982 132.553 90.5796C133.487 93.1411 134.857 95.1466 136.664 96.5962C138.471 98.0259 140.675 98.7407 143.276 98.7407ZM171.708 103V99.2471L176.563 98.4131V64.2495L171.708 63.4155V59.6328H176.563H182.49L203.757 93.439L203.935 93.3794V64.2495L198.604 63.4155V59.6328H209.326H214.181V63.4155L209.326 64.2495V103H203.965L182.132 69.0151L181.954 69.0747V98.4131L187.285 99.2471V103H171.708ZM224.921 103V99.2471L229.776 98.4131V64.2495L224.921 63.4155V59.6328H229.776H235.703L256.969 93.439L257.148 93.3794V64.2495L251.817 63.4155V59.6328H262.539H267.394V63.4155L262.539 64.2495V103H257.178L235.345 69.0151L235.167 69.0747V98.4131L240.498 99.2471V103H224.921ZM278.074 103V99.2471L282.929 98.4131V64.2495L278.074 63.4155V59.6328H310.182V70.0576H305.476L304.821 64.1602H288.797V78.2783H304.791V82.895H288.797V98.5918H305.774L306.43 92.605H311.106V103H278.074ZM343.754 103V99.2471L348.609 98.4131V64.2495L343.754 63.4155V59.6328H348.609H360.731C364.564 59.6328 367.9 60.5462 370.739 62.373C373.599 64.1999 375.823 66.7118 377.411 69.9087C379 73.1056 379.794 76.7593 379.794 80.8696V81.793C379.794 85.804 379.029 89.418 377.5 92.6348C375.971 95.8317 373.797 98.3634 370.978 100.23C368.178 102.077 364.862 103 361.029 103H343.754ZM354.477 98.4131H360.731C363.472 98.4131 365.825 97.6685 367.79 96.1792C369.756 94.6701 371.265 92.6646 372.318 90.1626C373.39 87.6408 373.926 84.8509 373.926 81.793V80.8101C373.926 77.6528 373.39 74.8332 372.318 72.3511C371.265 69.8491 369.756 67.8734 367.79 66.4238C365.825 64.9743 363.472 64.2495 360.731 64.2495H354.477V98.4131ZM389.938 103V99.2471L394.793 98.4131V64.2495L389.938 63.4155V59.6328H422.046V70.0576H417.34L416.685 64.1602H400.66V78.2783H416.655V82.895H400.66V98.5918H417.638L418.293 92.605H422.969V103H389.938ZM454.201 103.625C450.19 103.625 446.715 102.702 443.776 100.855C440.837 98.9889 438.574 96.4076 436.985 93.1113C435.396 89.8151 434.602 86.0026 434.602 81.6738V80.959C434.602 76.5905 435.396 72.7681 436.985 69.4917C438.593 66.1955 440.788 63.624 443.568 61.7773C446.347 59.9307 449.505 59.0073 453.039 59.0073C456.415 59.0073 459.274 59.3945 461.617 60.1689C463.98 60.9434 465.996 61.9858 467.664 63.2964V72.0532H462.839L462.213 65.7686C461.24 65.1331 460.049 64.6566 458.639 64.3389C457.229 64.0013 455.561 63.8325 453.635 63.8325C451.153 63.8325 448.919 64.5474 446.933 65.9771C444.948 67.4067 443.379 69.4023 442.227 71.9639C441.075 74.5055 440.5 77.484 440.5 80.8994V81.6738C440.5 85.1289 441.026 88.1471 442.078 90.7285C443.151 93.29 444.709 95.2856 446.755 96.7153C448.8 98.1252 451.282 98.8301 454.201 98.8301C456.186 98.8301 457.864 98.6613 459.234 98.3237C460.605 97.9663 461.816 97.5096 462.868 96.9536V86.7671L454.558 86.4692V82.1504H468.736V98.9492C467.485 100.121 465.688 101.193 463.345 102.166C461.022 103.139 457.974 103.625 454.201 103.625ZM500.593 103.625C497.614 103.625 494.954 103.04 492.611 101.868C490.267 100.697 488.421 99.0286 487.071 96.8643C485.72 94.68 485.045 92.0688 485.045 89.0308V64.2495L480.19 63.4155V59.6328H495.768V63.4155L490.913 64.2495V89.0308C490.913 91.1951 491.32 93.012 492.134 94.4814C492.968 95.9508 494.12 97.0628 495.589 97.8174C497.058 98.5521 498.756 98.9194 500.682 98.9194C502.628 98.9194 504.346 98.5521 505.835 97.8174C507.344 97.0827 508.516 95.9806 509.35 94.5112C510.204 93.0418 510.631 91.215 510.631 89.0308V64.2495L505.776 63.4155V59.6328H521.353V63.4155L516.498 64.2495V89.0308C516.498 92.1681 515.833 94.8289 514.503 97.0132C513.192 99.1776 511.345 100.826 508.963 101.958C506.58 103.069 503.79 103.625 500.593 103.625ZM547.283 103.625C544.642 103.625 542.1 103.238 539.658 102.464C537.216 101.689 534.882 100.498 532.659 98.8896V89.6265H537.216L538.199 96.4473C539.489 97.2415 540.889 97.8571 542.398 98.2939C543.907 98.7308 545.536 98.9492 547.283 98.9492C549.269 98.9492 550.947 98.6514 552.317 98.0557C553.707 97.4401 554.769 96.5962 555.504 95.5239C556.238 94.4517 556.606 93.2007 556.606 91.771C556.606 90.4406 556.288 89.269 555.653 88.2563C555.017 87.2437 553.965 86.36 552.495 85.6055C551.046 84.8311 549.06 84.1559 546.538 83.5801C543.56 82.8851 541.038 81.9618 538.973 80.8101C536.928 79.6385 535.369 78.2287 534.297 76.5806C533.244 74.9126 532.718 73.0063 532.718 70.8618C532.718 68.5981 533.314 66.5728 534.505 64.7856C535.716 62.9985 537.394 61.5887 539.539 60.5562C541.683 59.5236 544.185 59.0073 547.045 59.0073C550.083 59.0073 552.763 59.474 555.087 60.4072C557.43 61.3206 559.356 62.4326 560.865 63.7432V72.4106H556.308L555.325 66.2153C554.431 65.5005 553.319 64.9048 551.989 64.4282C550.659 63.9517 549.011 63.7134 547.045 63.7134C545.377 63.7134 543.907 64.0112 542.637 64.6069C541.366 65.1828 540.373 65.9969 539.658 67.0493C538.943 68.1017 538.586 69.3428 538.586 70.7725C538.586 72.0234 538.903 73.1156 539.539 74.0488C540.194 74.9821 541.247 75.8062 542.696 76.521C544.166 77.216 546.121 77.8713 548.564 78.4868C553.131 79.6187 556.586 81.2965 558.929 83.5205C561.292 85.7246 562.473 88.4549 562.473 91.7114C562.473 94.0347 561.848 96.0998 560.597 97.9067C559.346 99.6938 557.579 101.094 555.295 102.106C553.032 103.119 550.361 103.625 547.283 103.625ZM584.055 103V99.2471L588.91 98.4131V64.0708H579.08L578.217 70.0874H573.808V59.6328H609.849V70.0874H605.5L604.606 64.0708H594.777V98.4131L599.632 99.2471V103H584.055ZM613.559 103V99.2471L616.775 98.8003L631.936 59.6328H636.97L651.862 98.8003L655.049 99.2471V103H642.599V99.2471L645.875 98.6812L643.016 90.6987H625.651L622.703 98.6812L625.979 99.2471V103H613.559ZM627.468 85.7842H641.229L634.855 68.1514L634.497 67.1685H634.319L633.961 68.1514L627.468 85.7842ZM668.916 103V99.2471L673.771 98.4131V64.0708H663.942L663.078 70.0874H658.67V59.6328H694.71V70.0874H690.361L689.468 64.0708H679.639V98.4131L684.494 99.2471V103H668.916ZM705.896 103V99.2471L710.751 98.4131V64.2495L705.896 63.4155V59.6328H721.474V63.4155L716.619 64.2495V98.4131L721.474 99.2471V103H705.896ZM749.816 103.625C747.016 103.625 744.504 103.089 742.28 102.017C740.056 100.945 738.16 99.4357 736.591 97.4897C735.043 95.5239 733.851 93.2007 733.017 90.52C732.203 87.8394 731.796 84.8807 731.796 81.644V81.0186C731.796 77.8018 732.203 74.853 733.017 72.1724C733.851 69.4718 735.043 67.1387 736.591 65.1729C738.16 63.207 740.056 61.688 742.28 60.6157C744.504 59.5435 747.016 59.0073 749.816 59.0073C752.775 59.0073 755.376 59.5435 757.62 60.6157C759.864 61.688 761.74 63.207 763.249 65.1729C764.778 67.1387 765.93 69.4718 766.704 72.1724C767.479 74.853 767.866 77.8018 767.866 81.0186V81.644C767.866 84.8807 767.479 87.8394 766.704 90.52C765.93 93.2007 764.778 95.5239 763.249 97.4897C761.74 99.4357 759.864 100.945 757.62 102.017C755.376 103.089 752.775 103.625 749.816 103.625ZM749.816 98.7407C752.695 98.7407 755.019 98.0259 756.786 96.5962C758.573 95.1665 759.883 93.1709 760.717 90.6094C761.551 88.028 761.968 85.0396 761.968 81.644V80.959C761.968 77.5833 761.542 74.6247 760.688 72.083C759.854 69.5215 758.543 67.5259 756.756 66.0962C754.969 64.6466 752.656 63.9219 749.816 63.9219C747.215 63.9219 745.011 64.6466 743.204 66.0962C741.397 67.5457 740.027 69.5513 739.093 72.1128C738.16 74.6545 737.694 77.6032 737.694 80.959V81.644C737.694 85.0197 738.16 87.9982 739.093 90.5796C740.027 93.1411 741.397 95.1466 743.204 96.5962C745.011 98.0259 747.215 98.7407 749.816 98.7407ZM778.248 103V99.2471L783.103 98.4131V64.2495L778.248 63.4155V59.6328H783.103H789.03L810.297 93.439L810.475 93.3794V64.2495L805.144 63.4155V59.6328H815.866H820.721V63.4155L815.866 64.2495V103H810.505L788.673 69.0151L788.494 69.0747V98.4131L793.825 99.2471V103H778.248ZM854.233 88.7627V59.6328H860.101V88.7627H854.233ZM854.233 103V96.9238H860.101V103H854.233Z" fill="#FFE6A7"/>
</g>
</svg>
