<svg width="779" height="1007" viewBox="0 0 779 1007" fill="none" xmlns="http://www.w3.org/2000/svg">
<path fill-rule="evenodd" clip-rule="evenodd" d="M338.563 503.622C362.315 503.603 382.519 526.172 389.769 557.508C387.968 559.193 386.2 560.95 384.466 562.796C368.711 579.572 359.052 599.764 356.206 618.805C354.209 632.077 355.517 644.828 360.296 655.588C355.713 658.511 350.791 660.539 345.648 661.492C355.55 619.629 350.683 598.822 343.171 579.557C335.896 560.9 326.037 540.903 337.045 503.642C337.534 503.641 338.057 503.623 338.563 503.622ZM479.704 551.777C500.803 574.111 494.328 617.333 465.241 648.304C438.393 676.892 401.668 685.053 379.587 668.593C414.478 646.464 424.883 628.116 432.401 608.875C439.668 590.243 446.017 568.71 478.623 550.685C478.978 551.025 479.349 551.401 479.704 551.777ZM376.038 665.605C375.464 665.068 374.906 664.513 374.365 663.941C353.267 641.606 359.741 598.384 388.828 567.413C416.232 538.234 453.918 530.341 475.834 548.18C440.869 566.977 431.437 582.746 423.785 602.363C416.602 620.744 408.839 644.302 376.038 665.605ZM341.162 662.051C340.403 662.105 339.644 662.124 338.885 662.124C309.111 662.148 284.899 626.688 284.81 582.917C284.726 541.688 306.081 507.786 333.452 503.985C321.269 543.539 325.118 561.786 332.766 581.41C339.939 599.833 350.14 622.338 341.162 662.051Z" fill="#178F8E"/>
<path d="M169.994 0C138.617 0 111.262 21.2353 103.48 51.6284L99.0997 68.6591H388.912H678.724L674.567 51.986C666.9 21.4098 639.479 0 607.919 0H388.956H169.994ZM91.5455 114.432C15.0363 114.432 2.05977 183.32 0 228.864C0 241.52 10.2531 251.75 22.8864 251.75H755.25C767.883 251.75 778.136 241.52 778.136 228.864C776.054 183.32 763.054 114.432 686.591 114.432H91.5455ZM51.4496 297.523L136.782 962.255C140.672 987.362 164.716 1007 191.539 1007H586.642C613.442 1007 637.506 987.354 641.489 961.63L667.951 755.25L726.687 297.523H51.4496ZM386.923 389.068C387.93 388.931 387.984 389.068 388.487 389.068C454.56 389.068 510.313 435.413 535.282 503.5H537.606H654.094L633.577 663.705H538.455H535.326C529.948 678.695 523.52 693.085 515.167 705.901C485.575 751.262 440.375 777.565 391.169 778.092H389.605C341.04 778.092 295.907 752.867 265.652 708.628C256.406 695.125 249.318 679.771 243.436 663.705H240.799H144.604L124.042 503.5H239.949H242.363C266.645 436.123 321.239 389.801 386.923 389.068Z" fill="#99582A"/>
</svg>
