<svg width="1073" height="752" viewBox="0 0 1073 752" fill="none" xmlns="http://www.w3.org/2000/svg">
<path d="M422.259 342.076H416.895L420.997 319.359L423.206 303.267L423.521 300.112L425.73 299.166L428.57 301.69L436.459 289.384L439.93 289.069L439.614 292.224H442.77L441.823 297.903L437.721 306.422L438.983 309.578L436.143 316.835L437.09 318.728L433.934 329.14L429.832 334.504L426.361 335.135L422.259 342.076Z" fill="#5C3127" stroke="#FFE6A7" stroke-width="0.2" stroke-linecap="round" stroke-linejoin="round"/>
<path d="M727.081 425.373L715.405 428.844L710.356 438.941L703.099 444.62L697.419 452.193L694.579 466.706L688.899 478.696L698.05 479.958L699.943 489.108L703.73 493.841L704.676 501.729L702.468 509.301L702.783 513.719L707.201 515.296L710.987 522.238L734.023 520.345L744.436 522.869L756.427 540.538L763.684 538.329L776.622 539.276L786.719 537.067L793.03 540.538L789.244 551.266L785.142 558.207L783.249 572.721L786.719 586.288L791.453 592.283L792.084 596.7L782.933 606.797L789.244 611.214L793.977 618.471L799.026 638.664L795.555 641.189L792.399 629.199L787.351 622.573L781.355 629.83L746.645 629.199V641.82L757.058 644.028L756.427 651.916L752.956 649.708L742.858 652.863L742.542 667.692L750.747 675.265L753.587 686.623L753.271 695.458L746.329 750.989L737.178 740.262L731.814 739.946L742.858 719.122L728.974 709.656L718.245 711.549L711.619 708.079L701.837 713.442L688.584 710.603L677.539 689.463L669.335 684.415L663.655 674.634L651.664 665.168L646.931 667.061L639.358 662.328L630.522 655.702L625.474 658.858L610.327 656.018L605.909 647.183L602.438 647.499L584.767 636.14L582.559 629.83L589.185 628.252L588.554 618.156L592.972 610.583L601.807 609.321L609.696 596.7L616.638 585.973L610.327 581.24L614.114 569.566L610.643 550.95L614.745 545.586L612.536 528.548L605.594 517.505L608.434 507.724L614.114 509.301L617.585 503.307L614.114 491.317L616.322 488.477L625.474 489.108L639.673 474.91L647.246 472.701L647.562 466.075L651.98 448.722L662.708 439.572L673.753 438.941L675.646 434.839L689.53 436.417L704.045 426.32L711.303 421.903L720.454 412.122L726.765 413.384L730.867 418.748L727.081 425.373Z" fill="#5C3127" stroke="#FFE6A7" stroke-width="0.2" stroke-linecap="round" stroke-linejoin="round"/>
<path d="M506.826 442.411L510.613 453.455L516.924 461.658L524.812 470.177L517.87 472.07L517.555 480.274L521.026 483.113L518.186 485.637L518.817 489.108L516.924 493.21L515.977 497.312L506.51 492.894L503.04 488.477L505.248 485.006L504.933 480.589L500.199 475.856L493.257 471.755L487.577 469.23L486.631 463.236L482.213 459.765L482.844 465.444L479.058 470.493L475.271 464.813L469.907 462.605L467.698 458.818L468.013 452.508L470.853 446.198L466.12 443.358L470.538 439.256L473.378 436.732L484.738 442.096L488.84 439.572L494.52 441.149L497.044 445.251L502.408 446.829L506.826 442.411Z" fill="#5C3127" stroke="#FFE6A7" stroke-width="0.2" stroke-linecap="round" stroke-linejoin="round"/>
<path d="M602.122 202.932L608.118 210.189L624.526 207.98L630.206 212.713L643.459 225.334L653.557 234.484L659.237 234.169L669.334 238.27L667.441 243.95L680.063 244.896L692.369 253.1L689.845 257.833L677.854 260.357L665.863 261.303L654.188 259.726L628.628 261.619L641.881 250.576L635.255 245.212L623.895 243.95L618.531 237.955L616.006 226.596L605.909 227.227L590.131 221.863L585.398 217.446L562.994 214.291L557.314 210.505L564.572 205.456L547.532 204.51L533.648 214.922L526.39 215.237L523.235 220.286L514.399 222.494L507.142 220.286L517.239 214.291L521.972 206.718L530.492 202.301L539.959 198.515L553.527 196.622L557.945 194.098L572.776 195.675L586.66 195.991L602.122 202.932Z" fill="#5C3127" stroke="#FFE6A7" stroke-width="0.2" stroke-linecap="round" stroke-linejoin="round"/>
<path d="M731.182 298.534L732.128 292.855L728.026 286.86L732.76 283.39L734.969 275.502L734.653 264.774L737.177 261.303H750.746L760.843 266.351L765.577 266.036L767.786 273.293L777.568 272.662L776.305 278.657L784.194 279.603L792.083 286.86L784.825 295.064L776.621 290.646L768.417 291.593L762.737 290.646L759.266 294.433L752.324 295.695L750.115 290.646L744.119 293.486L735.599 307.369L731.497 304.214L731.182 298.534Z" fill="#5C3127" stroke="#FFE6A7" stroke-width="0.2" stroke-linecap="round" stroke-linejoin="round"/>
<path d="M423.206 303.267L420.997 319.359L416.895 342.076H422.259L427.623 345.862L429.517 342.707L434.25 345.231L425.414 353.119L416.263 358.799L414.686 362.585L415.632 366.687L411.53 371.735L407.112 372.997L408.059 375.521L404.273 377.73L397.962 382.778L397.015 385.618L388.179 382.147L377.135 381.831L369.562 377.73L360.727 369.526L361.989 363.531L364.513 358.799L362.304 355.012L372.718 338.605H395.437L396.699 331.664L394.175 330.402L392.597 325.985L386.602 321.252L380.922 314.626L388.811 314.31L390.388 302.952H406.797L423.206 303.267Z" fill="#99582A" stroke="#FFE6A7" stroke-width="0.2" stroke-linecap="round" stroke-linejoin="round"/>
<path d="M974.787 543.062L971.631 561.362L960.587 566.411L961.534 571.143L958.063 581.871L965.636 596.385H971.316L973.525 607.744L983.938 625.413L979.836 626.359L969.738 624.466L964.058 629.83L955.854 633.301L950.174 634.247L948.281 638.349L939.445 637.402L928.401 627.937L927.454 618.471L923.037 608.059L926.192 591.021L931.241 583.764L927.454 574.299L921.143 571.459L923.668 562.309L919.881 557.892L910.415 558.523L898.739 543.378L903.788 537.698V528.233L914.832 525.077L919.25 521.291L913.57 513.719L915.148 506.462L929.979 494.472L941.339 502.045L951.752 514.981L952.067 525.709L958.694 526.024L968.16 535.805L974.787 543.062Z" fill="#5C3127" stroke="#FFE6A7" stroke-width="0.2" stroke-linecap="round" stroke-linejoin="round"/>
<path d="M522.604 360.061L516.608 359.745L513.768 362.585L507.457 365.109H503.04L498.938 367.633L495.467 367.002L492.627 363.847L490.733 364.478L487.893 369.211L486.316 368.895L485.685 373.313L479.058 378.677L475.271 381.201L473.378 383.725L468.645 379.623L464.227 384.987H460.441L456.338 385.302L455.707 395.399H453.183L450.658 400.132L444.979 401.078L442.454 394.768L437.09 392.875L439.299 384.671L437.09 382.463L433.303 381.201L425.414 383.409L425.099 380.885L420.05 377.414L416.579 373.628L411.53 371.735L415.632 366.687L414.686 362.585L416.264 358.799L425.414 353.119L434.25 345.231L436.143 346.178L440.245 342.707L445.294 342.392L446.872 343.969L449.712 343.023L457.916 344.916L466.12 344.285L471.8 342.076L474.325 339.868L479.689 340.814L483.791 342.076L488.524 341.761L492.311 339.868L500.2 342.707L502.724 343.338L507.773 347.125L512.506 351.542L518.502 354.697L522.604 360.061Z" fill="#5C3127" stroke="#FFE6A7" stroke-width="0.2" stroke-linecap="round" stroke-linejoin="round"/>
<path d="M734.653 264.774L734.969 275.502L732.76 283.39L728.027 286.86L732.129 292.855L731.182 298.535L719.822 295.064L711.303 296.326L700.574 295.064L692.054 298.85L683.219 292.54L685.428 285.914L701.521 288.754L714.458 290.331L721.4 285.914L714.143 277.079L715.405 269.191L704.361 266.036L709.094 260.672L719.822 261.303L734.653 264.774Z" fill="#5C3127" stroke="#FFE6A7" stroke-width="0.2" stroke-linecap="round" stroke-linejoin="round"/>
<path d="M639.042 302.005L633.362 305.476L623.895 302.005L614.744 294.748L617.269 290.015L624.842 288.753L628.944 289.384L640.619 291.278L649.139 296.01L651.664 301.69L639.042 302.005Z" fill="#5C3127" stroke="#FFE6A7" stroke-width="0.2" stroke-linecap="round" stroke-linejoin="round"/>
<path d="M300.772 140.459L307.715 139.828L297.617 157.813L291.937 172.327L286.257 199.462L282.786 209.243L284.048 220.286L288.15 230.382L289.413 245.843L298.879 260.988L301.404 272.662L306.768 282.443L324.754 287.807L330.75 296.326L347.158 290.647L360.727 288.754L374.611 284.967L385.971 281.497L398.278 273.293L403.957 261.619L407.744 244.581L411.531 238.586L424.153 233.222L443.401 228.489L458.863 229.436L469.592 227.543L473.378 231.96L471.485 241.741L460.441 253.731L454.761 266.036L457.601 269.507L453.814 278.341L447.188 294.117L443.401 288.754L439.93 289.069L436.459 289.385L428.57 301.69L425.73 299.166L423.522 300.112L423.206 303.267L406.797 302.952H390.389L388.811 314.311L380.922 314.626L386.602 321.252L392.598 325.985L394.175 330.402L396.7 331.664L395.438 338.606H372.718L362.305 355.013L364.514 358.799L361.989 363.532L360.727 369.526L343.056 347.756L334.852 341.13L320.968 335.766L310.87 337.343L295.724 344.916L286.573 346.809L274.897 341.445L261.96 337.659L246.814 328.509L233.876 325.669L215.259 316.204L201.69 306.423L198.219 301.059L188.437 299.797L171.397 293.486L165.402 284.336L148.362 272.662L141.42 260.041L138.895 249.945L144.891 248.052L143.944 242.372L148.993 237.008L150.255 230.067L145.522 220.917V213.029L141.42 202.617L129.429 182.424L114.914 166.648L108.918 154.027L95.9806 145.823L93.7718 140.775L99.1361 128.47L91.5629 123.737L83.6741 113.64L83.043 99.7575L74.2076 97.8644L66.95 87.4523L61.5856 77.3556L62.5322 71.0452L57.799 55.9003L56.8524 40.4399L59.3767 32.5519L49.5948 24.3484L43.5993 25.2949L36.0261 19.9312L30.3462 28.1346L30.0306 37.6002L26.8751 53.0607L30.0306 61.2641L38.866 75.147L40.1283 80.1953L42.3371 81.4574L42.6526 88.3988L45.8081 88.0832V101.335L49.9102 106.383L51.488 113.64L60.0079 123.737L61.2701 142.668L64.4256 151.503L67.2655 160.968L66.3189 171.696L74.5232 172.327L79.572 181.477L84.3053 190.627L83.3586 194.413L74.5232 201.67H71.3677L69.1588 189.365L60.0079 177.691L49.2792 167.91L41.3905 162.861L45.177 148.032L44.8615 136.989L38.235 130.678L28.4529 121.844L25.613 124.368L22.4575 119.004L12.991 114.271L6.04882 102.282L7.62657 101.02L14.2531 101.966L22.773 94.3936L25.9285 85.2436L16.7775 70.7297L8.57328 65.3659L6.04882 52.7451L4.1555 39.1778L1.63114 23.0863L1 4.78617L20.8797 3.20858L43.2838 1L40.4437 5.10171L62.5322 14.8828L96.9273 29.0812H131.007H144.575L147.1 20.5621H176.761L180.863 27.8191L187.49 34.445L195.063 43.2796L197.588 53.6917L198.85 65.0504L206.107 71.0452L218.729 77.0401L233.876 61.2641L248.076 60.6331L258.173 68.8366L263.222 82.7195L266.062 94.7092L273.635 106.068L274.266 120.266L277.106 129.732L289.413 136.042L300.772 140.459Z" fill="#5C3127" stroke="#FFE6A7" stroke-width="0.2" stroke-linecap="round" stroke-linejoin="round"/>
<path d="M522.603 360.061L521.025 362.27L519.448 366.687L520.71 373.944L515.977 380.885L513.452 389.089L511.875 397.923L512.506 403.287L512.19 412.437L509.35 414.33L507.141 423.165L507.773 428.529L503.986 433.577L504.301 438.941L506.826 442.412L502.408 446.829L497.044 445.251L494.519 441.15L488.839 439.572L484.737 442.096L473.377 436.732L470.538 439.257L464.858 432.946L456.969 424.743L453.498 418.117L446.556 411.491L438.667 402.341L440.876 399.186L443.4 402.341L444.978 401.079L450.658 400.132L453.182 395.399H455.707L456.338 385.303L460.44 384.987H464.227L468.644 379.623L473.377 383.725L475.271 381.201L479.057 378.677L485.684 373.313L486.315 368.896L487.893 369.211L490.733 364.478L492.626 363.847L495.466 367.003L498.937 367.634L503.039 365.109H507.457L513.768 362.585L516.608 359.746L522.603 360.061Z" fill="#5C3127" stroke="#FFE6A7" stroke-width="0.2" stroke-linecap="round" stroke-linejoin="round"/>
<path d="M616.321 488.478L614.113 491.317L617.584 503.307L614.113 509.302L608.433 507.724L605.593 517.505L599.913 511.826L596.757 500.783L601.175 495.419L596.757 494.157L593.917 487.531L585.082 481.852L577.509 483.114L573.407 490.055L565.833 495.103L562.047 495.735L560.154 500.152L568.042 511.195L562.994 513.719L560.469 516.559L551.949 517.821L549.425 505.516L546.9 508.986L541.221 507.724L538.065 499.836L530.807 498.259L526.074 496.05H518.501L517.87 500.467L515.977 497.312L516.923 493.21L518.817 489.109L518.185 485.638L521.025 483.114L517.554 480.274L517.87 472.071L524.812 470.177L530.807 477.434L530.176 481.852L537.118 482.798L539.012 480.905L543.745 485.953L552.58 484.376L560.469 479.328L571.513 475.226L577.824 469.231L587.606 470.493L586.975 472.386L596.757 473.017L604.331 476.803L610.01 482.798L616.321 488.478Z" fill="#5C3127" stroke="#FFE6A7" stroke-width="0.2" stroke-linecap="round" stroke-linejoin="round"/>
<path d="M437.09 392.875L434.881 397.608L424.468 397.292L418.157 395.399L411.214 391.297L401.748 390.035L397.015 385.618L397.961 382.779L404.272 377.73L408.059 375.522L407.112 372.997L411.53 371.735L416.579 373.628L420.05 377.415L425.099 380.885L425.414 383.41L433.303 381.201L437.09 382.463L439.298 384.672L437.09 392.875Z" fill="#5C3127" stroke="#FFE6A7" stroke-width="0.2" stroke-linecap="round" stroke-linejoin="round"/>
<path d="M1031.9 547.479L1022.12 564.833L1023.07 578.715L1030.01 590.705L1026.54 599.224L1024.96 608.69L1020.23 617.209L1010.13 612.792L1001.61 615L994.351 613.107L992.458 619.102L995.613 622.888L993.72 627.306L983.938 625.412L973.525 607.743L971.316 596.385H965.636L958.062 581.871L961.534 571.143L960.587 566.41L971.631 561.362L974.787 543.062L996.244 547.164L998.137 543.377L1012.65 541.8L1031.9 547.479Z" fill="#5C3127" stroke="#FFE6A7" stroke-width="0.2" stroke-linecap="round" stroke-linejoin="round"/>
<path d="M929.979 494.472L915.148 506.462L913.57 513.719L919.25 521.291L914.832 525.077L903.788 528.233V537.698L898.739 543.378L910.415 558.522L912.623 564.202L905.997 572.09L885.802 579.662L872.864 582.817L867.5 587.55L853.3 582.502L840.362 579.978L836.891 581.871L844.78 586.919L843.834 600.487L846.042 613.423L861.189 615L862.135 619.418L849.198 625.097L846.989 633.616L839.416 637.087L826.163 641.819L822.692 648.13L808.807 649.392L799.025 638.664L793.977 618.471L789.243 611.214L782.932 606.797L792.083 596.7L791.452 592.283L786.719 586.288L783.248 572.721L785.141 558.207L789.243 551.265L793.03 540.538L786.719 537.067L776.621 539.276L763.684 538.329L756.426 540.538L744.435 522.869L734.022 520.345L710.987 522.238L707.2 515.296L702.783 513.719L702.467 509.301L704.676 501.729L703.729 493.841L699.943 489.108L698.049 479.958L688.898 478.696L694.578 466.706L697.418 452.192L703.098 444.62L710.356 438.941L715.405 428.844L727.08 425.373L726.449 430.106L715.72 432.63L721.085 441.78L720.138 452.508L711.618 464.182L717.614 480.274L725.502 479.012L730.236 464.182L724.871 457.241V441.78L747.591 433.577L745.697 424.111L752.324 417.485L757.688 431.999L770.31 432.315L781.039 443.358L781.67 450.299H797.448L816.696 448.406L826.478 457.241L839.731 459.765L850.145 453.455L850.46 448.406L872.864 447.144L894.006 446.829L878.544 452.823L884.224 462.605L898.424 463.867L911.677 473.963L913.886 490.055L923.037 489.739L929.979 494.472Z" fill="#5C3127" stroke="#FFE6A7" stroke-width="0.2" stroke-linecap="round" stroke-linejoin="round"/>
<path d="M1020.23 617.209L1024.96 608.375L1026.54 599.225L1029.69 590.706L1023.07 578.716L1022.12 564.833L1031.9 547.479L1037.9 549.688L1050.83 554.421L1069.45 571.459L1071.98 579.662L1061.25 598.278L1055.57 613.108L1048.63 620.996L1040.11 622.258L1037.58 616.578L1033.48 615.947L1028.12 621.311L1020.23 617.209Z" fill="#5C3127" stroke="#FFE6A7" stroke-width="0.2" stroke-linecap="round" stroke-linejoin="round"/>
<path d="M753.902 412.122L752.324 411.491L750.746 409.913L751.062 408.02L751.693 408.967L752.955 410.229L753.902 411.806V412.122Z" fill="#5C3127" stroke="#FFE6A7" stroke-width="0.2" stroke-linecap="round" stroke-linejoin="round"/>
<path d="M884.224 295.064H883.593L884.539 293.802H885.486L884.855 294.748L884.224 295.064Z" fill="#5C3127" stroke="#FFE6A7" stroke-width="0.2" stroke-linecap="round" stroke-linejoin="round"/>
<path d="M904.734 317.15L906.628 318.097L905.996 319.043H905.365L903.157 319.359L902.525 319.043V317.466L903.472 317.15L903.788 316.204H904.419L904.734 317.15Z" fill="#5C3127" stroke="#FFE6A7" stroke-width="0.2" stroke-linecap="round" stroke-linejoin="round"/>
<path d="M904.735 305.476H905.366L905.997 306.107L906.312 307.369L905.997 308.316L905.366 308.631L905.05 308L904.104 307.369V305.792L904.735 305.476Z" fill="#5C3127" stroke="#FFE6A7" stroke-width="0.2" stroke-linecap="round" stroke-linejoin="round"/>
<path d="M714.458 235.431L713.196 237.008L712.564 238.586L710.671 239.532H709.093L708.778 239.217L707.516 239.848L705.938 240.163L704.045 239.532L702.782 239.848L702.467 238.27L703.414 237.639L704.045 236.693L705.307 236.062L706.253 234.8H707.516L708.462 234.169L709.093 235.115L710.671 235.746L712.249 235.115L714.458 231.96H715.404V232.591L714.458 235.431Z" fill="#5C3127" stroke="#FFE6A7" stroke-width="0.2" stroke-linecap="round" stroke-linejoin="round"/>
<path d="M715.089 230.067L714.458 228.174L716.351 227.227L717.298 228.174V228.805L716.351 229.12L715.089 230.067Z" fill="#5C3127" stroke="#FFE6A7" stroke-width="0.2" stroke-linecap="round" stroke-linejoin="round"/>
<path d="M716.351 209.558L716.982 209.243L718.56 210.189H719.822L721.084 210.505L722.031 211.136V212.082L721.4 212.398L719.822 211.136H718.56L718.244 210.82L716.667 211.451L715.089 210.82V210.505L715.72 208.927L716.351 209.558Z" fill="#5C3127" stroke="#FFE6A7" stroke-width="0.2" stroke-linecap="round" stroke-linejoin="round"/>
<path d="M704.045 203.879L703.414 205.141V207.35L703.098 208.612L701.836 209.558L701.205 210.82L699.943 211.767L697.734 212.713L697.418 213.344L696.787 212.713L697.103 212.082L698.365 211.767L698.996 211.136V210.505L700.258 210.189L700.889 208.927L702.151 208.612L703.098 207.35L702.467 206.403H701.205L700.574 205.772L701.836 204.194L702.151 203.879H704.045Z" fill="#5C3127" stroke="#FFE6A7" stroke-width="0.2" stroke-linecap="round" stroke-linejoin="round"/>
<path d="M698.049 202.933L698.364 203.248H699.627L700.889 203.879L699.627 205.141L699.311 204.51H698.68L697.418 204.195L696.156 203.564L695.209 201.67L696.156 201.355L697.418 201.67L698.049 202.933Z" fill="#5C3127" stroke="#FFE6A7" stroke-width="0.2" stroke-linecap="round" stroke-linejoin="round"/>
<path d="M669.019 184.317L670.912 186.526L671.859 187.157L672.806 188.734L671.859 188.419L671.543 187.788L670.597 187.472L669.334 186.21L668.703 185.894L668.072 184.632L669.019 184.317Z" fill="#5C3127" stroke="#FFE6A7" stroke-width="0.2" stroke-linecap="round" stroke-linejoin="round"/>
<path d="M680.695 184.317L681.641 186.21L682.272 187.788V189.05L682.903 189.681L683.534 191.889V194.729L684.166 195.676L685.743 196.307L687.006 198.2V200.724L685.743 198.515V197.884L684.797 196.622L682.903 195.991L683.534 195.36L682.588 194.414V193.467L683.219 192.52L682.903 190.943L681.957 189.681L682.272 189.365L681.326 188.103L681.01 186.21L680.379 186.526L680.695 184.317Z" fill="#5C3127" stroke="#FFE6A7" stroke-width="0.2" stroke-linecap="round" stroke-linejoin="round"/>
<path d="M689.845 184.317L688.899 184.948L687.952 184.632L687.637 184.001L689.53 183.37L689.845 184.317Z" fill="#5C3127" stroke="#FFE6A7" stroke-width="0.2" stroke-linecap="round" stroke-linejoin="round"/>
<path d="M663.97 178.322L663.655 178.006L662.708 175.798H663.339L663.97 178.322Z" fill="#5C3127" stroke="#FFE6A7" stroke-width="0.2" stroke-linecap="round" stroke-linejoin="round"/>
<path d="M697.103 176.744L695.84 178.637H694.578L695.209 177.691L695.525 175.798L696.787 174.851L697.103 176.113V176.744Z" fill="#5C3127" stroke="#FFE6A7" stroke-width="0.2" stroke-linecap="round" stroke-linejoin="round"/>
<path d="M638.726 172.958L637.779 173.274L637.148 174.22L636.201 173.905L638.095 172.643L638.726 172.958Z" fill="#5C3127" stroke="#FFE6A7" stroke-width="0.2" stroke-linecap="round" stroke-linejoin="round"/>
<path d="M639.357 175.167L640.62 175.798L641.251 175.167L641.566 173.589L642.197 173.273L642.829 175.167V176.744L642.513 177.691L642.829 179.584V180.53L641.566 183.055L640.935 183.37L639.673 182.739L640.304 181.792L641.566 181.161L641.251 180.846L639.357 182.108L638.726 181.477L639.989 180.53H638.726L638.095 180.846L637.464 180.215V178.006L637.78 177.375L636.518 175.798V175.167L637.78 174.536L638.095 173.589L639.042 173.273L639.357 172.642L641.251 171.696L641.566 172.958L639.989 174.22L639.357 175.167Z" fill="#5C3127" stroke="#FFE6A7" stroke-width="0.2" stroke-linecap="round" stroke-linejoin="round"/>
<path d="M681.957 173.274L682.272 174.851L681.641 174.536L680.063 174.851L678.801 175.167L678.486 174.536L679.432 173.905L680.694 172.958V172.327L679.432 171.696L678.801 169.803L678.486 167.91L677.223 166.648V166.017L675.646 164.439L676.592 163.493L677.854 164.755V166.332L678.486 167.279L678.801 168.856L679.748 170.434L681.01 171.381L681.326 172.327L681.957 173.274Z" fill="#5C3127" stroke="#FFE6A7" stroke-width="0.2" stroke-linecap="round" stroke-linejoin="round"/>
<path d="M649.455 155.92L650.401 156.551L648.508 157.498L647.561 157.182L646.93 157.813L645.353 157.498L645.984 156.551L647.246 155.92H649.455Z" fill="#5C3127" stroke="#FFE6A7" stroke-width="0.2" stroke-linecap="round" stroke-linejoin="round"/>
<path d="M636.202 154.343L637.464 153.712L638.411 154.658L638.095 155.289L638.411 155.92L637.78 157.182L638.727 158.129L639.357 160.968L639.989 161.915L641.251 163.493L640.62 165.701L640.935 167.594L640.304 168.541L639.357 168.856L638.095 170.118L637.149 170.75H636.202L635.255 171.381H634.309V170.118L633.362 169.487L633.678 167.594L632.731 168.541L632.1 168.225L630.207 166.963L629.26 166.017L628.629 165.07L630.838 164.124L632.416 166.332L632.731 164.439L631.784 164.124L631.469 163.177L631.784 162.23L633.678 160.337L634.309 159.075L633.993 158.76L634.94 157.498V155.92L634.309 153.712L634.624 153.396H635.571L636.202 154.343Z" fill="#5C3127" stroke="#FFE6A7" stroke-width="0.2" stroke-linecap="round" stroke-linejoin="round"/>
<path d="M661.761 146.139L662.077 146.77L663.023 148.032L665.548 150.241L667.126 150.556L667.441 150.872L668.072 152.134L669.019 153.396L670.597 154.658V155.289L669.966 157.813L669.65 158.444V159.391L669.334 160.969L668.703 161.915L668.388 164.124L668.072 164.439L667.441 162.546L666.179 161.6L666.495 160.969L668.072 161.284L668.703 160.653L668.388 160.022L668.703 158.76L669.65 157.498L669.966 155.92V154.974L668.388 153.712L667.126 151.503L666.179 150.872L664.286 149.925L663.339 148.979L661.446 148.348L660.184 148.979L661.446 146.139H661.761Z" fill="#5C3127" stroke="#FFE6A7" stroke-width="0.2" stroke-linecap="round" stroke-linejoin="round"/>
<path d="M633.993 122.475L635.571 123.106H635.886L638.095 123.422L638.726 122.79L639.357 123.106H640.935L642.197 122.475H643.46L644.406 121.844L644.722 123.422L644.406 124.053H643.46H642.197L638.726 124.684H637.78L633.046 125.946L630.838 127.208H629.575L628.944 126.892L627.998 125.946L626.42 124.053L628.313 124.999L628.629 125.63H630.207L631.784 124.999L633.046 123.106L632.1 122.79L632.731 121.844L633.046 120.897L633.993 122.475Z" fill="#5C3127" stroke="#FFE6A7" stroke-width="0.2" stroke-linecap="round" stroke-linejoin="round"/>
<path d="M647.561 118.373L650.086 119.004L650.717 118.689L651.979 119.635L654.819 122.79L655.45 124.683L656.712 124.999L658.921 126.577V127.208L658.29 128.785L658.921 130.994H657.659L656.081 132.256L655.765 132.887L654.819 136.042L654.503 138.882L653.872 139.513L652.926 138.882L652.61 137.62L651.348 137.304L652.294 135.727H652.926L654.503 134.465L654.188 133.202L654.819 131.94V130.994L655.45 130.047V128.154L656.081 127.839L656.712 126.892L657.028 125.945L656.081 125.63L654.503 125.315L654.188 124.368V123.737L652.926 123.106V122.159L651.979 119.951L651.348 119.635L650.401 119.951L648.823 119.635H647.877L645.983 118.373H647.561Z" fill="#5C3127" stroke="#FFE6A7" stroke-width="0.2" stroke-linecap="round" stroke-linejoin="round"/>
<path d="M887.379 301.69L887.063 300.744L888.01 301.059L887.379 301.69Z" fill="#5C3127" stroke="#FFE6A7" stroke-width="0.2" stroke-linecap="round" stroke-linejoin="round"/>
<path d="M894.006 8.25694H893.059L892.744 8.57248L893.059 9.20346L891.797 9.83454L891.481 9.519L892.113 9.20346H892.428L892.744 8.25694L893.69 7.94141L894.006 8.25694Z" fill="#5C3127" stroke="#FFE6A7" stroke-width="0.2" stroke-linecap="round" stroke-linejoin="round"/>
<path d="M938.814 399.501L936.921 398.87L936.605 397.292V394.768L937.237 393.506L937.868 394.137L938.499 396.03L940.077 396.977L940.392 398.239L938.814 399.501Z" fill="#5C3127" stroke="#FFE6A7" stroke-width="0.2" stroke-linecap="round" stroke-linejoin="round"/>
<path d="M773.15 420.009H772.204L770.941 419.063L769.995 418.747L769.048 417.801L768.732 417.17L767.786 416.854L767.155 415.592L766.208 414.645L766.524 413.068L768.101 414.014L768.417 415.592L769.679 416.854L771.888 417.485L772.519 418.432L773.466 419.694L773.15 420.009Z" fill="#5C3127" stroke="#FFE6A7" stroke-width="0.2" stroke-linecap="round" stroke-linejoin="round"/>
<path d="M563.941 272.662L564.887 272.977L565.518 271.715L566.781 272.031H568.358L568.674 272.662L568.043 273.293L567.412 272.977L566.15 273.293L565.518 273.608H563.31L563.941 272.662Z" fill="#5C3127" stroke="#FFE6A7" stroke-width="0.2" stroke-linecap="round" stroke-linejoin="round"/>
<path d="M589.5 264.774L587.291 265.721L587.922 264.774H589.5Z" fill="#5C3127" stroke="#FFE6A7" stroke-width="0.2" stroke-linecap="round" stroke-linejoin="round"/>
<path d="M591.394 265.09L591.078 264.774L593.602 263.828L592.972 264.774L591.394 265.09Z" fill="#5C3127" stroke="#FFE6A7" stroke-width="0.2" stroke-linecap="round" stroke-linejoin="round"/>
<path d="M908.837 348.071L910.414 348.386L911.045 349.964V351.857L910.73 354.381L910.414 355.012L909.783 355.328L908.521 355.959L908.837 354.697L908.521 354.066L908.205 351.857L907.259 350.28V349.333L907.574 348.386V347.44H908.205L908.837 348.071Z" fill="#5C3127" stroke="#FFE6A7" stroke-width="0.2" stroke-linecap="round" stroke-linejoin="round"/>
<path d="M900.002 420.009L898.74 420.956L898.108 420.64L897.793 419.063L898.424 417.485L899.371 416.223H900.317L900.633 417.17L900.317 419.378L900.002 420.009Z" fill="#5C3127" stroke="#FFE6A7" stroke-width="0.2" stroke-linecap="round" stroke-linejoin="round"/>
<path d="M890.851 317.466H889.904L889.589 316.835L890.22 315.573H890.851L891.167 316.204L890.851 317.466Z" fill="#5C3127" stroke="#FFE6A7" stroke-width="0.2" stroke-linecap="round" stroke-linejoin="round"/>
<path d="M888.642 312.733L888.326 313.679H887.695L886.433 313.048L885.802 312.417L886.748 311.155L888.326 312.417L888.642 312.733Z" fill="#5C3127" stroke="#FFE6A7" stroke-width="0.2" stroke-linecap="round" stroke-linejoin="round"/>
<path d="M914.201 386.249L913.57 385.618L912.308 384.987L911.992 384.356V382.463L912.308 381.832L914.517 378.361L915.463 378.992V381.201L915.148 383.725L914.832 384.987L914.201 386.249Z" fill="#5C3127" stroke="#FFE6A7" stroke-width="0.2" stroke-linecap="round" stroke-linejoin="round"/>
<path d="M884.224 298.535L882.962 298.219L883.593 297.273L884.54 296.957L884.224 298.535Z" fill="#5C3127" stroke="#FFE6A7" stroke-width="0.2" stroke-linecap="round" stroke-linejoin="round"/>
<path d="M896.846 323.46L897.477 324.723V325.669L896.846 326.3L896.215 325.985L895.899 325.038L896.846 323.46Z" fill="#5C3127" stroke="#FFE6A7" stroke-width="0.2" stroke-linecap="round" stroke-linejoin="round"/>
<path d="M798.71 298.219L797.764 297.588L798.079 296.957H799.026L799.341 297.273L798.71 298.219Z" fill="#5C3127" stroke="#FFE6A7" stroke-width="0.2" stroke-linecap="round" stroke-linejoin="round"/>
<path d="M844.78 296.641H844.149L841.309 297.588H839.416L840.047 296.957L841.309 296.326L842.572 296.01L844.465 296.326L844.78 296.641Z" fill="#5C3127" stroke="#FFE6A7" stroke-width="0.2" stroke-linecap="round" stroke-linejoin="round"/>
<path d="M814.803 289.069L816.696 289.384H818.589L819.536 289.7L821.429 289.384L822.376 289.7L823.638 289.384L824.269 289.7L825.847 289.384L827.109 289.7H828.056L830.58 290.331V289.7L832.473 290.331L832.789 290.015L835.313 290.331L835.944 290.962H836.575L838.469 291.909L839.1 291.593L838.784 293.802L839.415 294.748L836.575 295.695L835.629 296.957L834.682 298.85L833.736 299.481L832.789 299.797H831.527L829.633 300.112L828.687 300.743L826.478 300.428L825.847 299.797L824.269 300.428L823.322 299.481L821.114 300.112L818.274 299.797L817.327 300.112L815.434 300.428L814.803 300.743L814.171 300.112L812.909 299.797L811.963 300.428L810.069 300.112L811.016 297.903V296.641L811.647 295.379L811.016 293.486L810.385 293.171L810.069 291.909L811.331 291.278L811.963 290.962V289.384L813.225 288.753L814.803 289.069Z" fill="#5C3127" stroke="#FFE6A7" stroke-width="0.2" stroke-linecap="round" stroke-linejoin="round"/>
<path d="M884.224 298.535V298.85L882.962 298.535V298.219L884.224 298.535Z" fill="#5C3127" stroke="#FFE6A7" stroke-width="0.2" stroke-linecap="round" stroke-linejoin="round"/>
<path d="M737.493 221.548H739.702L740.649 222.81H739.702L738.756 222.494L737.178 222.81L736.862 221.863L737.493 221.548Z" fill="#5C3127" stroke="#FFE6A7" stroke-width="0.2" stroke-linecap="round" stroke-linejoin="round"/>
<path d="M728.973 221.232L729.92 222.494L731.813 222.179L731.182 222.81H729.288L728.026 222.179L728.973 221.232Z" fill="#5C3127" stroke="#FFE6A7" stroke-width="0.2" stroke-linecap="round" stroke-linejoin="round"/>
<path d="M735.916 219.339V220.917L734.338 220.286L734.022 219.339L734.338 219.024L735.916 219.339Z" fill="#5C3127" stroke="#FFE6A7" stroke-width="0.2" stroke-linecap="round" stroke-linejoin="round"/>
<path d="M911.361 444.305L910.73 445.882L909.784 447.144L909.153 447.46L908.837 448.722L909.468 450.615L908.837 450.931V453.139L909.468 454.086L910.099 454.717L909.468 455.348L909.153 456.294V458.503L908.522 458.818L907.259 459.45L905.682 459.765H904.735L903.157 460.081L901.58 459.765L900.317 460.081L899.371 459.765L897.793 460.396L896.531 459.765H894.637L893.691 460.396L892.744 460.081L894.322 459.45L895.269 458.503L896.531 458.188L897.793 457.241L898.424 456.294L900.317 456.61L901.264 455.348L900.633 452.824L901.264 451.562V449.984V449.353L900.317 448.091L899.371 447.775L898.108 447.46L897.793 447.144L899.055 446.198L902.526 445.882L903.157 445.251H906.628L906.944 444.936L910.73 444.305H911.361Z" fill="#5C3127" stroke="#FFE6A7" stroke-width="0.2" stroke-linecap="round" stroke-linejoin="round"/>
<path d="M918.935 434.208L918.619 435.786L917.673 436.101L916.411 437.048H915.779L913.571 438.31L912.939 437.679L913.886 436.732L916.095 435.155L918.935 434.208Z" fill="#5C3127" stroke="#FFE6A7" stroke-width="0.2" stroke-linecap="round" stroke-linejoin="round"/>
<path d="M909.468 397.608L909.152 397.923L907.574 396.977V395.715L908.205 394.768L908.836 393.19H910.099L910.414 394.452L910.099 396.977L909.468 397.608Z" fill="#5C3127" stroke="#FFE6A7" stroke-width="0.2" stroke-linecap="round" stroke-linejoin="round"/>
<path d="M858.664 290.331L857.402 290.962H857.086L856.14 291.593L855.824 291.278L856.14 290.331L858.033 290.016L858.664 290.331Z" fill="#5C3127" stroke="#FFE6A7" stroke-width="0.2" stroke-linecap="round" stroke-linejoin="round"/>
<path d="M853.615 304.214L854.562 305.161L851.091 305.792L850.775 304.214L852.984 303.583L853.615 304.214Z" fill="#5C3127" stroke="#FFE6A7" stroke-width="0.2" stroke-linecap="round" stroke-linejoin="round"/>
<path d="M855.824 292.224L855.193 292.855H853.615V292.224L854.562 291.909L855.824 292.224Z" fill="#5C3127" stroke="#FFE6A7" stroke-width="0.2" stroke-linecap="round" stroke-linejoin="round"/>
<path d="M851.407 291.593L852.669 292.54L852.038 293.171L851.091 292.54H849.514L850.145 291.909L851.407 291.593Z" fill="#5C3127" stroke="#FFE6A7" stroke-width="0.2" stroke-linecap="round" stroke-linejoin="round"/>
<path d="M782.616 420.325H781.985L781.67 418.748L781.985 417.801L781.67 416.855L780.408 416.539L779.461 415.593L779.776 414.646L783.563 416.539L783.248 417.17V418.432L782.616 419.063V420.325Z" fill="#5C3127" stroke="#FFE6A7" stroke-width="0.2" stroke-linecap="round" stroke-linejoin="round"/>
<path d="M884.539 309.893L883.908 310.209V309.578L884.224 309.262L884.539 309.893Z" fill="#5C3127" stroke="#FFE6A7" stroke-width="0.2" stroke-linecap="round" stroke-linejoin="round"/>
<path d="M879.806 307.053H879.49L879.806 306.422L880.121 306.738L879.806 307.053Z" fill="#5C3127" stroke="#FFE6A7" stroke-width="0.2" stroke-linecap="round" stroke-linejoin="round"/>
<path d="M915.148 364.478V365.109L916.411 364.794L915.779 366.371L916.411 367.002V367.633L917.041 368.264L917.673 371.104L916.726 372.051L916.411 370.788L916.095 371.104L914.202 370.788H912.939L912.308 369.842L914.202 368.264H912.939L911.677 367.002L911.362 365.425L910.73 363.847L911.677 362.585L912.939 362.9L914.517 363.847L915.148 364.478Z" fill="#5C3127" stroke="#FFE6A7" stroke-width="0.2" stroke-linecap="round" stroke-linejoin="round"/>
<path d="M911.992 342.392H911.045L910.414 341.13L910.73 340.499L911.676 339.552L912.623 340.183L912.938 341.13V341.761L911.992 342.392Z" fill="#5C3127" stroke="#FFE6A7" stroke-width="0.2" stroke-linecap="round" stroke-linejoin="round"/>
<path d="M906.313 334.188H907.26V334.82V335.135L906.628 335.451V337.975V339.237L905.997 339.868L904.104 340.814V340.183L903.473 339.552L903.157 337.975V336.397L902.842 334.82V333.873L903.473 332.926L904.42 332.611L905.997 333.557L906.313 334.188Z" fill="#5C3127" stroke="#FFE6A7" stroke-width="0.2" stroke-linecap="round" stroke-linejoin="round"/>
<path d="M910.73 332.926L911.992 333.242L913.57 334.504L909.468 335.451L908.521 335.766L907.259 334.819L907.574 332.926L908.205 332.611L907.89 330.718L908.205 330.087L909.152 329.456L910.099 330.718V331.98L910.73 332.926Z" fill="#5C3127" stroke="#FFE6A7" stroke-width="0.2" stroke-linecap="round" stroke-linejoin="round"/>
</svg>
