<svg width="801" height="1026" viewBox="0 0 801 1026" fill="none" xmlns="http://www.w3.org/2000/svg">
<rect x="644.702" width="45" height="415.888" rx="22.5" transform="rotate(25.2952 644.702 0)" fill="#178F8E"/>
<path d="M527.291 302.89C586.758 181.04 453.819 160.945 453.819 162.392C495.791 76.3569 411.847 19 334.885 19C257.923 19 261.414 47.7121 261.414 47.7121C261.414 47.7121 303.386 40.5425 303.386 67.7736C303.386 95.0383 264.864 93.5909 226.424 125.13C187.902 156.67 206.3 152.395 203.672 152.395C283.673 148.087 330.491 215.845 418.829 191.071C331.353 226.919 310.368 169.932 215.91 167.071C203.672 167.071 133.691 155.963 133.691 265.628C236.034 275.322 280.634 333.016 418.829 320.124C263.139 367.416 68.1051 171.716 41 386.064C41 431.943 82.9308 455 82.9308 455C82.9308 455 567.497 455 565.772 455C661.954 420.599 614.766 295.72 527.291 302.89Z" fill="#FFE6A7"/>
<path d="M792.566 531.628C785.373 514.644 773.463 500.306 758.419 490.136C743.398 479.967 725.045 473.978 705.622 474H644.53H610.516H608.442H79.9454C69.0047 474 58.4 476.238 48.8157 480.297C34.4219 486.395 22.2891 496.488 13.675 509.216C5.05629 521.945 -0.017144 537.506 4.35301e-05 553.952V703.442C-0.00620647 747.845 9.01567 790.33 25.3454 828.911C49.8313 886.781 90.6454 935.917 142.064 970.658C193.455 1005.4 255.655 1025.73 322.272 1025.72C366.67 1025.73 409.148 1016.7 447.725 1000.38C505.606 975.886 554.731 935.078 589.473 883.659C596.158 873.8 602.278 863.52 607.849 852.911C608.731 852.911 609.613 852.999 610.517 852.999C636.569 852.999 661.583 847.692 684.283 838.086C718.341 823.67 747.194 799.692 767.62 769.461C788.047 739.263 800.023 702.611 800.002 663.492C800.002 634.364 800.002 610.584 800.002 594.095C800.002 577.584 800.002 568.399 800.002 568.375C800 555.452 797.364 542.945 792.566 531.628ZM727.802 594.097C727.802 610.586 727.802 634.366 727.802 663.494C727.802 679.794 724.527 695.125 718.603 709.144C709.736 730.155 694.802 748.131 676.075 760.794C664.009 768.922 650.444 774.824 635.819 778.033C641.509 754.066 644.542 729.095 644.531 703.442V546.188H705.623C708.789 546.188 711.613 546.816 714.248 547.919C718.186 549.583 721.65 552.43 724.042 555.992C726.436 559.577 727.792 563.658 727.803 568.378C727.802 568.4 727.802 577.586 727.802 594.097Z" fill="#99582A"/>
</svg>
