<svg width="962" height="898" viewBox="0 0 962 898" fill="none" xmlns="http://www.w3.org/2000/svg">
<path d="M0 64.125C0 47.118 6.756 30.8075 18.7818 18.7818C30.8075 6.756 47.118 0 64.125 0H769.5C786.507 0 802.817 6.756 814.843 18.7818C826.869 30.8075 833.625 47.118 833.625 64.125V128.25H865.688C891.198 128.25 915.664 138.384 933.702 156.423C951.741 174.461 961.875 198.927 961.875 224.438V673.312C961.875 698.823 951.741 723.289 933.702 741.327C915.664 759.366 891.198 769.5 865.688 769.5H830.419C823.027 805.71 803.352 838.255 774.723 861.625C746.094 884.996 710.269 897.758 673.312 897.75H160.312C117.795 897.75 77.0189 880.86 46.9544 850.796C16.89 820.731 0 779.955 0 737.438V64.125ZM833.625 705.375H865.688C874.191 705.375 882.346 701.997 888.359 695.984C894.372 689.971 897.75 681.816 897.75 673.312V224.438C897.75 215.934 894.372 207.779 888.359 201.766C882.346 195.753 874.191 192.375 865.688 192.375H833.625V705.375Z" fill="#99582A"/>
<path d="M624.429 387.305C624.429 385.353 624.429 385.353 624.429 383.401C624.429 381.449 624.429 381.449 622.476 379.496C622.476 379.496 622.476 379.496 622.476 377.544L546.343 246.751V174.521C546.343 162.809 538.534 155 526.821 155H331.607C319.894 155 312.086 162.809 312.086 174.521V246.751L235.952 377.544C235.952 377.544 235.952 377.544 235.952 379.496C235.952 381.449 235.952 381.449 234 383.401C234 385.353 234 385.353 234 387.305C234 387.305 234 387.305 234 389.257V682.079C234 693.791 241.809 701.6 253.521 701.6H604.907C616.62 701.6 624.429 693.791 624.429 682.079V387.305ZM331.607 291.65L374.554 367.784H286.708L331.607 291.65ZM419.454 367.784L364.794 272.129H515.109L569.769 367.784H419.454ZM351.129 194.043H507.3V233.086H351.129V194.043ZM273.043 406.826H390.171V662.557H273.043V406.826ZM585.386 662.557H429.214V406.826H585.386V662.557Z" fill="#FFE6A7"/>
<path d="M312.086 486.865H351.129C362.842 486.865 370.65 479.056 370.65 467.343C370.65 455.63 362.842 447.822 351.129 447.822H312.086C300.373 447.822 292.564 455.63 292.564 467.343C292.564 479.056 300.373 486.865 312.086 486.865Z" fill="#178F8E"/>
<path d="M351.129 516.147H312.086C300.373 516.147 292.564 523.956 292.564 535.668C292.564 547.381 300.373 555.19 312.086 555.19H351.129C362.842 555.19 370.65 547.381 370.65 535.668C370.65 523.956 362.842 516.147 351.129 516.147Z" fill="#178F8E"/>
<path d="M351.129 584.472H312.086C300.373 584.472 292.564 592.281 292.564 603.994C292.564 615.706 300.373 623.515 312.086 623.515H351.129C362.842 623.515 370.65 615.706 370.65 603.994C370.65 592.281 362.842 584.472 351.129 584.472Z" fill="#178F8E"/>
</svg>
