<svg width="354" height="608" viewBox="0 0 354 608" fill="none" xmlns="http://www.w3.org/2000/svg">
<path d="M335.935 295.852C341.236 351.663 341.02 427.481 319.447 488.672C308.722 519.091 293.014 545.05 270.901 563.37C249.021 581.498 219.859 593 180.417 593C120.657 593 77.4319 562.081 49.8782 509.647C21.9277 456.458 10.4432 381.318 16.8525 296.136C23.1538 212.387 54.8337 141.21 90.5513 91.0907C108.416 66.0228 127.074 46.5301 143.694 33.4695C161.022 19.8527 173.867 15 180.417 15C184.641 15 195.395 18.3198 210.862 29.4774C225.634 40.1338 242.917 56.6718 259.936 79.6343C293.903 125.464 326.494 196.453 335.935 295.852Z" fill="#6F3B1D" stroke="#3D1803" stroke-width="30"/>
<path d="M180.211 102C202.673 130.5 220.195 244.5 180.211 309.004C132.588 375 144.718 472 171.932 519" stroke="#AB6533" stroke-opacity="0.82" stroke-width="33" stroke-linecap="round"/>
</svg>
