<svg width="770" height="845" viewBox="0 0 770 845" fill="none" xmlns="http://www.w3.org/2000/svg">
<path d="M686.583 19.5292C686.708 18.2933 688.526 18.3477 688.577 19.5887L691.706 96L746.41 623.232C746.461 623.73 746.137 624.189 745.651 624.307L685.242 638.941C685.083 638.98 684.936 639.057 684.814 639.165L619.917 696.798C619.235 697.403 618.166 696.856 618.258 695.95L686.583 19.5292Z" fill="#874B20"/>
<path d="M688 16L685.002 638.551C685.001 638.837 684.878 639.108 684.664 639.297L623.404 693.321C622.723 693.921 621.659 693.377 621.747 692.473L688 16Z" fill="#4C251C" fill-opacity="0.27"/>
<path d="M344 9C344 4.02944 348.029 0 353 0H679C683.971 0 688 4.02944 688 9V88L634.724 691.791C634.314 696.437 630.423 700 625.759 700H245.745C240.143 700 235.902 694.937 236.884 689.422L343.861 88.7829C343.953 88.262 344 87.7339 344 87.2048V9Z" fill="#99582A"/>
<path d="M345 65H688L685.882 89H345V65Z" fill="#7C3C15" fill-opacity="0.15"/>
<path d="M394.285 178.596C394.966 174.78 398.285 172 402.161 172H608.95C613.758 172 617.48 176.21 616.89 180.981L574.866 520.981C574.371 524.99 570.965 528 566.926 528H341.552C336.572 528 332.802 523.499 333.676 518.596L394.285 178.596Z" fill="#FFE6A7"/>
<path d="M635.828 748.828C637.391 747.266 637.391 744.734 635.828 743.172L610.373 717.716C608.81 716.154 606.278 716.154 604.716 717.716C603.154 719.278 603.154 721.811 604.716 723.373L627.343 746L604.716 768.627C603.154 770.19 603.154 772.722 604.716 774.284C606.278 775.846 608.81 775.846 610.373 774.284L635.828 748.828ZM239 750L633 750L633 742L239 742L239 750Z" fill="#99582A"/>
<path d="M759.943 662.675C760.316 660.498 758.853 658.43 756.675 658.057L721.192 651.98C719.014 651.607 716.947 653.07 716.574 655.247C716.201 657.425 717.664 659.492 719.841 659.865L751.382 665.267L745.98 696.808C745.607 698.986 747.07 701.053 749.247 701.426C751.425 701.799 753.492 700.336 753.865 698.159L759.943 662.675ZM652.31 740.265L758.31 665.265L753.69 658.735L647.69 733.735L652.31 740.265Z" fill="#99582A"/>
<path d="M312.723 2.47156C311.326 0.415674 308.527 -0.118942 306.472 1.27746L272.969 24.0332C270.913 25.4296 270.378 28.2282 271.775 30.2841C273.171 32.34 275.97 32.8746 278.026 31.4782L307.806 11.2509L328.033 41.031C329.43 43.0869 332.228 43.6215 334.284 42.2251C336.34 40.8287 336.875 38.0301 335.478 35.9742L312.723 2.47156ZM181.42 696.844L313.42 5.84433L304.58 4.15562L172.58 695.156L181.42 696.844Z" fill="#99582A"/>
<path d="M78.2495 318V314.616L84.292 313.864V284.565L78.1421 284.672V281.369L89.5825 278.898V313.864L95.5981 314.616V318H78.2495ZM111.389 318.564C110.028 318.564 108.632 318.43 107.2 318.161C105.785 317.91 104.514 317.517 103.386 316.979L104.192 312.978C105.284 313.497 106.394 313.873 107.522 314.106C108.668 314.321 109.957 314.428 111.389 314.428C113.931 314.428 115.937 313.461 117.405 311.528C118.891 309.576 119.661 306.443 119.714 302.128L119.607 301.994C118.891 303.194 117.888 304.116 116.599 304.76C115.31 305.405 113.86 305.727 112.249 305.727C109.706 305.727 107.513 305.199 105.669 304.143C103.825 303.086 102.402 301.556 101.399 299.55C100.414 297.545 99.9219 295.119 99.9219 292.272C99.9219 289.551 100.459 287.143 101.533 285.048C102.625 282.954 104.084 281.315 105.911 280.134C107.755 278.934 109.796 278.334 112.034 278.334C114.755 278.334 117.1 278.907 119.07 280.053C121.039 281.181 122.552 282.873 123.608 285.129C124.683 287.367 125.22 290.151 125.22 293.481V300.544C125.22 304.608 124.647 307.974 123.501 310.642C122.355 313.309 120.744 315.297 118.667 316.604C116.608 317.91 114.182 318.564 111.389 318.564ZM112.249 301.564C114.2 301.564 115.82 301.144 117.109 300.302C118.416 299.461 119.356 298.387 119.929 297.08V292.944C119.929 289.488 119.267 286.883 117.942 285.129C116.635 283.374 114.719 282.497 112.195 282.497C110.888 282.497 109.706 282.918 108.65 283.759C107.594 284.583 106.752 285.729 106.125 287.197C105.517 288.665 105.212 290.357 105.212 292.272C105.212 294.152 105.49 295.791 106.045 297.187C106.618 298.566 107.432 299.64 108.489 300.41C109.545 301.18 110.798 301.564 112.249 301.564ZM143.777 318.564C141.145 318.564 138.853 317.955 136.902 316.738C134.95 315.502 133.438 313.793 132.363 311.608C131.289 309.424 130.752 306.9 130.752 304.035V302.907C130.752 300.15 131.271 297.679 132.31 295.495C133.348 293.311 134.843 291.583 136.794 290.312C138.746 289.041 141.073 288.405 143.777 288.405C146.122 288.405 148.172 288.79 149.927 289.56C151.699 290.33 153.185 291.386 154.385 292.729L154.519 299.711H150.383L149.47 294.636C148.861 294.009 148.101 293.508 147.188 293.132C146.274 292.756 145.2 292.568 143.965 292.568C142.389 292.568 141.002 293.033 139.802 293.964C138.621 294.895 137.699 296.14 137.036 297.697C136.374 299.255 136.042 300.992 136.042 302.907V304.035C136.042 306.148 136.347 307.983 136.956 309.541C137.582 311.098 138.468 312.307 139.614 313.166C140.778 314.007 142.157 314.428 143.75 314.428C145.54 314.428 147.026 313.936 148.208 312.951C149.39 311.966 150.115 310.615 150.383 308.896H155.137L155.19 309.057C155.101 310.722 154.609 312.28 153.713 313.73C152.818 315.18 151.538 316.353 149.873 317.248C148.226 318.125 146.194 318.564 143.777 318.564ZM159.326 318V314.616L163.704 313.864V293.105L159.326 292.353V288.942H168.457L168.806 292.729C169.737 291.35 170.937 290.285 172.405 289.533C173.873 288.781 175.574 288.405 177.507 288.405C179.441 288.405 181.097 288.853 182.476 289.748C183.872 290.643 184.919 291.986 185.618 293.776C186.531 292.129 187.739 290.822 189.243 289.855C190.747 288.889 192.502 288.405 194.507 288.405C197.479 288.405 199.824 289.426 201.543 291.467C203.262 293.49 204.121 296.542 204.121 300.625V313.864L208.499 314.616V318H194.426V314.616L198.804 313.864V300.571C198.804 297.706 198.311 295.683 197.327 294.501C196.342 293.302 194.883 292.702 192.949 292.702C191.105 292.702 189.619 293.356 188.491 294.663C187.381 295.952 186.737 297.581 186.558 299.55V313.864L190.935 314.616V318H176.89V314.616L181.267 313.864V300.571C181.267 297.849 180.757 295.862 179.736 294.609C178.734 293.338 177.275 292.702 175.359 292.702C173.748 292.702 172.423 293.033 171.384 293.696C170.346 294.358 169.549 295.289 168.994 296.489V313.864L173.372 314.616V318H159.326Z" fill="#76411F"/>
<path d="M308.25 830V826.616L314.292 825.864V796.565L308.142 796.672V793.369L319.583 790.898V825.864L325.598 826.616V830H308.25ZM342.544 830V826.616L346.921 825.864V820.977H329.358V817.996L346.599 790.898H352.185V816.841H357.583V820.977H352.185V825.864L356.562 826.616V830H342.544ZM334.998 816.841H346.921V798.445L346.76 798.391L346.223 799.814L334.998 816.841ZM374.69 830.564C372.058 830.564 369.766 829.955 367.815 828.738C365.863 827.502 364.351 825.793 363.276 823.608C362.202 821.424 361.665 818.9 361.665 816.035V814.907C361.665 812.15 362.184 809.679 363.223 807.495C364.261 805.311 365.756 803.583 367.708 802.312C369.659 801.041 371.986 800.405 374.69 800.405C377.035 800.405 379.085 800.79 380.84 801.56C382.612 802.33 384.098 803.386 385.298 804.729L385.432 811.711H381.296L380.383 806.636C379.775 806.009 379.014 805.508 378.101 805.132C377.188 804.756 376.113 804.568 374.878 804.568C373.302 804.568 371.915 805.033 370.715 805.964C369.534 806.895 368.612 808.14 367.949 809.697C367.287 811.255 366.956 812.992 366.956 814.907V816.035C366.956 818.148 367.26 819.983 367.869 821.541C368.495 823.098 369.382 824.307 370.527 825.166C371.691 826.007 373.07 826.428 374.663 826.428C376.453 826.428 377.939 825.936 379.121 824.951C380.303 823.966 381.028 822.615 381.296 820.896H386.05L386.104 821.057C386.014 822.722 385.522 824.28 384.626 825.73C383.731 827.18 382.451 828.353 380.786 829.248C379.139 830.125 377.107 830.564 374.69 830.564ZM390.239 830V826.616L394.617 825.864V805.105L390.239 804.353V800.942H399.37L399.719 804.729C400.65 803.35 401.85 802.285 403.318 801.533C404.786 800.781 406.487 800.405 408.42 800.405C410.354 800.405 412.01 800.853 413.389 801.748C414.785 802.643 415.833 803.986 416.531 805.776C417.444 804.129 418.652 802.822 420.156 801.855C421.66 800.889 423.415 800.405 425.42 800.405C428.392 800.405 430.737 801.426 432.456 803.467C434.175 805.49 435.034 808.542 435.034 812.625V825.864L439.412 826.616V830H425.339V826.616L429.717 825.864V812.571C429.717 809.706 429.224 807.683 428.24 806.501C427.255 805.302 425.796 804.702 423.862 804.702C422.018 804.702 420.532 805.356 419.404 806.663C418.294 807.952 417.65 809.581 417.471 811.55V825.864L421.848 826.616V830H407.803V826.616L412.18 825.864V812.571C412.18 809.849 411.67 807.862 410.649 806.609C409.647 805.338 408.188 804.702 406.272 804.702C404.661 804.702 403.336 805.033 402.297 805.696C401.259 806.358 400.462 807.289 399.907 808.489V825.864L404.285 826.616V830H390.239Z" fill="#76411F"/>
<path d="M670.723 783.564C669.362 783.564 667.966 783.43 666.534 783.161C665.119 782.91 663.848 782.517 662.72 781.979L663.526 777.978C664.618 778.497 665.728 778.873 666.856 779.106C668.002 779.321 669.291 779.428 670.723 779.428C673.265 779.428 675.271 778.461 676.739 776.528C678.225 774.576 678.995 771.443 679.048 767.128L678.941 766.994C678.225 768.194 677.222 769.116 675.933 769.76C674.644 770.405 673.194 770.727 671.583 770.727C669.04 770.727 666.847 770.199 665.003 769.143C663.159 768.086 661.736 766.556 660.733 764.55C659.748 762.545 659.256 760.119 659.256 757.272C659.256 754.551 659.793 752.143 660.867 750.048C661.959 747.954 663.418 746.315 665.245 745.134C667.089 743.934 669.13 743.334 671.368 743.334C674.089 743.334 676.434 743.907 678.404 745.053C680.373 746.181 681.886 747.873 682.942 750.129C684.017 752.367 684.554 755.151 684.554 758.481V765.544C684.554 769.608 683.981 772.974 682.835 775.642C681.689 778.309 680.078 780.297 678.001 781.604C675.942 782.91 673.516 783.564 670.723 783.564ZM671.583 766.564C673.534 766.564 675.154 766.144 676.443 765.302C677.75 764.461 678.69 763.387 679.263 762.08V757.944C679.263 754.488 678.601 751.883 677.276 750.129C675.969 748.374 674.053 747.497 671.529 747.497C670.222 747.497 669.04 747.918 667.984 748.759C666.928 749.583 666.086 750.729 665.459 752.197C664.851 753.665 664.546 755.357 664.546 757.272C664.546 759.152 664.824 760.791 665.379 762.187C665.952 763.566 666.766 764.64 667.823 765.41C668.879 766.18 670.132 766.564 671.583 766.564ZM703.111 783.564C700.479 783.564 698.187 782.955 696.236 781.738C694.284 780.502 692.771 778.793 691.697 776.608C690.623 774.424 690.086 771.9 690.086 769.035V767.907C690.086 765.15 690.605 762.679 691.644 760.495C692.682 758.311 694.177 756.583 696.128 755.312C698.08 754.041 700.407 753.405 703.111 753.405C705.456 753.405 707.506 753.79 709.261 754.56C711.033 755.33 712.519 756.386 713.719 757.729L713.853 764.711H709.717L708.804 759.636C708.195 759.009 707.435 758.508 706.521 758.132C705.608 757.756 704.534 757.568 703.299 757.568C701.723 757.568 700.336 758.033 699.136 758.964C697.955 759.895 697.033 761.14 696.37 762.697C695.708 764.255 695.376 765.992 695.376 767.907V769.035C695.376 771.148 695.681 772.983 696.29 774.541C696.916 776.098 697.802 777.307 698.948 778.166C700.112 779.007 701.491 779.428 703.084 779.428C704.874 779.428 706.36 778.936 707.542 777.951C708.724 776.966 709.449 775.615 709.717 773.896H714.471L714.524 774.057C714.435 775.722 713.943 777.28 713.047 778.73C712.152 780.18 710.872 781.353 709.207 782.248C707.56 783.125 705.528 783.564 703.111 783.564ZM718.66 783V779.616L723.038 778.864V758.105L718.66 757.353V753.942H727.791L728.14 757.729C729.071 756.35 730.271 755.285 731.739 754.533C733.207 753.781 734.908 753.405 736.841 753.405C738.775 753.405 740.431 753.853 741.81 754.748C743.206 755.643 744.253 756.986 744.952 758.776C745.865 757.129 747.073 755.822 748.577 754.855C750.081 753.889 751.836 753.405 753.841 753.405C756.813 753.405 759.158 754.426 760.877 756.467C762.596 758.49 763.455 761.542 763.455 765.625V778.864L767.833 779.616V783H753.76V779.616L758.138 778.864V765.571C758.138 762.706 757.645 760.683 756.661 759.501C755.676 758.302 754.217 757.702 752.283 757.702C750.439 757.702 748.953 758.356 747.825 759.663C746.715 760.952 746.071 762.581 745.892 764.55V778.864L750.269 779.616V783H736.224V779.616L740.601 778.864V765.571C740.601 762.849 740.091 760.862 739.07 759.609C738.068 758.338 736.609 757.702 734.693 757.702C733.082 757.702 731.757 758.033 730.718 758.696C729.68 759.358 728.883 760.289 728.328 761.489V778.864L732.706 779.616V783H718.66Z" fill="#76411F"/>
<path d="M524 360.5C521.857 387.5 517 431.057 471.467 431.057C439.5 428 427.185 388.899 434.5 349C441.816 309.101 463.917 289.688 481.398 289.688C520.501 289.688 526.5 329 524 360.5Z" fill="#874B20"/>
<path d="M483.755 282.428C488.681 293.379 489.249 335.307 476.37 357.736C461.417 380.51 461.166 416.114 466.689 433.918" stroke="#FFE6A7" stroke-width="9" stroke-linecap="round"/>
<path d="M405.15 215.42C408.85 215.42 412.557 215.417 416.27 215.41C418.55 215.41 420.46 215.75 422 216.43C423.56 217.12 424.69 218.14 425.39 219.48C426.09 220.82 426.3 222.46 426.02 224.42C425.8 226.02 425.34 227.39 424.63 228.53C423.94 229.68 423.05 230.63 421.95 231.39C420.88 232.14 419.66 232.73 418.29 233.19C417.59 233.537 416.893 233.877 416.2 234.21C412.98 234.217 409.76 234.22 406.54 234.22C406.747 232.62 406.957 231.017 407.17 229.41C409.563 229.41 411.957 229.413 414.35 229.42C415.43 229.41 416.35 229.23 417.11 228.85C417.88 228.47 418.48 227.92 418.93 227.25C419.39 226.56 419.69 225.76 419.82 224.86C419.96 223.9 419.89 223.09 419.63 222.38C419.38 221.68 418.91 221.15 418.24 220.78C417.57 220.42 416.69 220.22 415.6 220.22C413.94 220.22 412.277 220.223 410.61 220.23C409.45 228.57 408.287 236.92 407.12 245.28C405.087 245.28 403.047 245.277 401 245.27C402.38 235.323 403.763 225.373 405.15 215.42ZM417.63 245.27C415.99 240.83 414.35 236.397 412.71 231.97C414.877 231.943 417.04 231.923 419.2 231.91C420.88 236.27 422.56 240.627 424.24 244.98C424.227 245.073 424.213 245.173 424.2 245.28C422.013 245.28 419.823 245.277 417.63 245.27ZM454.5 229.64C454.427 230.12 454.357 230.59 454.29 231.05C453.97 233.33 453.38 235.36 452.5 237.17C451.64 238.98 450.55 240.51 449.25 241.79C447.95 243.04 446.48 244.01 444.83 244.68C443.19 245.35 441.44 245.68 439.55 245.69C437.69 245.69 436.02 245.35 434.56 244.67C433.12 244.01 431.92 243.05 430.96 241.78C430.01 240.51 429.35 238.98 428.98 237.17C428.62 235.37 428.59 233.32 428.91 231.06C428.977 230.593 429.043 230.12 429.11 229.64C429.44 227.36 430.03 225.33 430.9 223.53C431.77 221.72 432.85 220.18 434.15 218.92C435.47 217.65 436.95 216.67 438.58 216C440.23 215.34 442 215 443.87 215C445.76 215 447.42 215.33 448.87 216.01C450.33 216.67 451.53 217.65 452.47 218.91C453.42 220.18 454.08 221.73 454.43 223.54C454.8 225.33 454.82 227.35 454.5 229.64ZM448.1 231.06C448.167 230.58 448.233 230.097 448.3 229.61C448.53 228.02 448.59 226.62 448.47 225.42C448.35 224.21 448.08 223.2 447.63 222.39C447.19 221.56 446.59 220.94 445.85 220.54C445.1 220.12 444.21 219.9 443.17 219.9C442.13 219.91 441.18 220.12 440.31 220.53C439.47 220.95 438.7 221.56 438.03 222.39C437.36 223.2 436.81 224.22 436.35 225.41C435.89 226.63 435.55 228.02 435.33 229.61C435.257 230.09 435.187 230.57 435.12 231.05C434.9 232.64 434.84 234.02 434.96 235.25C435.08 236.45 435.35 237.47 435.79 238.29C436.24 239.11 436.84 239.73 437.57 240.17C438.32 240.58 439.21 240.79 440.25 240.8C441.28 240.79 442.23 240.59 443.1 240.17C443.97 239.73 444.72 239.11 445.39 238.29C446.06 237.47 446.61 236.44 447.07 235.24C447.53 234.02 447.87 232.63 448.1 231.06ZM470.22 232.16C467.673 232.167 465.123 232.17 462.57 232.17C462.757 230.757 462.943 229.347 463.13 227.94C465.277 227.947 467.42 227.947 469.56 227.94C470.7 227.94 471.65 227.8 472.41 227.52C473.18 227.2 473.78 226.77 474.21 226.22C474.67 225.65 474.96 224.95 475.08 224.13C475.21 223.19 475.14 222.45 474.86 221.88C474.61 221.29 474.13 220.88 473.42 220.61C472.74 220.35 471.82 220.22 470.67 220.23C469.257 220.223 467.84 220.22 466.42 220.22C465.22 228.573 464.02 236.923 462.82 245.27C460.773 245.27 458.727 245.273 456.68 245.28C458.107 235.327 459.533 225.373 460.96 215.42C464.427 215.413 467.897 215.413 471.37 215.42C473.11 215.42 474.63 215.57 475.95 215.91C477.28 216.24 478.38 216.73 479.23 217.4C480.1 218.06 480.7 218.92 481.06 219.94C481.42 220.96 481.5 222.16 481.3 223.55C481.12 224.78 480.68 225.92 479.97 226.96C479.27 227.99 478.28 228.85 476.99 229.49C475.73 230.16 474.14 230.51 472.24 230.59C471.567 231.11 470.893 231.633 470.22 232.16ZM468.07 245.27C465.05 245.27 462.03 245.273 459.01 245.28C460.037 243.68 461.063 242.08 462.09 240.48C464.31 240.48 466.533 240.48 468.76 240.48C469.84 240.48 470.74 240.31 471.47 239.96C472.21 239.61 472.78 239.13 473.19 238.53C473.61 237.93 473.87 237.24 473.98 236.46C474.11 235.58 474.07 234.82 473.86 234.17C473.67 233.53 473.28 233.05 472.69 232.7C472.09 232.34 471.28 232.17 470.22 232.16C468.253 232.167 466.283 232.17 464.31 232.17C464.53 230.763 464.747 229.357 464.96 227.95C467.413 227.95 469.87 227.95 472.33 227.95C472.723 228.497 473.113 229.05 473.5 229.61C475.32 229.57 476.74 229.9 477.74 230.57C478.77 231.23 479.46 232.08 479.8 233.13C480.17 234.19 480.26 235.31 480.09 236.51C479.81 238.43 479.17 240.04 478.14 241.35C477.12 242.65 475.77 243.63 474.06 244.29C472.37 244.94 470.37 245.28 468.07 245.27ZM504.24 215.42C506.28 215.413 508.323 215.41 510.37 215.41C509.403 221.983 508.437 228.56 507.47 235.14C507.13 237.44 506.35 239.37 505.14 240.94C503.94 242.52 502.43 243.7 500.59 244.49C498.77 245.28 496.74 245.68 494.53 245.69C492.31 245.69 490.38 245.29 488.77 244.49C487.17 243.69 485.99 242.51 485.24 240.94C484.5 239.37 484.29 237.44 484.63 235.13C485.583 228.563 486.54 221.99 487.5 215.41C489.547 215.417 491.593 215.42 493.64 215.42C492.68 221.993 491.72 228.563 490.76 235.13C490.57 236.47 490.63 237.57 490.92 238.43C491.22 239.26 491.74 239.9 492.48 240.29C493.22 240.69 494.13 240.88 495.23 240.88C496.35 240.88 497.32 240.68 498.16 240.29C499.01 239.9 499.7 239.27 500.23 238.43C500.77 237.57 501.15 236.47 501.35 235.14C502.317 228.56 503.28 221.987 504.24 215.42ZM527.68 237.45C527.76 236.93 527.75 236.45 527.65 236.03C527.56 235.59 527.34 235.19 526.97 234.84C526.6 234.46 526.06 234.11 525.35 233.74C524.64 233.38 523.7 233.02 522.54 232.63C521.26 232.19 520.06 231.71 518.92 231.16C517.8 230.62 516.83 229.98 516.01 229.26C515.2 228.52 514.6 227.66 514.22 226.69C513.84 225.72 513.75 224.59 513.94 223.31C514.12 222.06 514.56 220.93 515.26 219.93C515.95 218.89 516.85 218.02 517.93 217.3C519.03 216.55 520.27 215.99 521.67 215.6C523.08 215.2 524.6 215.01 526.21 215C528.4 215 530.26 215.4 531.79 216.18C533.31 216.99 534.41 218.07 535.12 219.46C535.82 220.84 536.04 222.41 535.78 224.18C533.747 224.18 531.713 224.18 529.68 224.18C529.81 223.31 529.74 222.55 529.47 221.9C529.21 221.23 528.74 220.69 528.06 220.31C527.39 219.92 526.51 219.74 525.4 219.74C524.34 219.74 523.42 219.9 522.66 220.22C521.91 220.54 521.31 220.97 520.87 221.53C520.45 222.05 520.18 222.66 520.08 223.33C520 223.83 520.05 224.29 520.24 224.71C520.44 225.12 520.77 225.49 521.22 225.84C521.67 226.21 522.24 226.53 522.93 226.86C523.62 227.16 524.44 227.47 525.36 227.78C526.9 228.26 528.25 228.83 529.39 229.43C530.54 230.05 531.48 230.75 532.19 231.5C532.9 232.28 533.4 233.15 533.69 234.11C533.96 235.09 534.01 236.18 533.82 237.42C533.63 238.71 533.21 239.87 532.55 240.91C531.89 241.92 531.04 242.8 529.97 243.51C528.91 244.22 527.69 244.75 526.31 245.13C524.94 245.49 523.43 245.68 521.79 245.69C520.33 245.68 518.9 245.49 517.53 245.1C516.16 244.71 514.94 244.12 513.89 243.33C512.85 242.53 512.07 241.51 511.55 240.28C511.04 239.05 510.9 237.6 511.15 235.91C513.203 235.917 515.26 235.92 517.32 235.92C517.18 236.84 517.2 237.63 517.4 238.28C517.58 238.92 517.91 239.44 518.37 239.84C518.84 240.23 519.43 240.52 520.12 240.69C520.83 240.88 521.63 240.97 522.49 240.97C523.56 240.97 524.46 240.81 525.18 240.52C525.93 240.21 526.5 239.8 526.91 239.26C527.32 238.73 527.58 238.13 527.68 237.45ZM554.63 215.42C553.13 225.373 551.633 235.323 550.14 245.27C548.1 245.27 546.06 245.27 544.02 245.27C545.513 235.317 547.007 225.367 548.5 215.42C550.547 215.413 552.59 215.413 554.63 215.42ZM563.81 215.42C563.563 217.02 563.32 218.623 563.08 220.23C554.967 220.223 546.857 220.22 538.75 220.22C538.983 218.62 539.22 217.02 539.46 215.42C547.573 215.42 555.69 215.42 563.81 215.42ZM589.06 229.64C588.987 230.113 588.913 230.587 588.84 231.06C588.5 233.32 587.88 235.37 586.99 237.17C586.1 238.97 585 240.51 583.69 241.78C582.38 243.04 580.9 244.01 579.24 244.68C577.59 245.35 575.83 245.69 573.95 245.68C572.09 245.68 570.42 245.34 568.97 244.68C567.54 244.01 566.35 243.04 565.4 241.79C564.47 240.52 563.82 238.98 563.47 237.17C563.12 235.37 563.12 233.32 563.47 231.05C563.537 230.583 563.607 230.113 563.68 229.64C564.03 227.35 564.64 225.33 565.53 223.53C566.42 221.72 567.52 220.18 568.83 218.91C570.16 217.65 571.65 216.67 573.29 216C574.95 215.33 576.72 215 578.59 215C580.47 215 582.13 215.33 583.58 216C585.03 216.67 586.22 217.65 587.15 218.91C588.09 220.18 588.72 221.72 589.06 223.53C589.41 225.32 589.41 227.35 589.06 229.64ZM582.65 231.06C582.723 230.573 582.797 230.09 582.87 229.61C583.11 228.02 583.19 226.63 583.08 225.42C582.98 224.22 582.71 223.21 582.28 222.38C581.84 221.56 581.25 220.94 580.51 220.54C579.77 220.12 578.88 219.9 577.84 219.9C576.8 219.91 575.85 220.11 574.98 220.53C574.13 220.95 573.35 221.57 572.67 222.38C572 223.2 571.43 224.21 570.96 225.41C570.49 226.62 570.14 228.01 569.89 229.61C569.817 230.09 569.743 230.57 569.67 231.05C569.43 232.63 569.36 234.03 569.46 235.25C569.57 236.45 569.84 237.47 570.27 238.29C570.7 239.11 571.29 239.73 572.03 240.17C572.77 240.59 573.66 240.8 574.69 240.8C575.73 240.79 576.68 240.59 577.55 240.16C578.42 239.73 579.19 239.11 579.86 238.29C580.53 237.47 581.1 236.45 581.58 235.24C582.05 234.03 582.41 232.63 582.65 231.06Z" fill="#874B20"/>
<path d="M352.124 595.75C354.264 595.75 356.404 595.75 358.544 595.75C361.684 595.75 364.334 595.24 366.504 594.21C368.694 593.14 370.404 591.71 371.624 589.91C372.874 588.07 373.634 586.01 373.904 583.72C374.214 581.01 374.034 578.74 373.344 576.9C372.644 575.07 371.454 573.68 369.754 572.74C368.054 571.81 365.814 571.34 363.034 571.34C360.514 571.34 358.224 571.84 356.174 572.84C354.154 573.81 352.484 575.19 351.174 577C349.884 578.8 349.094 580.93 348.794 583.38C345.801 583.38 342.811 583.38 339.824 583.38C340.254 579.8 341.554 576.55 343.704 573.62C345.874 570.68 348.694 568.35 352.154 566.61C355.664 564.87 359.564 564 363.894 564C368.154 564 371.794 564.75 374.814 566.27C377.834 567.75 380.064 569.97 381.504 572.94C382.944 575.87 383.414 579.53 382.904 583.91C382.704 585.68 382.054 587.59 380.984 589.62C379.944 591.61 378.454 593.48 376.494 595.22C374.574 596.96 372.164 598.4 369.274 599.53C366.394 600.62 363.014 601.17 359.154 601.17C356.588 601.17 354.028 601.17 351.474 601.17C351.688 599.363 351.904 597.557 352.124 595.75ZM351.234 603.1C351.454 601.313 351.671 599.527 351.884 597.74C354.438 597.74 356.998 597.74 359.564 597.74C364.074 597.74 367.744 598.27 370.564 599.33C373.384 600.4 375.544 601.81 377.024 603.59C378.534 605.36 379.504 607.31 379.944 609.43C380.414 611.53 380.534 613.62 380.294 615.72C379.914 619.01 379.004 621.92 377.564 624.47C376.164 627.01 374.324 629.17 372.064 630.95C369.844 632.72 367.304 634.06 364.464 634.96C361.624 635.86 358.584 636.31 355.354 636.31C352.254 636.31 349.384 635.88 346.764 635.01C344.154 634.14 341.924 632.88 340.034 631.24C338.164 629.56 336.784 627.51 335.904 625.1C335.034 622.65 334.794 619.86 335.174 616.73C338.181 616.73 341.181 616.73 344.174 616.73C343.884 619.18 344.154 621.33 345.014 623.16C345.894 625 347.284 626.43 349.184 627.47C351.114 628.46 353.454 628.96 356.224 628.96C358.994 628.96 361.424 628.5 363.524 627.56C365.664 626.6 367.384 625.15 368.674 623.21C370.014 621.28 370.844 618.85 371.194 615.91C371.534 612.98 371.204 610.58 370.194 608.71C369.174 606.81 367.594 605.41 365.434 604.5C363.294 603.57 360.714 603.1 357.664 603.1C355.524 603.1 353.381 603.1 351.234 603.1ZM437.944 628C437.684 630.447 437.424 632.897 437.164 635.35C421.618 635.35 406.078 635.35 390.544 635.35C390.784 633.203 391.028 631.06 391.274 628.92C400.001 620.36 408.714 611.803 417.414 603.25C420.614 600.09 423.124 597.41 424.904 595.22C426.734 593 428.064 591.02 428.864 589.28C429.694 587.5 430.224 585.7 430.424 583.86C430.674 581.54 430.414 579.45 429.644 577.58C428.914 575.68 427.694 574.16 425.974 573.03C424.254 571.91 422.084 571.34 419.474 571.34C416.334 571.34 413.654 571.96 411.424 573.18C409.214 574.37 407.484 576.05 406.214 578.21C404.924 580.37 404.134 582.85 403.824 585.65C400.831 585.65 397.838 585.65 394.844 585.65C395.294 581.69 396.574 578.06 398.694 574.78C400.804 571.49 403.684 568.88 407.314 566.94C410.954 564.98 415.274 564 420.274 564C424.734 564 428.454 564.78 431.444 566.36C434.434 567.91 436.624 570.1 438.004 572.94C439.414 575.74 439.914 579.03 439.514 582.8C439.294 584.86 438.714 586.96 437.774 589.08C436.864 591.18 435.684 593.27 434.224 595.37C432.804 597.46 431.164 599.53 429.324 601.56C427.514 603.59 425.604 605.58 423.564 607.55C416.478 614.363 409.381 621.18 402.274 628C414.161 628 426.051 628 437.944 628ZM495.554 594.55C495.208 598.123 494.858 601.7 494.504 605.28C493.944 611.05 492.954 615.91 491.524 619.88C490.084 623.84 488.274 627.03 486.084 629.45C483.884 631.86 481.344 633.62 478.464 634.72C475.614 635.78 472.464 636.31 469.004 636.31C466.274 636.31 463.774 635.97 461.524 635.3C459.284 634.62 457.304 633.54 455.594 632.06C453.934 630.54 452.574 628.58 451.524 626.16C450.474 623.74 449.784 620.81 449.464 617.36C449.154 613.91 449.234 609.89 449.714 605.28C450.088 601.7 450.464 598.123 450.844 594.55C451.444 588.78 452.484 583.94 453.924 580.04C455.394 576.14 457.224 573.02 459.404 570.67C461.594 568.28 464.104 566.57 466.914 565.54C469.764 564.51 472.874 564 476.274 564C479.014 564 481.494 564.33 483.714 565.01C485.974 565.66 487.934 566.7 489.604 568.15C491.264 569.57 492.604 571.47 493.624 573.86C494.684 576.21 495.384 579.09 495.724 582.51C496.064 585.93 496.004 589.94 495.554 594.55ZM485.304 606.73C485.758 602.17 486.211 597.61 486.664 593.05C486.984 589.89 487.064 587.12 486.914 584.73C486.804 582.32 486.464 580.25 485.934 578.55C485.394 576.84 484.624 575.45 483.634 574.39C482.684 573.32 481.514 572.55 480.144 572.07C478.804 571.55 477.264 571.29 475.524 571.29C473.394 571.29 471.464 571.7 469.724 572.5C468.004 573.28 466.484 574.52 465.174 576.23C463.904 577.93 462.824 580.17 461.964 582.94C461.084 585.72 460.444 589.08 460.034 593.05C459.561 597.61 459.088 602.17 458.614 606.73C458.294 609.89 458.184 612.67 458.284 615.09C458.434 617.51 458.784 619.6 459.344 621.37C459.924 623.12 460.684 624.55 461.634 625.68C462.594 626.81 463.754 627.64 465.094 628.19C466.474 628.71 468.034 628.96 469.754 628.96C471.974 628.96 473.944 628.55 475.704 627.71C477.444 626.87 478.964 625.56 480.244 623.79C481.554 621.99 482.634 619.68 483.474 616.88C484.304 614.04 484.914 610.66 485.304 606.73ZM543.234 583.04C545.954 583.04 548.674 583.04 551.394 583.04C549.854 600.107 548.311 617.17 546.764 634.23C546.344 638.84 545.054 642.77 542.864 646.03C540.674 649.28 537.804 651.75 534.244 653.42C530.724 655.13 526.744 655.99 522.324 655.99C520.504 655.99 518.364 655.7 515.934 655.12C513.534 654.57 511.214 653.62 508.964 652.26C506.734 650.94 504.934 649.15 503.554 646.9C505.308 645.127 507.064 643.353 508.824 641.58C510.784 644.22 512.924 646.06 515.244 647.09C517.594 648.12 519.954 648.64 522.344 648.64C525.224 648.64 527.754 648.11 529.944 647.04C532.124 645.98 533.894 644.4 535.234 642.31C536.594 640.24 537.414 637.7 537.694 634.67C538.914 621.297 540.134 607.923 541.354 594.55C541.981 590.71 542.608 586.873 543.234 583.04ZM504.494 609.77C504.528 609.437 504.561 609.1 504.594 608.76C504.984 604.76 505.794 601.14 507.054 597.88C508.344 594.59 509.994 591.77 511.994 589.42C514.024 587.07 516.394 585.26 519.064 584.01C521.744 582.72 524.684 582.07 527.884 582.07C531.194 582.07 534.004 582.65 536.364 583.81C538.744 584.94 540.704 586.6 542.224 588.79C543.774 590.95 544.914 593.56 545.644 596.62C546.364 599.69 546.754 603.15 546.784 607.02C546.651 608.5 546.518 609.983 546.384 611.47C545.684 615.3 544.674 618.75 543.364 621.81C542.074 624.87 540.454 627.48 538.494 629.64C536.574 631.8 534.294 633.46 531.684 634.62C529.074 635.75 526.084 636.31 522.724 636.31C519.564 636.31 516.754 635.65 514.304 634.33C511.884 633.01 509.884 631.16 508.294 628.77C506.684 626.39 505.564 623.58 504.894 620.36C504.254 617.1 504.134 613.58 504.494 609.77ZM513.604 608.76C513.571 609.1 513.541 609.437 513.514 609.77C513.264 612.38 513.294 614.83 513.594 617.12C513.924 619.41 514.564 621.42 515.514 623.16C516.484 624.9 517.804 626.27 519.464 627.27C521.134 628.24 523.194 628.72 525.634 628.72C528.634 628.72 531.164 628.09 533.224 626.84C535.304 625.58 537.004 623.92 538.334 621.86C539.684 619.8 540.804 617.56 541.664 615.14C542.018 611.253 542.371 607.37 542.724 603.49C542.534 601.72 542.134 600.01 541.544 598.37C540.984 596.69 540.184 595.21 539.134 593.92C538.114 592.6 536.804 591.55 535.184 590.78C533.574 590 531.634 589.62 529.364 589.62C526.894 589.62 524.734 590.13 522.854 591.16C521.014 592.16 519.444 593.55 518.134 595.32C516.864 597.06 515.854 599.09 515.074 601.41C514.344 603.7 513.854 606.15 513.604 608.76Z" fill="#FFE6A7"/>
</svg>
