<svg width="770" height="845" viewBox="0 0 770 845" fill="none" xmlns="http://www.w3.org/2000/svg">
<g id="little pack">
<path id="Polygon 13" d="M690.555 11.8623C690.757 10.6521 692.541 10.8004 692.541 12.0275V88L746.408 623.589C746.46 624.105 746.11 624.574 745.601 624.672L667.491 639.58C667.371 639.603 667.257 639.647 667.153 639.711L577.876 694.842C577.145 695.293 576.222 694.673 576.364 693.826L690.555 11.8623Z" fill="#874B20"/>
<path id="Polygon 14" d="M692.5 12L667.521 638.968C667.508 639.301 667.33 639.605 667.047 639.779L577.883 694.837C577.15 695.29 576.227 694.667 576.372 693.819L692.5 12Z" fill="#4C251C" fill-opacity="0.27"/>
<path id="Rectangle 45" d="M324.881 9C324.881 4.02943 328.911 0 333.881 0H683.123C688.423 0 692.576 4.55718 692.084 9.83449L684.728 88.8325L578.484 692.56C577.727 696.862 573.989 700 569.621 700H166.352C160.397 700 156.084 694.32 157.683 688.583L324.551 90.0183C324.77 89.2314 324.881 88.4183 324.881 87.6014V9Z" fill="#99582A"/>
<path id="Rectangle 46" d="M325 65H687L684.765 89H325V65Z" fill="#7C3C15" fill-opacity="0.15"/>
<path id="Rectangle 47" d="M385.851 189.001C386.763 185.469 389.949 183 393.598 183H562.201C567.263 183 571.052 187.641 570.04 192.601L512.049 476.6C511.289 480.325 508.012 483 504.211 483H320.326C315.097 483 311.273 478.065 312.58 473.001L385.851 189.001Z" fill="#FFE6A7"/>
<path id="Ellipse 11" d="M468.116 365.462C457.881 403.764 434.761 415.219 413.148 407.93C386.861 399.065 389.72 371.547 397.151 342.553C407.426 302.46 431.923 291.006 448.062 296.157C470.245 296.157 479.498 322.865 468.116 365.462Z" fill="#874B20"/>
<path id="Vector 2" d="M462 289C453.149 295.795 432.576 318.965 432.576 350.357C432.576 381.749 418.582 399.675 401 411" stroke="#FFE6A7" stroke-width="9"/>
<path id="ROBUSTO" d="M394.893 238.274C397.682 238.296 400.472 238.314 403.261 238.329C404.926 238.34 406.269 238.658 407.28 239.293C408.31 239.917 408.963 240.837 409.239 242.064C409.506 243.28 409.368 244.792 408.798 246.578C408.319 248.078 407.722 249.338 406.995 250.39C406.278 251.441 405.441 252.296 404.512 252.975C403.583 253.665 402.581 254.213 401.505 254.629C400.849 254.987 400.199 255.349 399.555 255.714C397.146 255.699 394.736 255.681 392.327 255.659C392.83 254.074 393.333 252.493 393.835 250.916C395.619 250.938 397.406 250.952 399.197 250.959C399.932 250.97 400.595 250.806 401.174 250.488C401.762 250.171 402.268 249.722 402.7 249.13C403.151 248.528 403.491 247.848 403.749 247.049C404.016 246.216 404.117 245.504 404.052 244.913C403.997 244.31 403.776 243.861 403.381 243.543C403.004 243.215 402.452 243.061 401.735 243.05C400.57 243.043 399.402 243.036 398.231 243.028C395.797 250.521 393.372 258.029 390.957 265.551C389.301 265.544 387.649 265.536 386 265.529C388.931 256.4 391.895 247.315 394.893 238.274ZM398.268 265.573C397.894 261.527 397.526 257.477 397.164 253.424C398.905 253.432 400.644 253.435 402.379 253.435C402.802 257.393 403.228 261.348 403.657 265.299C403.626 265.394 403.596 265.489 403.565 265.584C401.799 265.584 400.034 265.58 398.268 265.573ZM428.919 251.431C428.796 251.832 428.674 252.234 428.551 252.635C427.926 254.706 427.135 256.557 426.16 258.2C425.213 259.833 424.137 261.246 422.923 262.396C421.728 263.557 420.459 264.444 419.107 265.058C417.755 265.671 416.385 265.978 414.968 265.978C413.561 265.978 412.366 265.671 411.391 265.058C410.425 264.423 409.68 263.535 409.184 262.374C408.706 261.213 408.494 259.8 408.54 258.157C408.595 256.513 408.945 254.662 409.598 252.592C409.726 252.183 409.855 251.777 409.984 251.376C410.637 249.305 411.446 247.454 412.421 245.811C413.405 244.157 414.49 242.755 415.686 241.593C416.872 240.443 418.15 239.567 419.484 238.953C420.817 238.351 422.169 238.033 423.558 238.044C424.937 238.044 426.105 238.373 427.071 238.986C428.027 239.6 428.754 240.487 429.232 241.648C429.719 242.798 429.949 244.211 429.903 245.855C429.876 247.509 429.544 249.36 428.919 251.431ZM423.585 252.625C423.714 252.216 423.843 251.799 423.971 251.376C424.395 249.995 424.661 248.769 424.79 247.717C424.919 246.643 424.9 245.745 424.735 245.022C424.578 244.31 424.275 243.773 423.824 243.412C423.374 243.017 422.804 242.831 422.095 242.831C421.341 242.831 420.652 243.017 419.98 243.39C419.327 243.751 418.693 244.288 418.086 245C417.488 245.723 416.927 246.621 416.394 247.684C415.87 248.747 415.391 249.974 414.959 251.354C414.83 251.77 414.702 252.186 414.573 252.603C414.141 253.972 413.856 255.199 413.718 256.272C413.589 257.335 413.607 258.222 413.754 258.956C413.911 259.69 414.205 260.249 414.656 260.621C415.106 260.994 415.704 261.191 416.449 261.191C417.166 261.191 417.865 261.005 418.527 260.632C419.217 260.26 419.861 259.701 420.468 258.978C421.075 258.244 421.645 257.346 422.169 256.283C422.684 255.221 423.171 253.994 423.585 252.625ZM440.001 253.895C438.118 253.888 436.233 253.884 434.345 253.884C434.743 252.526 435.139 251.168 435.531 249.809C437.088 249.817 438.646 249.82 440.203 249.82C441.021 249.82 441.73 249.711 442.318 249.459C442.907 249.207 443.403 248.845 443.78 248.374C444.167 247.892 444.461 247.301 444.663 246.589C444.902 245.789 444.967 245.132 444.875 244.628C444.774 244.135 444.488 243.773 444.038 243.543C443.596 243.302 442.971 243.193 442.162 243.193C441.205 243.193 440.252 243.193 439.302 243.193C437.088 250.664 434.857 258.138 432.607 265.617C430.951 265.617 429.299 265.617 427.65 265.617C430.391 256.554 433.113 247.498 435.816 238.449C438.385 238.457 440.957 238.464 443.532 238.471C444.838 238.482 445.96 238.636 446.907 238.931C447.845 239.238 448.59 239.698 449.142 240.323C449.694 240.947 450.025 241.714 450.144 242.645C450.264 243.587 450.135 244.683 449.767 245.942C449.454 247.049 448.958 248.078 448.277 249.042C447.606 249.985 446.751 250.762 445.702 251.354C444.636 251.956 443.376 252.274 441.877 252.329C441.257 252.847 440.632 253.369 440.001 253.895ZM436.304 265.628C434.054 265.62 431.801 265.617 429.544 265.617C430.617 264.046 431.69 262.48 432.763 260.917C434.418 260.917 436.068 260.917 437.711 260.917C438.483 260.917 439.136 260.764 439.706 260.468C440.267 260.172 440.746 259.767 441.123 259.263C441.49 258.748 441.766 258.178 441.959 257.554C442.18 256.798 442.263 256.152 442.217 255.604C442.18 255.067 441.978 254.64 441.619 254.344C441.279 254.038 440.736 253.895 440.001 253.895C438.535 253.888 437.064 253.884 435.586 253.884C436.003 252.526 436.42 251.171 436.837 249.82C438.633 249.82 440.43 249.824 442.226 249.831C442.453 250.357 442.68 250.89 442.907 251.431C444.314 251.398 445.362 251.672 446.015 252.274C446.705 252.855 447.091 253.632 447.183 254.585C447.275 255.549 447.165 256.546 446.852 257.62C446.337 259.383 445.583 260.873 444.608 262.056C443.633 263.239 442.447 264.127 441.058 264.718C439.67 265.321 438.088 265.628 436.304 265.628ZM467.544 238.515C469.187 238.515 470.836 238.511 472.491 238.504C470.922 244.434 469.334 250.368 467.727 256.305C467.148 258.419 466.274 260.194 465.125 261.64C463.985 263.075 462.642 264.171 461.115 264.905C459.57 265.628 457.933 266 456.204 266C454.476 266 453.059 265.628 451.956 264.905C450.88 264.171 450.181 263.075 449.85 261.64C449.546 260.194 449.703 258.419 450.319 256.305C452.029 250.368 453.715 244.434 455.377 238.504C457.02 238.511 458.66 238.515 460.297 238.515C458.66 244.438 457.002 250.368 455.322 256.305C454.981 257.477 454.843 258.43 454.917 259.175C455 259.909 455.266 260.446 455.726 260.797C456.177 261.136 456.802 261.301 457.584 261.301C458.366 261.301 459.074 261.136 459.727 260.797C460.38 260.446 460.95 259.909 461.446 259.175C461.943 258.43 462.357 257.477 462.688 256.305C464.331 250.368 465.949 244.438 467.544 238.515ZM482.552 258.452C482.662 257.992 482.699 257.587 482.69 257.225C482.662 256.853 482.543 256.513 482.322 256.196C482.092 255.889 481.752 255.582 481.283 255.265C480.814 254.947 480.179 254.618 479.379 254.279C478.46 253.884 477.604 253.446 476.823 252.942C476.05 252.438 475.388 251.847 474.864 251.179C474.321 250.51 473.972 249.733 473.788 248.834C473.631 247.947 473.705 246.895 474.018 245.712C474.321 244.551 474.799 243.51 475.471 242.568C476.124 241.648 476.915 240.848 477.834 240.191C478.763 239.512 479.775 239.008 480.878 238.658C481.991 238.296 483.15 238.11 484.373 238.11C486 238.099 487.334 238.46 488.401 239.15C489.467 239.852 490.194 240.827 490.58 242.097C490.966 243.357 490.966 244.803 490.562 246.479C488.894 246.479 487.23 246.483 485.568 246.49C485.752 245.756 485.78 245.11 485.669 244.54C485.559 243.981 485.302 243.532 484.869 243.204C484.446 242.886 483.858 242.733 483.104 242.733C482.368 242.733 481.715 242.864 481.145 243.138C480.584 243.401 480.133 243.762 479.747 244.233C479.388 244.683 479.131 245.186 478.993 245.734C478.883 246.172 478.873 246.567 478.965 246.917C479.076 247.268 479.26 247.596 479.545 247.914C479.839 248.21 480.207 248.495 480.685 248.769C481.145 249.042 481.697 249.305 482.322 249.546C483.407 250.006 484.345 250.51 485.136 251.069C485.936 251.628 486.571 252.263 487.03 252.975C487.499 253.676 487.785 254.476 487.886 255.374C488.005 256.261 487.913 257.28 487.637 258.419C487.343 259.614 486.874 260.687 486.249 261.629C485.623 262.56 484.86 263.349 483.941 264.017C483.048 264.664 482.037 265.157 480.915 265.496C479.802 265.825 478.607 266 477.328 266C476.17 266 475.075 265.825 474.036 265.474C473.006 265.113 472.142 264.576 471.434 263.831C470.725 263.097 470.256 262.166 470.027 261.038C469.806 259.887 469.916 258.54 470.339 256.984C472.025 256.977 473.714 256.973 475.406 256.973C475.195 257.795 475.103 258.496 475.149 259.055C475.204 259.614 475.37 260.074 475.627 260.424C475.921 260.775 476.308 261.016 476.804 261.169C477.292 261.311 477.871 261.388 478.533 261.388C479.296 261.388 479.94 261.257 480.483 261.005C481.025 260.742 481.476 260.402 481.816 259.953C482.166 259.504 482.414 259 482.552 258.452ZM505.791 238.417C503.743 247.48 501.683 256.546 499.611 265.617C497.894 265.617 496.178 265.617 494.461 265.617C496.595 256.554 498.716 247.494 500.825 238.438C502.48 238.431 504.136 238.424 505.791 238.417ZM512.55 238.406C512.207 239.976 511.864 241.553 511.52 243.138C505.371 243.153 499.219 243.167 493.063 243.182C493.443 241.597 493.823 240.02 494.204 238.449C500.322 238.435 506.438 238.42 512.55 238.406ZM530.575 251.376C530.495 251.777 530.419 252.183 530.345 252.592C529.95 254.662 529.361 256.524 528.57 258.168C527.798 259.811 526.86 261.224 525.765 262.385C524.671 263.546 523.457 264.434 522.124 265.058C520.808 265.671 519.401 265.978 517.939 265.978C516.477 265.978 515.199 265.671 514.123 265.058C513.038 264.434 512.173 263.557 511.529 262.396C510.895 261.235 510.518 259.822 510.389 258.189C510.269 256.546 510.426 254.684 510.867 252.625C510.953 252.216 511.039 251.81 511.125 251.409C511.575 249.338 512.219 247.476 513.038 245.833C513.865 244.179 514.831 242.765 515.916 241.604C517.029 240.443 518.224 239.556 519.539 238.942C520.836 238.329 522.188 238 523.604 238C525.02 237.989 526.243 238.307 527.292 238.92C528.331 239.523 529.159 240.41 529.775 241.571C530.409 242.733 530.796 244.135 530.934 245.789C531.09 247.443 530.97 249.305 530.575 251.376ZM525.259 252.603C525.339 252.186 525.422 251.766 525.508 251.343C525.774 249.963 525.912 248.736 525.912 247.673C525.931 246.6 525.811 245.701 525.554 244.978C525.315 244.255 524.938 243.729 524.45 243.368C523.954 242.985 523.337 242.798 522.62 242.798C521.857 242.798 521.158 242.996 520.514 243.379C519.88 243.74 519.291 244.277 518.748 245C518.224 245.723 517.746 246.621 517.314 247.684C516.9 248.747 516.541 249.974 516.256 251.354C516.17 251.777 516.085 252.197 515.999 252.614C515.714 253.983 515.557 255.21 515.53 256.272C515.521 257.335 515.64 258.233 515.879 258.967C516.128 259.701 516.495 260.26 517.001 260.632C517.507 260.994 518.151 261.18 518.923 261.18C519.668 261.18 520.367 260.994 521.011 260.621C521.673 260.249 522.271 259.69 522.813 258.956C523.347 258.222 523.825 257.324 524.229 256.261C524.643 255.188 524.993 253.961 525.259 252.603Z" fill="#874B20"/>
<path id="Arrow 1" d="M578.828 751.828C580.39 750.266 580.39 747.734 578.828 746.172L553.373 720.716C551.81 719.154 549.278 719.154 547.716 720.716C546.154 722.278 546.154 724.81 547.716 726.373L570.343 749L547.716 771.627C546.154 773.19 546.154 775.722 547.716 777.284C549.278 778.846 551.81 778.846 553.373 777.284L578.828 751.828ZM158 753H576V745H158V753Z" fill="#99582A"/>
<path id="Arrow 3" d="M766.786 668.292C767.499 666.202 766.383 663.928 764.292 663.214L730.223 651.584C728.132 650.871 725.859 651.987 725.145 654.078C724.431 656.168 725.547 658.442 727.638 659.155L757.922 669.493L747.584 699.777C746.871 701.868 747.987 704.141 750.078 704.855C752.168 705.569 754.442 704.453 755.155 702.362L766.786 668.292ZM597.763 752.591L764.763 670.591L761.237 663.409L594.237 745.409L597.763 752.591Z" fill="#99582A"/>
<path id="Arrow 2" d="M261.839 8.65163C260.542 6.5316 257.772 5.86437 255.652 7.16133L221.104 28.2965C218.984 29.5935 218.317 32.3635 219.613 34.4835C220.91 36.6035 223.68 37.2708 225.8 35.9738L256.51 17.187L275.297 47.8962C276.593 50.0162 279.363 50.6835 281.484 49.3865C283.604 48.0895 284.271 45.3195 282.974 43.1995L261.839 8.65163ZM97.3749 697.054L262.375 12.0538L253.625 9.94618L88.6251 694.946L97.3749 697.054Z" fill="#99582A"/>
<path id="19cm" d="M3.24951 318V314.616L9.29199 313.864V284.565L3.14209 284.672V281.369L14.5825 278.898V313.864L20.5981 314.616V318H3.24951ZM36.3892 318.564C35.0285 318.564 33.632 318.43 32.1997 318.161C30.7853 317.91 29.5142 317.517 28.3862 316.979L29.1919 312.978C30.284 313.497 31.394 313.873 32.522 314.106C33.6678 314.321 34.9569 314.428 36.3892 314.428C38.9315 314.428 40.9367 313.461 42.4048 311.528C43.8908 309.576 44.6606 306.443 44.7144 302.128L44.6069 301.994C43.8908 303.194 42.8882 304.116 41.5991 304.76C40.3101 305.405 38.8599 305.727 37.2485 305.727C34.7062 305.727 32.513 305.199 30.6689 304.143C28.8249 303.086 27.4015 301.556 26.3989 299.55C25.4142 297.545 24.9219 295.119 24.9219 292.272C24.9219 289.551 25.459 287.143 26.5332 285.048C27.6253 282.954 29.0845 281.315 30.9106 280.134C32.7547 278.934 34.7957 278.334 37.0337 278.334C39.755 278.334 42.1004 278.907 44.0698 280.053C46.0392 281.181 47.5521 282.873 48.6084 285.129C49.6826 287.367 50.2197 290.151 50.2197 293.481V300.544C50.2197 304.608 49.6468 307.974 48.501 310.642C47.3551 313.309 45.7438 315.297 43.667 316.604C41.6081 317.91 39.1821 318.564 36.3892 318.564ZM37.2485 301.564C39.2 301.564 40.8203 301.144 42.1094 300.302C43.4163 299.461 44.3563 298.387 44.9292 297.08V292.944C44.9292 289.488 44.2668 286.883 42.9419 285.129C41.6349 283.374 39.7192 282.497 37.1948 282.497C35.8879 282.497 34.7062 282.918 33.6499 283.759C32.5936 284.583 31.7521 285.729 31.1255 287.197C30.5168 288.665 30.2124 290.357 30.2124 292.272C30.2124 294.152 30.4899 295.791 31.0449 297.187C31.6178 298.566 32.4325 299.64 33.4888 300.41C34.5451 301.18 35.7983 301.564 37.2485 301.564ZM68.7769 318.564C66.145 318.564 63.8534 317.955 61.9019 316.738C59.9504 315.502 58.4375 313.793 57.3633 311.608C56.2891 309.424 55.752 306.9 55.752 304.035V302.907C55.752 300.15 56.2712 297.679 57.3096 295.495C58.348 293.311 59.8429 291.583 61.7944 290.312C63.7459 289.041 66.0734 288.405 68.7769 288.405C71.1222 288.405 73.1722 288.79 74.9268 289.56C76.6992 290.33 78.1852 291.386 79.3848 292.729L79.519 299.711H75.3833L74.4702 294.636C73.8615 294.009 73.1006 293.508 72.1875 293.132C71.2744 292.756 70.2002 292.568 68.9648 292.568C67.3893 292.568 66.0018 293.033 64.8022 293.964C63.6206 294.895 62.6986 296.14 62.0361 297.697C61.3737 299.255 61.0425 300.992 61.0425 302.907V304.035C61.0425 306.148 61.3468 307.983 61.9556 309.541C62.5822 311.098 63.4684 312.307 64.6143 313.166C65.778 314.007 67.1566 314.428 68.75 314.428C70.5404 314.428 72.0264 313.936 73.208 312.951C74.3896 311.966 75.1147 310.615 75.3833 308.896H80.1367L80.1904 309.057C80.1009 310.722 79.6086 312.28 78.7134 313.73C77.8182 315.18 76.5381 316.353 74.873 317.248C73.2259 318.125 71.1938 318.564 68.7769 318.564ZM84.3262 318V314.616L88.7036 313.864V293.105L84.3262 292.353V288.942H93.457L93.8062 292.729C94.7371 291.35 95.9367 290.285 97.4048 289.533C98.8729 288.781 100.574 288.405 102.507 288.405C104.441 288.405 106.097 288.853 107.476 289.748C108.872 290.643 109.919 291.986 110.618 293.776C111.531 292.129 112.739 290.822 114.243 289.855C115.747 288.889 117.502 288.405 119.507 288.405C122.479 288.405 124.824 289.426 126.543 291.467C128.262 293.49 129.121 296.542 129.121 300.625V313.864L133.499 314.616V318H119.426V314.616L123.804 313.864V300.571C123.804 297.706 123.311 295.683 122.327 294.501C121.342 293.302 119.883 292.702 117.949 292.702C116.105 292.702 114.619 293.356 113.491 294.663C112.381 295.952 111.737 297.581 111.558 299.55V313.864L115.935 314.616V318H101.89V314.616L106.267 313.864V300.571C106.267 297.849 105.757 295.862 104.736 294.609C103.734 293.338 102.275 292.702 100.359 292.702C98.7476 292.702 97.4227 293.033 96.3843 293.696C95.3459 294.358 94.5492 295.289 93.9941 296.489V313.864L98.3716 314.616V318H84.3262Z" fill="#76411F"/>
<path id="14cm" d="M308.25 830V826.616L314.292 825.864V796.565L308.142 796.672V793.369L319.583 790.898V825.864L325.598 826.616V830H308.25ZM342.544 830V826.616L346.921 825.864V820.977H329.358V817.996L346.599 790.898H352.185V816.841H357.583V820.977H352.185V825.864L356.562 826.616V830H342.544ZM334.998 816.841H346.921V798.445L346.76 798.391L346.223 799.814L334.998 816.841ZM374.69 830.564C372.058 830.564 369.766 829.955 367.815 828.738C365.863 827.502 364.351 825.793 363.276 823.608C362.202 821.424 361.665 818.9 361.665 816.035V814.907C361.665 812.15 362.184 809.679 363.223 807.495C364.261 805.311 365.756 803.583 367.708 802.312C369.659 801.041 371.986 800.405 374.69 800.405C377.035 800.405 379.085 800.79 380.84 801.56C382.612 802.33 384.098 803.386 385.298 804.729L385.432 811.711H381.296L380.383 806.636C379.775 806.009 379.014 805.508 378.101 805.132C377.188 804.756 376.113 804.568 374.878 804.568C373.302 804.568 371.915 805.033 370.715 805.964C369.534 806.895 368.612 808.14 367.949 809.697C367.287 811.255 366.956 812.992 366.956 814.907V816.035C366.956 818.148 367.26 819.983 367.869 821.541C368.495 823.098 369.382 824.307 370.527 825.166C371.691 826.007 373.07 826.428 374.663 826.428C376.453 826.428 377.939 825.936 379.121 824.951C380.303 823.966 381.028 822.615 381.296 820.896H386.05L386.104 821.057C386.014 822.722 385.522 824.28 384.626 825.73C383.731 827.18 382.451 828.353 380.786 829.248C379.139 830.125 377.107 830.564 374.69 830.564ZM390.239 830V826.616L394.617 825.864V805.105L390.239 804.353V800.942H399.37L399.719 804.729C400.65 803.35 401.85 802.285 403.318 801.533C404.786 800.781 406.487 800.405 408.42 800.405C410.354 800.405 412.01 800.853 413.389 801.748C414.785 802.643 415.833 803.986 416.531 805.776C417.444 804.129 418.652 802.822 420.156 801.855C421.66 800.889 423.415 800.405 425.42 800.405C428.392 800.405 430.737 801.426 432.456 803.467C434.175 805.49 435.034 808.542 435.034 812.625V825.864L439.412 826.616V830H425.339V826.616L429.717 825.864V812.571C429.717 809.706 429.224 807.683 428.24 806.501C427.255 805.302 425.796 804.702 423.862 804.702C422.018 804.702 420.532 805.356 419.404 806.663C418.294 807.952 417.65 809.581 417.471 811.55V825.864L421.848 826.616V830H407.803V826.616L412.18 825.864V812.571C412.18 809.849 411.67 807.862 410.649 806.609C409.647 805.338 408.188 804.702 406.272 804.702C404.661 804.702 403.336 805.033 402.297 805.696C401.259 806.358 400.462 807.289 399.907 808.489V825.864L404.285 826.616V830H390.239Z" fill="#76411F"/>
<path id="9cm" d="M670.723 783.564C669.362 783.564 667.966 783.43 666.534 783.161C665.119 782.91 663.848 782.517 662.72 781.979L663.526 777.978C664.618 778.497 665.728 778.873 666.856 779.106C668.002 779.321 669.291 779.428 670.723 779.428C673.265 779.428 675.271 778.461 676.739 776.528C678.225 774.576 678.995 771.443 679.048 767.128L678.941 766.994C678.225 768.194 677.222 769.116 675.933 769.76C674.644 770.405 673.194 770.727 671.583 770.727C669.04 770.727 666.847 770.199 665.003 769.143C663.159 768.086 661.736 766.556 660.733 764.55C659.748 762.545 659.256 760.119 659.256 757.272C659.256 754.551 659.793 752.143 660.867 750.048C661.959 747.954 663.418 746.315 665.245 745.134C667.089 743.934 669.13 743.334 671.368 743.334C674.089 743.334 676.434 743.907 678.404 745.053C680.373 746.181 681.886 747.873 682.942 750.129C684.017 752.367 684.554 755.151 684.554 758.481V765.544C684.554 769.608 683.981 772.974 682.835 775.642C681.689 778.309 680.078 780.297 678.001 781.604C675.942 782.91 673.516 783.564 670.723 783.564ZM671.583 766.564C673.534 766.564 675.154 766.144 676.443 765.302C677.75 764.461 678.69 763.387 679.263 762.08V757.944C679.263 754.488 678.601 751.883 677.276 750.129C675.969 748.374 674.053 747.497 671.529 747.497C670.222 747.497 669.04 747.918 667.984 748.759C666.928 749.583 666.086 750.729 665.459 752.197C664.851 753.665 664.546 755.357 664.546 757.272C664.546 759.152 664.824 760.791 665.379 762.187C665.952 763.566 666.766 764.64 667.823 765.41C668.879 766.18 670.132 766.564 671.583 766.564ZM703.111 783.564C700.479 783.564 698.187 782.955 696.236 781.738C694.284 780.502 692.771 778.793 691.697 776.608C690.623 774.424 690.086 771.9 690.086 769.035V767.907C690.086 765.15 690.605 762.679 691.644 760.495C692.682 758.311 694.177 756.583 696.128 755.312C698.08 754.041 700.407 753.405 703.111 753.405C705.456 753.405 707.506 753.79 709.261 754.56C711.033 755.33 712.519 756.386 713.719 757.729L713.853 764.711H709.717L708.804 759.636C708.195 759.009 707.435 758.508 706.521 758.132C705.608 757.756 704.534 757.568 703.299 757.568C701.723 757.568 700.336 758.033 699.136 758.964C697.955 759.895 697.033 761.14 696.37 762.697C695.708 764.255 695.376 765.992 695.376 767.907V769.035C695.376 771.148 695.681 772.983 696.29 774.541C696.916 776.098 697.802 777.307 698.948 778.166C700.112 779.007 701.491 779.428 703.084 779.428C704.874 779.428 706.36 778.936 707.542 777.951C708.724 776.966 709.449 775.615 709.717 773.896H714.471L714.524 774.057C714.435 775.722 713.943 777.28 713.047 778.73C712.152 780.18 710.872 781.353 709.207 782.248C707.56 783.125 705.528 783.564 703.111 783.564ZM718.66 783V779.616L723.038 778.864V758.105L718.66 757.353V753.942H727.791L728.14 757.729C729.071 756.35 730.271 755.285 731.739 754.533C733.207 753.781 734.908 753.405 736.841 753.405C738.775 753.405 740.431 753.853 741.81 754.748C743.206 755.643 744.253 756.986 744.952 758.776C745.865 757.129 747.073 755.822 748.577 754.855C750.081 753.889 751.836 753.405 753.841 753.405C756.813 753.405 759.158 754.426 760.877 756.467C762.596 758.49 763.455 761.542 763.455 765.625V778.864L767.833 779.616V783H753.76V779.616L758.138 778.864V765.571C758.138 762.706 757.645 760.683 756.661 759.501C755.676 758.302 754.217 757.702 752.283 757.702C750.439 757.702 748.953 758.356 747.825 759.663C746.715 760.952 746.071 762.581 745.892 764.55V778.864L750.269 779.616V783H736.224V779.616L740.601 778.864V765.571C740.601 762.849 740.091 760.862 739.07 759.609C738.068 758.338 736.609 757.702 734.693 757.702C733.082 757.702 731.757 758.033 730.718 758.696C729.68 759.358 728.883 760.289 728.328 761.489V778.864L732.706 779.616V783H718.66Z" fill="#76411F"/>
<path id="320g" d="M315.262 569.929C317.331 569.927 319.401 569.926 321.47 569.925C324.519 569.933 327.172 569.406 329.41 568.382C331.703 567.312 333.554 565.883 334.99 564.068C336.472 562.234 337.511 560.161 338.1 557.867C338.798 555.158 338.944 552.883 338.547 551.041C338.141 549.199 337.182 547.818 335.671 546.87C334.159 545.94 332.068 545.471 329.378 545.473C326.946 545.474 324.653 545.973 322.517 546.969C320.417 547.938 318.603 549.33 317.075 551.136C315.565 552.942 314.489 555.071 313.845 557.531C310.959 557.526 308.064 557.525 305.159 557.526C306.106 553.943 307.835 550.681 310.358 547.75C312.871 544.81 315.946 542.469 319.556 540.726C323.184 538.982 327.09 538.105 331.281 538.103C335.398 538.1 338.807 538.863 341.507 540.381C344.225 541.872 346.06 544.091 347.019 547.075C347.979 550.013 347.907 553.67 346.777 558.064C346.327 559.852 345.425 561.75 344.09 563.786C342.802 565.777 341.081 567.657 338.935 569.408C336.827 571.141 334.285 572.58 331.32 573.715C328.373 574.803 325.029 575.349 321.289 575.342C318.808 575.343 316.327 575.341 313.846 575.337C314.318 573.531 314.79 571.728 315.262 569.929ZM313.341 577.271C313.806 575.484 314.275 573.697 314.747 571.909C317.222 571.908 319.7 571.91 322.181 571.914C326.547 571.912 330.011 572.453 332.6 573.511C335.18 574.578 337.051 576.005 338.24 577.782C339.438 579.559 340.103 581.512 340.205 583.649C340.363 585.749 340.171 587.849 339.629 589.95C338.783 593.239 337.486 596.16 335.719 598.712C333.998 601.256 331.908 603.422 329.468 605.192C327.055 606.971 324.403 608.308 321.511 609.203C318.629 610.108 315.626 610.551 312.503 610.544C309.509 610.537 306.801 610.096 304.378 609.222C301.992 608.348 300.001 607.088 298.416 605.44C296.84 603.755 295.807 601.711 295.308 599.288C294.818 596.838 294.983 594.038 295.81 590.905C298.721 590.91 301.628 590.914 304.533 590.919C303.89 593.379 303.845 595.525 304.408 597.358C304.999 599.2 306.142 600.636 307.809 601.676C309.542 602.679 311.734 603.175 314.415 603.183C317.096 603.191 319.518 602.729 321.682 601.797C323.892 600.819 325.761 599.372 327.308 597.446C328.873 595.511 330.05 593.069 330.804 590.13C331.567 587.191 331.584 584.787 330.883 582.908C330.172 581.011 328.836 579.593 326.873 578.701C324.957 577.753 322.516 577.285 319.559 577.277C317.489 577.278 315.416 577.276 313.341 577.271ZM393.662 602.354C393.055 604.811 392.449 607.271 391.842 609.734C376.796 609.706 361.751 609.677 346.705 609.649C347.251 607.493 347.796 605.341 348.341 603.191C358.033 594.625 367.709 586.056 377.371 577.483C380.924 574.312 383.732 571.63 385.794 569.428C387.884 567.197 389.449 565.207 390.471 563.465C391.547 561.687 392.311 559.871 392.77 558.029C393.349 555.707 393.403 553.588 392.923 551.719C392.498 549.803 391.54 548.284 390.037 547.161C388.535 546.029 386.518 545.459 383.984 545.46C380.963 545.462 378.264 546.071 375.925 547.307C373.632 548.497 371.708 550.183 370.162 552.349C368.606 554.515 367.475 557.012 366.767 559.812C363.875 559.814 360.979 559.813 358.081 559.808C359.092 555.837 360.858 552.207 363.38 548.908C365.902 545.609 369.069 542.991 372.873 541.054C376.667 539.071 380.986 538.093 385.832 538.09C390.134 538.087 393.625 538.877 396.288 540.46C398.96 542.016 400.767 544.216 401.681 547.062C402.65 549.871 402.652 553.169 401.714 556.964C401.209 559.028 400.344 561.129 399.129 563.276C397.942 565.377 396.506 567.478 394.785 569.579C393.11 571.68 391.223 573.754 389.151 575.791C387.098 577.819 384.962 579.828 382.697 581.8C374.853 588.634 366.996 595.464 359.127 602.291C370.636 602.309 382.147 602.33 393.662 602.354ZM454.254 568.789C453.403 572.382 452.548 575.979 451.691 579.578C450.312 585.382 448.648 590.274 446.697 594.264C444.737 598.254 442.519 601.451 440.052 603.884C437.566 606.309 434.859 608.07 431.912 609.167C429.002 610.228 425.87 610.764 422.536 610.757C419.873 610.749 417.515 610.41 415.433 609.72C413.36 609.031 411.6 607.945 410.162 606.453C408.77 604.934 407.737 602.954 407.073 600.523C406.408 598.091 406.167 595.153 406.358 591.68C406.54 588.216 407.211 584.172 408.341 579.538C409.223 575.945 410.105 572.355 410.988 568.768C412.412 562.973 414.104 558.118 416.064 554.193C418.061 550.277 420.279 547.134 422.728 544.775C425.186 542.378 427.856 540.663 430.739 539.63C433.64 538.587 436.735 538.07 440.005 538.068C442.667 538.066 445.016 538.406 447.071 539.086C449.162 539.739 450.904 540.788 452.305 542.243C453.706 543.67 454.739 545.585 455.376 547.98C456.059 550.338 456.327 553.239 456.163 556.675C456 560.111 455.366 564.146 454.254 568.789ZM442.581 581.029C443.678 576.447 444.774 571.862 445.871 567.274C446.634 564.096 447.12 561.314 447.312 558.919C447.551 556.487 447.531 554.405 447.254 552.692C446.985 550.969 446.441 549.588 445.639 548.511C444.865 547.442 443.851 546.669 442.589 546.182C441.373 545.667 439.917 545.4 438.231 545.401C436.168 545.402 434.243 545.809 432.447 546.621C430.661 547.395 429.022 548.649 427.512 550.363C426.021 552.068 424.659 554.326 423.417 557.108C422.184 559.9 421.071 563.282 420.097 567.262C418.982 571.843 417.867 576.425 416.752 581.007C415.98 584.176 415.466 586.986 415.218 589.409C415.008 591.841 415.046 593.95 415.342 595.728C415.638 597.478 416.164 598.915 416.929 600.057C417.703 601.18 418.689 602.027 419.915 602.588C421.177 603.103 422.642 603.369 424.318 603.368C426.465 603.367 428.436 602.952 430.25 602.112C432.064 601.273 433.712 599.964 435.213 598.185C436.75 596.37 438.13 594.057 439.335 591.237C440.55 588.39 441.635 584.981 442.581 581.029ZM502.056 557.229C504.69 557.228 507.325 557.226 509.959 557.225C506.008 574.416 502.054 591.607 498.097 608.798C497.031 613.441 495.209 617.403 492.623 620.675C490.036 623.955 486.896 626.435 483.213 628.114C479.557 629.82 475.587 630.67 471.313 630.663C469.535 630.655 467.527 630.352 465.251 629.764C463.003 629.212 460.893 628.246 458.903 626.884C456.94 625.55 455.447 623.745 454.441 621.47C456.399 619.694 458.354 617.915 460.306 616.133C461.827 618.795 463.634 620.645 465.735 621.685C467.863 622.734 470.074 623.258 472.396 623.265C475.168 623.273 477.701 622.737 479.967 621.667C482.241 620.607 484.184 619.021 485.767 616.911C487.387 614.837 488.556 612.276 489.254 609.217C492.366 595.748 495.475 582.282 498.581 568.819C499.739 564.95 500.897 561.086 502.056 557.229ZM460.711 584.114C460.791 583.776 460.871 583.438 460.95 583.1C461.897 579.074 463.212 575.426 464.896 572.146C466.626 568.847 468.623 565.999 470.906 563.631C473.217 561.271 475.758 559.455 478.53 558.191C481.311 556.891 484.24 556.245 487.344 556.243C490.541 556.241 493.194 556.829 495.295 557.998C497.451 559.139 499.101 560.805 500.254 563.015C501.443 565.197 502.172 567.822 502.432 570.908C502.692 573.994 502.574 577.476 502.051 581.382C501.708 582.874 501.365 584.367 501.022 585.859C499.781 589.729 498.318 593.193 496.588 596.28C494.904 599.358 492.962 601.984 490.762 604.159C488.58 606.334 486.149 607.994 483.451 609.165C480.762 610.3 477.787 610.854 474.526 610.856C471.467 610.849 468.851 610.178 466.667 608.843C464.52 607.509 462.842 605.64 461.643 603.236C460.445 600.833 459.752 598.015 459.566 594.763C459.426 591.484 459.811 587.946 460.711 584.114ZM469.683 583.105C469.603 583.442 469.524 583.78 469.444 584.118C468.828 586.744 468.498 589.222 468.463 591.515C468.455 593.818 468.787 595.854 469.442 597.604C470.134 599.363 471.213 600.744 472.687 601.738C474.162 602.723 476.078 603.219 478.445 603.218C481.338 603.225 483.889 602.597 486.071 601.334C488.254 600.071 490.141 598.393 491.715 596.32C493.326 594.246 494.734 591.989 495.93 589.556C496.831 585.644 497.731 581.731 498.632 577.819C498.686 576.041 498.556 574.309 498.214 572.661C497.909 570.975 497.347 569.474 496.517 568.185C495.724 566.85 494.609 565.791 493.162 565.009C491.706 564.227 489.882 563.841 487.69 563.842C485.313 563.843 483.13 564.361 481.169 565.393C479.235 566.399 477.513 567.8 476.003 569.578C474.521 571.329 473.242 573.375 472.166 575.706C471.126 578.01 470.298 580.47 469.683 583.105Z" fill="#FFE6A7"/>
</g>
</svg>
