<svg width="801" height="821" viewBox="0 0 801 821" fill="none" xmlns="http://www.w3.org/2000/svg">
<path d="M792.566 326.628C785.373 309.644 773.463 295.306 758.419 285.136C743.398 274.967 725.045 268.978 705.622 269H644.53H610.516H608.442H79.9454C69.0047 269 58.4 271.238 48.8157 275.297C34.4219 281.395 22.2891 291.488 13.675 304.216C5.05629 316.945 -0.017144 332.506 4.35301e-05 348.952V498.442C-0.00620647 542.845 9.01567 585.33 25.3454 623.911C49.8313 681.781 90.6454 730.917 142.064 765.658C193.455 800.402 255.655 820.728 322.272 820.717C366.67 820.728 409.148 811.695 447.725 795.383C505.606 770.886 554.731 730.078 589.473 678.659C596.158 668.8 602.278 658.52 607.849 647.911C608.731 647.911 609.613 647.999 610.517 647.999C636.569 647.999 661.583 642.692 684.283 633.086C718.341 618.67 747.194 594.692 767.62 564.461C788.047 534.263 800.023 497.611 800.002 458.492C800.002 429.364 800.002 405.584 800.002 389.095C800.002 372.584 800.002 363.399 800.002 363.375C800 350.452 797.364 337.945 792.566 326.628ZM727.802 389.097C727.802 405.586 727.802 429.366 727.802 458.494C727.802 474.794 724.527 490.125 718.603 504.144C709.736 525.155 694.802 543.131 676.075 555.794C664.009 563.922 650.444 569.824 635.819 573.033C641.509 549.066 644.542 524.095 644.531 498.442V341.188H705.623C708.789 341.188 711.613 341.816 714.248 342.919C718.186 344.583 721.65 347.43 724.042 350.992C726.436 354.577 727.792 358.658 727.803 363.378C727.802 363.4 727.802 372.586 727.802 389.097Z" fill="#99582A"/>
<path d="M133.742 176.024L175.409 134.357C162.903 120.097 155.821 101.886 155.409 82.9237C155.372 73.9091 157.121 64.9765 160.554 56.641C163.986 48.3055 169.035 40.7319 175.409 34.3571L200.409 9.35706C206.696 3.28512 215.116 -0.0746872 223.856 0.00126009C232.595 0.0772074 240.956 3.58284 247.136 9.76311C253.316 15.9434 256.822 24.3038 256.898 33.0437C256.974 41.7836 253.614 50.2037 247.542 56.4904L222.542 81.4904C235.097 95.7315 242.226 113.944 242.675 132.924C242.712 141.938 240.963 150.871 237.531 159.206C234.098 167.542 229.049 175.116 222.675 181.49L181.009 223.157C174.759 229.425 166.274 232.953 157.423 232.966C148.571 232.978 140.077 229.474 133.809 223.224C127.541 216.973 124.013 208.489 124 199.638C123.988 190.786 127.492 182.292 133.742 176.024ZM300.409 176.024L342.075 134.357C329.569 120.097 322.488 101.886 322.075 82.9237C322.039 73.9091 323.788 64.9765 327.22 56.641C330.653 48.3055 335.702 40.7319 342.075 34.3571L367.075 9.35706C373.362 3.28512 381.782 -0.0746872 390.522 0.00126009C399.262 0.0772074 407.622 3.58284 413.803 9.76311C419.983 15.9434 423.489 24.3038 423.565 33.0437C423.641 41.7836 420.281 50.2037 414.209 56.4904L389.209 81.4904C401.763 95.7315 408.892 113.944 409.342 132.924C409.378 141.938 407.63 150.871 404.197 159.206C400.765 167.542 395.716 175.116 389.342 181.49L347.675 223.157C341.425 229.425 332.941 232.953 324.089 232.966C315.238 232.978 306.743 229.474 300.475 223.224C294.208 216.973 290.679 208.489 290.667 199.638C290.654 190.786 294.159 182.292 300.409 176.024ZM467.075 176.024L508.742 134.357C496.236 120.097 489.155 101.886 488.742 82.9237C488.706 73.9091 490.454 64.9765 493.887 56.641C497.32 48.3055 502.368 40.7319 508.742 34.3571L533.742 9.35706C540.029 3.28512 548.449 -0.0746872 557.189 0.00126009C565.929 0.0772074 574.289 3.58284 580.469 9.76311C586.65 15.9434 590.155 24.3038 590.231 33.0437C590.307 41.7836 586.947 50.2037 580.875 56.4904L555.875 81.4904C568.43 95.7315 575.559 113.944 576.009 132.924C576.045 141.938 574.297 150.871 570.864 159.206C567.431 167.542 562.383 175.116 556.009 181.49L514.342 223.157C508.055 229.229 499.635 232.589 490.895 232.513C482.156 232.437 473.795 228.931 467.615 222.751C461.435 216.571 457.929 208.21 457.853 199.47C457.777 190.731 461.137 182.31 467.209 176.024H467.075Z" fill="#FFE6A7"/>
<path d="M440.286 487.78C440.286 486.589 440.286 486.589 440.286 485.397C440.286 484.206 440.286 484.206 439.094 483.014C439.094 483.014 439.094 483.014 439.094 481.823L392.629 401.997V357.914C392.629 350.766 387.863 346 380.714 346H261.571C254.423 346 249.657 350.766 249.657 357.914V401.997L203.191 481.823C203.191 481.823 203.191 481.823 203.191 483.014C203.191 484.206 203.191 484.206 202 485.397C202 486.589 202 486.589 202 487.78C202 487.78 202 487.78 202 488.971V667.686C202 674.834 206.766 679.6 213.914 679.6H428.371C435.52 679.6 440.286 674.834 440.286 667.686V487.78ZM261.571 429.4L287.783 475.866H234.169L261.571 429.4ZM315.186 475.866L281.826 417.486H373.566L406.926 475.866H315.186ZM273.486 369.829H368.8V393.657H273.486V369.829ZM225.829 499.694H297.314V655.771H225.829V499.694ZM416.457 655.771H321.143V499.694H416.457V655.771Z" fill="#FFE6A7"/>
<path d="M249.657 548.543H273.486C280.634 548.543 285.4 543.777 285.4 536.629C285.4 529.48 280.634 524.714 273.486 524.714H249.657C242.508 524.714 237.743 529.48 237.743 536.629C237.743 543.777 242.508 548.543 249.657 548.543Z" fill="#178F8E"/>
<path d="M273.486 566.415H249.657C242.508 566.415 237.743 571.18 237.743 578.329C237.743 585.477 242.508 590.243 249.657 590.243H273.486C280.634 590.243 285.4 585.477 285.4 578.329C285.4 571.18 280.634 566.415 273.486 566.415Z" fill="#178F8E"/>
<path d="M273.486 608.115H249.657C242.508 608.115 237.743 612.88 237.743 620.029C237.743 627.178 242.508 631.943 249.657 631.943H273.486C280.634 631.943 285.4 627.178 285.4 620.029C285.4 612.88 280.634 608.115 273.486 608.115Z" fill="#178F8E"/>
</svg>
