<svg width="938" height="845" viewBox="0 0 938 845" fill="none" xmlns="http://www.w3.org/2000/svg">
<g id="mid pack">
<path id="Arrow 5" d="M839.509 664.534C839.594 662.326 837.872 660.468 835.665 660.384L799.696 659.014C797.489 658.93 795.631 660.651 795.547 662.859C795.463 665.067 797.184 666.925 799.391 667.009L831.364 668.227L830.146 700.208C830.062 702.416 831.783 704.274 833.99 704.358C836.197 704.442 838.055 702.72 838.139 700.512L839.509 664.534ZM731.84 765.924L838.231 667.316L832.795 661.447L726.403 760.055L731.84 765.924Z" fill="#99582A"/>
<path id="23cm" d="M2.60498 312.33V308.704L15.415 294.471C16.9368 292.77 18.1274 291.32 18.9868 290.12C19.8462 288.903 20.446 287.802 20.7861 286.817C21.1263 285.832 21.2964 284.812 21.2964 283.756C21.2964 281.804 20.7056 280.166 19.5239 278.841C18.3423 277.498 16.6504 276.827 14.4482 276.827C12.1566 276.827 10.3662 277.516 9.07715 278.895C7.80599 280.273 7.17041 282.225 7.17041 284.749H2.09473L2.04102 284.588C1.9873 282.332 2.46175 280.309 3.46436 278.519C4.46696 276.711 5.91715 275.287 7.81494 274.249C9.73063 273.192 12.0044 272.664 14.6362 272.664C17.1069 272.664 19.2285 273.139 21.001 274.088C22.7913 275.019 24.1699 276.299 25.1367 277.928C26.1035 279.557 26.5869 281.428 26.5869 283.541C26.5869 284.973 26.3005 286.396 25.7275 287.811C25.1725 289.225 24.349 290.675 23.2568 292.161C22.1826 293.647 20.8846 295.214 19.3628 296.861L9.07715 308.06L9.13086 308.194H23.0151L23.4448 303.709H27.9297V312.33H2.60498ZM44.6338 312.894C42.2526 312.894 40.131 312.464 38.269 311.605C36.4071 310.727 34.9479 309.492 33.8916 307.899C32.8532 306.287 32.3608 304.381 32.4146 302.178L32.4951 302.017H37.5439C37.5439 303.396 37.8304 304.587 38.4033 305.589C38.9762 306.592 39.7909 307.371 40.8472 307.926C41.9035 308.481 43.1657 308.758 44.6338 308.758C46.8717 308.758 48.6263 308.149 49.8975 306.932C51.1686 305.714 51.8042 303.915 51.8042 301.534C51.8042 299.117 51.2402 297.336 50.1123 296.19C48.9844 295.044 47.203 294.471 44.7681 294.471H40.1489V290.335H44.7681C46.3257 290.335 47.5789 290.076 48.5278 289.556C49.4767 289.019 50.1571 288.258 50.5688 287.274C50.9985 286.271 51.2134 285.072 51.2134 283.675C51.2134 281.437 50.6584 279.736 49.5483 278.573C48.4383 277.409 46.8001 276.827 44.6338 276.827C43.2552 276.827 42.0557 277.104 41.0352 277.659C40.0146 278.197 39.2179 278.966 38.645 279.969C38.09 280.954 37.8125 282.117 37.8125 283.46H32.7368L32.6831 283.299C32.6294 281.33 33.0949 279.539 34.0796 277.928C35.0822 276.317 36.4876 275.037 38.2959 274.088C40.1221 273.139 42.2347 272.664 44.6338 272.664C48.2503 272.664 51.1328 273.631 53.2812 275.565C55.4297 277.48 56.5039 280.22 56.5039 283.782C56.5039 285.394 56.0116 287.005 55.0269 288.616C54.0601 290.21 52.6009 291.427 50.6494 292.269C52.9948 293.039 54.6509 294.247 55.6177 295.894C56.6024 297.541 57.0947 299.385 57.0947 301.427C57.0947 303.808 56.5576 305.858 55.4834 307.576C54.4271 309.277 52.959 310.593 51.0791 311.524C49.1992 312.437 47.0508 312.894 44.6338 312.894ZM75.2222 312.894C72.5903 312.894 70.2987 312.285 68.3472 311.068C66.3957 309.832 64.8828 308.122 63.8086 305.938C62.7344 303.754 62.1973 301.23 62.1973 298.365V297.237C62.1973 294.48 62.7165 292.009 63.7549 289.825C64.7933 287.641 66.2882 285.913 68.2397 284.642C70.1912 283.371 72.5187 282.735 75.2222 282.735C77.5675 282.735 79.6175 283.12 81.3721 283.89C83.1445 284.66 84.6305 285.716 85.8301 287.059L85.9644 294.041H81.8286L80.9155 288.966C80.3068 288.339 79.5459 287.838 78.6328 287.462C77.7197 287.086 76.6455 286.898 75.4102 286.898C73.8346 286.898 72.4471 287.363 71.2476 288.294C70.0659 289.225 69.1439 290.469 68.4814 292.027C67.819 293.585 67.4878 295.321 67.4878 297.237V298.365C67.4878 300.478 67.7922 302.313 68.4009 303.87C69.0275 305.428 69.9137 306.636 71.0596 307.496C72.2233 308.337 73.6019 308.758 75.1953 308.758C76.9857 308.758 78.4717 308.266 79.6533 307.281C80.835 306.296 81.5601 304.945 81.8286 303.226H86.582L86.6357 303.387C86.5462 305.052 86.0539 306.61 85.1587 308.06C84.2635 309.51 82.9834 310.683 81.3184 311.578C79.6712 312.455 77.6392 312.894 75.2222 312.894ZM90.7715 312.33V308.946L95.1489 308.194V287.435L90.7715 286.683V283.272H99.9023L100.251 287.059C101.182 285.68 102.382 284.615 103.85 283.863C105.318 283.111 107.019 282.735 108.953 282.735C110.886 282.735 112.542 283.183 113.921 284.078C115.317 284.973 116.365 286.316 117.063 288.106C117.976 286.459 119.185 285.152 120.688 284.185C122.192 283.219 123.947 282.735 125.952 282.735C128.924 282.735 131.27 283.756 132.988 285.797C134.707 287.82 135.566 290.872 135.566 294.954V308.194L139.944 308.946V312.33H125.872V308.946L130.249 308.194V294.901C130.249 292.036 129.757 290.013 128.772 288.831C127.787 287.632 126.328 287.032 124.395 287.032C122.55 287.032 121.064 287.685 119.937 288.992C118.826 290.281 118.182 291.911 118.003 293.88V308.194L122.38 308.946V312.33H108.335V308.946L112.712 308.194V294.901C112.712 292.179 112.202 290.192 111.182 288.939C110.179 287.668 108.72 287.032 106.804 287.032C105.193 287.032 103.868 287.363 102.83 288.026C101.791 288.688 100.994 289.619 100.439 290.819V308.194L104.817 308.946V312.33H90.7715Z" fill="#76411F"/>
<path id="12cm" d="M809.48 760.458V757.074L815.523 756.322V727.023L809.373 727.13V723.827L820.813 721.356V756.322L826.829 757.074V760.458H809.48ZM831.502 760.458V756.833L844.312 742.599C845.834 740.898 847.024 739.448 847.884 738.249C848.743 737.031 849.343 735.93 849.683 734.945C850.023 733.961 850.193 732.94 850.193 731.884C850.193 729.932 849.603 728.294 848.421 726.969C847.239 725.626 845.547 724.955 843.345 724.955C841.054 724.955 839.263 725.644 837.974 727.023C836.703 728.402 836.067 730.353 836.067 732.877H830.992L830.938 732.716C830.884 730.46 831.359 728.437 832.361 726.647C833.364 724.839 834.814 723.415 836.712 722.377C838.628 721.321 840.901 720.792 843.533 720.792C846.004 720.792 848.125 721.267 849.898 722.216C851.688 723.147 853.067 724.427 854.034 726.056C855 727.685 855.484 729.556 855.484 731.669C855.484 733.101 855.197 734.525 854.625 735.939C854.069 737.353 853.246 738.804 852.154 740.29C851.08 741.776 849.782 743.342 848.26 744.989L837.974 756.188L838.028 756.322H851.912L852.342 751.837H856.827V760.458H831.502ZM874.417 761.022C871.785 761.022 869.493 760.413 867.542 759.196C865.59 757.96 864.078 756.251 863.003 754.066C861.929 751.882 861.392 749.358 861.392 746.493V745.365C861.392 742.608 861.911 740.137 862.95 737.953C863.988 735.769 865.483 734.041 867.435 732.77C869.386 731.499 871.714 730.863 874.417 730.863C876.762 730.863 878.812 731.248 880.567 732.018C882.339 732.788 883.825 733.844 885.025 735.187L885.159 742.169H881.023L880.11 737.094C879.502 736.467 878.741 735.966 877.828 735.59C876.915 735.214 875.84 735.026 874.605 735.026C873.029 735.026 871.642 735.491 870.442 736.422C869.261 737.353 868.339 738.598 867.676 740.155C867.014 741.713 866.683 743.45 866.683 745.365V746.493C866.683 748.606 866.987 750.441 867.596 751.999C868.222 753.556 869.109 754.765 870.254 755.624C871.418 756.465 872.797 756.886 874.39 756.886C876.181 756.886 877.667 756.394 878.848 755.409C880.03 754.424 880.755 753.073 881.023 751.354H885.777L885.831 751.515C885.741 753.18 885.249 754.738 884.354 756.188C883.458 757.638 882.178 758.811 880.513 759.706C878.866 760.583 876.834 761.022 874.417 761.022ZM889.966 760.458V757.074L894.344 756.322V735.563L889.966 734.811V731.4H899.097L899.446 735.187C900.377 733.808 901.577 732.743 903.045 731.991C904.513 731.239 906.214 730.863 908.147 730.863C910.081 730.863 911.737 731.311 913.116 732.206C914.512 733.101 915.56 734.444 916.258 736.234C917.171 734.587 918.379 733.28 919.883 732.313C921.387 731.347 923.142 730.863 925.147 730.863C928.119 730.863 930.464 731.884 932.183 733.925C933.902 735.948 934.761 739 934.761 743.083V756.322L939.139 757.074V760.458H925.066V757.074L929.444 756.322V743.029C929.444 740.164 928.951 738.141 927.967 736.959C926.982 735.76 925.523 735.16 923.589 735.16C921.745 735.16 920.259 735.814 919.131 737.121C918.021 738.41 917.377 740.039 917.198 742.008V756.322L921.575 757.074V760.458H907.53V757.074L911.907 756.322V743.029C911.907 740.307 911.397 738.32 910.376 737.067C909.374 735.796 907.915 735.16 905.999 735.16C904.388 735.16 903.063 735.491 902.024 736.154C900.986 736.816 900.189 737.747 899.634 738.947V756.322L904.012 757.074V760.458H889.966Z" fill="#76411F"/>
<path id="16.5cm" d="M396.604 831.729V828.345L402.647 827.593V798.294L396.497 798.401V795.098L407.938 792.627V827.593L413.953 828.345V831.729H396.604ZM432.51 832.293C429.968 832.293 427.694 831.675 425.689 830.44C423.702 829.187 422.135 827.369 420.989 824.988C419.843 822.607 419.271 819.725 419.271 816.341V811.077C419.271 806.941 419.888 803.468 421.124 800.657C422.377 797.828 424.096 795.689 426.28 794.239C428.482 792.789 431.006 792.063 433.853 792.063C435.178 792.063 436.494 792.216 437.801 792.52C439.126 792.824 440.218 793.209 441.077 793.675L440.057 797.623C439.215 797.211 438.293 796.88 437.291 796.629C436.288 796.36 435.142 796.226 433.853 796.226C431.114 796.226 428.93 797.264 427.3 799.341C425.689 801.4 424.83 804.515 424.722 808.687L424.83 808.794C425.832 807.863 427.059 807.129 428.509 806.592C429.959 806.037 431.526 805.76 433.208 805.76C435.536 805.76 437.559 806.315 439.278 807.425C440.997 808.517 442.321 810.03 443.252 811.963C444.201 813.897 444.676 816.099 444.676 818.57C444.676 821.273 444.174 823.654 443.172 825.713C442.169 827.772 440.755 829.384 438.929 830.547C437.103 831.711 434.963 832.293 432.51 832.293ZM432.51 828.157C433.96 828.157 435.196 827.736 436.216 826.895C437.237 826.054 438.016 824.908 438.553 823.458C439.108 822.007 439.385 820.378 439.385 818.57C439.385 815.992 438.732 813.87 437.425 812.205C436.136 810.54 434.345 809.708 432.054 809.708C430.854 809.708 429.762 809.878 428.777 810.218C427.811 810.54 426.969 811.006 426.253 811.614C425.555 812.205 424.982 812.903 424.534 813.709V816.851C424.534 820.486 425.286 823.278 426.79 825.23C428.312 827.181 430.219 828.157 432.51 828.157ZM450.638 831.729V826.304H455.928V831.729H450.638ZM474.029 832.293C471.827 832.293 469.848 831.89 468.094 831.084C466.357 830.279 464.996 829.088 464.012 827.513C463.027 825.919 462.562 823.95 462.615 821.604L462.669 821.443H467.449C467.449 823.556 468.058 825.203 469.275 826.385C470.511 827.566 472.095 828.157 474.029 828.157C476.267 828.157 478.003 827.369 479.239 825.794C480.474 824.218 481.092 822.061 481.092 819.322C481.092 816.797 480.465 814.738 479.212 813.145C477.977 811.534 476.258 810.728 474.056 810.728C471.979 810.728 470.466 811.041 469.517 811.668C468.586 812.295 467.906 813.252 467.476 814.542L463.072 814.085L465.328 792.627H485.979V800.362H482.005L481.495 797.327H469.812L468.55 808.311C469.087 807.899 469.669 807.541 470.296 807.237C470.923 806.915 471.603 806.655 472.337 806.458C473.089 806.261 473.903 806.154 474.781 806.136C477.18 806.118 479.248 806.646 480.984 807.72C482.721 808.777 484.055 810.298 484.986 812.286C485.917 814.255 486.382 816.583 486.382 819.268C486.382 821.882 485.908 824.165 484.959 826.116C484.028 828.068 482.64 829.59 480.796 830.682C478.97 831.756 476.714 832.293 474.029 832.293ZM504.188 832.293C501.556 832.293 499.264 831.684 497.312 830.467C495.361 829.231 493.848 827.522 492.774 825.337C491.7 823.153 491.163 820.629 491.163 817.764V816.636C491.163 813.879 491.682 811.408 492.72 809.224C493.759 807.04 495.254 805.312 497.205 804.041C499.157 802.77 501.484 802.134 504.188 802.134C506.533 802.134 508.583 802.519 510.337 803.289C512.11 804.059 513.596 805.115 514.795 806.458L514.93 813.44H510.794L509.881 808.365C509.272 807.738 508.511 807.237 507.598 806.861C506.685 806.485 505.611 806.297 504.375 806.297C502.8 806.297 501.412 806.762 500.213 807.693C499.031 808.624 498.109 809.869 497.447 811.426C496.784 812.984 496.453 814.721 496.453 816.636V817.764C496.453 819.877 496.757 821.712 497.366 823.27C497.993 824.827 498.879 826.036 500.025 826.895C501.189 827.736 502.567 828.157 504.161 828.157C505.951 828.157 507.437 827.665 508.619 826.68C509.8 825.695 510.525 824.344 510.794 822.625H515.547L515.601 822.786C515.512 824.451 515.019 826.009 514.124 827.459C513.229 828.909 511.949 830.082 510.284 830.977C508.637 831.854 506.604 832.293 504.188 832.293ZM519.737 831.729V828.345L524.114 827.593V806.834L519.737 806.082V802.671H528.868L529.217 806.458C530.148 805.079 531.347 804.014 532.815 803.262C534.284 802.51 535.984 802.134 537.918 802.134C539.852 802.134 541.508 802.582 542.886 803.477C544.283 804.372 545.33 805.715 546.028 807.505C546.941 805.858 548.15 804.551 549.654 803.584C551.158 802.618 552.912 802.134 554.917 802.134C557.889 802.134 560.235 803.155 561.954 805.196C563.672 807.219 564.532 810.271 564.532 814.354V827.593L568.909 828.345V831.729H554.837V828.345L559.214 827.593V814.3C559.214 811.435 558.722 809.412 557.737 808.23C556.753 807.031 555.293 806.431 553.36 806.431C551.516 806.431 550.03 807.085 548.902 808.392C547.792 809.681 547.147 811.31 546.968 813.279V827.593L551.346 828.345V831.729H537.3V828.345L541.678 827.593V814.3C541.678 811.578 541.167 809.591 540.147 808.338C539.144 807.067 537.685 806.431 535.77 806.431C534.158 806.431 532.833 806.762 531.795 807.425C530.757 808.087 529.96 809.018 529.405 810.218V827.593L533.782 828.345V831.729H519.737Z" fill="#76411F"/>
<path id="Arrow 4" d="M719.261 767.771C720.823 766.208 720.823 763.676 719.261 762.114L693.805 736.658C692.243 735.096 689.711 735.096 688.148 736.658C686.586 738.22 686.586 740.753 688.148 742.315L710.776 764.942L688.148 787.57C686.586 789.132 686.586 791.664 688.148 793.226C689.711 794.789 692.243 794.789 693.805 793.226L719.261 767.771ZM234.256 768.942H716.433V760.942H234.256V768.942Z" fill="#99582A"/>
<path id="Arrow 5_2" d="M189.257 -2.34027C187.695 -3.90237 185.162 -3.90237 183.6 -2.34027L158.144 23.1156C156.582 24.6777 156.582 27.2103 158.144 28.7724C159.707 30.3345 162.239 30.3345 163.801 28.7724L186.429 6.14501L209.056 28.7724C210.618 30.3345 213.151 30.3345 214.713 28.7724C216.275 27.2103 216.275 24.6777 214.713 23.1156L189.257 -2.34027ZM190.429 719.055L190.429 0.488159L182.429 0.488159L182.429 719.055L190.429 719.055Z" fill="#99582A"/>
<path id="Rectangle 49" d="M310.098 0.488037H743.763L716.433 152.305L234.256 148.894L310.098 0.488037Z" fill="#9F5C2D"/>
<rect id="Rectangle 48" x="234.256" y="142.054" width="482.177" height="577.002" rx="9" fill="#955427"/>
<path id="Polygon 16" d="M757.427 592.135L806.231 624.353L716.433 710.269L757.427 592.135Z" fill="#874B20"/>
<path id="Polygon 17" d="M757.427 103.978V592.135L716.433 710.269V141.475L757.427 103.978Z" fill="#76411F"/>
<path id="Polygon 18" d="M809.159 114.2L806.231 624.353L757.428 592.135V103.978L809.159 114.2Z" fill="#955427"/>
<path id="Polygon 19" d="M743.763 0.488037L809.159 114.717L757.428 103.977L743.763 0.488037Z" fill="#874B20"/>
<path id="Polygon 20" d="M743.762 0.488037L757.427 103.977L716.433 142.054L743.762 0.488037Z" fill="#76411F"/>
<path id="Polygon 21" d="M744.251 0L757.427 103.977L716.433 141.566L744.251 0Z" fill="#6A3513" fill-opacity="0.39"/>
<rect id="Rectangle 50" x="343.575" y="229.922" width="264.514" height="308.515" rx="13" fill="#FFE6A7"/>
<g id="Arabica bean">
<path id="Ellipse 10" d="M522.614 397.709C525.401 424.055 518.685 470.701 478.43 470.701C442.761 470.701 424.855 438.132 428.242 397.709C431.629 357.287 442.762 329.038 474.518 329.038C507.843 329.038 517.59 350.214 522.614 397.709Z" fill="#874B20"/>
<path id="Vector 1" d="M476.156 321.582C482.127 332 486.785 373.672 476.156 397.251C463.497 421.376 466.721 456.834 473.955 474.015" stroke="#FFE6A7" stroke-width="11" stroke-linecap="round"/>
</g>
<path id="ROBUSTO" d="M382.419 269.421H393.555C395.838 269.421 397.8 269.763 399.44 270.446C401.095 271.13 402.366 272.142 403.255 273.481C404.144 274.821 404.588 276.469 404.588 278.424C404.588 280.023 404.314 281.397 403.768 282.546C403.234 283.681 402.476 284.631 401.491 285.396C400.521 286.148 399.379 286.75 398.066 287.201L396.118 288.227H386.438L386.397 283.428H393.596C394.676 283.428 395.571 283.236 396.282 282.854C396.993 282.471 397.526 281.938 397.882 281.254C398.251 280.57 398.436 279.777 398.436 278.875C398.436 277.918 398.258 277.091 397.902 276.394C397.547 275.696 397.007 275.163 396.282 274.794C395.558 274.425 394.648 274.24 393.555 274.24H388.571V299.28H382.419V269.421ZM399.112 299.28L392.304 285.971L398.805 285.93L405.695 298.993V299.28H399.112ZM433.853 283.653V285.068C433.853 287.338 433.545 289.375 432.93 291.18C432.314 292.984 431.446 294.522 430.325 295.794C429.204 297.052 427.864 298.016 426.306 298.686C424.761 299.355 423.045 299.69 421.158 299.69C419.285 299.69 417.569 299.355 416.011 298.686C414.466 298.016 413.126 297.052 411.991 295.794C410.856 294.522 409.975 292.984 409.346 291.18C408.73 289.375 408.423 287.338 408.423 285.068V283.653C408.423 281.37 408.73 279.333 409.346 277.542C409.961 275.737 410.829 274.199 411.95 272.928C413.085 271.656 414.425 270.686 415.97 270.016C417.528 269.346 419.244 269.011 421.117 269.011C423.004 269.011 424.72 269.346 426.265 270.016C427.823 270.686 429.163 271.656 430.284 272.928C431.419 274.199 432.294 275.737 432.909 277.542C433.538 279.333 433.853 281.37 433.853 283.653ZM427.639 285.068V283.612C427.639 282.026 427.495 280.632 427.208 279.429C426.921 278.226 426.497 277.214 425.937 276.394C425.376 275.573 424.692 274.958 423.886 274.548C423.079 274.124 422.156 273.912 421.117 273.912C420.078 273.912 419.155 274.124 418.349 274.548C417.556 274.958 416.879 275.573 416.318 276.394C415.771 277.214 415.354 278.226 415.067 279.429C414.78 280.632 414.637 282.026 414.637 283.612V285.068C414.637 286.641 414.78 288.035 415.067 289.252C415.354 290.455 415.778 291.474 416.339 292.308C416.899 293.128 417.583 293.75 418.39 294.174C419.196 294.598 420.119 294.81 421.158 294.81C422.197 294.81 423.12 294.598 423.927 294.174C424.733 293.75 425.41 293.128 425.957 292.308C426.504 291.474 426.921 290.455 427.208 289.252C427.495 288.035 427.639 286.641 427.639 285.068ZM449.972 286.176H442.302L442.261 281.951H448.7C449.835 281.951 450.765 281.808 451.489 281.521C452.214 281.22 452.754 280.789 453.109 280.229C453.479 279.654 453.663 278.957 453.663 278.137C453.663 277.207 453.485 276.455 453.13 275.881C452.788 275.307 452.248 274.89 451.51 274.63C450.785 274.37 449.849 274.24 448.7 274.24H444.435V299.28H438.282V269.421H448.7C450.437 269.421 451.988 269.585 453.355 269.913C454.736 270.241 455.905 270.74 456.862 271.41C457.819 272.08 458.551 272.928 459.057 273.953C459.562 274.965 459.815 276.168 459.815 277.562C459.815 278.793 459.535 279.928 458.975 280.967C458.428 282.006 457.56 282.854 456.37 283.51C455.194 284.166 453.656 284.528 451.756 284.597L449.972 286.176ZM449.705 299.28H440.62L443.02 294.481H449.705C450.785 294.481 451.667 294.311 452.351 293.969C453.034 293.613 453.54 293.135 453.868 292.533C454.196 291.932 454.36 291.241 454.36 290.462C454.36 289.587 454.21 288.828 453.909 288.186C453.622 287.543 453.157 287.051 452.515 286.709C451.872 286.354 451.024 286.176 449.972 286.176H444.045L444.086 281.951H451.469L452.884 283.612C454.702 283.585 456.165 283.906 457.272 284.576C458.394 285.232 459.207 286.087 459.713 287.14C460.232 288.192 460.492 289.32 460.492 290.523C460.492 292.438 460.075 294.051 459.241 295.363C458.407 296.662 457.184 297.64 455.57 298.296C453.971 298.952 452.016 299.28 449.705 299.28ZM481.595 269.421H487.727V289.149C487.727 291.446 487.234 293.381 486.25 294.953C485.279 296.525 483.933 297.708 482.21 298.501C480.501 299.294 478.532 299.69 476.304 299.69C474.075 299.69 472.093 299.294 470.356 298.501C468.634 297.708 467.28 296.525 466.296 294.953C465.325 293.381 464.84 291.446 464.84 289.149V269.421H470.992V289.149C470.992 290.489 471.204 291.583 471.628 292.431C472.052 293.278 472.66 293.9 473.453 294.297C474.26 294.693 475.21 294.892 476.304 294.892C477.425 294.892 478.375 294.693 479.154 294.297C479.947 293.9 480.549 293.278 480.959 292.431C481.383 291.583 481.595 290.489 481.595 289.149V269.421ZM508.337 291.467C508.337 290.934 508.255 290.455 508.091 290.031C507.94 289.594 507.653 289.197 507.229 288.842C506.806 288.473 506.211 288.11 505.445 287.755C504.68 287.399 503.688 287.03 502.472 286.647C501.118 286.21 499.833 285.718 498.616 285.171C497.413 284.624 496.347 283.988 495.417 283.264C494.501 282.525 493.776 281.671 493.243 280.7C492.724 279.729 492.464 278.602 492.464 277.316C492.464 276.072 492.737 274.944 493.284 273.933C493.831 272.907 494.597 272.032 495.581 271.308C496.565 270.569 497.728 270.002 499.067 269.605C500.421 269.209 501.904 269.011 503.518 269.011C505.719 269.011 507.64 269.407 509.28 270.2C510.921 270.993 512.192 272.08 513.095 273.461C514.011 274.842 514.469 276.421 514.469 278.198H508.357C508.357 277.323 508.173 276.558 507.804 275.901C507.448 275.231 506.901 274.705 506.163 274.322C505.438 273.939 504.522 273.748 503.415 273.748C502.349 273.748 501.46 273.912 500.749 274.24C500.038 274.555 499.505 274.985 499.149 275.532C498.794 276.065 498.616 276.667 498.616 277.337C498.616 277.843 498.739 278.301 498.985 278.711C499.245 279.121 499.628 279.504 500.134 279.859C500.64 280.215 501.262 280.55 502 280.864C502.738 281.179 503.593 281.486 504.563 281.787C506.19 282.279 507.619 282.833 508.85 283.448C510.094 284.063 511.133 284.754 511.967 285.52C512.801 286.285 513.43 287.153 513.854 288.124C514.277 289.095 514.489 290.195 514.489 291.426C514.489 292.725 514.236 293.887 513.73 294.912C513.225 295.938 512.493 296.806 511.536 297.517C510.579 298.228 509.438 298.768 508.111 299.137C506.785 299.506 505.302 299.69 503.661 299.69C502.185 299.69 500.729 299.499 499.293 299.116C497.857 298.72 496.552 298.125 495.376 297.332C494.214 296.539 493.284 295.527 492.587 294.297C491.89 293.066 491.541 291.61 491.541 289.929H497.714C497.714 290.858 497.857 291.645 498.145 292.287C498.432 292.93 498.835 293.449 499.354 293.846C499.888 294.242 500.517 294.529 501.241 294.707C501.979 294.885 502.786 294.974 503.661 294.974C504.728 294.974 505.603 294.823 506.286 294.522C506.983 294.222 507.496 293.805 507.824 293.271C508.166 292.738 508.337 292.137 508.337 291.467ZM532.023 269.421V299.28H525.892V269.421H532.023ZM541.211 269.421V274.24H516.848V269.421H541.211ZM568.671 283.653V285.068C568.671 287.338 568.363 289.375 567.748 291.18C567.133 292.984 566.265 294.522 565.144 295.794C564.022 297.052 562.683 298.016 561.124 298.686C559.579 299.355 557.863 299.69 555.977 299.69C554.104 299.69 552.388 299.355 550.829 298.686C549.284 298.016 547.944 297.052 546.81 295.794C545.675 294.522 544.793 292.984 544.164 291.18C543.549 289.375 543.241 287.338 543.241 285.068V283.653C543.241 281.37 543.549 279.333 544.164 277.542C544.779 275.737 545.647 274.199 546.769 272.928C547.903 271.656 549.243 270.686 550.788 270.016C552.347 269.346 554.062 269.011 555.936 269.011C557.822 269.011 559.538 269.346 561.083 270.016C562.642 270.686 563.981 271.656 565.103 272.928C566.237 274.199 567.112 275.737 567.728 277.542C568.356 279.333 568.671 281.37 568.671 283.653ZM562.457 285.068V283.612C562.457 282.026 562.313 280.632 562.026 279.429C561.739 278.226 561.315 277.214 560.755 276.394C560.194 275.573 559.511 274.958 558.704 274.548C557.897 274.124 556.975 273.912 555.936 273.912C554.896 273.912 553.974 274.124 553.167 274.548C552.374 274.958 551.697 275.573 551.137 276.394C550.59 277.214 550.173 278.226 549.886 279.429C549.599 280.632 549.455 282.026 549.455 283.612V285.068C549.455 286.641 549.599 288.035 549.886 289.252C550.173 290.455 550.597 291.474 551.157 292.308C551.718 293.128 552.401 293.75 553.208 294.174C554.015 294.598 554.938 294.81 555.977 294.81C557.016 294.81 557.938 294.598 558.745 294.174C559.552 293.75 560.229 293.128 560.775 292.308C561.322 291.474 561.739 290.455 562.026 289.252C562.313 288.035 562.457 286.641 562.457 285.068Z" fill="#874B20"/>
<path id="500g" d="M389.042 626.227L381.888 624.39L385.417 589.344H421.526V597.61H393.006L390.879 616.753C392.168 616.011 393.795 615.319 395.761 614.674C397.759 614.03 400.047 613.707 402.625 613.707C405.88 613.707 408.797 614.271 411.375 615.399C413.953 616.495 416.145 618.074 417.949 620.136C419.786 622.199 421.188 624.68 422.155 627.581C423.122 630.481 423.605 633.72 423.605 637.297C423.605 640.681 423.138 643.791 422.203 646.627C421.301 649.463 419.931 651.944 418.094 654.071C416.257 656.166 413.937 657.793 411.133 658.953C408.362 660.114 405.091 660.694 401.32 660.694C398.484 660.694 395.793 660.307 393.248 659.533C390.734 658.728 388.478 657.519 386.48 655.908C384.514 654.264 382.903 652.234 381.646 649.817C380.421 647.368 379.648 644.5 379.326 641.213H387.833C388.22 643.855 388.994 646.079 390.154 647.884C391.314 649.688 392.829 651.058 394.698 651.992C396.599 652.895 398.807 653.346 401.32 653.346C403.447 653.346 405.333 652.975 406.976 652.234C408.62 651.493 410.005 650.429 411.133 649.044C412.261 647.658 413.115 645.982 413.695 644.016C414.308 642.051 414.614 639.843 414.614 637.394C414.614 635.17 414.308 633.108 413.695 631.206C413.083 629.305 412.165 627.645 410.94 626.227C409.748 624.809 408.281 623.714 406.541 622.94C404.801 622.135 402.803 621.732 400.547 621.732C397.55 621.732 395.278 622.135 393.731 622.94C392.216 623.746 390.653 624.842 389.042 626.227ZM477.601 618.928V629.659C477.601 635.428 477.085 640.294 476.054 644.258C475.022 648.222 473.54 651.412 471.606 653.829C469.673 656.246 467.336 658.003 464.597 659.098C461.89 660.162 458.829 660.694 455.413 660.694C452.706 660.694 450.208 660.355 447.92 659.678C445.632 659.002 443.569 657.922 441.732 656.44C439.928 654.925 438.381 652.959 437.092 650.542C435.803 648.125 434.82 645.193 434.143 641.744C433.466 638.296 433.128 634.268 433.128 629.659V618.928C433.128 613.159 433.644 608.325 434.675 604.426C435.738 600.527 437.237 597.401 439.17 595.048C441.104 592.663 443.424 590.955 446.131 589.924C448.871 588.893 451.932 588.377 455.316 588.377C458.055 588.377 460.569 588.716 462.857 589.392C465.177 590.037 467.24 591.084 469.044 592.534C470.849 593.952 472.38 595.854 473.637 598.239C474.926 600.591 475.909 603.475 476.585 606.891C477.262 610.307 477.601 614.32 477.601 618.928ZM468.609 631.11V617.429C468.609 614.271 468.416 611.5 468.029 609.115C467.675 606.698 467.143 604.635 466.434 602.927C465.725 601.219 464.823 599.834 463.727 598.77C462.664 597.707 461.423 596.933 460.005 596.45C458.619 595.934 457.056 595.677 455.316 595.677C453.189 595.677 451.304 596.079 449.66 596.885C448.017 597.658 446.631 598.899 445.503 600.607C444.407 602.315 443.569 604.555 442.989 607.326C442.409 610.098 442.119 613.466 442.119 617.429V631.11C442.119 634.268 442.296 637.055 442.651 639.472C443.038 641.889 443.602 643.984 444.343 645.757C445.084 647.497 445.986 648.931 447.05 650.059C448.113 651.187 449.338 652.025 450.724 652.573C452.142 653.088 453.705 653.346 455.413 653.346C457.604 653.346 459.521 652.927 461.165 652.089C462.809 651.251 464.178 649.946 465.274 648.174C466.402 646.369 467.24 644.065 467.788 641.261C468.335 638.425 468.609 635.041 468.609 631.11ZM533.288 618.928V629.659C533.288 635.428 532.772 640.294 531.741 644.258C530.71 648.222 529.228 651.412 527.294 653.829C525.36 656.246 523.024 658.003 520.285 659.098C517.578 660.162 514.516 660.694 511.1 660.694C508.393 660.694 505.896 660.355 503.607 659.678C501.319 659.002 499.257 657.922 497.42 656.44C495.615 654.925 494.068 652.959 492.779 650.542C491.49 648.125 490.507 645.193 489.831 641.744C489.154 638.296 488.815 634.268 488.815 629.659V618.928C488.815 613.159 489.331 608.325 490.362 604.426C491.426 600.527 492.924 597.401 494.858 595.048C496.792 592.663 499.112 590.955 501.819 589.924C504.558 588.893 507.62 588.377 511.003 588.377C513.743 588.377 516.256 588.716 518.544 589.392C520.865 590.037 522.927 591.084 524.732 592.534C526.537 593.952 528.067 595.854 529.324 598.239C530.613 600.591 531.596 603.475 532.273 606.891C532.95 610.307 533.288 614.32 533.288 618.928ZM524.297 631.11V617.429C524.297 614.271 524.104 611.5 523.717 609.115C523.362 606.698 522.831 604.635 522.122 602.927C521.413 601.219 520.51 599.834 519.415 598.77C518.351 597.707 517.11 596.933 515.692 596.45C514.307 595.934 512.744 595.677 511.003 595.677C508.876 595.677 506.991 596.079 505.348 596.885C503.704 597.658 502.318 598.899 501.19 600.607C500.095 602.315 499.257 604.555 498.677 607.326C498.097 610.098 497.807 613.466 497.807 617.429V631.11C497.807 634.268 497.984 637.055 498.338 639.472C498.725 641.889 499.289 643.984 500.03 645.757C500.771 647.497 501.674 648.931 502.737 650.059C503.801 651.187 505.025 652.025 506.411 652.573C507.829 653.088 509.392 653.346 511.1 653.346C513.292 653.346 515.209 652.927 516.853 652.089C518.496 651.251 519.866 649.946 520.961 648.174C522.089 646.369 522.927 644.065 523.475 641.261C524.023 638.425 524.297 635.041 524.297 631.11ZM579.646 607.423H587.767V658.615C587.767 663.223 586.833 667.155 584.963 670.41C583.094 673.665 580.484 676.13 577.132 677.806C573.813 679.514 569.978 680.368 565.627 680.368C563.823 680.368 561.696 680.078 559.247 679.498C556.83 678.95 554.445 677.999 552.092 676.646C549.772 675.324 547.822 673.536 546.243 671.28L550.932 665.963C553.124 668.605 555.412 670.442 557.796 671.473C560.213 672.505 562.598 673.02 564.951 673.02C567.787 673.02 570.236 672.489 572.298 671.425C574.361 670.362 575.956 668.782 577.084 666.688C578.244 664.625 578.824 662.079 578.824 659.05V618.928L579.646 607.423ZM543.633 634.155V633.14C543.633 629.144 544.1 625.518 545.035 622.263C546.001 618.976 547.371 616.156 549.144 613.804C550.948 611.451 553.124 609.647 555.669 608.39C558.215 607.101 561.083 606.456 564.274 606.456C567.561 606.456 570.429 607.036 572.878 608.197C575.36 609.324 577.455 610.984 579.163 613.176C580.903 615.335 582.272 617.945 583.271 621.007C584.271 624.068 584.963 627.532 585.35 631.4V635.847C584.996 639.682 584.303 643.13 583.271 646.192C582.272 649.253 580.903 651.864 579.163 654.023C577.455 656.182 575.36 657.842 572.878 659.002C570.397 660.13 567.497 660.694 564.177 660.694C561.051 660.694 558.215 660.033 555.669 658.712C553.156 657.39 550.997 655.537 549.192 653.153C547.387 650.768 546.001 647.964 545.035 644.741C544.1 641.487 543.633 637.958 543.633 634.155ZM552.576 633.14V634.155C552.576 636.765 552.833 639.215 553.349 641.503C553.897 643.791 554.719 645.805 555.814 647.545C556.942 649.285 558.376 650.655 560.117 651.654C561.857 652.621 563.936 653.104 566.353 653.104C569.317 653.104 571.767 652.476 573.7 651.219C575.634 649.962 577.165 648.302 578.292 646.24C579.453 644.177 580.355 641.938 581 639.521V627.871C580.645 626.098 580.097 624.39 579.356 622.747C578.647 621.071 577.712 619.589 576.552 618.3C575.424 616.978 574.022 615.931 572.347 615.157C570.671 614.384 568.705 613.997 566.449 613.997C564 613.997 561.889 614.513 560.117 615.544C558.376 616.543 556.942 617.929 555.814 619.701C554.719 621.442 553.897 623.472 553.349 625.792C552.833 628.08 552.576 630.53 552.576 633.14Z" fill="#FFE6A7"/>
</g>
</svg>
