<svg width="806" height="812" viewBox="0 0 806 812" fill="none" xmlns="http://www.w3.org/2000/svg">
<path d="M359.5 14.48H779.196L680.64 608.43L607.46 661.04H304.27L198.72 60.43L359.5 14.48Z" fill="#955427"/>
<path d="M667.247 733.665V730.281L673.29 729.53V700.23L667.14 700.338V697.034L678.58 694.564V729.53L684.596 730.281V733.665H667.247ZM689.269 733.665V730.04L702.079 715.806C703.6 714.106 704.791 712.655 705.65 711.456C706.51 710.238 707.11 709.137 707.45 708.153C707.79 707.168 707.96 706.147 707.96 705.091C707.96 703.14 707.369 701.501 706.188 700.177C705.006 698.834 703.314 698.162 701.112 698.162C698.82 698.162 697.03 698.852 695.741 700.23C694.47 701.609 693.834 703.56 693.834 706.085H688.758L688.705 705.924C688.651 703.668 689.125 701.645 690.128 699.854C691.131 698.046 692.581 696.623 694.479 695.584C696.394 694.528 698.668 694 701.3 694C703.771 694 705.892 694.474 707.665 695.423C709.455 696.354 710.833 697.634 711.8 699.263C712.767 700.893 713.25 702.764 713.25 704.876C713.25 706.309 712.964 707.732 712.391 709.146C711.836 710.561 711.013 712.011 709.92 713.497C708.846 714.983 707.548 716.549 706.026 718.197L695.741 729.395L695.794 729.53H709.679L710.108 725.045H714.593V733.665H689.269ZM732.184 734.229C729.552 734.229 727.26 733.621 725.309 732.403C723.357 731.168 721.844 729.458 720.77 727.274C719.696 725.089 719.159 722.565 719.159 719.7V718.573C719.159 715.815 719.678 713.345 720.716 711.16C721.755 708.976 723.25 707.248 725.201 705.977C727.153 704.706 729.48 704.071 732.184 704.071C734.529 704.071 736.579 704.455 738.333 705.225C740.106 705.995 741.592 707.052 742.792 708.394L742.926 715.377H738.79L737.877 710.301C737.268 709.674 736.507 709.173 735.594 708.797C734.681 708.421 733.607 708.233 732.372 708.233C730.796 708.233 729.409 708.699 728.209 709.63C727.027 710.561 726.105 711.805 725.443 713.363C724.78 714.92 724.449 716.657 724.449 718.573V719.7C724.449 721.813 724.754 723.648 725.362 725.206C725.989 726.763 726.875 727.972 728.021 728.831C729.185 729.673 730.563 730.094 732.157 730.094C733.947 730.094 735.433 729.601 736.615 728.616C737.796 727.632 738.521 726.28 738.79 724.561H743.543L743.597 724.722C743.508 726.387 743.015 727.945 742.12 729.395C741.225 730.845 739.945 732.018 738.28 732.913C736.633 733.791 734.601 734.229 732.184 734.229ZM747.733 733.665V730.281L752.11 729.53V708.77L747.733 708.018V704.608H756.864L757.213 708.394C758.144 707.016 759.343 705.95 760.812 705.198C762.28 704.447 763.98 704.071 765.914 704.071C767.848 704.071 769.504 704.518 770.882 705.413C772.279 706.309 773.326 707.651 774.024 709.442C774.938 707.795 776.146 706.488 777.65 705.521C779.154 704.554 780.908 704.071 782.914 704.071C785.886 704.071 788.231 705.091 789.95 707.132C791.668 709.155 792.528 712.208 792.528 716.29V729.53L796.905 730.281V733.665H782.833V730.281L787.21 729.53V716.236C787.21 713.372 786.718 711.348 785.733 710.167C784.749 708.967 783.29 708.367 781.356 708.367C779.512 708.367 778.026 709.021 776.898 710.328C775.788 711.617 775.143 713.246 774.964 715.216V729.53L779.342 730.281V733.665H765.296V730.281L769.674 729.53V716.236C769.674 713.515 769.164 711.527 768.143 710.274C767.14 709.003 765.681 708.367 763.766 708.367C762.154 708.367 760.829 708.699 759.791 709.361C758.753 710.024 757.956 710.955 757.401 712.154V729.53L761.778 730.281V733.665H747.733Z" fill="#76411F"/>
<path d="M369.701 793.204V789.82L375.743 789.068V759.769L369.593 759.876V756.573L381.034 754.102V789.068L387.049 789.82V793.204H369.701ZM405.606 793.768C403.064 793.768 400.79 793.15 398.785 791.915C396.798 790.661 395.231 788.844 394.085 786.463C392.94 784.082 392.367 781.199 392.367 777.815V772.552C392.367 768.416 392.984 764.943 394.22 762.132C395.473 759.303 397.192 757.164 399.376 755.713C401.578 754.263 404.103 753.538 406.949 753.538C408.274 753.538 409.59 753.69 410.897 753.995C412.222 754.299 413.314 754.684 414.173 755.149L413.153 759.097C412.311 758.685 411.389 758.354 410.387 758.104C409.384 757.835 408.238 757.701 406.949 757.701C404.21 757.701 402.026 758.739 400.396 760.816C398.785 762.875 397.926 765.99 397.818 770.162L397.926 770.269C398.928 769.338 400.155 768.604 401.605 768.067C403.055 767.512 404.622 767.234 406.305 767.234C408.632 767.234 410.655 767.789 412.374 768.899C414.093 769.992 415.418 771.504 416.349 773.438C417.298 775.372 417.772 777.574 417.772 780.044C417.772 782.748 417.271 785.129 416.268 787.188C415.265 789.247 413.851 790.858 412.025 792.022C410.199 793.186 408.059 793.768 405.606 793.768ZM405.606 789.632C407.057 789.632 408.292 789.211 409.312 788.37C410.333 787.528 411.112 786.382 411.649 784.932C412.204 783.482 412.481 781.853 412.481 780.044C412.481 777.466 411.828 775.345 410.521 773.68C409.232 772.015 407.442 771.182 405.15 771.182C403.95 771.182 402.858 771.352 401.874 771.692C400.907 772.015 400.065 772.48 399.349 773.089C398.651 773.68 398.078 774.378 397.63 775.184V778.326C397.63 781.96 398.382 784.753 399.886 786.705C401.408 788.656 403.315 789.632 405.606 789.632ZM423.734 793.204V787.779H429.024V793.204H423.734ZM447.125 793.768C444.923 793.768 442.944 793.365 441.19 792.559C439.453 791.753 438.093 790.563 437.108 788.987C436.123 787.394 435.658 785.424 435.711 783.079L435.765 782.918H440.545C440.545 785.031 441.154 786.678 442.372 787.859C443.607 789.041 445.191 789.632 447.125 789.632C449.363 789.632 451.1 788.844 452.335 787.269C453.57 785.693 454.188 783.536 454.188 780.796C454.188 778.272 453.561 776.213 452.308 774.62C451.073 773.008 449.354 772.203 447.152 772.203C445.075 772.203 443.562 772.516 442.613 773.143C441.682 773.769 441.002 774.727 440.572 776.016L436.168 775.56L438.424 754.102H459.076V761.836H455.101L454.591 758.802H442.909L441.646 769.786C442.184 769.374 442.765 769.016 443.392 768.711C444.019 768.389 444.699 768.13 445.433 767.933C446.185 767.736 447 767.628 447.877 767.61C450.276 767.592 452.344 768.121 454.081 769.195C455.817 770.251 457.151 771.773 458.082 773.76C459.013 775.73 459.479 778.057 459.479 780.743C459.479 783.357 459.004 785.639 458.055 787.591C457.124 789.542 455.737 791.064 453.893 792.156C452.066 793.23 449.811 793.768 447.125 793.768ZM477.284 793.768C474.652 793.768 472.36 793.159 470.409 791.941C468.457 790.706 466.944 788.996 465.87 786.812C464.796 784.628 464.259 782.103 464.259 779.239V778.111C464.259 775.354 464.778 772.883 465.816 770.699C466.855 768.514 468.35 766.787 470.301 765.516C472.253 764.244 474.58 763.609 477.284 763.609C479.629 763.609 481.679 763.994 483.434 764.764C485.206 765.534 486.692 766.59 487.892 767.933L488.026 774.915H483.89L482.977 769.839C482.368 769.213 481.607 768.711 480.694 768.335C479.781 767.959 478.707 767.771 477.472 767.771C475.896 767.771 474.509 768.237 473.309 769.168C472.127 770.099 471.205 771.343 470.543 772.901C469.881 774.458 469.549 776.195 469.549 778.111V779.239C469.549 781.351 469.854 783.187 470.462 784.744C471.089 786.302 471.975 787.51 473.121 788.37C474.285 789.211 475.663 789.632 477.257 789.632C479.047 789.632 480.533 789.139 481.715 788.155C482.896 787.17 483.622 785.818 483.89 784.1H488.644L488.697 784.261C488.608 785.926 488.115 787.483 487.22 788.934C486.325 790.384 485.045 791.556 483.38 792.452C481.733 793.329 479.701 793.768 477.284 793.768ZM492.833 793.204V789.82L497.21 789.068V768.309L492.833 767.557V764.146H501.964L502.313 767.933C503.244 766.554 504.444 765.489 505.912 764.737C507.38 763.985 509.081 763.609 511.014 763.609C512.948 763.609 514.604 764.056 515.982 764.952C517.379 765.847 518.426 767.19 519.125 768.98C520.038 767.333 521.246 766.026 522.75 765.059C524.254 764.092 526.008 763.609 528.014 763.609C530.986 763.609 533.331 764.629 535.05 766.67C536.769 768.694 537.628 771.746 537.628 775.828V789.068L542.005 789.82V793.204H527.933V789.82L532.311 789.068V775.774C532.311 772.91 531.818 770.887 530.833 769.705C529.849 768.506 528.39 767.906 526.456 767.906C524.612 767.906 523.126 768.559 521.998 769.866C520.888 771.155 520.243 772.785 520.064 774.754V789.068L524.442 789.82V793.204H510.396V789.82L514.774 789.068V775.774C514.774 773.053 514.264 771.066 513.243 769.812C512.241 768.541 510.781 767.906 508.866 767.906C507.254 767.906 505.93 768.237 504.891 768.899C503.853 769.562 503.056 770.493 502.501 771.692V789.068L506.878 789.82V793.204H492.833Z" fill="#76411F"/>
<path d="M607.317 709.83C608.879 708.268 608.879 705.735 607.317 704.173L581.861 678.717C580.299 677.155 577.766 677.155 576.204 678.717C574.642 680.279 574.642 682.812 576.204 684.374L598.831 707.001L576.204 729.629C574.642 731.191 574.642 733.723 576.204 735.285C577.766 736.848 580.299 736.848 581.861 735.285L607.317 709.83ZM303.288 711.001H604.488V703.001H303.288V711.001Z" fill="#99582A"/>
<path d="M712.843 641.806C713.18 639.622 711.683 637.578 709.501 637.241L673.93 631.751C671.748 631.414 669.705 632.911 669.368 635.095C669.031 637.279 670.527 639.322 672.71 639.659L704.328 644.54L699.445 676.172C699.108 678.356 700.604 680.4 702.787 680.737C704.969 681.074 707.012 679.576 707.349 677.393L712.843 641.806ZM621.468 710.229L711.253 644.423L706.527 637.968L616.741 703.774L621.468 710.229Z" fill="#99582A"/>
<path d="M151.591 57.1587C149.782 55.8911 147.287 56.3302 146.02 58.1395L125.359 87.6241C124.091 89.4334 124.529 91.9277 126.338 93.1954C128.147 94.463 130.642 94.0239 131.91 92.2146L150.275 66.0061L176.479 84.3684C178.288 85.636 180.782 85.1969 182.05 83.3876C183.318 81.5783 182.879 79.0839 181.07 77.8163L151.591 57.1587ZM258.681 659.304L153.235 59.7412L145.356 61.1283L250.802 660.691L258.681 659.304Z" fill="#99582A"/>
<path d="M2.60498 284.516V280.89L15.415 266.657C16.9368 264.956 18.1274 263.506 18.9868 262.306C19.8462 261.089 20.446 259.988 20.7861 259.003C21.1263 258.018 21.2964 256.998 21.2964 255.941C21.2964 253.99 20.7056 252.352 19.5239 251.027C18.3423 249.684 16.6504 249.013 14.4482 249.013C12.1566 249.013 10.3662 249.702 9.07715 251.081C7.80599 252.459 7.17041 254.411 7.17041 256.935H2.09473L2.04102 256.774C1.9873 254.518 2.46175 252.495 3.46436 250.705C4.46696 248.896 5.91715 247.473 7.81494 246.435C9.73063 245.378 12.0044 244.85 14.6362 244.85C17.1069 244.85 19.2285 245.325 21.001 246.273C22.7913 247.204 24.1699 248.485 25.1367 250.114C26.1035 251.743 26.5869 253.614 26.5869 255.727C26.5869 257.159 26.3005 258.582 25.7275 259.997C25.1725 261.411 24.349 262.861 23.2568 264.347C22.1826 265.833 20.8846 267.4 19.3628 269.047L9.07715 280.246L9.13086 280.38H23.0151L23.4448 275.895H27.9297V284.516H2.60498ZM44.6338 285.08C42.2526 285.08 40.131 284.65 38.269 283.791C36.4071 282.913 34.9479 281.678 33.8916 280.084C32.8532 278.473 32.3608 276.566 32.4146 274.364L32.4951 274.203H37.5439C37.5439 275.582 37.8304 276.772 38.4033 277.775C38.9762 278.778 39.7909 279.556 40.8472 280.111C41.9035 280.666 43.1657 280.944 44.6338 280.944C46.8717 280.944 48.6263 280.335 49.8975 279.118C51.1686 277.9 51.8042 276.101 51.8042 273.72C51.8042 271.303 51.2402 269.521 50.1123 268.375C48.9844 267.23 47.203 266.657 44.7681 266.657H40.1489V262.521H44.7681C46.3257 262.521 47.5789 262.261 48.5278 261.742C49.4767 261.205 50.1571 260.444 50.5688 259.459C50.9985 258.457 51.2134 257.257 51.2134 255.861C51.2134 253.623 50.6584 251.922 49.5483 250.758C48.4383 249.595 46.8001 249.013 44.6338 249.013C43.2552 249.013 42.0557 249.29 41.0352 249.845C40.0146 250.382 39.2179 251.152 38.645 252.155C38.09 253.139 37.8125 254.303 37.8125 255.646H32.7368L32.6831 255.485C32.6294 253.515 33.0949 251.725 34.0796 250.114C35.0822 248.502 36.4876 247.222 38.2959 246.273C40.1221 245.325 42.2347 244.85 44.6338 244.85C48.2503 244.85 51.1328 245.817 53.2812 247.75C55.4297 249.666 56.5039 252.405 56.5039 255.968C56.5039 257.58 56.0116 259.191 55.0269 260.802C54.0601 262.396 52.6009 263.613 50.6494 264.455C52.9948 265.224 54.6509 266.433 55.6177 268.08C56.6024 269.727 57.0947 271.571 57.0947 273.612C57.0947 275.993 56.5576 278.043 55.4834 279.762C54.4271 281.463 52.959 282.779 51.0791 283.71C49.1992 284.623 47.0508 285.08 44.6338 285.08ZM75.2222 285.08C72.5903 285.08 70.2987 284.471 68.3472 283.253C66.3957 282.018 64.8828 280.308 63.8086 278.124C62.7344 275.94 62.1973 273.415 62.1973 270.551V269.423C62.1973 266.666 62.7165 264.195 63.7549 262.011C64.7933 259.826 66.2882 258.099 68.2397 256.828C70.1912 255.556 72.5187 254.921 75.2222 254.921C77.5675 254.921 79.6175 255.306 81.3721 256.076C83.1445 256.846 84.6305 257.902 85.8301 259.245L85.9644 266.227H81.8286L80.9155 261.151C80.3068 260.525 79.5459 260.023 78.6328 259.647C77.7197 259.271 76.6455 259.083 75.4102 259.083C73.8346 259.083 72.4471 259.549 71.2476 260.48C70.0659 261.411 69.1439 262.655 68.4814 264.213C67.819 265.771 67.4878 267.507 67.4878 269.423V270.551C67.4878 272.663 67.7922 274.499 68.4009 276.056C69.0275 277.614 69.9137 278.822 71.0596 279.682C72.2233 280.523 73.6019 280.944 75.1953 280.944C76.9857 280.944 78.4717 280.451 79.6533 279.467C80.835 278.482 81.5601 277.13 81.8286 275.412H86.582L86.6357 275.573C86.5462 277.238 86.0539 278.795 85.1587 280.246C84.2635 281.696 82.9834 282.868 81.3184 283.764C79.6712 284.641 77.6392 285.08 75.2222 285.08ZM90.7715 284.516V281.132L95.1489 280.38V259.621L90.7715 258.869V255.458H99.9023L100.251 259.245C101.182 257.866 102.382 256.801 103.85 256.049C105.318 255.297 107.019 254.921 108.953 254.921C110.886 254.921 112.542 255.368 113.921 256.264C115.317 257.159 116.365 258.502 117.063 260.292C117.976 258.645 119.185 257.338 120.688 256.371C122.192 255.404 123.947 254.921 125.952 254.921C128.924 254.921 131.27 255.941 132.988 257.982C134.707 260.006 135.566 263.058 135.566 267.14V280.38L139.944 281.132V284.516H125.872V281.132L130.249 280.38V267.086C130.249 264.222 129.757 262.199 128.772 261.017C127.787 259.818 126.328 259.218 124.395 259.218C122.55 259.218 121.064 259.871 119.937 261.178C118.826 262.467 118.182 264.097 118.003 266.066V280.38L122.38 281.132V284.516H108.335V281.132L112.712 280.38V267.086C112.712 264.365 112.202 262.378 111.182 261.125C110.179 259.853 108.72 259.218 106.804 259.218C105.193 259.218 103.868 259.549 102.83 260.211C101.791 260.874 100.994 261.805 100.439 263.004V280.38L104.817 281.132V284.516H90.7715Z" fill="#76411F"/>
<path d="M200.452 60.4346H698.45L609.19 661.042H304.244L200.452 60.4346Z" fill="#955427"/>
<path d="M697.675 61.2948L780.928 14.4751L682.371 608.434L609.186 661.042L697.675 61.2948Z" fill="#874B20"/>
<path d="M361.233 14.4752L780.93 14.4751L697.678 61.2933L200.452 60.4346L361.233 14.4752Z" fill="#9F5C2D"/>
<path d="M361.231 14.4751L514.703 37.4548L200.452 60.4346L361.231 14.4751Z" fill="#955427"/>
<path d="M779.884 14.9976L514.702 37.455L697.66 61.3L779.884 14.9976Z" fill="#955427"/>
<path d="M314.703 188.394C313.373 180.467 319.485 173.244 327.524 173.244H571.702C579.63 173.244 585.712 180.279 584.566 188.124L542.428 476.529C541.495 482.915 536.018 487.649 529.564 487.649H375.887C369.537 487.649 364.116 483.062 363.066 476.799L314.703 188.394Z" fill="#FFE6A7"/>
<path d="M490.797 342.639C490.797 360.5 479.5 406.69 447.303 406.69C413.5 406.69 399.675 375 399.675 342.994C400.99 307.689 411.42 282.944 444.797 282.724C479.824 282.494 488.855 301.004 490.797 342.639Z" fill="#874B20"/>
<path d="M446.336 277.698C452.534 286.79 457.369 323.157 446.336 343.735C433.195 364.788 436.542 395.733 444.051 410.726" stroke="#FFE6A7" stroke-width="11" stroke-linecap="round"/>
<path d="M346.615 210.275C350.731 210.275 354.854 210.271 358.985 210.263C361.511 210.263 363.722 210.645 365.608 211.409C367.516 212.184 369.02 213.33 370.12 214.835C371.232 216.34 371.86 218.182 372.04 220.383C372.186 222.18 372.006 223.719 371.512 224.999C371.03 226.291 370.289 227.358 369.278 228.211C368.291 229.054 367.101 229.717 365.72 230.233C365.039 230.623 364.366 231.004 363.7 231.379C360.182 231.386 356.665 231.39 353.148 231.39C352.954 229.593 352.759 227.792 352.564 225.988C355.191 225.988 357.821 225.991 360.456 225.999C361.634 225.988 362.588 225.785 363.329 225.359C364.081 224.932 364.609 224.314 364.923 223.562C365.26 222.787 365.395 221.888 365.305 220.877C365.215 219.799 364.934 218.889 364.474 218.092C364.014 217.306 363.363 216.71 362.521 216.295C361.69 215.89 360.669 215.666 359.457 215.666C357.623 215.666 355.786 215.67 353.945 215.677C354.851 225.044 355.752 234.423 356.65 243.812C354.443 243.812 352.231 243.808 350.016 243.801C348.879 232.629 347.745 221.454 346.615 210.275ZM368.01 243.801C365.129 238.814 362.229 233.835 359.311 228.863C361.675 228.833 364.04 228.811 366.405 228.796C369.316 233.692 372.204 238.586 375.07 243.475C375.085 243.58 375.097 243.692 375.104 243.812C372.739 243.812 370.375 243.808 368.01 243.801ZM404.547 226.246C404.577 226.785 404.603 227.313 404.626 227.83C404.761 230.39 404.547 232.67 403.975 234.703C403.414 236.736 402.56 238.455 401.427 239.892C400.293 241.296 398.901 242.386 397.262 243.138C395.635 243.891 393.816 244.261 391.773 244.273C389.764 244.273 387.889 243.891 386.161 243.127C384.455 242.386 382.928 241.307 381.603 239.881C380.279 238.455 379.201 236.736 378.359 234.703C377.54 232.682 377.024 230.379 376.822 227.841C376.784 227.317 376.747 226.785 376.709 226.246C376.507 223.685 376.676 221.405 377.203 219.383C377.72 217.351 378.561 215.621 379.695 214.206C380.863 212.779 382.277 211.679 383.938 210.926C385.622 210.185 387.508 209.803 389.584 209.803C391.695 209.803 393.614 210.174 395.376 210.937C397.15 211.679 398.699 212.779 400.012 214.195C401.337 215.621 402.392 217.362 403.178 219.395C403.964 221.405 404.424 223.674 404.547 226.246ZM397.846 227.841C397.809 227.302 397.775 226.759 397.745 226.212C397.644 224.426 397.408 222.854 397.004 221.506C396.611 220.147 396.084 219.013 395.41 218.103C394.748 217.171 393.94 216.475 393.03 216.025C392.11 215.554 391.077 215.306 389.921 215.306C388.776 215.318 387.766 215.554 386.902 216.014C386.06 216.486 385.353 217.171 384.803 218.103C384.253 219.013 383.882 220.158 383.658 221.495C383.433 222.865 383.388 224.426 383.512 226.212C383.549 226.751 383.587 227.291 383.624 227.83C383.747 229.615 384.017 231.165 384.421 232.547C384.836 233.895 385.364 235.04 386.037 235.961C386.711 236.882 387.508 237.579 388.406 238.073C389.304 238.533 390.314 238.769 391.448 238.78C392.57 238.769 393.547 238.545 394.4 238.073C395.242 237.579 395.938 236.882 396.476 235.961C397.015 235.04 397.397 233.883 397.644 232.536C397.88 231.165 397.936 229.604 397.846 227.841ZM422.294 229.076C419.51 229.084 416.719 229.088 413.92 229.088C413.838 227.5 413.759 225.917 413.684 224.337C416.034 224.344 418.388 224.344 420.745 224.337C422.002 224.337 423.012 224.179 423.787 223.865C424.584 223.505 425.156 223.023 425.527 222.405C425.908 221.765 426.099 220.978 426.065 220.057C426.043 219.002 425.819 218.17 425.403 217.53C425.01 216.868 424.393 216.407 423.562 216.104C422.765 215.812 421.721 215.666 420.442 215.677C418.878 215.67 417.31 215.666 415.739 215.666C416.105 225.048 416.468 234.426 416.827 243.801C414.612 243.801 412.401 243.805 410.193 243.812C409.692 232.633 409.191 221.454 408.689 210.275C412.543 210.267 416.401 210.267 420.262 210.275C422.193 210.275 423.922 210.443 425.459 210.825C426.997 211.196 428.31 211.746 429.388 212.499C430.466 213.24 431.308 214.206 431.891 215.351C432.475 216.497 432.789 217.845 432.834 219.406C432.857 220.787 432.587 222.068 431.992 223.236C431.42 224.393 430.488 225.359 429.208 226.077C427.951 226.83 426.268 227.223 424.202 227.313C423.566 227.897 422.93 228.485 422.294 229.076ZM422.507 243.801C419.237 243.801 415.971 243.805 412.708 243.812C413.501 242.015 414.294 240.218 415.087 238.421C417.497 238.421 419.91 238.421 422.328 238.421C423.495 238.421 424.438 238.23 425.167 237.837C425.908 237.444 426.425 236.905 426.773 236.231C427.109 235.557 427.255 234.782 427.233 233.906C427.199 232.918 427.02 232.064 426.672 231.334C426.335 230.615 425.807 230.076 425.1 229.683C424.382 229.278 423.461 229.088 422.294 229.076C420.139 229.084 417.984 229.088 415.828 229.088C415.783 227.508 415.739 225.928 415.694 224.348C418.388 224.348 421.085 224.348 423.787 224.348C424.326 224.962 424.864 225.583 425.403 226.212C427.379 226.167 428.995 226.538 430.219 227.291C431.476 228.032 432.385 228.986 432.958 230.166C433.553 231.356 433.867 232.614 433.9 233.962C433.945 236.119 433.541 237.927 432.666 239.398C431.801 240.858 430.511 241.959 428.782 242.7C427.087 243.43 424.988 243.812 422.507 243.801ZM456.822 210.275C459.082 210.267 461.349 210.263 463.624 210.263C463.594 217.646 463.561 225.033 463.523 232.423C463.512 235.007 462.962 237.174 461.884 238.938C460.829 240.712 459.381 242.038 457.518 242.925C455.677 243.812 453.555 244.261 451.164 244.273C448.762 244.273 446.618 243.823 444.744 242.925C442.869 242.026 441.388 240.701 440.299 238.938C439.221 237.174 438.649 235.007 438.604 232.412C438.469 225.037 438.334 217.654 438.2 210.263C440.482 210.271 442.757 210.275 445.024 210.275C445.114 217.658 445.204 225.037 445.294 232.412C445.316 233.917 445.563 235.153 446.035 236.119C446.495 237.051 447.168 237.77 448.044 238.208C448.908 238.657 449.941 238.87 451.131 238.87C452.343 238.87 453.365 238.646 454.206 238.208C455.071 237.77 455.711 237.062 456.16 236.119C456.609 235.153 456.844 233.917 456.844 232.423C456.837 225.033 456.829 217.65 456.822 210.275ZM485.894 235.018C485.906 234.434 485.838 233.895 485.659 233.423C485.513 232.929 485.221 232.479 484.761 232.086C484.312 231.66 483.672 231.266 482.853 230.851C482.022 230.447 480.944 230.042 479.62 229.604C478.16 229.11 476.769 228.571 475.444 227.953C474.142 227.347 472.986 226.628 471.976 225.819C470.977 224.988 470.202 224.022 469.63 222.933C469.068 221.843 468.799 220.574 468.81 219.136C468.821 217.732 469.136 216.463 469.753 215.34C470.359 214.172 471.223 213.195 472.324 212.386C473.435 211.544 474.726 210.915 476.219 210.477C477.734 210.028 479.395 209.814 481.18 209.803C483.627 209.803 485.749 210.252 487.545 211.128C489.352 212.038 490.721 213.251 491.687 214.812C492.641 216.362 493.09 218.126 493.034 220.114C490.789 220.114 488.544 220.114 486.299 220.114C486.321 219.136 486.153 218.283 485.76 217.553C485.378 216.8 484.783 216.194 483.986 215.767C483.189 215.329 482.19 215.127 480.967 215.127C479.777 215.127 478.789 215.306 478.003 215.666C477.206 216.025 476.611 216.508 476.207 217.137C475.814 217.721 475.601 218.406 475.59 219.159C475.579 219.72 475.702 220.237 475.972 220.709C476.252 221.169 476.656 221.585 477.218 221.978C477.756 222.394 478.43 222.753 479.238 223.124C480.046 223.461 480.978 223.809 482.033 224.157C483.807 224.696 485.356 225.336 486.68 226.01C488.038 226.706 489.15 227.493 490.036 228.335C490.912 229.211 491.574 230.188 492.001 231.266C492.427 232.367 492.618 233.591 492.573 234.984C492.528 236.433 492.214 237.736 491.63 238.904C491.047 240.038 490.227 241.027 489.172 241.824C488.117 242.622 486.871 243.217 485.423 243.644C483.997 244.048 482.381 244.261 480.619 244.273C479.036 244.261 477.465 244.048 475.938 243.61C474.389 243.172 472.986 242.509 471.74 241.622C470.494 240.723 469.495 239.578 468.754 238.196C468.013 236.815 467.643 235.186 467.665 233.288C469.903 233.296 472.144 233.299 474.389 233.299C474.366 234.333 474.501 235.22 474.815 235.95C475.107 236.669 475.534 237.253 476.095 237.702C476.656 238.14 477.341 238.466 478.116 238.657C478.913 238.87 479.788 238.971 480.731 238.971C481.887 238.971 482.841 238.792 483.582 238.466C484.345 238.118 484.918 237.657 485.288 237.051C485.67 236.455 485.872 235.782 485.894 235.018ZM512.857 210.275C512.303 221.454 511.746 232.629 511.184 243.801C508.984 243.801 506.78 243.801 504.573 243.801C505.059 232.622 505.546 221.446 506.032 210.275C508.307 210.267 510.582 210.267 512.857 210.275ZM523.06 210.275C522.956 212.072 522.851 213.873 522.746 215.677C513.766 215.67 504.786 215.666 495.806 215.666C495.866 213.869 495.926 212.072 495.986 210.275C505.011 210.275 514.035 210.275 523.06 210.275ZM552.178 226.246C552.133 226.778 552.088 227.309 552.043 227.841C551.819 230.379 551.291 232.682 550.438 234.703C549.607 236.725 548.507 238.455 547.183 239.881C545.847 241.296 544.32 242.386 542.581 243.138C540.852 243.891 538.977 244.273 536.946 244.261C534.936 244.261 533.107 243.88 531.479 243.138C529.863 242.386 528.493 241.296 527.348 239.892C526.215 238.466 525.373 236.736 524.823 234.703C524.273 232.682 524.082 230.379 524.239 227.83C524.269 227.305 524.303 226.778 524.34 226.246C524.497 223.674 524.98 221.405 525.788 219.383C526.596 217.351 527.663 215.621 528.987 214.195C530.345 212.779 531.906 211.679 533.668 210.926C535.453 210.174 537.383 209.803 539.46 209.803C541.559 209.803 543.445 210.174 545.106 210.926C546.767 211.679 548.171 212.779 549.304 214.195C550.427 215.621 551.246 217.351 551.751 219.383C552.268 221.394 552.414 223.674 552.178 226.246ZM545.252 227.841C545.297 227.294 545.342 226.751 545.387 226.212C545.533 224.426 545.51 222.865 545.297 221.506C545.095 220.158 544.724 219.024 544.174 218.092C543.636 217.171 542.929 216.475 542.075 216.025C541.222 215.554 540.223 215.306 539.067 215.306C537.922 215.318 536.878 215.542 535.958 216.014C535.049 216.486 534.252 217.182 533.567 218.092C532.893 219.013 532.366 220.147 531.95 221.495C531.535 222.854 531.277 224.415 531.154 226.212C531.116 226.751 531.079 227.291 531.041 227.83C530.918 229.604 530.963 231.177 531.176 232.547C531.4 233.895 531.782 235.04 532.321 235.961C532.86 236.882 533.556 237.579 534.398 238.073C535.239 238.545 536.216 238.78 537.338 238.78C538.472 238.769 539.482 238.545 540.392 238.062C541.301 237.579 542.087 236.882 542.76 235.961C543.422 235.04 543.972 233.895 544.399 232.536C544.826 231.177 545.106 229.604 545.252 227.841Z" fill="#874B20"/>
<path d="M364.883 564.878C362.458 564.258 360.037 563.637 357.62 563.017C357.503 551.328 357.434 539.636 357.413 527.941C369.728 527.941 382.05 527.945 394.379 527.952C394.552 530.724 394.724 533.492 394.896 536.258C385.226 536.244 375.562 536.233 365.906 536.227C365.816 542.619 365.744 549.008 365.689 555.393C366.898 554.649 368.447 553.966 370.338 553.314C372.27 552.683 374.522 552.363 377.105 552.373C380.349 552.373 383.325 552.942 385.99 554.08C388.666 555.176 390.97 556.759 392.933 558.827C394.917 560.906 396.497 563.399 397.675 566.316C398.853 569.223 399.566 572.471 399.824 576.06C400.072 579.453 399.845 582.566 399.163 585.4C398.491 588.245 397.365 590.727 395.764 592.858C394.162 594.947 392.075 596.571 389.493 597.719C386.951 598.878 383.872 599.447 380.277 599.426C377.57 599.416 374.966 599.023 372.446 598.237C369.956 597.419 367.662 596.199 365.565 594.585C363.499 592.92 361.711 590.882 360.223 588.472C358.767 586.01 357.682 583.135 357 579.846C359.769 579.853 362.538 579.859 365.307 579.866C365.957 582.514 366.949 584.749 368.272 586.559C369.584 588.369 371.185 589.744 373.086 590.686C375.008 591.596 377.177 592.051 379.595 592.061C381.641 592.072 383.418 591.71 384.936 590.975C386.445 590.241 387.695 589.176 388.666 587.79C389.627 586.414 390.319 584.728 390.712 582.763C391.146 580.797 391.259 578.584 391.053 576.122C390.867 573.898 390.391 571.84 389.627 569.916C388.873 568.013 387.819 566.347 386.486 564.93C385.184 563.503 383.635 562.396 381.837 561.62C380.039 560.813 378.035 560.4 375.793 560.4C372.818 560.389 370.607 560.793 369.16 561.599C367.745 562.396 366.319 563.492 364.883 564.878ZM452.267 557.741C452.322 561.334 452.377 564.934 452.432 568.54C452.515 574.343 452.102 579.225 451.161 583.218C450.232 587.2 448.857 590.396 447.06 592.827C445.262 595.237 443.072 597.006 440.479 598.092C437.927 599.147 435.034 599.674 431.79 599.654C429.207 599.643 426.82 599.292 424.609 598.609C422.398 597.916 420.373 596.82 418.555 595.33C416.737 593.799 415.146 591.824 413.782 589.393C412.398 586.952 411.261 584.014 410.393 580.549C409.515 577.084 408.926 573.05 408.637 568.426C408.41 564.834 408.182 561.244 407.955 557.659C407.604 551.866 407.831 547.015 408.647 543.095C409.515 539.185 410.879 536.051 412.728 533.692C414.598 531.293 416.892 529.586 419.63 528.552C422.388 527.517 425.519 527 428.98 527C431.79 527.01 434.373 527.341 436.739 528.024C439.125 528.676 441.264 529.72 443.144 531.179C445.014 532.617 446.605 534.52 447.938 536.93C449.291 539.288 450.325 542.195 451.068 545.629C451.802 549.073 452.195 553.107 452.267 557.741ZM443.609 569.967C443.499 565.389 443.385 560.806 443.268 556.221C443.196 553.045 442.938 550.252 442.483 547.853C442.08 545.432 441.491 543.343 440.727 541.636C439.962 539.919 439.022 538.523 437.875 537.457C436.77 536.371 435.478 535.606 434.021 535.12C432.585 534.592 430.994 534.334 429.217 534.334C427.048 534.334 425.147 534.737 423.494 535.544C421.861 536.32 420.497 537.571 419.433 539.288C418.39 540.995 417.646 543.24 417.191 546.022C416.747 548.815 416.633 552.187 416.84 556.169C417.081 560.748 417.322 565.327 417.563 569.905C417.739 573.071 418.059 575.863 418.534 578.294C419.041 580.725 419.702 582.825 420.518 584.604C421.314 586.362 422.254 587.81 423.328 588.948C424.413 590.086 425.622 590.924 426.986 591.482C428.37 592.01 429.878 592.268 431.511 592.268C433.618 592.279 435.447 591.875 436.987 591.037C438.536 590.2 439.817 588.886 440.83 587.107C441.873 585.307 442.607 582.99 443.072 580.177C443.537 577.322 443.712 573.919 443.609 569.967ZM507.757 557.855C507.599 561.455 507.437 565.061 507.272 568.675C507.014 574.498 506.301 579.401 505.123 583.404C503.945 587.396 502.395 590.603 500.453 593.044C498.511 595.465 496.227 597.233 493.583 598.33C490.969 599.385 488.045 599.902 484.79 599.892C482.218 599.881 479.842 599.53 477.672 598.847C475.492 598.144 473.539 597.047 471.783 595.558C470.068 594.016 468.591 592.041 467.361 589.6C466.111 587.159 465.161 584.2 464.499 580.725C463.838 577.249 463.497 573.205 463.477 568.561C463.47 564.961 463.459 561.362 463.446 557.762C463.425 551.959 463.931 547.087 464.964 543.167C466.028 539.237 467.547 536.102 469.52 533.734C471.504 531.334 473.88 529.607 476.649 528.572C479.459 527.538 482.6 527.021 486.082 527.031C488.892 527.031 491.454 527.362 493.789 528.045C496.155 528.707 498.242 529.751 500.06 531.22C501.858 532.648 503.367 534.561 504.565 536.971C505.805 539.35 506.693 542.257 507.241 545.701C507.778 549.156 507.954 553.2 507.757 557.855ZM498.366 570.112C498.531 565.52 498.693 560.924 498.852 556.324C498.955 553.138 498.862 550.346 498.542 547.925C498.263 545.494 497.777 543.415 497.116 541.698C496.444 539.971 495.556 538.575 494.481 537.499C493.428 536.423 492.167 535.647 490.741 535.161C489.336 534.634 487.756 534.375 485.979 534.375C483.809 534.365 481.887 534.778 480.193 535.585C478.519 536.371 477.093 537.613 475.936 539.34C474.821 541.047 473.953 543.302 473.343 546.094C472.744 548.887 472.434 552.269 472.413 556.272C472.386 560.865 472.355 565.458 472.32 570.05C472.3 573.226 472.465 576.029 472.785 578.47C473.147 580.911 473.674 583.011 474.376 584.8C475.079 586.559 475.936 588.007 476.949 589.145C477.951 590.293 479.118 591.131 480.451 591.689C481.794 592.217 483.292 592.475 484.925 592.486C487.043 592.496 488.882 592.092 490.483 591.244C492.085 590.406 493.438 589.093 494.554 587.314C495.69 585.504 496.579 583.176 497.209 580.352C497.85 577.487 498.232 574.084 498.366 570.112ZM554.89 546.301C557.597 546.308 560.3 546.315 563 546.322C561.375 563.582 559.752 580.842 558.134 598.102C557.7 602.767 556.44 606.739 554.353 610.028C552.297 613.307 549.621 615.79 546.346 617.465C543.112 619.172 539.465 620.02 535.405 620C533.721 619.989 531.747 619.689 529.485 619.089C527.253 618.52 525.073 617.548 522.945 616.162C520.827 614.828 519.081 613.007 517.707 610.732C519.263 608.946 520.83 607.163 522.408 605.384C524.329 608.053 526.385 609.925 528.575 610.98C530.797 612.025 532.997 612.563 535.208 612.573C537.884 612.594 540.229 612.066 542.254 610.99C544.279 609.935 545.922 608.342 547.162 606.232C548.443 604.143 549.218 601.578 549.476 598.516C550.668 584.993 551.863 571.467 553.061 557.938C553.674 554.056 554.284 550.177 554.89 546.301ZM517.211 573.236C517.231 572.898 517.252 572.557 517.273 572.212C517.5 568.178 518.161 564.527 519.277 561.237C520.424 557.917 521.953 555.073 523.864 552.704C525.807 550.335 528.11 548.504 530.735 547.242C533.39 545.95 536.324 545.298 539.537 545.298C542.854 545.308 545.684 545.898 548.05 547.067C550.437 548.215 552.4 549.901 553.908 552.114C555.448 554.307 556.563 556.945 557.276 560.048C557.969 563.151 558.33 566.657 558.341 570.567C558.203 572.064 558.065 573.564 557.927 575.067C557.225 578.946 556.233 582.432 554.941 585.524C553.691 588.617 552.121 591.255 550.251 593.427C548.412 595.609 546.253 597.275 543.773 598.443C541.314 599.571 538.494 600.13 535.332 600.119C532.357 600.098 529.691 599.426 527.346 598.081C525.032 596.737 523.079 594.865 521.488 592.444C519.897 590.034 518.729 587.19 517.975 583.931C517.242 580.642 516.994 577.084 517.211 573.236ZM526.044 572.243C526.017 572.588 525.993 572.926 525.972 573.257C525.807 575.894 525.889 578.377 526.24 580.683C526.623 583 527.284 585.038 528.224 586.797C529.195 588.555 530.487 589.951 532.088 590.965C533.69 591.948 535.653 592.444 537.987 592.455C540.829 592.465 543.246 591.834 545.209 590.582C547.193 589.31 548.825 587.634 550.096 585.555C551.408 583.476 552.493 581.221 553.33 578.77C553.688 574.839 554.043 570.912 554.394 566.988C554.218 565.199 553.826 563.461 553.247 561.806C552.689 560.11 551.904 558.61 550.86 557.297C549.858 555.962 548.557 554.897 546.945 554.121C545.343 553.325 543.411 552.942 541.149 552.931C538.7 552.931 536.562 553.438 534.723 554.473C532.915 555.486 531.386 556.883 530.146 558.672C528.937 560.431 527.987 562.479 527.284 564.816C526.633 567.133 526.209 569.605 526.044 572.243Z" fill="#FFE6A7"/>
</svg>
