<svg width="962" height="898" viewBox="0 0 962 898" fill="none" xmlns="http://www.w3.org/2000/svg">
<path d="M0 64.125C0 47.118 6.756 30.8075 18.7818 18.7818C30.8075 6.756 47.118 0 64.125 0H769.5C786.507 0 802.817 6.756 814.843 18.7818C826.869 30.8075 833.625 47.118 833.625 64.125V128.25H865.688C891.198 128.25 915.664 138.384 933.702 156.423C951.741 174.461 961.875 198.927 961.875 224.438V673.312C961.875 698.823 951.741 723.289 933.702 741.327C915.664 759.366 891.198 769.5 865.688 769.5H830.419C823.027 805.71 803.352 838.255 774.723 861.625C746.094 884.996 710.269 897.758 673.312 897.75H160.312C117.795 897.75 77.0189 880.86 46.9544 850.796C16.89 820.731 0 779.955 0 737.438V64.125ZM833.625 705.375H865.688C874.191 705.375 882.346 701.997 888.359 695.984C894.372 689.971 897.75 681.816 897.75 673.312V224.438C897.75 215.934 894.372 207.779 888.359 201.766C882.346 195.753 874.191 192.375 865.688 192.375H833.625V705.375Z" fill="#99582A"/>
<path d="M457.655 515.307C452.401 515.504 447.264 517.048 442.664 519.814C438.063 522.58 434.128 526.489 431.181 531.222C427.201 524.909 421.476 520.138 414.835 517.6C408.194 515.062 400.983 514.888 394.246 517.104C387.509 519.32 381.595 523.811 377.362 529.926C373.128 536.041 370.795 543.463 370.7 551.117C370.7 604.949 431.181 622.971 431.181 622.971C431.181 622.971 491.877 604.949 491.877 551.117C491.881 546.294 490.988 541.519 489.253 537.081C487.518 532.642 484.976 528.63 481.78 525.286C478.584 521.941 474.8 519.334 470.654 517.619C466.508 515.904 462.087 515.118 457.655 515.307Z" fill="#178F8E"/>
<path d="M286.327 358.96H471.215H574.097V671.654H286.327V448.368" stroke="#FFE6A7" stroke-width="63.6667" stroke-miterlimit="10"/>
<path d="M512.325 449.304H286.327C275.461 449.304 265.037 444.627 257.334 436.294C249.63 427.961 245.274 416.65 245.217 404.834C245.012 398.739 245.999 392.666 248.114 387.017C250.229 381.369 253.424 376.273 257.486 372.067C261.246 367.901 265.735 364.596 270.689 362.345C275.642 360.094 280.959 358.943 286.327 358.96H471.215" stroke="#FFE6A7" stroke-width="63.6667" stroke-miterlimit="10"/>
<path d="M286.327 449.304C275.461 449.304 265.037 444.627 257.334 436.293C249.631 427.96 245.274 416.65 245.217 404.834C245.074 398.866 246.031 392.927 248.032 387.367C250.034 381.808 253.039 376.74 256.871 372.464C260.703 368.189 265.283 364.791 270.343 362.471C275.402 360.152 280.837 358.958 286.327 358.96" stroke="#FFE6A7" stroke-width="63.6667" stroke-miterlimit="10"/>
<path d="M512.325 449.304C501.459 449.304 491.035 444.626 483.331 436.293C475.628 427.96 471.272 416.649 471.215 404.834C471.215 392.978 475.546 381.607 483.256 373.223C490.965 364.84 501.422 360.13 512.325 360.13" stroke="#FFE6A7" stroke-width="63.6667" stroke-miterlimit="10"/>
<path d="M553.435 180.144H306.99V358.96H553.435V180.144Z" stroke="#FFE6A7" stroke-width="46" stroke-miterlimit="10"/>
<path d="M306.99 269.552H553.435" stroke="#FFE6A7" stroke-width="37" stroke-miterlimit="10"/>
<path d="M430.105 180.144V358.96" stroke="#FFE6A7" stroke-width="45" stroke-miterlimit="10"/>
</svg>
