<svg width="468" height="668" viewBox="0 0 468 668" fill="none" xmlns="http://www.w3.org/2000/svg">
<path fill-rule="evenodd" clip-rule="evenodd" d="M0.666687 234C0.666687 105.134 105.134 0.666679 234 0.666679C362.867 0.666679 467.333 105.134 467.333 234V434C467.333 562.867 362.867 667.333 234 667.333C105.134 667.333 0.666687 562.867 0.666687 434V234ZM234 67.3333C141.953 67.3333 67.3334 141.953 67.3334 234V434C67.3334 526.047 141.953 600.667 234 600.667C326.047 600.667 400.667 526.047 400.667 434V234C400.667 141.953 326.047 67.3333 234 67.3333Z" fill="#FFE6A7"/>
<path d="M267.73 215.67C267.73 219.361 267.73 297.17 267.73 316.67C267.73 329.67 258.38 349.67 234.38 349.67C210.38 349.67 200.38 329.67 201.03 316.67C201.03 299.17 201.112 219.36 201.03 215.67C200.83 206.67 207.38 183 234.38 183C261.38 183 267.73 206.17 267.73 215.67Z" fill="#178F8E"/>
</svg>
