<svg width="371" height="476" viewBox="0 0 371 476" fill="none" xmlns="http://www.w3.org/2000/svg">
<path d="M357.33 230.743C357.33 309.298 349.57 362.879 326.483 398.866C304.253 433.518 265.956 454.414 197.179 462.499C130.976 462.248 83.5546 429.735 53.3864 384.755C22.8047 339.159 10.2406 281.001 15.0164 232.054C19.9657 181.327 33.7999 125.973 60.7014 83.7176C87.2588 42.0027 126.097 13.4994 182.645 13.4995C253.441 13.4997 296.289 45.9221 322.124 88.6971C348.465 132.31 357.33 187.278 357.33 230.743Z" fill="#6F3B1D" stroke="#3D1803" stroke-width="27"/>
<path d="M188.835 62.1577C212.638 85.467 231.204 178.704 188.835 231.46C138.371 285.436 151.225 364.769 180.062 403.209" stroke="#AB6533" stroke-opacity="0.82" stroke-width="33" stroke-linecap="round"/>
</svg>
