<?xml version="1.0" standalone="no"?>
<!DOCTYPE svg PUBLIC "-//W3C//DTD SVG 20010904//EN"
 "http://www.w3.org/TR/2001/REC-SVG-20010904/DTD/svg10.dtd">
<svg version="1.0" xmlns="http://www.w3.org/2000/svg"
 width="96.000000pt" height="96.000000pt" viewBox="0 0 96.000000 96.000000"
 preserveAspectRatio="xMidYMid meet">
<metadata>
Created by potrace 1.14, written by Peter Selinger 2001-2017
</metadata>
<g transform="translate(0.000000,96.000000) scale(0.100000,-0.100000)"
fill="#000000" stroke="none">
<path d="M17 712 c-15 -3 -17 -27 -17 -242 l0 -238 58 1 57 2 2 75 c0 41 2 78
2 83 1 4 15 7 31 7 28 0 33 -7 72 -84 l42 -84 63 0 63 1 -50 95 -50 96 34 32
c38 36 52 82 43 139 -14 84 -74 115 -230 118 -57 1 -111 1 -120 -1z m181 -91
c32 -1 60 -33 57 -66 -5 -45 -32 -65 -87 -65 -26 0 -48 3 -49 8 -1 12 -2 85 0
107 1 16 7 20 29 19 15 -1 37 -3 50 -3z"/>
<path d="M485 698 c-108 -60 -131 -271 -41 -374 31 -34 91 -61 101 -44 15 24
5 131 -20 205 -26 78 -30 155 -9 208 7 20 -3 21 -31 5z"/>
<path d="M525 690 c-13 -41 -6 -101 20 -180 24 -72 27 -93 21 -157 -5 -65 -4
-74 10 -69 9 3 17 6 20 6 2 0 -1 12 -7 27 -21 55 8 152 66 221 l26 31 -24 48
c-37 74 -117 119 -132 73z"/>
<path d="M778 603 c-87 -29 -178 -147 -178 -231 0 -42 25 -102 43 -102 29 0
103 96 130 171 18 48 61 99 109 126 37 23 35 30 -9 42 -45 13 -37 13 -95 -6z"/>
<path d="M877 549 c-24 -19 -50 -59 -76 -112 -40 -85 -76 -131 -124 -162 l-29
-18 27 -15 c51 -26 156 8 211 70 65 72 89 164 61 231 -9 20 -20 37 -24 37 -5
0 -25 -14 -46 -31z"/>
</g>
</svg>
