<svg width="863" height="644" viewBox="0 0 863 644" fill="none" xmlns="http://www.w3.org/2000/svg">
<path d="M197.587 0C142.454 0 99.9881 74.8667 99.9881 130V182.409C125.388 197.842 145.998 221.813 157.931 251.68L188.294 346L476.25 346L510.405 247.253C521.705 219.053 541.788 196.652 566.655 182.018V130C566.655 74.8667 519.387 4.57764e-05 464.254 4.57764e-05L197.587 0ZM600.9 201.859C573.6 201.859 549.054 218.484 538.92 243.851L489.051 368.525H177.397L129.35 248.278C119.617 223.945 98.06 204.651 71.9934 202.184C58.66 200.918 45.7074 203.5 33.9074 209.867C3.34074 226.267 -7.57332 265.167 5.32668 297.367L61.9673 439.033C74.4331 470.143 101.479 492.223 133.321 499.255V535.192C133.259 539.609 134.075 543.995 135.722 548.094C137.369 552.193 139.815 555.923 142.916 559.069C146.018 562.215 149.713 564.713 153.789 566.417C157.864 568.122 162.237 569 166.655 569C171.072 569 175.446 568.122 179.521 566.417C183.596 564.713 187.292 562.215 190.394 559.069C193.495 555.923 195.94 552.193 197.587 548.094C199.235 543.995 200.051 539.609 199.988 535.192V501.859H466.655V535.192C466.592 539.609 467.408 543.995 469.056 548.094C470.703 552.193 473.148 555.923 476.25 559.069C479.351 562.215 483.047 564.713 487.122 566.417C491.197 568.122 495.571 569 499.988 569C504.406 569 508.779 568.122 512.854 566.417C516.93 564.713 520.625 562.215 523.727 559.069C526.828 555.923 529.274 552.193 530.921 548.094C532.568 543.995 533.384 539.609 533.322 535.192V499.19C565.067 492.092 592.011 470.02 604.415 438.968L661.381 296.585C673.715 265.719 663.97 228.758 635.47 211.624C624.803 205.191 613.066 201.859 600.9 201.859Z" fill="#99582A"/>
<path d="M667.454 257V609M559.989 609H788.258M503.327 257H828.327" stroke="#FFE6A7" stroke-width="69" stroke-linecap="round"/>
<path d="M557.922 80.3604H639.806L624.745 192.98H572.679L557.922 80.3604Z" fill="#99582A"/>
<path fill-rule="evenodd" clip-rule="evenodd" d="M589.908 105.362C594.482 105.358 598.372 109.717 599.767 115.769C599.421 116.094 599.08 116.434 598.747 116.79C595.713 120.03 593.853 123.93 593.305 127.608C592.921 130.171 593.172 132.634 594.093 134.712C593.21 135.277 592.263 135.668 591.273 135.852C593.179 127.767 592.243 123.748 590.796 120.027C589.395 116.424 587.498 112.562 589.616 105.365C589.711 105.365 589.811 105.362 589.908 105.362ZM617.082 114.662C621.144 118.976 619.898 127.324 614.298 133.305C609.129 138.827 602.058 140.403 597.807 137.224C604.524 132.95 606.527 129.406 607.975 125.69C609.374 122.091 610.597 117.933 616.874 114.451C616.943 114.517 617.014 114.589 617.082 114.662ZM597.124 136.647C597.014 136.543 596.906 136.436 596.802 136.325C592.74 132.012 593.986 123.664 599.586 117.682C604.862 112.046 612.118 110.522 616.338 113.967C609.606 117.598 607.789 120.643 606.316 124.432C604.933 127.982 603.439 132.532 597.124 136.647ZM590.409 135.96C590.263 135.971 590.117 135.974 589.971 135.975C584.238 135.979 579.577 129.13 579.56 120.676C579.544 112.714 583.655 106.166 588.925 105.432C586.58 113.071 587.321 116.595 588.793 120.385C590.174 123.944 592.138 128.29 590.409 135.96Z" fill="#FFE6A7"/>
<path d="M535.827 81.125H544.623L559.515 200.226C559.753 202.131 560.678 203.883 562.116 205.153C563.555 206.423 565.408 207.124 567.327 207.125H630.327C632.246 207.124 634.099 206.423 635.537 205.153C636.976 203.883 637.901 202.131 638.139 200.226L653.03 81.125H661.827C663.915 81.125 665.918 80.2953 667.395 78.8185C668.872 77.3416 669.702 75.3386 669.702 73.25C669.702 71.1614 668.872 69.1584 667.395 67.6815C665.918 66.2047 663.915 65.375 661.827 65.375H651.755L645.675 47.1365C645.153 45.5678 644.15 44.2033 642.808 43.2365C641.467 42.2697 639.855 41.7496 638.202 41.75H630.327C630.327 39.6614 629.497 37.6584 628.02 36.1815C626.543 34.7047 624.54 33.875 622.452 33.875H614.577C612.488 33.875 610.485 34.7047 609.008 36.1815C607.531 37.6584 606.702 39.6614 606.702 41.75H559.452C557.798 41.7496 556.187 42.2697 554.845 43.2365C553.504 44.2033 552.501 45.5678 551.978 47.1365L545.899 65.375H535.827C533.738 65.375 531.735 66.2047 530.258 67.6815C528.781 69.1584 527.952 71.1614 527.952 73.25C527.952 75.3386 528.781 77.3416 530.258 78.8185C531.735 80.2953 533.738 81.125 535.827 81.125ZM623.373 191.375H574.28L560.499 81.125H637.154L623.373 191.375ZM565.13 57.5H632.524L635.154 65.375H562.499L565.13 57.5Z" fill="#FFE6A7"/>
</svg>
