<svg width="694" height="774" viewBox="0 0 694 774" fill="none" xmlns="http://www.w3.org/2000/svg">
<path d="M334.04 501.045C426.279 501.045 501.055 426.27 501.055 334.03C501.055 241.79 426.279 167.015 334.04 167.015C241.8 167.015 167.025 241.79 167.025 334.03C167.025 426.27 241.8 501.045 334.04 501.045Z" fill="#99582A"/>
<path fill-rule="evenodd" clip-rule="evenodd" d="M125.264 333.946C125.264 310.868 106.59 292.195 83.5126 292.195H41.7511C18.6732 292.195 0 310.868 0 333.946C0 357.024 18.6732 375.697 41.7511 375.697H83.5021C106.59 375.697 125.264 357.024 125.264 333.946Z" fill="#99582A"/>
<path fill-rule="evenodd" clip-rule="evenodd" d="M127.382 481.557L97.8227 511.127C81.5085 527.431 81.5085 553.86 97.8227 570.163C114.127 586.467 140.555 586.467 156.869 570.163L186.439 540.604C202.743 524.3 202.743 497.861 186.439 481.557C170.115 465.243 143.697 465.243 127.382 481.557Z" fill="#99582A"/>
<path fill-rule="evenodd" clip-rule="evenodd" d="M334.04 542.722C310.962 542.722 292.289 561.395 292.289 584.473V626.235C292.289 649.313 310.962 667.986 334.04 667.986C357.118 667.986 375.791 649.313 375.791 626.235L375.749 584.473C375.791 561.395 357.076 542.722 334.04 542.722Z" fill="#99582A"/>
<path fill-rule="evenodd" clip-rule="evenodd" d="M540.655 481.599C524.383 465.253 497.954 465.253 481.651 481.557C465.347 497.861 465.347 524.3 481.651 540.604L511.179 570.122C527.483 586.509 553.911 586.425 570.215 570.122C586.519 553.818 586.561 527.431 570.215 511.086L540.655 481.599Z" fill="#99582A"/>
<path fill-rule="evenodd" clip-rule="evenodd" d="M626.329 292.195L584.484 292.279C561.489 292.195 542.816 310.868 542.816 333.946C542.733 357.024 561.489 375.697 584.484 375.697H626.245C649.407 375.781 667.996 357.024 667.996 333.946C668.038 310.91 649.407 292.195 626.329 292.195Z" fill="#99582A"/>
<path fill-rule="evenodd" clip-rule="evenodd" d="M540.655 186.377L570.173 156.849C586.602 140.503 586.477 114.116 570.173 97.8022C553.901 81.4463 527.483 81.4463 511.179 97.7605L481.651 127.362C465.347 143.593 465.347 170.011 481.651 186.325C497.871 202.733 524.383 202.65 540.655 186.377Z" fill="#99582A"/>
<path fill-rule="evenodd" clip-rule="evenodd" d="M334.04 125.17C357.076 125.337 375.791 106.497 375.791 83.5024V41.7513C375.791 18.5899 357.118 0.000278964 334.04 0.000278964C310.962 -0.0832232 292.289 18.5899 292.289 41.6783L292.372 83.5128C292.289 106.497 310.962 125.17 334.04 125.17Z" fill="#99582A"/>
<path fill-rule="evenodd" clip-rule="evenodd" d="M127.466 186.335C143.697 202.639 170.042 202.639 186.398 186.293C202.827 170.104 202.743 143.603 186.481 127.33L156.953 97.8124C140.565 81.4147 114.22 81.5399 97.9062 97.8124C81.4667 114.085 81.4667 140.503 97.781 156.817L127.466 186.335Z" fill="#99582A"/>
<path d="M493.298 424.16V738.963M382.44 738.963H617.916M323.988 424.16H659.249" stroke="#FFE6A7" stroke-width="69" stroke-linecap="round"/>
<path d="M364.147 255.949H449.931L434.153 373.932H379.607L364.147 255.949Z" fill="#99582A"/>
<path fill-rule="evenodd" clip-rule="evenodd" d="M397.657 282.141C402.448 282.137 406.523 286.703 407.985 293.044C407.623 293.385 407.266 293.74 406.916 294.114C403.738 297.508 401.79 301.594 401.215 305.446C400.813 308.132 401.076 310.712 402.04 312.889C401.116 313.481 400.124 313.891 399.087 314.084C401.083 305.613 400.102 301.403 398.587 297.505C397.119 293.73 395.131 289.684 397.351 282.145C397.45 282.145 397.555 282.141 397.657 282.141ZM426.125 291.884C430.38 296.403 429.075 305.149 423.208 311.415C417.793 317.2 410.386 318.851 405.932 315.52C412.969 311.043 415.067 307.331 416.584 303.437C418.049 299.667 419.331 295.311 425.906 291.663C425.979 291.732 426.053 291.808 426.125 291.884ZM405.216 314.916C405.1 314.807 404.987 314.695 404.879 314.579C400.623 310.06 401.929 301.315 407.796 295.048C413.323 289.144 420.924 287.547 425.345 291.156C418.292 294.96 416.389 298.15 414.846 302.12C413.397 305.839 411.832 310.605 405.216 314.916ZM398.181 314.197C398.029 314.208 397.875 314.211 397.723 314.212C391.716 314.216 386.834 307.042 386.816 298.185C386.799 289.843 391.106 282.983 396.626 282.214C394.17 290.218 394.946 293.91 396.489 297.88C397.935 301.608 399.993 306.161 398.181 314.197Z" fill="#FFE6A7"/>
<path d="M341 256.75H350.215L365.816 381.523C366.065 383.518 367.034 385.353 368.541 386.684C370.048 388.015 371.99 388.749 374 388.75H440C442.01 388.749 443.952 388.015 445.459 386.684C446.966 385.353 447.935 383.518 448.184 381.523L463.785 256.75H473C475.188 256.75 477.286 255.881 478.834 254.334C480.381 252.786 481.25 250.688 481.25 248.5C481.25 246.312 480.381 244.214 478.834 242.666C477.286 241.119 475.188 240.25 473 240.25H462.448L456.079 221.143C455.532 219.5 454.481 218.07 453.076 217.057C451.671 216.044 449.982 215.5 448.25 215.5H440C440 213.312 439.131 211.214 437.584 209.666C436.036 208.119 433.938 207.25 431.75 207.25H423.5C421.312 207.25 419.214 208.119 417.666 209.666C416.119 211.214 415.25 213.312 415.25 215.5H365.75C364.018 215.5 362.329 216.044 360.924 217.057C359.519 218.07 358.468 219.5 357.921 221.143L351.552 240.25H341C338.812 240.25 336.714 241.119 335.166 242.666C333.619 244.214 332.75 246.312 332.75 248.5C332.75 250.688 333.619 252.786 335.166 254.334C336.714 255.881 338.812 256.75 341 256.75ZM432.715 372.25H381.285L366.847 256.75H447.153L432.715 372.25ZM371.698 232H442.302L445.057 240.25H368.943L371.698 232Z" fill="#FFE6A7"/>
</svg>
