<svg width="982" height="1102" viewBox="0 0 982 1102" fill="none" xmlns="http://www.w3.org/2000/svg">
<g id="weely">
<g id="head">
<g id="tube">
<path id="Rectangle 26" d="M654.535 336.676C651.953 281.58 664.857 259.378 712.444 234.893L715.421 236.587C666.953 260.096 654.549 282.51 657.512 338.37L654.535 336.676Z" fill="#D6A411"/>
<circle id="Ellipse 9" cx="719.5" cy="235.427" r="7" fill="#D6A411"/>
</g>
<path id="Ellipse 1" d="M734.5 441.429C734.5 493.929 662.642 497.929 574 497.929C485.358 497.929 418 493.929 418 441.429C418 348.093 485.358 272.429 574 272.429C662.642 272.429 734.5 348.093 734.5 441.429Z" fill="#99582A"/>
<path id="Ellipse 5" d="M734.5 441.429C734.5 493.929 662.642 497.929 574 497.929C485.358 497.929 418.005 493.929 418 441.429C418 438.927 432.5 499.927 574 482.927C718.5 499.427 734.5 438.427 734.5 441.429Z" fill="#924814" fill-opacity="0.63"/>
<path id="Ellipse 3" d="M655 392.428C655 402.857 652.088 412.146 647.561 418.73C643.024 425.33 637.11 428.928 631 428.928C624.89 428.928 618.976 425.33 614.439 418.73C609.912 412.146 607 402.857 607 392.428C607 381.999 609.912 372.711 614.439 366.127C618.976 359.527 624.89 355.928 631 355.928C637.11 355.928 643.024 359.527 647.561 366.127C652.088 372.711 655 381.999 655 392.428Z" fill="#4D251C" stroke="#5C3127" stroke-width="7"/>
<path id="Ellipse 4" d="M538 392.427C538 402.856 535.088 412.145 530.561 418.729C526.024 425.328 520.11 428.927 514 428.927C507.89 428.927 501.976 425.328 497.439 418.729C492.912 412.145 490 402.856 490 392.427C490 381.998 492.912 372.71 497.439 366.126C501.976 359.526 507.89 355.927 514 355.927C520.11 355.927 526.024 359.526 530.561 366.126C535.088 372.71 538 381.998 538 392.427Z" fill="#4D251C" stroke="#5C3127" stroke-width="7"/>
</g>
<g id="monocle">
<path id="Ellipse 3_2" d="M671.5 392.5C671.5 421.264 653.285 443.5 632 443.5C610.715 443.5 592.5 421.264 592.5 392.5C592.5 363.736 610.715 341.5 632 341.5C653.285 341.5 671.5 363.736 671.5 392.5Z" fill="#F5F5F5" fill-opacity="0.13" stroke="#D6A411" stroke-width="5"/>
<rect id="Rectangle 12" x="666.816" y="366.772" width="51.5748" height="5" rx="2" transform="rotate(-17.5 666.816 366.772)" fill="#D6A411"/>
</g>
<g id="right-arm">
<g id="right-second">
<rect id="dandajdadada" x="230.648" y="711.31" width="190.783" height="39.1676" rx="19.5838" transform="rotate(-122.5 230.648 711.31)" fill="#99582A"/>
<path id="fbhbkf" d="M219.244 693.259L140.71 569.986V569.986C145.8 566.744 152.554 568.241 155.797 573.33L222.588 678.172C225.831 683.262 224.333 690.016 219.244 693.259V693.259Z" fill="#924814" fill-opacity="0.63"/>
</g>
<g id="right-first">
<rect id="ndajdadma" x="210.018" y="686.305" width="194.768" height="39.1676" rx="19.5838" transform="rotate(-48 210.018 686.305)" fill="#99582A"/>
<path id="dnjqI" d="M354.142 584.947L254.114 695.859V695.859C249.633 691.817 249.276 684.908 253.318 680.427L338.71 585.743C342.752 581.262 349.661 580.905 354.142 584.947V584.947Z" fill="#924814" fill-opacity="0.63"/>
</g>
</g>
<g id="left-arm">
<g id="left-second">
<rect id="left-second_2" x="942.353" y="679.652" width="190.783" height="39.1676" rx="19.5838" transform="rotate(124.976 942.353 679.652)" fill="#99582A"/>
<path id="shafjsqbfl" d="M928.638 699.26L847.103 815.81V815.81C842.158 812.35 840.954 805.538 844.413 800.593L913.422 701.95C916.881 697.005 923.694 695.801 928.638 699.26V699.26Z" fill="#924814" fill-opacity="0.63"/>
</g>
<g id="left-first">
<rect id="djabhdk" x="913.252" y="710.467" width="194.768" height="39.1676" rx="19.5838" transform="rotate(-134.024 913.252 710.467)" fill="#99582A"/>
<path id="abhdiabdhabd" d="M889.916 686.33L791.066 584.053V584.053C795.405 579.86 802.322 579.978 806.516 584.317L890.179 670.88C894.373 675.219 894.255 682.136 889.916 686.33V686.33Z" fill="#924814" fill-opacity="0.63"/>
</g>
</g>
<g id="body">
<rect id="Rectangle 4" x="548" y="773" width="57" height="245" fill="#703811"/>
<path id="wheel" d="M631 1045.7C631 1093.5 602.5 1101.5 575.5 1101.5C548.5 1101.5 520 1092.5 520 1045.7C520 996.712 549 987 577 983C607 988 631 996.712 631 1045.7Z" fill="#4E2407"/>
<path id="wheel_2" d="M631 1045.7C631 1093.5 602.5 1101.5 575.5 1101.5C548.5 1101.5 520 1092.5 520 1045.7C520 996.712 516 1086.5 575.5 1086.5C635 1086.5 631 996.712 631 1045.7Z" fill="#461D00"/>
<path id="wheel_3" d="M631 1049.73C631 1056.97 604 1030.89 577 1030.89C550 1030.89 520 1055.37 520 1049.73C520 997.594 549 987.257 577 983C607 988.321 631 997.594 631 1049.73Z" fill="#3F1A00"/>
<rect id="Rectangle 3" x="369" y="529" width="411" height="77" rx="5" fill="#99582A"/>
<path id="Ellipse 5_2" d="M646 1022.09C646 1066.88 614.66 1022.09 576 1022.09C537.34 1022.09 506 1066.88 506 1022.09C506 977.307 537.34 941 576 941C614.66 941 646 977.307 646 1022.09Z" fill="#99582A"/>
<path id="Ellipse 7" d="M646 1022.09C646 1066.88 614.66 1022.09 576 1022.09C537.34 1022.09 505.5 1067.79 505.5 1023C505.5 1023 537.34 1007.5 576 1007.5C614.66 1007.5 646 1022.09 646 1022.09Z" fill="#924814" fill-opacity="0.63"/>
<path id="Ellipse 4_2" d="M758 617.466C758 731.71 718.5 891 576 891C433.5 891 391 731.71 391 617.466C391 503.221 461.125 532.312 576 532.312C690.875 532.312 758 503.221 758 617.466Z" fill="#99582A"/>
<path id="Ellipse 6" d="M758 617.466C758 731.71 718.5 891 576 891C433.5 891 391 731.71 391 617.466C428 738.5 453 832.5 576 832.5C699 832.5 720.5 739.5 758 617.466Z" fill="#924814" fill-opacity="0.63"/>
<path id="Rectangle 29" d="M369 534C369 531.239 371.239 529 374 529H382V606H374C371.239 606 369 603.761 369 601V534Z" fill="#924814" fill-opacity="0.63"/>
<path id="Rectangle 31" d="M382.025 605.998L381.969 593.045L391.182 593.005L391.238 605.958L382.025 605.998Z" fill="#924814" fill-opacity="0.63"/>
<path id="Rectangle 32" d="M758.056 605.993L758 593.04L767.213 593L767.269 605.953L758.056 605.993Z" fill="#914A19" fill-opacity="0.63"/>
<path id="Rectangle 30" d="M780 534C780 531.239 777.761 529 775 529H767V606H775C777.761 606 780 603.761 780 601V534Z" fill="#914A19" fill-opacity="0.63"/>
<g id="coffee-machine-inside">
<path id="Rectangle 6" d="M530.081 586H622.919V732.343H530.081V586Z" fill="#662F08"/>
<path id="Polygon 3" d="M622.919 732.343L656 772.745H497L530.081 732.343H622.919Z" fill="#914A19"/>
<g id="Coffee cup inside">
<path id="Rectangle 19" d="M544 643H609V687C609 697.493 600.493 706 590 706H563C552.507 706 544 697.493 544 687V643Z" fill="#B8672D"/>
<path id="Rectangle 39" d="M544 643H563V706V706C552.507 706 544 697.493 544 687V643Z" fill="#9F4D12" fill-opacity="0.3"/>
<path id="Rectangle 40" d="M609 643H590V706V706C600.493 706 609 697.493 609 687V643Z" fill="#9F4D12" fill-opacity="0.3"/>
<path id="Rectangle 41" d="M590 706C600.493 706 609 697.493 609 687V687H544V687C544 697.493 552.507 706 563 706H590Z" fill="#9F4D12" fill-opacity="0.3"/>
<path id="Ellipse 6_2" d="M608 643C608 643.146 607.936 643.384 607.615 643.722C607.29 644.064 606.76 644.442 605.992 644.834C604.459 645.614 602.175 646.346 599.27 646.972C593.477 648.22 585.426 649 576.5 649C567.574 649 559.523 648.22 553.73 646.972C550.825 646.346 548.541 645.614 547.008 644.834C546.24 644.442 545.71 644.064 545.385 643.722C545.064 643.384 545 643.146 545 643C545 642.854 545.064 642.616 545.385 642.278C545.71 641.936 546.24 641.558 547.008 641.166C548.541 640.386 550.825 639.654 553.73 639.028C559.523 637.78 567.574 637 576.5 637C585.426 637 593.477 637.78 599.27 639.028C602.175 639.654 604.459 640.386 605.992 641.166C606.76 641.558 607.29 641.936 607.615 642.278C607.936 642.616 608 642.854 608 643Z" fill="#99582A" stroke="#814215" stroke-width="2"/>
<ellipse id="Ellipse 7_2" cx="576" cy="746.5" rx="34" ry="8.5" fill="#7E3E12"/>
<path id="Rectangle 43" d="M544 687H563V706V706C552.507 706 544 697.493 544 687V687Z" fill="#B8672D" fill-opacity="0.42"/>
<path id="Rectangle 44" d="M609 687H590V706V706C600.493 706 609 697.493 609 687V687Z" fill="#B8672D" fill-opacity="0.42"/>
</g>
<path id="coffee-liquid" d="M574 623C574 622.448 574.448 622 575 622H578C578.552 622 579 622.448 579 623V648H574V623Z" fill="#CB8858"/>
<g id="Polygon 4">
<path d="M530.081 586V732.343L497 772.745V586H530.081Z" fill="#814215"/>
<path d="M656 586V772.745L622.919 732.343V586H656Z" fill="#814215"/>
</g>
<g id="Polygon 5">
<path d="M530.081 586V592.5V601.263L497 586H530.081Z" fill="#703710" fill-opacity="0.36"/>
<path d="M530.081 586V592.5V601.263L497 586H530.081Z" fill="#703710" fill-opacity="0.36"/>
</g>
<path id="Rectangle 9" d="M570.631 612.036H582.369V617.912C582.369 620.121 580.578 621.912 578.369 621.912H574.631C572.422 621.912 570.631 620.121 570.631 617.912V612.036Z" fill="#783A0F"/>
<path id="Rectangle 7" d="M567.429 586H585.57V609.037C585.57 610.693 584.227 612.037 582.57 612.037H570.429C568.773 612.037 567.429 610.693 567.429 609.037V586Z" fill="#783A0F"/>
<rect id="Rectangle 41_2" x="570.63" y="612" width="11.75" height="2" fill="#703309" fill-opacity="0.92"/>
<rect id="Rectangle 42" x="567.4" y="586" width="18.2" height="4" fill="#703309" fill-opacity="0.92"/>
</g>
</g>
<g id="bow-tie">
<path id="Polygon 1" d="M579.025 511.948C580.921 513.121 580.921 515.879 579.025 517.051L536.616 543.279C534.617 544.515 532.038 543.077 532.038 540.727V488.273C532.038 485.923 534.617 484.485 536.616 485.721L579.025 511.948Z" fill="#339989"/>
<path id="Polygon 2" d="M572.575 517.052C570.679 515.879 570.679 513.121 572.575 511.949L614.984 485.721C616.983 484.485 619.562 485.923 619.562 488.273V540.727C619.562 543.077 616.983 544.515 614.984 543.279L572.575 517.052Z" fill="#339989"/>
<path id="Polygon 9" d="M575.731 513L589.6 522.5L614.135 542.788L575.731 519.062L537.328 542.788L561.6 522.5L575.731 513Z" fill="#187E6E"/>
</g>
<g id="Bubble">
<rect id="Rectangle 13" x="14" y="0.585693" width="942" height="187" rx="34" fill="#4E2407"/>
<path id="Polygon 6" d="M398.881 219.404L351.736 183.861L389.311 161.295L398.881 219.404Z" fill="#4E2407"/>
<path id="OH NO! PAGE NOT FOUND!" d="M78.5361 94.5537C75.9873 94.5537 73.6846 94.0791 71.6279 93.1299C69.5713 92.1631 67.8047 90.8096 66.3281 89.0693C64.8691 87.3291 63.7441 85.2725 62.9531 82.8994C62.1621 80.5264 61.7666 77.9248 61.7666 75.0947V74.5146C61.7666 71.7021 62.1621 69.1094 62.9531 66.7363C63.7441 64.3633 64.8691 62.3066 66.3281 60.5664C67.8047 58.8086 69.5713 57.4551 71.6279 56.5059C73.6846 55.5391 75.9785 55.0557 78.5098 55.0557C81.1289 55.0557 83.4756 55.5391 85.5498 56.5059C87.624 57.4551 89.3906 58.8086 90.8496 60.5664C92.3086 62.3066 93.4248 64.3633 94.1982 66.7363C94.9717 69.1094 95.3584 71.7021 95.3584 74.5146V75.0947C95.3584 77.9248 94.9717 80.5264 94.1982 82.8994C93.4248 85.2725 92.3086 87.3291 90.8496 89.0693C89.3906 90.8096 87.624 92.1631 85.5498 93.1299C83.4756 94.0791 81.1377 94.5537 78.5361 94.5537ZM78.5361 89.2803C80.8564 89.2803 82.7637 88.6914 84.2578 87.5137C85.7695 86.3184 86.8857 84.6572 87.6064 82.5303C88.3447 80.4033 88.7139 77.9248 88.7139 75.0947V74.4619C88.7139 71.667 88.3447 69.2148 87.6064 67.1055C86.8682 64.9961 85.7432 63.3438 84.2314 62.1484C82.7373 60.9531 80.8301 60.3555 78.5098 60.3555C76.2949 60.3555 74.4404 60.9531 72.9463 62.1484C71.4521 63.3438 70.3271 64.9961 69.5713 67.1055C68.8154 69.2148 68.4375 71.667 68.4375 74.4619V75.0947C68.4375 77.9072 68.8154 80.3857 69.5713 82.5303C70.3271 84.6572 71.4521 86.3184 72.9463 87.5137C74.458 88.6914 76.3213 89.2803 78.5361 89.2803ZM106.912 94V89.9395L111.105 89.1484V60.4873L106.912 59.6963V55.6094H121.942V59.6963L117.749 60.4873V72.458H134.545V60.4873L130.353 59.6963V55.6094H134.545H141.163H145.356V59.6963L141.163 60.4873V89.1484L145.356 89.9395V94H130.353V89.9395L134.545 89.1484V77.626H117.749V89.1484L121.942 89.9395V94H106.912ZM178.404 94V89.9395L182.597 89.1484V60.4873L178.404 59.6963V55.6094H182.597H189.321L206.934 83.6377L207.092 83.585V60.4873L202.24 59.6963V55.6094H213.077H217.27V59.6963L213.077 60.4873V94H206.776L188.74 66.0771L188.582 66.1035V89.1484L193.434 89.9395V94H178.404ZM245.462 94.5537C242.913 94.5537 240.61 94.0791 238.553 93.1299C236.497 92.1631 234.73 90.8096 233.254 89.0693C231.795 87.3291 230.67 85.2725 229.879 82.8994C229.087 80.5264 228.692 77.9248 228.692 75.0947V74.5146C228.692 71.7021 229.087 69.1094 229.879 66.7363C230.67 64.3633 231.795 62.3066 233.254 60.5664C234.73 58.8086 236.497 57.4551 238.553 56.5059C240.61 55.5391 242.904 55.0557 245.435 55.0557C248.054 55.0557 250.401 55.5391 252.475 56.5059C254.549 57.4551 256.316 58.8086 257.775 60.5664C259.234 62.3066 260.35 64.3633 261.124 66.7363C261.897 69.1094 262.284 71.7021 262.284 74.5146V75.0947C262.284 77.9248 261.897 80.5264 261.124 82.8994C260.35 85.2725 259.234 87.3291 257.775 89.0693C256.316 90.8096 254.549 92.1631 252.475 93.1299C250.401 94.0791 248.063 94.5537 245.462 94.5537ZM245.462 89.2803C247.782 89.2803 249.689 88.6914 251.183 87.5137C252.695 86.3184 253.811 84.6572 254.532 82.5303C255.27 80.4033 255.639 77.9248 255.639 75.0947V74.4619C255.639 71.667 255.27 69.2148 254.532 67.1055C253.794 64.9961 252.669 63.3438 251.157 62.1484C249.663 60.9531 247.755 60.3555 245.435 60.3555C243.22 60.3555 241.366 60.9531 239.872 62.1484C238.378 63.3438 237.253 64.9961 236.497 67.1055C235.741 69.2148 235.363 71.667 235.363 74.4619V75.0947C235.363 77.9072 235.741 80.3857 236.497 82.5303C237.253 84.6572 238.378 86.3184 239.872 87.5137C241.383 88.6914 243.247 89.2803 245.462 89.2803ZM275.499 81.0273V55.6094H282.144V81.0273H275.499ZM275.499 94V87.8301H282.144V94H275.499ZM316.511 94V89.9395L320.703 89.1484V60.4873L316.511 59.6963V55.6094H320.703H334.519C337.385 55.6094 339.837 56.1104 341.876 57.1123C343.932 58.1143 345.506 59.5117 346.596 61.3047C347.685 63.0801 348.23 65.1631 348.23 67.5537C348.23 69.9443 347.685 72.0361 346.596 73.8291C345.506 75.6045 343.932 76.9844 341.876 77.9688C339.837 78.9531 337.385 79.4453 334.519 79.4453H327.347V89.1484L331.54 89.9395V94H316.511ZM327.347 74.3037H334.519C336.875 74.3037 338.641 73.6709 339.819 72.4053C340.997 71.1396 341.586 69.54 341.586 67.6064C341.586 65.6377 340.997 64.0029 339.819 62.7021C338.641 61.4014 336.875 60.751 334.519 60.751H327.347V74.3037ZM352.85 94V89.9395L355.645 89.5439L368.354 55.6094H374.814L387.364 89.5439L390.159 89.9395V94H377.951V89.9395L380.694 89.4385L378.663 83.4004H364.372L362.289 89.4385L365.058 89.9395V94H352.85ZM366.112 78.3115H376.949L371.966 64.0996L371.623 63.0713H371.465L371.096 64.1523L366.112 78.3115ZM417.376 94.5537C413.684 94.5537 410.511 93.7539 407.857 92.1543C405.203 90.5371 403.164 88.3047 401.74 85.457C400.316 82.5918 399.604 79.2783 399.604 75.5166V74.4883C399.604 70.6387 400.307 67.2637 401.713 64.3633C403.137 61.4453 405.124 59.1689 407.672 57.5342C410.221 55.8818 413.192 55.0557 416.585 55.0557C419.432 55.0557 421.999 55.4248 424.284 56.1631C426.569 56.8838 428.538 57.9209 430.19 59.2744V67.4746H425.101L424.257 62.1484C423.484 61.5684 422.5 61.1113 421.304 60.7773C420.109 60.4434 418.72 60.2764 417.138 60.2764C414.976 60.2764 413.069 60.874 411.417 62.0693C409.782 63.2471 408.507 64.8994 407.593 67.0264C406.697 69.1357 406.249 71.6055 406.249 74.4355V75.5166C406.249 78.3115 406.679 80.7461 407.541 82.8203C408.42 84.8945 409.694 86.5029 411.364 87.6455C413.051 88.7881 415.099 89.3594 417.507 89.3594C419.037 89.3594 420.381 89.2188 421.542 88.9375C422.719 88.6562 423.721 88.3047 424.547 87.8828V80.3154L418.272 79.9463V75.2266H431.192V90.4668C429.733 91.6094 427.87 92.5762 425.602 93.3672C423.352 94.1582 420.61 94.5537 417.376 94.5537ZM443.748 94V89.9395L447.94 89.1484V60.4873L443.748 59.6963V55.6094H472.989V65.4971H467.821L467.373 60.7246H454.585V71.5879H468.059V76.7295H454.585V88.9375H468.085L468.533 84.0596H473.648V94H443.748ZM507.805 94V89.9395L511.997 89.1484V60.4873L507.805 59.6963V55.6094H511.997H518.721L536.334 83.6377L536.492 83.585V60.4873L531.64 59.6963V55.6094H542.477H546.67V59.6963L542.477 60.4873V94H536.176L518.14 66.0771L517.982 66.1035V89.1484L522.834 89.9395V94H507.805ZM574.862 94.5537C572.313 94.5537 570.01 94.0791 567.953 93.1299C565.897 92.1631 564.13 90.8096 562.654 89.0693C561.195 87.3291 560.07 85.2725 559.279 82.8994C558.488 80.5264 558.092 77.9248 558.092 75.0947V74.5146C558.092 71.7021 558.488 69.1094 559.279 66.7363C560.07 64.3633 561.195 62.3066 562.654 60.5664C564.13 58.8086 565.897 57.4551 567.953 56.5059C570.01 55.5391 572.304 55.0557 574.835 55.0557C577.454 55.0557 579.801 55.5391 581.875 56.5059C583.949 57.4551 585.716 58.8086 587.175 60.5664C588.634 62.3066 589.75 64.3633 590.524 66.7363C591.297 69.1094 591.684 71.7021 591.684 74.5146V75.0947C591.684 77.9248 591.297 80.5264 590.524 82.8994C589.75 85.2725 588.634 87.3291 587.175 89.0693C585.716 90.8096 583.949 92.1631 581.875 93.1299C579.801 94.0791 577.463 94.5537 574.862 94.5537ZM574.862 89.2803C577.182 89.2803 579.089 88.6914 580.583 87.5137C582.095 86.3184 583.211 84.6572 583.932 82.5303C584.67 80.4033 585.039 77.9248 585.039 75.0947V74.4619C585.039 71.667 584.67 69.2148 583.932 67.1055C583.194 64.9961 582.069 63.3438 580.557 62.1484C579.063 60.9531 577.155 60.3555 574.835 60.3555C572.62 60.3555 570.766 60.9531 569.272 62.1484C567.778 63.3438 566.653 64.9961 565.897 67.1055C565.141 69.2148 564.763 71.667 564.763 74.4619V75.0947C564.763 77.9072 565.141 80.3857 565.897 82.5303C566.653 84.6572 567.778 86.3184 569.272 87.5137C570.783 88.6914 572.647 89.2803 574.862 89.2803ZM611.623 94V89.9395L615.815 89.1484V60.6982H608.089L607.509 65.6025H602.526V55.6094H635.775V65.6025H630.765L630.185 60.6982H622.46V89.1484L626.652 89.9395V94H611.623ZM668.85 94V89.9395L673.042 89.1484V60.4873L668.85 59.6963V55.6094H698.698V65.5762H693.53L693.108 60.751H679.687V72.458H693.371V77.5996H679.687V89.1484L683.879 89.9395V94H668.85ZM725.861 94.5537C723.312 94.5537 721.01 94.0791 718.953 93.1299C716.896 92.1631 715.13 90.8096 713.653 89.0693C712.194 87.3291 711.069 85.2725 710.278 82.8994C709.487 80.5264 709.092 77.9248 709.092 75.0947V74.5146C709.092 71.7021 709.487 69.1094 710.278 66.7363C711.069 64.3633 712.194 62.3066 713.653 60.5664C715.13 58.8086 716.896 57.4551 718.953 56.5059C721.01 55.5391 723.304 55.0557 725.835 55.0557C728.454 55.0557 730.801 55.5391 732.875 56.5059C734.949 57.4551 736.716 58.8086 738.175 60.5664C739.634 62.3066 740.75 64.3633 741.523 66.7363C742.297 69.1094 742.683 71.7021 742.683 74.5146V75.0947C742.683 77.9248 742.297 80.5264 741.523 82.8994C740.75 85.2725 739.634 87.3291 738.175 89.0693C736.716 90.8096 734.949 92.1631 732.875 93.1299C730.801 94.0791 728.463 94.5537 725.861 94.5537ZM725.861 89.2803C728.181 89.2803 730.089 88.6914 731.583 87.5137C733.095 86.3184 734.211 84.6572 734.931 82.5303C735.67 80.4033 736.039 77.9248 736.039 75.0947V74.4619C736.039 71.667 735.67 69.2148 734.931 67.1055C734.193 64.9961 733.068 63.3438 731.556 62.1484C730.062 60.9531 728.155 60.3555 725.835 60.3555C723.62 60.3555 721.765 60.9531 720.271 62.1484C718.777 63.3438 717.652 64.9961 716.896 67.1055C716.14 69.2148 715.763 71.667 715.763 74.4619V75.0947C715.763 77.9072 716.14 80.3857 716.896 82.5303C717.652 84.6572 718.777 86.3184 720.271 87.5137C721.783 88.6914 723.646 89.2803 725.861 89.2803ZM772.721 94.5537C769.856 94.5537 767.316 94.0352 765.101 92.998C762.886 91.9434 761.154 90.4316 759.906 88.4629C758.676 86.4941 758.061 84.1123 758.061 81.3174V60.4873L753.868 59.6963V55.6094H768.871V59.6963L764.679 60.4873V81.3174C764.679 83.0928 765.013 84.5869 765.681 85.7998C766.349 86.9951 767.289 87.8916 768.502 88.4893C769.715 89.0869 771.13 89.3857 772.747 89.3857C774.417 89.3857 775.859 89.0869 777.071 88.4893C778.302 87.8916 779.251 86.9951 779.919 85.7998C780.605 84.6045 780.947 83.1104 780.947 81.3174V60.4873L776.755 59.6963V55.6094H791.758V59.6963L787.592 60.4873V81.3174C787.592 84.1475 786.968 86.5469 785.72 88.5156C784.489 90.4844 782.758 91.9873 780.526 93.0244C778.293 94.0439 775.692 94.5537 772.721 94.5537ZM803.022 94V89.9395L807.214 89.1484V60.4873L803.022 59.6963V55.6094H807.214H813.938L831.551 83.6377L831.71 83.585V60.4873L826.858 59.6963V55.6094H837.695H841.887V59.6963L837.695 60.4873V94H831.393L813.358 66.0771L813.2 66.1035V89.1484L818.051 89.9395V94H803.022ZM853.283 94V89.9395L857.502 89.1221V60.54L853.283 59.6963V55.6094H857.502H869.367C872.795 55.6094 875.792 56.418 878.358 58.0352C880.942 59.6523 882.955 61.876 884.396 64.7061C885.838 67.5361 886.559 70.7793 886.559 74.4355V75.2002C886.559 78.8037 885.855 82.0293 884.449 84.877C883.043 87.707 881.057 89.9395 878.49 91.5742C875.941 93.1914 872.962 94 869.552 94H853.283ZM864.146 88.8848H869.209C871.459 88.8848 873.375 88.2871 874.957 87.0918C876.557 85.8789 877.778 84.2441 878.622 82.1875C879.466 80.1133 879.888 77.7842 879.888 75.2002V74.4092C879.888 71.7549 879.466 69.4082 878.622 67.3691C877.778 65.3125 876.557 63.6953 874.957 62.5176C873.375 61.3398 871.459 60.751 869.209 60.751H864.146V88.8848ZM899.906 81.0273V55.6094H906.55V81.0273H899.906ZM899.906 94V87.8301H906.55V94H899.906Z" fill="#FFE6A7"/>
<path id="~Weely-404~" d="M633.807 140.234L630.987 139.909C630.987 140.297 630.919 140.673 630.782 141.037C630.646 141.402 630.463 141.721 630.235 141.994C630.007 142.279 629.74 142.507 629.432 142.678C629.136 142.849 628.817 142.934 628.475 142.934C628.179 142.934 627.888 142.9 627.604 142.832C627.33 142.763 627.057 142.661 626.783 142.524C626.521 142.387 626.253 142.228 625.98 142.045C625.718 141.852 625.439 141.635 625.143 141.396C624.721 141.031 624.299 140.707 623.878 140.422C623.468 140.126 623.046 139.886 622.613 139.704C622.18 139.499 621.73 139.345 621.263 139.243C620.796 139.129 620.306 139.072 619.793 139.072C619.019 139.072 618.312 139.226 617.674 139.533C617.036 139.841 616.495 140.262 616.051 140.798C615.584 141.333 615.225 141.971 614.974 142.712C614.723 143.441 614.598 144.227 614.598 145.07L617.35 145.412C617.35 145.025 617.418 144.654 617.555 144.301C617.691 143.948 617.879 143.64 618.119 143.378C618.347 143.116 618.614 142.906 618.922 142.746C619.241 142.587 619.571 142.507 619.913 142.507C620.187 142.507 620.454 142.535 620.716 142.592C620.978 142.649 621.235 142.74 621.485 142.866C621.782 142.991 622.078 143.156 622.374 143.361C622.67 143.555 622.972 143.777 623.28 144.028C623.724 144.427 624.151 144.774 624.562 145.07C624.983 145.355 625.41 145.594 625.843 145.788C626.265 145.982 626.698 146.13 627.142 146.232C627.598 146.324 628.082 146.369 628.595 146.369C629.369 146.369 630.076 146.21 630.714 145.891C631.352 145.572 631.904 145.133 632.372 144.575C632.827 144.028 633.181 143.384 633.431 142.644C633.682 141.892 633.807 141.088 633.807 140.234ZM645.704 153H649.583L652.078 137.773L652.266 136.594L652.437 137.773L654.966 153H658.846L662.127 128.117H658.299L656.573 143.396L656.453 144.438L656.282 143.413L653.804 128.117H650.66L648.267 143.344L648.096 144.37L647.977 143.396L646.268 128.117H642.457L645.704 153ZM680.62 153.342C682.42 153.342 683.953 152.989 685.217 152.282C686.494 151.576 687.439 150.778 688.054 149.89L685.867 147.771C685.297 148.5 684.574 149.064 683.696 149.462C682.819 149.85 681.874 150.043 680.86 150.043C680.119 150.043 679.435 149.918 678.809 149.667C678.194 149.417 677.658 149.064 677.202 148.608C676.747 148.175 676.388 147.685 676.126 147.138C675.864 146.591 675.67 145.913 675.545 145.104V145.019H688.362V143.259C688.362 141.937 688.185 140.718 687.832 139.602C687.479 138.485 686.955 137.522 686.26 136.713C685.565 135.916 684.705 135.295 683.679 134.851C682.654 134.395 681.475 134.167 680.142 134.167C678.946 134.167 677.818 134.395 676.758 134.851C675.71 135.295 674.787 135.933 673.989 136.765C673.192 137.596 672.565 138.599 672.11 139.772C671.654 140.946 671.426 142.256 671.426 143.703V144.404C671.426 145.668 671.642 146.848 672.075 147.941C672.52 149.024 673.146 149.964 673.955 150.761C674.764 151.57 675.733 152.202 676.861 152.658C678 153.114 679.253 153.342 680.62 153.342ZM680.125 137.482C680.808 137.482 681.406 137.602 681.919 137.841C682.443 138.069 682.876 138.377 683.218 138.764C683.571 139.163 683.845 139.63 684.038 140.166C684.232 140.69 684.329 141.219 684.329 141.755V142.028H675.63C675.755 141.322 675.949 140.69 676.211 140.131C676.473 139.573 676.798 139.095 677.185 138.696C677.573 138.308 678.011 138.012 678.501 137.807C679.002 137.591 679.544 137.482 680.125 137.482ZM708.291 153.342C710.091 153.342 711.623 152.989 712.888 152.282C714.164 151.576 715.11 150.778 715.725 149.89L713.537 147.771C712.968 148.5 712.244 149.064 711.367 149.462C710.49 149.85 709.544 150.043 708.53 150.043C707.79 150.043 707.106 149.918 706.479 149.667C705.864 149.417 705.329 149.064 704.873 148.608C704.417 148.175 704.058 147.685 703.796 147.138C703.534 146.591 703.34 145.913 703.215 145.104V145.019H716.033V143.259C716.033 141.937 715.856 140.718 715.503 139.602C715.15 138.485 714.625 137.522 713.93 136.713C713.235 135.916 712.375 135.295 711.35 134.851C710.325 134.395 709.145 134.167 707.812 134.167C706.616 134.167 705.488 134.395 704.429 134.851C703.38 135.295 702.457 135.933 701.66 136.765C700.862 137.596 700.236 138.599 699.78 139.772C699.324 140.946 699.096 142.256 699.096 143.703V144.404C699.096 145.668 699.313 146.848 699.746 147.941C700.19 149.024 700.817 149.964 701.626 150.761C702.435 151.57 703.403 152.202 704.531 152.658C705.67 153.114 706.924 153.342 708.291 153.342ZM707.795 137.482C708.479 137.482 709.077 137.602 709.59 137.841C710.114 138.069 710.547 138.377 710.888 138.764C711.242 139.163 711.515 139.63 711.709 140.166C711.902 140.69 711.999 141.219 711.999 141.755V142.028H703.301C703.426 141.322 703.62 140.69 703.882 140.131C704.144 139.573 704.468 139.095 704.856 138.696C705.243 138.308 705.682 138.012 706.172 137.807C706.673 137.591 707.214 137.482 707.795 137.482ZM728.117 126.75V130.151H733.962V149.616H728.117V153H743.686V149.616H738.08V126.75H728.117ZM757.326 160.468C758.226 160.468 759.012 160.309 759.684 159.99C760.356 159.682 760.937 159.295 761.427 158.828C761.917 158.372 762.322 157.871 762.641 157.324C762.971 156.788 763.244 156.281 763.461 155.803L772.843 134.509H768.314L763.854 145.856L763.085 147.839L762.453 145.805L757.855 134.509H753.361L761.239 152.18L760.077 154.384C759.952 154.635 759.815 154.874 759.667 155.102C759.53 155.33 759.348 155.592 759.12 155.888C758.881 156.184 758.602 156.446 758.283 156.674C757.964 156.914 757.605 157.033 757.206 157.033C757.024 157.033 756.785 157.022 756.488 156.999C756.203 156.988 755.947 156.976 755.719 156.965L755.155 160.161C755.486 160.24 755.827 160.309 756.181 160.366C756.545 160.434 756.927 160.468 757.326 160.468ZM798.138 143.72V140.405H784.381V143.72H798.138ZM823.775 144.13V128.117H819.571L808.821 144.934L808.924 147.446H819.691V153H823.775V147.446H826.903V144.13H823.775ZM812.991 144.13L819.212 134.475L819.691 133.586V144.13H812.991ZM853.975 143.515V137.619C853.975 136.024 853.787 134.617 853.411 133.398C853.035 132.167 852.505 131.131 851.822 130.288C851.115 129.456 850.261 128.829 849.258 128.408C848.267 127.975 847.139 127.758 845.874 127.758C844.621 127.758 843.493 127.975 842.491 128.408C841.499 128.829 840.656 129.456 839.961 130.288C839.266 131.131 838.731 132.167 838.355 133.398C837.99 134.617 837.808 136.024 837.808 137.619V143.515C837.808 145.11 837.99 146.523 838.355 147.753C838.731 148.972 839.272 149.992 839.978 150.812C840.673 151.656 841.522 152.294 842.525 152.727C843.527 153.148 844.655 153.359 845.908 153.359C847.173 153.359 848.301 153.148 849.292 152.727C850.295 152.294 851.138 151.656 851.822 150.812C852.517 149.992 853.046 148.972 853.411 147.753C853.787 146.523 853.975 145.11 853.975 143.515ZM841.909 142.062C841.909 141.732 841.909 141.453 841.909 141.225C841.909 140.997 841.909 140.667 841.909 140.234V136.884C841.909 135.859 842.001 134.97 842.183 134.218C842.365 133.455 842.644 132.834 843.02 132.355C843.339 131.934 843.738 131.615 844.217 131.398C844.695 131.182 845.248 131.074 845.874 131.074C846.455 131.074 846.974 131.165 847.429 131.347C847.897 131.529 848.29 131.803 848.609 132.167C848.973 132.578 849.252 133.107 849.446 133.757C849.651 134.406 849.776 135.175 849.822 136.064L841.909 142.062ZM849.856 144.199C849.856 145.247 849.759 146.158 849.566 146.933C849.383 147.708 849.104 148.334 848.728 148.813C848.398 149.223 847.999 149.536 847.532 149.753C847.065 149.958 846.524 150.061 845.908 150.061C845.282 150.061 844.729 149.952 844.251 149.736C843.784 149.519 843.391 149.195 843.072 148.762C842.753 148.363 842.496 147.862 842.303 147.258C842.12 146.654 842.001 145.959 841.944 145.173L849.856 139.208C849.856 139.539 849.856 139.858 849.856 140.166C849.856 140.473 849.856 140.769 849.856 141.054V144.199ZM879.116 144.13V128.117H874.912L864.163 144.934L864.265 147.446H875.032V153H879.116V147.446H882.244V144.13H879.116ZM868.332 144.13L874.553 134.475L875.032 133.586V144.13H868.332ZM910.512 140.234L907.692 139.909C907.692 140.297 907.624 140.673 907.487 141.037C907.351 141.402 907.168 141.721 906.94 141.994C906.713 142.279 906.445 142.507 906.137 142.678C905.841 142.849 905.522 142.934 905.18 142.934C904.884 142.934 904.593 142.9 904.309 142.832C904.035 142.763 903.762 142.661 903.488 142.524C903.226 142.387 902.958 142.228 902.685 142.045C902.423 141.852 902.144 141.635 901.848 141.396C901.426 141.031 901.005 140.707 900.583 140.422C900.173 140.126 899.751 139.886 899.318 139.704C898.885 139.499 898.435 139.345 897.968 139.243C897.501 139.129 897.011 139.072 896.499 139.072C895.724 139.072 895.017 139.226 894.379 139.533C893.741 139.841 893.2 140.262 892.756 140.798C892.289 141.333 891.93 141.971 891.679 142.712C891.429 143.441 891.303 144.227 891.303 145.07L894.055 145.412C894.055 145.025 894.123 144.654 894.26 144.301C894.396 143.948 894.584 143.64 894.824 143.378C895.052 143.116 895.319 142.906 895.627 142.746C895.946 142.587 896.276 142.507 896.618 142.507C896.892 142.507 897.159 142.535 897.421 142.592C897.683 142.649 897.94 142.74 898.19 142.866C898.487 142.991 898.783 143.156 899.079 143.361C899.375 143.555 899.677 143.777 899.985 144.028C900.429 144.427 900.856 144.774 901.267 145.07C901.688 145.355 902.115 145.594 902.548 145.788C902.97 145.982 903.403 146.13 903.847 146.232C904.303 146.324 904.787 146.369 905.3 146.369C906.075 146.369 906.781 146.21 907.419 145.891C908.057 145.572 908.61 145.133 909.077 144.575C909.532 144.028 909.886 143.384 910.136 142.644C910.387 141.892 910.512 141.088 910.512 140.234Z" fill="#FFE6A7"/>
</g>
<g id="plate">
<rect id="rectancle 47" y="431" width="310" height="27" rx="7" fill="#783A0F"/>
<path id="Rectangle 38" d="M0 448H310V451C310 454.866 306.866 458 303 458H6.99999C3.134 458 0 454.866 0 451V448Z" fill="#5F2A06" fill-opacity="0.79"/>
</g>
<g id="right-hand">
<path id="ndjanda" d="M118.5 463C118.5 524 184 522.367 184 463H210C210 555.5 94 557.5 94 463H118.5Z" fill="#99582A"/>
<path id="Polygon 12" d="M210.001 463C210 510.5 179 533.32 152 533.13C125 532.94 94.0003 512 94.0003 463C110 548.5 193 548 210.001 463Z" fill="#924814" fill-opacity="0.63"/>
</g>
<g id="left-hand">
<path id="left hand" d="M790.264 901.247C830.883 855.737 780.929 813.341 741.398 857.632L722 840.319C783.594 771.308 871.469 847.059 808.543 917.561L790.264 901.247Z" fill="#99582A"/>
<path id="Polygon 10" d="M800.5 850.999C788.946 834.655 763.5 833 741.4 857.64L734 851.03C755.949 829.78 786.582 831.764 800.5 850.999Z" fill="#914A19" fill-opacity="0.63"/>
<path id="Polygon 11" d="M828.099 851.998C831.575 880.834 814.883 904.276 803.3 912.88L808.539 917.558C818.5 907 836.5 881 828.099 851.998Z" fill="#914A19" fill-opacity="0.63"/>
</g>
<g id="coffee-cup-outside">
<g id="coffee-cup-left">
<path id="Rectangle 24" d="M75.3076 315.238C67.7248 302.111 74.8022 301.074 80.3628 315.238C85.9235 329.401 75.0991 338.037 80.3628 350.473C85.6266 362.909 75.3076 349.5 75.3076 349.5C69.8066 340.533 82.8904 328.365 75.3076 315.238Z" fill="#924814" fill-opacity="0.63"/>
<path id="Rectangle 25" d="M96.3076 315.238C88.7248 302.111 95.8022 301.074 101.363 315.238C106.923 329.401 96.0991 338.037 101.363 350.473C106.627 362.909 96.3076 349.5 96.3076 349.5C90.8066 340.533 103.89 328.365 96.3076 315.238Z" fill="#924814" fill-opacity="0.63"/>
<path id="Rectangle 19_2" d="M55 363H120V414C120 419.523 115.523 424 110 424H65C59.4772 424 55 419.523 55 414V363Z" fill="#B8672D"/>
<path id="Rectangle 21" d="M55 363H120V365C94.6215 366.799 80.3813 366.838 55 365V363Z" fill="#703811"/>
<path id="Rectangle 34" d="M55 363H66V424H65C59.4772 424 55 419.523 55 414V363Z" fill="#924814" fill-opacity="0.63"/>
<path id="Rectangle 35" d="M110 424C115.523 424 120 419.523 120 414L120 413L55 413L55 414C55 419.523 59.4772 424 65 424L110 424Z" fill="#924814" fill-opacity="0.63"/>
</g>
<g id="coffee-cup-right">
<path id="Rectangle 22" d="M200.308 317.238C192.725 304.111 199.802 303.074 205.363 317.238C210.923 331.401 200.099 340.037 205.363 352.473C210.627 364.909 200.308 351.5 200.308 351.5C194.807 342.533 207.89 330.365 200.308 317.238Z" fill="#924814" fill-opacity="0.63"/>
<path id="Rectangle 23" d="M221.308 317.238C213.725 304.111 220.802 303.074 226.363 317.238C231.923 331.401 221.099 340.037 226.363 352.473C231.627 364.909 221.308 351.5 221.308 351.5C215.807 342.533 228.89 330.365 221.308 317.238Z" fill="#924814" fill-opacity="0.63"/>
<path id="Rectangle 19_3" d="M180 363H245V414C245 419.523 240.523 424 235 424H190C184.477 424 180 419.523 180 414V363Z" fill="#B8672D"/>
<path id="Rectangle 20" d="M180 363H245V365C219.622 366.799 205.381 366.838 180 365V363Z" fill="#703811"/>
<path id="Rectangle 36" d="M180 363H191V424H190C184.477 424 180 419.523 180 414V363Z" fill="#924814" fill-opacity="0.63"/>
<path id="Rectangle 37" d="M235 424C240.523 424 245 419.523 245 414L245 413L180 413L180 414C180 419.523 184.477 424 190 424L235 424Z" fill="#924814" fill-opacity="0.63"/>
</g>
</g>
<g id="mustache">
<g id="mustache-shade">
<circle id="Ellipse 7_3" cx="584.863" cy="455.5" r="11.5" fill="#50281F" fill-opacity="0.38"/>
<circle id="Ellipse 8" cx="566.863" cy="455.5" r="11.5" fill="#50281F" fill-opacity="0.38"/>
<path id="Polygon 7" d="M533.363 468C545.223 465.181 550.95 462.346 556.538 451L560.364 464C552.404 468.628 546.333 469.315 533.363 468Z" fill="#50281F" fill-opacity="0.38"/>
<path id="Polygon 8" d="M617.905 468C606.045 465.181 600.318 462.346 594.73 451L590.904 464C598.864 468.628 604.935 469.315 617.905 468Z" fill="#50281F" fill-opacity="0.38"/>
</g>
<circle id="Ellipse 7_4" cx="584.863" cy="452.5" r="11.5" fill="#50281F"/>
<circle id="Ellipse 8_2" cx="566.863" cy="452.5" r="11.5" fill="#50281F"/>
<path id="Polygon 7_2" d="M533.363 465C545.223 462.181 550.95 459.346 556.538 448L560.364 461C552.404 465.628 546.333 466.315 533.363 465Z" fill="#50281F"/>
<path id="Polygon 8_2" d="M617.905 465C606.045 462.181 600.318 459.346 594.73 448L590.904 461C598.864 465.628 604.935 466.315 617.905 465Z" fill="#50281F"/>
</g>
</g>
</svg>
